<svg id="Layer_1" data-name="Layer 1" xmlns="http://www.w3.org/2000/svg" viewBox="0 0 124.5 69.4">
   <defs>
      <linearGradient id="grad1" x1="0%" y1="0%" x2="0%" y2="100%">
        <stop offset="0%" style="stop-color:rgb(100, 238, 176);stop-opacity:1" />
        <stop offset="100%" style="stop-color:rgb(67, 77, 160);stop-opacity:1" />
      </linearGradient>
      <style>
        .cls-1{fill:url(#grad1);}
      </style>
   </defs>
   <title>round-blob-solid</title>
   <path class="cls-1" d="M39.2.9A133,133,0,0,1,67.5,3.8L80.3,5.3c8.6,1.5,15.6-2.6,24.5-1.2,2.8.5,6.9.7,9.7,1.7,7.6,2.8,16.2,12.1,12.7,23.6-5.9,19.5-33.8,15.8-51.8,23.2-11,4.5-17.8,12.5-29.8,16.2-8.7,2.7-20.8,1.6-27.3-2.3C1.7,56.5-2.7,23.6,14,10.1A43.3,43.3,0,0,1,29.8,2.3Z" transform="translate(-3.5 -0.9)"/>
</svg>
