<svg id="Layer_1" data-name="Layer 1" xmlns="http://www.w3.org/2000/svg" viewBox="0 0 373.1 71.88"><defs><style>.cls-1{fill:#fff;}</style></defs><title>ZH_Logo_Horiz_White</title><path class="cls-1" d="M167.69,48.25h4.37V62.49c0,5.88-4.24,9.74-10.15,9.74s-10.14-3.86-10.14-9.74V48.25h4.36V62.59c0,3.73,2.39,5.81,5.78,5.81s5.78-2.08,5.78-5.81Z" transform="translate(-38.21 -24.11)"/><path class="cls-1" d="M223.58,47.77c7.49,0,12.5,5.41,12.5,12.23s-5,12.23-12.5,12.23-12.5-5.38-12.5-12.23S216.12,47.77,223.58,47.77ZM215.45,60c0,4.5,3.06,8.47,8.13,8.47s8.13-4,8.13-8.47-3-8.46-8.13-8.46S215.45,55.47,215.45,60Z" transform="translate(-38.21 -24.11)"/><path class="cls-1" d="M253.07,64.19h-4.41v7.57h-4.37V48.25h11.16c5,0,8.53,3.31,8.53,8a7.77,7.77,0,0,1-5.67,7.55l6.71,8h-5.77Zm1.81-3.76c2.89,0,4.74-1.64,4.74-4.23S257.77,52,254.88,52h-6.22v8.42Z" transform="translate(-38.21 -24.11)"/><path class="cls-1" d="M200.25,64.16A7.57,7.57,0,0,1,193,68.4c-5.07,0-8.13-3.7-8.13-8.4s3.06-8.4,8.13-8.4a7.56,7.56,0,0,1,7.26,4.25l3.45-2A11.89,11.89,0,0,0,193,47.77c-7.55,0-12.53,5.44-12.53,12.23s5,12.23,12.53,12.23a11.89,11.89,0,0,0,10.68-6.08Z" transform="translate(-38.21 -24.11)"/><path class="cls-1" d="M294.14,71.76h-4.67l-1.58-4.1H277l-1.58,4.1h-4.67l10-23.51h3.3ZM282.45,53.38l-4.1,10.69h8.2Z" transform="translate(-38.21 -24.11)"/><polygon class="cls-1" points="103.96 44.02 90.82 44.02 103.96 26.1 103.96 24.13 84.82 24.13 84.82 27.68 97.57 27.68 84.82 45.17 84.82 47.64 103.96 47.64 103.96 44.02"/><path class="cls-1" d="M319,48.31h2.68V71.77H319V61.18H305.16V71.77h-2.68V48.31h2.68V58.7H319Zm23.77-.47A12.06,12.06,0,0,0,330.3,60c0,6.93,5.3,12.2,12.47,12.2a12.2,12.2,0,1,0,0-24.4Zm0,22a9.86,9.86,0,0,1,0-19.71A9.53,9.53,0,0,1,352.55,60,9.54,9.54,0,0,1,342.77,69.89Zm42-21.58h2.08V71.77h-2.38V54L375.29,72.1,366.11,54v17.8h-2.37V48.31h2.07l9.48,19.1Zm26.53,21.11v2.35H396.36V48.31h14.81v2.34H399v8h11.83V61H399v8.41Z" transform="translate(-38.21 -24.11)"/><path class="cls-1" d="M38.21,24.11V65.18a30.71,30.71,0,0,0,8.25,20.95v0h0a30.79,30.79,0,0,0,53.35-21V24.11ZM80.27,48.65,71,38.75l9.59-10.2L97,44v4.65ZM60.53,83.31V51.49h17V83.31ZM41.05,44,57.49,28.55l9.59,10.2-9.3,9.9H41.05ZM59.88,27H78.16L69,36.68Zm1.79,21.7L69,40.83l7.35,7.82ZM97,40.1,83,27H97ZM55,27l-14,13.15V27Zm-14,24.54H57.69V83.31H47.75a27.86,27.86,0,0,1-6.7-18.13Zm9.49,34.66h37a27.91,27.91,0,0,1-37,0ZM90.3,83.31H80.36V51.49H97V65.18A27.86,27.86,0,0,1,90.3,83.31Z" transform="translate(-38.21 -24.11)"/></svg>