<svg width="10" height="15" viewBox="0 0 10 15" xmlns="http://www.w3.org/2000/svg"><title>Shape</title><g id="Retailer-Partners" fill="none" fill-rule="evenodd" transform="translate(-1035 -12)"><g id="Nav/Secondary-(Top)" fill="#9FB2FE" fill-rule="nonzero"><path d="M1043.75 17.87v-1.957c0-2.161-1.679-3.913-3.75-3.913-2.071 0-3.75 1.752-3.75 3.913v1.956c-.69 0-1.25.584-1.25 1.305v6.522c0 .72.56 1.304 1.25 1.304h7.5c.69 0 1.25-.584 1.25-1.304v-6.522c0-.72-.56-1.305-1.25-1.305zm-6.25-1.957c0-1.44 1.12-2.609 2.5-2.609s2.5 1.168 2.5 2.61v1.955h-5v-1.956zm6.25 9.783h-7.5v-6.522h7.5v6.522zm-4.375-2.79v.833c0 .36.28.652.625.652a.64.64 0 0 0 .625-.652v-.833a1.31 1.31 0 0 0 .625-1.123c0-.721-.56-1.305-1.25-1.305s-1.25.584-1.25 1.305c0 .481.253.897.625 1.123z" id="Shape"/></g></g></svg>