<svg xmlns="http://www.w3.org/2000/svg" viewBox="0 0 72 72"><title>Artboard 22</title><g id="Layer_1" data-name="Layer 1"><ellipse cx="38.471" cy="40.756" rx="26.195" ry="18.351" style="fill:#a9ffd6"/><polygon points="27.262 24.19 22.194 42.737 34.779 55.523 52.959 51.627 57.861 32.748 44.668 20.362 27.262 24.19" style="fill:#a2acff"/><path d="M63.21,60.493l-9.579-9.325,4.885-17.741a.617.617,0,0,0-.158-.6l-13.11-13.11a.617.617,0,0,0-.589-.161l-17.82,4.568-7.171-7.05.1-.167,5.373-9.44a.616.616,0,0,0-.7-.9.61.61,0,0,0-.371.288L18.319,16.97l-.1.057-11,4.035a.615.615,0,0,0-.365.789.627.627,0,0,0,.788.366l11.292-4.14,1.213,1.192L9.362,23.223A.616.616,0,0,0,9,24.012a.63.63,0,0,0,.789.366l11.329-4.154L25.972,25l-.036.139L21.4,42.812a.625.625,0,0,0,.161.588l12.98,12.979a.627.627,0,0,0,.588.161l17.627-4.5,9.593,9.337a.629.629,0,0,0,.87-.012.617.617,0,0,0-.012-.869ZM52.442,50.848l-.14.036L35.167,55.261,22.684,42.778l.035-.138,4.442-17.328,17.465-4.476L57.234,33.445l-.038.14Z" style="fill:#36384b"/><path d="M30.453,29.556a.6.6,0,0,0-.056-.467.612.612,0,0,0-.371-.291.629.629,0,0,0-.167-.023.613.613,0,0,0-.589.45l-3.215,11.5a.612.612,0,0,0,.425.757.618.618,0,0,0,.759-.426Z" style="fill:#36384b"/><path d="M43.017,25.055a.609.609,0,0,0,.19.43l8.648,8.23a.632.632,0,0,0,.872-.022.617.617,0,0,0-.023-.87l-8.648-8.23a.616.616,0,0,0-.424-.169h-.016a.617.617,0,0,0-.6.631Z" style="fill:#36384b"/><path d="M36.937,51.109a.609.609,0,0,0-.067.466.615.615,0,0,0,.748.443l11.565-2.964a.615.615,0,0,0,.443-.749.617.617,0,0,0-.6-.461.656.656,0,0,0-.151.018L37.313,50.826A.61.61,0,0,0,36.937,51.109Z" style="fill:#36384b"/><rect x="31.138" y="15.772" width="0.583" height="1.166" style="fill:#36384b"/><rect x="31.138" y="18.687" width="0.583" height="1.166" style="fill:#36384b"/><rect x="32.304" y="17.521" width="1.166" height="0.583" style="fill:#36384b"/><polyline points="29.389 17.521 30.555 17.521 30.555 18.104 29.389 18.104" style="fill:#36384b"/><rect x="62.792" y="40.173" width="0.583" height="1.166" style="fill:#36384b"/><rect x="62.792" y="43.088" width="0.583" height="1.166" style="fill:#36384b"/><rect x="63.958" y="41.922" width="1.166" height="0.583" style="fill:#36384b"/><polyline points="61.043 41.922 62.209 41.922 62.209 42.505 61.043 42.505" style="fill:#36384b"/><rect x="43.376" y="58.84" width="0.583" height="1.166" style="fill:#36384b"/><rect x="43.376" y="61.755" width="0.583" height="1.166" style="fill:#36384b"/><rect x="44.542" y="60.589" width="1.166" height="0.583" style="fill:#36384b"/><polyline points="41.627 60.589 42.793 60.589 42.793 61.172 41.627 61.172" style="fill:#36384b"/><circle cx="36.098" cy="14.732" r="0.583" style="fill:#a9ffd6"/></g></svg>