<svg id="Layer_1" data-name="Layer 1" xmlns="http://www.w3.org/2000/svg" viewBox="0 0 32.819 33.733"><title>icon-bed-bug</title><ellipse cx="16.29" cy="17.176" rx="16.29" ry="11.412" style="fill:#a9ffd6"/><path d="M26.684,2.657l-.046.039c-.747.635-1.319,1.133-1.856,1.615l-.926.889c-.094.106-.2.219-.3.332-.187.2-.381.41-.557.629-.089.122-.188.245-.286.367a6.561,6.561,0,0,0-.5.68c-.077.124-.157.244-.236.364-.118.179-.239.361-.349.551.142.039.286.084.426.132.077-.141.157-.279.238-.417.065-.112.131-.225.2-.339a6.325,6.325,0,0,1,.458-.695c.088-.122.176-.243.26-.369.166-.23.344-.441.517-.646.1-.116.194-.231.288-.348l.876-.932c.543-.539,1.125-1.1,1.835-1.77l.019-.038.055-.678c.023-.286.047-.577.072-.868-.032.281-.066.562-.1.838Z" transform="translate(-1.591 -1.134)" style="fill:#36384b"/><path d="M12.5,2.722l.018.017c.742.7,1.306,1.245,1.831,1.766l.871.926c.1.124.2.237.291.35.174.207.355.422.519.648.087.131.175.253.263.374a6.333,6.333,0,0,1,.46.7c.062.111.126.221.191.332.087.148.174.3.256.449.142-.05.285-.1.425-.137-.114-.2-.24-.389-.364-.575-.079-.119-.159-.238-.235-.36a6.669,6.669,0,0,0-.5-.684c-.1-.122-.2-.244-.289-.37-.171-.213-.364-.421-.551-.622q-.159-.169-.314-.343l-.921-.883C13.79,3.713,13.115,3.134,12.6,2.7l-.047-.039-.077-.633c-.036-.293-.073-.591-.107-.89.029.314.054.626.078.934Z" transform="translate(-1.591 -1.134)" style="fill:#36384b"/><path d="M13.017,11.589l-.45-2.051a.29.29,0,0,0-.03-.091L11.8,8.239a.178.178,0,0,0-.113-.085.115.115,0,0,0-.031,0,.147.147,0,0,0-.084.027.251.251,0,0,0-.064.314l.642,1.226.356,2.184a.306.306,0,0,0,.126.206l2.132,1.4a6.713,6.713,0,0,1,.647-.555Z" transform="translate(-1.591 -1.134)" style="fill:#36384b"/><path d="M27.074,9.669,27.7,8.49a.251.251,0,0,0-.055-.307.157.157,0,0,0-.12-.031.176.176,0,0,0-.116.086l-.734,1.208a.268.268,0,0,0-.026.068L26.2,11.588l-2.4,1.367a6.435,6.435,0,0,1,.648.555l2.11-1.388A.328.328,0,0,0,26.7,11.9Z" transform="translate(-1.591 -1.134)" style="fill:#36384b"/><path d="M29.433,32.724a.109.109,0,0,0,.074.041.1.1,0,0,0,.073-.026.179.179,0,0,0,.02-.225l-1.16-1.645.009-.061,1.312-8.9a.5.5,0,0,0-.177-.47l-2.759-2.083c.029.464.047.937.056,1.409L28.9,22.112,28.06,30.9a.251.251,0,0,0,.044.189Z" transform="translate(-1.591 -1.134)" style="fill:#36384b"/><path d="M32.654,16.339l1.664-.745a.188.188,0,0,0,.081-.226.156.156,0,0,0-.079-.1.1.1,0,0,0-.085,0l-1.627.667-4.288-2.02a.288.288,0,0,0-.256,0L25.45,14.944c.136.332.876.71.973,1.129l1.825-1.2,4.3,1.468A.139.139,0,0,0,32.654,16.339Z" transform="translate(-1.591 -1.134)" style="fill:#36384b"/><path d="M11.262,13.92a.287.287,0,0,0-.254,0L6.72,15.936l-1.627-.667a.1.1,0,0,0-.038-.008.111.111,0,0,0-.045.01.156.156,0,0,0-.08.093.188.188,0,0,0,.08.231l1.665.744a.121.121,0,0,0,.084,0l4.321-1.475,1.825,1.205c.1-.419.837-.8.973-1.129Z" transform="translate(-1.591 -1.134)" style="fill:#36384b"/><path d="M9.817,32.766a.109.109,0,0,0,.077-.043l1.329-1.636a.232.232,0,0,0,.047-.165l-.838-8.81,2.015-1.347c.009-.476.028-.948.056-1.409L9.77,21.419a.515.515,0,0,0-.2.49l1.322,8.96-1.16,1.645a.182.182,0,0,0,.014.219A.105.105,0,0,0,9.817,32.766Z" transform="translate(-1.591 -1.134)" style="fill:#36384b"/><path d="M16.388,11.929a2.181,2.181,0,0,1,.069-1.3,3.833,3.833,0,0,1,2.357-1.053l.235-.027.083-.536c0-.175.36-.491.569-.516.135.025.49.341.492.469l.087.583.235.027a3.835,3.835,0,0,1,2.355,1.052,2.121,2.121,0,0,1,.087,1.235l-3.341,1.281Z" transform="translate(-1.591 -1.134)" style="fill:#a2acff"/><path d="M19.664,8.841a.793.793,0,0,1,.22.19l0,.029.047.3.073.468.471.054a3.735,3.735,0,0,1,2.121.9,1.67,1.67,0,0,1,.073.854l-3.059,1.173L16.664,11.7a1.733,1.733,0,0,1,.064-.921,3.739,3.739,0,0,1,2.12-.9l.473-.054.072-.469.046-.3,0-.027a.8.8,0,0,1,.221-.19m0-.655c-.314.038-.838.45-.838.778l-.047.3c-.728.083-2.2.526-2.591,1.208a2.6,2.6,0,0,0-.066,1.688l3.5,1.314,3.611-1.386a2.547,2.547,0,0,0-.087-1.616c-.388-.682-1.864-1.125-2.591-1.208l-.047-.3c0-.328-.524-.74-.84-.778Z" transform="translate(-1.591 -1.134)" style="fill:#36384b"/><path d="M19.588,34.495a9.265,9.265,0,0,1-.816-.68,5.457,5.457,0,0,0-.839-.526,7.589,7.589,0,0,1-3.011-2.506,20.668,20.668,0,0,1-1.968-13.918,5.306,5.306,0,0,1,2.644-3.69L19.391,14.6a.667.667,0,0,0,.227.042.635.635,0,0,0,.23-.044l3.808-1.46a5.248,5.248,0,0,1,2.718,3.726,20.664,20.664,0,0,1-1.968,13.918A7.591,7.591,0,0,1,21.3,33.275a5.2,5.2,0,0,0-.894.54A9.566,9.566,0,0,1,19.588,34.495Z" transform="translate(-1.591 -1.134)" style="fill:#a2acff"/><path d="M23.638,13.478a5,5,0,0,1,2.434,3.46,20.342,20.342,0,0,1-1.937,13.694A7.373,7.373,0,0,1,21.149,33a5.34,5.34,0,0,0-.954.584c-.269.243-.466.408-.607.52-.142-.112-.338-.277-.609-.521a5.523,5.523,0,0,0-.893-.566,7.377,7.377,0,0,1-2.893-2.386,20.345,20.345,0,0,1-1.937-13.694,5.057,5.057,0,0,1,2.364-3.422l3.662,1.376a.95.95,0,0,0,.336.061.962.962,0,0,0,.342-.064l3.678-1.411m.029-.677-3.93,1.508a.348.348,0,0,1-.119.022.319.319,0,0,1-.117-.022l-3.92-1.472a5.542,5.542,0,0,0-2.929,3.956,20.979,20.979,0,0,0,2,14.142c.969,1.739,3.408,2.657,3.913,3.112a7.523,7.523,0,0,0,1.024.819,7.34,7.34,0,0,0,1.024-.819c.506-.455,3.1-1.373,4.067-3.112a20.979,20.979,0,0,0,2-14.142A5.5,5.5,0,0,0,23.667,12.8Z" transform="translate(-1.591 -1.134)" style="fill:#36384b"/><rect x="4.47" y="19.256" width="0.363" height="0.725" style="fill:#36384b"/><rect x="4.47" y="21.068" width="0.363" height="0.725" style="fill:#36384b"/><rect x="5.195" y="20.343" width="0.725" height="0.363" style="fill:#36384b"/><polyline points="3.383 20.343 4.108 20.343 4.108 20.706 3.383 20.706" style="fill:#36384b"/><rect x="30.148" y="26.854" width="0.363" height="0.725" style="fill:#36384b"/><rect x="30.148" y="28.667" width="0.363" height="0.725" style="fill:#36384b"/><rect x="30.873" y="27.942" width="0.725" height="0.363" style="fill:#36384b"/><polyline points="29.06 27.942 29.785 27.942 29.785 28.305 29.06 28.305" style="fill:#36384b"/><path d="M15.229,26.319c.334.965,1.234,3.291,2.353,4.055.418.338.792.589,1.122.81a8.322,8.322,0,0,1,.823.608l.033-.045.033.045a8.364,8.364,0,0,1,.822-.607c.337-.227.709-.477,1.077-.777,1.158-.793,2.063-3.123,2.4-4.088a.23.23,0,0,0-.011-.18.236.236,0,0,0-.141-.118.234.234,0,0,0-.287.144c-.394,1.141-1.209,3.163-2.238,3.868-.37.3-.735.547-1.058.764-.165.11-.313.214-.46.32l-.136.1-.136-.1c-.147-.106-.295-.209-.459-.32-.324-.218-.689-.463-1.1-.8-.992-.679-1.8-2.695-2.193-3.835a.228.228,0,0,0-.217-.154.242.242,0,0,0-.07.01.233.233,0,0,0-.14.117A.226.226,0,0,0,15.229,26.319Z" transform="translate(-1.591 -1.134)" style="fill:#36384b"/><path d="M15.415,23.148a14.016,14.016,0,0,0,8.55,0" transform="translate(-1.591 -1.134)" style="fill:none;stroke:#36384b;stroke-linecap:round;stroke-miterlimit:10;stroke-width:0.6218540904599853px"/><path d="M17.228,25.522a9.234,9.234,0,0,0,4.923,0" transform="translate(-1.591 -1.134)" style="fill:none;stroke:#36384b;stroke-linecap:round;stroke-miterlimit:10;stroke-width:0.6218540904599853px"/></svg>