<svg xmlns="http://www.w3.org/2000/svg" viewBox="0 0 72 72"><title>Artboard 36</title><g id="Layer_1" data-name="Layer 1"><ellipse cx="30.195" cy="44.367" rx="26.195" ry="18.351" style="fill:#a9ffd6"/><polygon points="35.901 21.917 41.517 31.918 44.122 30.456 39.967 20.639 35.901 21.917" style="fill:#a2acff"/><polygon points="44.517 12.189 44.671 17.609 49.517 16.63 49.517 13.667 44.517 12.189" style="fill:#a2acff"/><polygon points="24.107 29.403 34.311 29.403 34.311 22.302 44.517 19.302 44.517 10.993 42.839 10.147 26.977 8.993 23.46 10.378 14.284 15.92 13.976 18.42 24.107 23.994 24.107 29.403" style="fill:#fff"/><path d="M24.107,29.4h10.2L44.839,41.354l1.435,6.78V62.792c-.478,2.53-1.906,3.629-4.293,3.282H23.541c-2.162.524-3.561-.755-4.206-3.811Z" style="fill:#fff"/><path d="M25.131,49.458,23.592,59.689c-.4,1.8-.042,3.209,3.077,3.154H40.286c1.6-.452,3.057-1.091,2.385-4.385V49.14c-2.7.788-5.364,1.244-7.924.472C31.084,48.481,27.678,47.956,25.131,49.458Z" style="fill:#a2acff"/><path d="M50.008,15.8V14.253a1.545,1.545,0,0,0-1.246-1.486l-3.689-.655v-.38a1.864,1.864,0,0,0-1.7-1.847L28.1,8.607c-.133-.011-.275-.016-.421-.016A9.263,9.263,0,0,0,23.4,9.729L15,14.892a2.956,2.956,0,0,0-1.633,2.515,2.958,2.958,0,0,0,1.742,2.44L23.1,24.284a1.658,1.658,0,0,1,.736,1.251V28.32a18.686,18.686,0,0,1-.165,2.263l-4.64,31.658a3.868,3.868,0,0,0,3.926,4.544H42.364a4.507,4.507,0,0,0,4.5-4.5V46.857a12.224,12.224,0,0,0-2.792-7.223l-8.763-9.647a2.966,2.966,0,0,1-.643-1.667V23.18a1.009,1.009,0,0,1,.664-.887l.106-.033.045.1a62.385,62.385,0,0,0,5.061,9.3,1.842,1.842,0,0,0,2.442.559l.563-.331a1.88,1.88,0,0,0,.733-2.4,57.206,57.206,0,0,1-3.167-8.473l-.036-.125,2.411-.586a2.152,2.152,0,0,0,1.582-2.015v-.35l3.689-.653A1.546,1.546,0,0,0,50.008,15.8ZM43.229,40.4a11.291,11.291,0,0,1,2.493,6.454V62.282a3.362,3.362,0,0,1-3.358,3.359H22.958a2.727,2.727,0,0,1-2.794-3.234L24.8,30.749c.027-.184.052-.4.076-.622l.012-.112H28.78v16.5a.573.573,0,0,0,1.145,0v-16.5h4.049l.035.066a3.308,3.308,0,0,0,.457.676Zm.017-10.427a.741.741,0,0,1-.275.924l-.564.332a.662.662,0,0,1-.34.091.678.678,0,0,1-.567-.293,61.3,61.3,0,0,1-4.868-8.906l-.061-.137,3.4-.825.033.115A58.515,58.515,0,0,0,43.246,29.976Zm.683-11.685a1,1,0,0,1-.709.9l-8.114,1.973a2.151,2.151,0,0,0-1.583,2.015v5.14a2.949,2.949,0,0,0,.036.408l.019.142h-8.61l0-.13c.006-.148.008-.293.008-.42V25.535a2.757,2.757,0,0,0-1.325-2.251l-7.99-4.437a1.913,1.913,0,0,1-1.155-1.465A1.908,1.908,0,0,1,15.6,15.867L24,10.7a7.865,7.865,0,0,1,4.01-.957l15.268,1.277a.734.734,0,0,1,.652.708ZM48.863,15.8a.4.4,0,0,1-.3.359l-3.489.618v-3.5l3.489.619a.4.4,0,0,1,.3.359Z" style="fill:#36384b"/><path d="M43.247,49.045a.573.573,0,0,0-.767-.538c-.15.055-.295.109-.442.165l-.058.021a9.493,9.493,0,0,1-3.944.749,9.441,9.441,0,0,1-3.927-.748,10.519,10.519,0,0,0-4.333-.824,10.578,10.578,0,0,0-4.343.822l-.06.023c-.182.068-.364.137-.552.2a.572.572,0,0,0-.378.458l-1.569,10.7a2.945,2.945,0,0,0,2.987,3.457H39.847a3.408,3.408,0,0,0,3.4-3.4S43.247,50.038,43.247,49.045Zm-3.4,13.343H25.861a1.8,1.8,0,0,1-1.855-2.148l1.52-10.36.315-.118a9.479,9.479,0,0,1,3.935-.747,9.441,9.441,0,0,1,3.927.748,10.523,10.523,0,0,0,4.333.824,10.37,10.37,0,0,0,3.9-.653l.168-.062,0,10.256A2.262,2.262,0,0,1,39.847,62.388Z" style="fill:#36384b"/><path d="M32.275,57.946a6.893,6.893,0,0,1-2.35-5.184V50.7a.573.573,0,0,0-1.145,0v2.06a8.048,8.048,0,0,0,2.741,6.046.592.592,0,0,0,.807-.053.573.573,0,0,0-.053-.809Z" style="fill:#36384b"/><rect x="52.659" y="11.571" width="11.104" height="1.236" transform="translate(-1.19 9.248) rotate(-8.992)" style="fill:#36384b"/><rect x="57.593" y="12.868" width="1.236" height="11.104" transform="translate(30.919 73.037) rotate(-81.008)" style="fill:#36384b"/><rect x="60.977" y="14.685" width="7.972" height="1.236" style="fill:#36384b"/><rect x="54.659" y="14.685" width="4.928" height="1.236" style="fill:#36384b"/><rect x="46.726" y="4.194" width="0.583" height="1.166" style="fill:#36384b"/><rect x="46.726" y="7.109" width="0.583" height="1.166" style="fill:#36384b"/><rect x="47.892" y="5.943" width="1.166" height="0.583" style="fill:#36384b"/><rect x="44.976" y="5.943" width="1.166" height="0.583" style="fill:#36384b"/><rect x="50.698" y="25.022" width="0.583" height="1.166" style="fill:#36384b"/><rect x="50.698" y="27.937" width="0.583" height="1.166" style="fill:#36384b"/><rect x="51.864" y="26.771" width="1.166" height="0.583" style="fill:#36384b"/><rect x="48.949" y="26.771" width="1.166" height="0.583" style="fill:#36384b"/><circle cx="12.833" cy="25.74" r="1.166" style="fill:#a9ffd6"/><circle cx="56.557" cy="27.701" r="0.583" style="fill:#a9ffd6"/></g></svg>