<svg xmlns="http://www.w3.org/2000/svg" viewBox="0 0 72 72"><title>Artboard 31</title><g id="Layer_1" data-name="Layer 1"><ellipse cx="32.354" cy="49.016" rx="26.195" ry="18.351" style="fill:#a9ffd6"/><rect x="22.992" y="17.896" width="30.057" height="38.936" style="fill:#fff"/><rect x="39.208" y="48.505" width="10.52" height="1.02" style="fill:#36384b"/><rect x="39.208" y="45.655" width="10.52" height="1.02" style="fill:#36384b"/><rect x="39.208" y="42.805" width="10.52" height="1.02" style="fill:#36384b"/><rect x="39.208" y="39.955" width="10.52" height="1.02" style="fill:#36384b"/><rect x="39.208" y="37.105" width="10.52" height="1.02" style="fill:#36384b"/><path d="M44.888,23.505a4.835,4.835,0,1,1-4.84,4.84.037.037,0,0,0,.01-.03h4.73v-4.81Z" style="fill:#36384b"/><path d="M44,22.815v4.89h-4.78a.09.09,0,0,0-.01-.05A4.853,4.853,0,0,1,44,22.815Z" style="fill:#a9ffd6"/><polygon points="36.798 49.035 36.798 49.525 26.278 49.525 26.278 39.005 26.768 39.005 26.768 49.035 36.798 49.035" style="fill:#36384b"/><rect x="26.278" y="34.215" width="10.52" height="1.02" style="fill:#36384b"/><rect x="26.278" y="31.365" width="10.52" height="1.02" style="fill:#36384b"/><rect x="26.278" y="28.515" width="10.52" height="1.02" style="fill:#36384b"/><rect x="26.278" y="25.665" width="10.52" height="1.03" style="fill:#36384b"/><rect x="26.278" y="22.815" width="10.52" height="1.03" style="fill:#36384b"/><rect x="33.258" y="39.945" width="1.91" height="8.25" style="fill:#a9ffd6"/><rect x="30.448" y="41.845" width="1.91" height="6.35" style="fill:#a9ffd6"/><rect x="27.638" y="43.755" width="1.91" height="4.44" style="fill:#a9ffd6"/><path d="M21.551,60.608a2.45,2.45,0,0,1-2.446-2.446V14.183a2.449,2.449,0,0,1,2.446-2.446H54.456A2.448,2.448,0,0,1,56.9,14.183V58.162a2.449,2.449,0,0,1-2.445,2.446Zm31.254-4.276V18.691H23.2V56.332Z" style="fill:#a2acff"/><path d="M54.455,12.237A1.946,1.946,0,0,1,56.4,14.183V58.162a1.946,1.946,0,0,1-1.946,1.946h-32.9a1.946,1.946,0,0,1-1.946-1.946V14.183a1.946,1.946,0,0,1,1.946-1.946h32.9M22.7,56.832h30.6V18.191H22.7V56.832M54.455,11.237h-32.9a2.949,2.949,0,0,0-2.946,2.946V58.162a2.95,2.95,0,0,0,2.946,2.946h32.9A2.949,2.949,0,0,0,57.4,58.162V14.183a2.949,2.949,0,0,0-2.946-2.946ZM23.7,19.191h28.6V55.832H23.7V19.191Z" style="fill:#36384b"/><path d="M27.568,12.737V8.578h1.746c1.531-2.23,4.864-3.657,8.6-3.657s7.067,1.427,8.6,3.657h1.554v4.159ZM37.753,6.99a1.46,1.46,0,1,0,1.459,1.46A1.462,1.462,0,0,0,37.753,6.99Z" style="fill:#a9ffd6"/><path d="M37.912,5.421c3.784,0,7.013,1.516,8.326,3.656h1.325v3.16H28.068V9.077h1.518c1.313-2.14,4.542-3.656,8.326-3.656m-.16,4.989a1.96,1.96,0,1,0-1.96-1.96,1.961,1.961,0,0,0,1.96,1.96m.16-5.989c-3.774,0-7.169,1.419-8.853,3.656H27.068v5.16h21.5V8.077h-1.8c-1.684-2.237-5.079-3.656-8.853-3.656Zm-.16,4.989a.96.96,0,1,1,.96-.96.962.962,0,0,1-.96.96Z" style="fill:#36384b"/><circle cx="53.305" cy="55.768" r="7.663" style="fill:#a2acff"/><path d="M53.305,48.605a7.163,7.163,0,1,1-7.163,7.163,7.163,7.163,0,0,1,7.163-7.163m0-1a8.163,8.163,0,1,0,8.163,8.163,8.172,8.172,0,0,0-8.163-8.163Z" style="fill:#36384b"/><path d="M56.264,52.714,52,57.1,50.12,55.157A1.039,1.039,0,0,0,48.626,56.6l2.621,2.711a1.036,1.036,0,0,0,.745.317h0a1.037,1.037,0,0,0,.744-.314l5.015-5.151a1.039,1.039,0,0,0-1.489-1.45Z" style="fill:#fff"/><rect x="20.37" y="3.38" width="0.583" height="1.166" style="fill:#36384b"/><rect x="20.37" y="6.296" width="0.583" height="1.166" style="fill:#36384b"/><rect x="21.536" y="5.13" width="1.166" height="0.583" style="fill:#36384b"/><polyline points="18.621 5.13 19.787 5.13 19.787 5.713 18.621 5.713" style="fill:#36384b"/><rect x="64.373" y="37.904" width="0.583" height="1.166" style="fill:#36384b"/><rect x="64.373" y="40.82" width="0.583" height="1.166" style="fill:#36384b"/><rect x="65.539" y="39.654" width="1.166" height="0.583" style="fill:#36384b"/><polyline points="62.623 39.654 63.79 39.654 63.79 40.237 62.623 40.237" style="fill:#36384b"/><circle cx="15.813" cy="9.947" r="1.166" style="fill:#a9ffd6"/><circle cx="61.992" cy="26.691" r="0.583" style="fill:#a9ffd6"/></g></svg>