<svg id="Layer_1" data-name="Layer 1" xmlns="http://www.w3.org/2000/svg" viewBox="0 0 31.083 29.51"><title>icon-animal</title><ellipse cx="15.581" cy="16.731" rx="15.502" ry="10.86" style="fill:#a9ffd6"/><rect x="25.407" y="19.859" width="0.345" height="0.69" style="fill:#36384b"/><rect x="25.407" y="21.584" width="0.345" height="0.69" style="fill:#36384b"/><rect x="26.097" y="20.894" width="0.69" height="0.345" style="fill:#36384b"/><polyline points="24.372 20.894 25.062 20.894 25.062 21.239 24.372 21.239" style="fill:#36384b"/><rect x="1.035" y="11.04" width="0.345" height="0.69" style="fill:#36384b"/><rect x="1.035" y="12.765" width="0.345" height="0.69" style="fill:#36384b"/><rect x="1.725" y="12.075" width="0.69" height="0.345" style="fill:#36384b"/><polyline points="0 12.075 0.69 12.075 0.69 12.42 0 12.42" style="fill:#36384b"/><rect x="29.203" y="5.299" width="0.345" height="0.69" style="fill:#36384b"/><rect x="29.203" y="7.024" width="0.345" height="0.69" style="fill:#36384b"/><rect x="29.893" y="6.334" width="0.69" height="0.345" style="fill:#36384b"/><polyline points="28.168 6.334 28.858 6.334 28.858 6.679 28.168 6.679" style="fill:#36384b"/><path d="M24.065,25.73c-.685-4.317-2.4-7.211-4.546-8.8,2.043-2.6,3.791-5.411,3.791-9.115,0-2.888-1.571-4.935-3.216-3.172C17.245,7.7,17.105,9.589,16.165,15.541a7.176,7.176,0,0,0-2.028,0C13.2,9.589,13.057,7.7,10.209,4.648,8.564,2.885,6.993,4.932,6.993,7.82c0,3.7,1.748,6.512,3.791,9.115-2.148,1.584-3.861,4.478-4.546,8.8-.763,4.817,3.4,7.1,8.913,7.1S24.828,30.547,24.065,25.73Z" transform="translate(-2.105 -3.656)" style="fill:#a2acff"/><path d="M7.073,30.384c1.532,1.794,4.4,2.783,8.078,2.783s6.547-.989,8.079-2.783a5.148,5.148,0,0,0,1.082-2.079,6.452,6.452,0,0,0,.085-2.628,18.539,18.539,0,0,0-1.325-4.642,11.777,11.777,0,0,0-2.14-3.292,9.288,9.288,0,0,0-.764-.725L20,16.872l.136-.179a22.117,22.117,0,0,0,1.962-2.978A12.223,12.223,0,0,0,23.647,7.82a6.393,6.393,0,0,0-.611-2.873,2.028,2.028,0,0,0-1.713-1.291,2.042,2.042,0,0,0-1.475.762C17.1,7.359,16.8,9.288,16,14.443l-.079.508-.034.214-.216-.015c-.171-.011-.343-.018-.516-.018s-.344.007-.515.018l-.217.015-.033-.214-.07-.446-.01-.062C13.5,9.288,13.2,7.359,10.455,4.418A2.044,2.044,0,0,0,8.98,3.656,2.027,2.027,0,0,0,7.267,4.947,6.393,6.393,0,0,0,6.656,7.82a12.222,12.222,0,0,0,1.552,5.9,22.132,22.132,0,0,0,1.963,2.978l.136.179-.172.146a9.305,9.305,0,0,0-.764.725,11.777,11.777,0,0,0-2.14,3.292,18.539,18.539,0,0,0-1.325,4.642,6.453,6.453,0,0,0,.084,2.628A5.162,5.162,0,0,0,7.073,30.384ZM16.585,15.04l.077-.493c.8-5.146,1.074-6.879,3.678-9.669a1.418,1.418,0,0,1,.983-.548c.91,0,1.65,1.566,1.65,3.49,0,3.528-1.629,6.159-3.39,8.476l-.132.174-.185-.119-1.156-.612a7.516,7.516,0,0,0-1.342-.431l-.217-.048ZM7.329,7.82c0-1.924.741-3.49,1.651-3.49a1.42,1.42,0,0,1,.983.548c2.6,2.79,2.874,4.523,3.678,9.669l.077.493.034.22-.217.048a7.526,7.526,0,0,0-1.343.431l-1.119.59-.184.116L10.72,16.3C8.959,13.978,7.329,11.348,7.329,7.82ZM6.571,25.783A14.214,14.214,0,0,1,9.862,18.2a7.031,7.031,0,0,1,10.579,0,14.214,14.214,0,0,1,3.291,7.578,4.937,4.937,0,0,1-1.014,4.163c-1.4,1.642-4.09,2.547-7.567,2.547s-6.164-.905-7.566-2.547A4.937,4.937,0,0,1,6.571,25.783Z" transform="translate(-2.105 -3.656)" style="fill:#36384b"/><path d="M10.137,24.482a1,1,0,0,0,1.525.287.278.278,0,0,0,.09-.191,2.275,2.275,0,0,0-.306-1.625.566.566,0,0,0-.412-.183,1.035,1.035,0,0,0-.766.517A1.133,1.133,0,0,0,10.137,24.482Z" transform="translate(-2.105 -3.656)" style="fill:#36384b"/><path d="M20.166,24.482a1.134,1.134,0,0,0-.132-1.2,1.032,1.032,0,0,0-.765-.517.566.566,0,0,0-.412.183,2.268,2.268,0,0,0-.306,1.626.284.284,0,0,0,.09.19A1,1,0,0,0,20.166,24.482Z" transform="translate(-2.105 -3.656)" style="fill:#36384b"/><path d="M12.789,29.715a2.045,2.045,0,0,0,1.311.074,1.668,1.668,0,0,0,.825-.535l.227-.27.226.27a1.674,1.674,0,0,0,.824.535,2.041,2.041,0,0,0,1.312-.074,1.993,1.993,0,0,0,1-.844.28.28,0,0,0,.027-.212.278.278,0,0,0-.509-.064,1.53,1.53,0,0,1-1.678.661c-.319-.094-.863-.4-.929-1.428,0-.105.005-.178,0-.252v-.165l.837-.527a.279.279,0,0,0,.087-.383.278.278,0,0,0-.384-.087l-.821.517-.823-.517a.278.278,0,0,0-.383.087.277.277,0,0,0,.087.383l.837.527v.165c0,.074,0,.147,0,.218-.066,1.058-.611,1.368-.929,1.462a1.528,1.528,0,0,1-1.678-.661.275.275,0,0,0-.168-.13.278.278,0,0,0-.314.406A1.984,1.984,0,0,0,12.789,29.715Z" transform="translate(-2.105 -3.656)" style="fill:#36384b"/><path d="M11.8,16.228C9.167,12.723,8,8.778,8.748,5.889c.055-.122.17-.319.317-.319.8,0,2.8,3.507,3.79,10.212Z" transform="translate(-2.105 -3.656)" style="fill:#fff"/><path d="M9.1,5.878c.622.246,2.461,3.4,3.43,9.721l-.629.266C9.43,12.5,8.333,8.759,9.022,6.009A.745.745,0,0,1,9.1,5.878m-.033-.6c-.241,0-.447.174-.6.539C7.647,8.955,9.019,13.1,11.7,16.59l1.477-.624c-.93-6.487-2.934-10.692-4.116-10.691Z" transform="translate(-2.105 -3.656)" style="fill:#36384b"/><path d="M17.611,15.782C18.605,9.077,20.6,5.57,21.4,5.57c.147,0,.261.2.331.361.736,2.847-.433,6.791-3.066,10.3Z" transform="translate(-2.105 -3.656)" style="fill:#fff"/><path d="M21.368,5.878a.745.745,0,0,1,.076.131c.689,2.75-.408,6.487-2.877,9.856l-.629-.266c.97-6.319,2.808-9.475,3.43-9.721m.033-.6c-1.181,0-3.185,4.2-4.115,10.691l1.477.624c2.685-3.492,4.056-7.635,3.242-10.776-.156-.365-.363-.539-.6-.539Z" transform="translate(-2.105 -3.656)" style="fill:#36384b"/></svg>