<svg width="13" height="13" viewBox="0 0 13 13" xmlns="http://www.w3.org/2000/svg"><title>Shape</title><g id="Nav/Secondary-(Top)" fill="none" fill-rule="evenodd" transform="translate(-927 -13)"><path d="M939.802 24.84l-3.204-3.217a5.125 5.125 0 0 0 1.275-3.374c0-2.894-2.439-5.249-5.436-5.249-2.998 0-5.437 2.355-5.437 5.249 0 2.894 2.439 5.248 5.437 5.248a5.512 5.512 0 0 0 3.114-.95l3.23 3.243c.134.135.316.21.51.21a.719.719 0 0 0 .492-.191.669.669 0 0 0 .02-.968zm-7.365-10.47c2.215 0 4.018 1.74 4.018 3.879 0 2.139-1.803 3.88-4.018 3.88-2.216 0-4.019-1.741-4.019-3.88 0-2.14 1.803-3.88 4.019-3.88z" fill="#9FB2FE" fill-rule="nonzero" id="Shape"/></g></svg>