<svg id="Layer_1" data-name="Layer 1" xmlns="http://www.w3.org/2000/svg" viewBox="0 0 31.301 25.617"><title>icon-non-toxic</title><ellipse cx="17.877" cy="15.358" rx="13.425" ry="9.404" style="fill:#a9ffd6"/><polygon points="12.845 0.966 4.196 7.787 21.749 7.915 12.845 0.966" style="fill:#fff"/><rect x="3.428" y="20.311" width="15.727" height="2.146" style="fill:#a9ffd6"/><polygon points="3.851 7.723 21.749 7.915 21.172 10.029 21.268 19.734 4.613 19.734 4.781 9.965 3.851 7.723" style="fill:#a2acff"/><rect x="8.2" y="11.951" width="3.491" height="3.876" style="fill:#fff"/><path d="M31.96,29v-.722l-8.54.076.011-12.373.889-1.914c-.009.016-.009-.013-.017-.042l-.01-.084a.488.488,0,0,0-.1-.238l-.1-.051L15.021,6.394a.352.352,0,0,0-.441,0L10.985,9.2V6.354A.355.355,0,0,0,10.63,6H8.125a.349.349,0,0,0-.28.353V11.72l-2.5,1.888a.272.272,0,0,0,.016.237l.973,2.081v9.682H5.184a.355.355,0,0,0-.355.355v2.33H1.949V29ZM8.479,6.709h1.8V9.766l-1.8,1.4Zm6.322.408L22.945,13.5H6.64Zm7.968,21.236H5.479V26.378h17.29ZM6.979,25.509l-.033-9.617,0-.089v-.072L6.214,14.24H23.447l-.689,1.5.011,9.768Z" transform="translate(-1.949 -5.999)" style="fill:#36384b"/><path d="M9.6,22.387h4.552c0-1.64.009-4.135,0-5H9.6Zm.71-4.351h3.131v3.641H10.31Z" transform="translate(-1.949 -5.999)" style="fill:#36384b"/><rect x="24.312" y="10.905" width="0.299" height="0.598" style="fill:#36384b"/><rect x="24.312" y="12.399" width="0.299" height="0.598" style="fill:#36384b"/><rect x="24.91" y="11.801" width="0.598" height="0.299" style="fill:#36384b"/><polyline points="23.416 11.801 24.014 11.801 24.014 12.1 23.416 12.1" style="fill:#36384b"/><rect x="2.733" y="3.422" width="0.299" height="0.598" style="fill:#36384b"/><rect x="2.733" y="4.916" width="0.299" height="0.598" style="fill:#36384b"/><rect x="3.331" y="4.319" width="0.598" height="0.299" style="fill:#36384b"/><polyline points="1.837 4.319 2.434 4.319 2.434 4.617 1.837 4.617" style="fill:#36384b"/><path d="M24.962,22.083a2.789,2.789,0,0,0-2.513,1.578h0a2.79,2.79,0,0,0-5.27,1.641c.445,2.953,5.27,6.011,5.27,6.011s4.824-3.058,5.27-6.011a2.9,2.9,0,0,0,.033-.43A2.79,2.79,0,0,0,24.962,22.083Z" transform="translate(-1.949 -5.999)" style="fill:#a2acff"/><path d="M22.449,31.616l-.137-.087c-.2-.128-4.929-3.155-5.386-6.189a2.987,2.987,0,0,1-.036-.468,3.046,3.046,0,0,1,5.559-1.72,3.046,3.046,0,0,1,5.559,1.72,3.147,3.147,0,0,1-.036.469c-.457,3.033-5.185,6.06-5.386,6.188Zm-2.513-9.277A2.537,2.537,0,0,0,17.4,24.872a2.632,2.632,0,0,0,.03.39c.382,2.532,4.236,5.222,5.017,5.744.781-.522,4.635-3.212,5.017-5.742a2.669,2.669,0,0,0,.03-.392,2.534,2.534,0,0,0-4.816-1.1l-.231.479-.23-.479A2.55,2.55,0,0,0,19.936,22.339Z" transform="translate(-1.949 -5.999)" style="fill:#36384b"/><rect x="28.145" y="14.66" width="0.299" height="0.598" style="fill:#36384b"/><rect x="28.145" y="16.154" width="0.299" height="0.598" style="fill:#36384b"/><rect x="28.742" y="15.557" width="0.598" height="0.299" style="fill:#36384b"/><polyline points="27.248 15.557 27.846 15.557 27.846 15.855 27.248 15.855" style="fill:#36384b"/><circle cx="1.837" cy="17.051" r="0.598" style="fill:#a9ffd6"/></svg>