<svg xmlns="http://www.w3.org/2000/svg" viewBox="0 0 72 72"><title>Artboard 7</title><g id="Layer_1" data-name="Layer 1"><ellipse cx="32.5" cy="43.537" rx="26.195" ry="18.351" style="fill:#a9ffd6"/><polygon points="13.197 51.534 62.243 51.534 65.232 49.35 65.232 30.595 61.911 27.563 62.243 21.433 59.25 18.585 15.666 19.344 13.767 22.668 13.767 27.914 11.298 30.595 11.298 49.54 13.197 51.534" style="fill:#a3acff"/><rect x="18.616" y="36.897" width="39.075" height="6.797" rx="2.983" style="fill:#fff"/><path d="M63.362,27.709,63.1,27.6V22.513A3.919,3.919,0,0,0,59.182,18.6H17.121a3.919,3.919,0,0,0-3.915,3.915v5.081l-.267.108a3.9,3.9,0,0,0-2.456,3.63v17.1A3.9,3.9,0,0,0,14,52.322c.132.013.267.021.4.021H15.5v1.628h3.487V52.343h38.3v1.628h3.488V52.343h1.106A3.938,3.938,0,0,0,65.3,50.349l.1-.187a3.981,3.981,0,0,0,.231-.569,3.941,3.941,0,0,0,.134-.612,3.877,3.877,0,0,0,.042-.553v-17.1A3.9,3.9,0,0,0,63.362,27.709Zm-48.84-5.2a2.6,2.6,0,0,1,2.6-2.6H59.182a2.6,2.6,0,0,1,2.6,2.6v4.9H60.258a3.918,3.918,0,0,0-3.914,3.914v4.746l-.561-.186a3.92,3.92,0,0,0-1.224-.2H21.723a3.919,3.919,0,0,0-1.223.2l-.561.186V31.332a3.918,3.918,0,0,0-3.914-3.914h-1.5ZM57.157,39.608v1.086a2.6,2.6,0,0,1-2.6,2.6H21.723a2.6,2.6,0,0,1-2.6-2.6V39.608a2.6,2.6,0,0,1,2.6-2.6H54.559A2.6,2.6,0,0,1,57.157,39.608Zm7.327,8.82a3,3,0,0,1-.115.77,2.6,2.6,0,0,1-.148.363l-.054.111a2.6,2.6,0,0,1-2.28,1.354H14.4a2.4,2.4,0,0,1-.27-.014A2.586,2.586,0,0,1,11.8,48.428v-17.1a2.6,2.6,0,0,1,2.6-2.6h1.628a2.6,2.6,0,0,1,2.6,2.6v5.893l-.08.111a3.882,3.882,0,0,0-.734,2.272v1.086a3.918,3.918,0,0,0,3.914,3.914H54.559a3.918,3.918,0,0,0,3.915-3.914V39.608a3.888,3.888,0,0,0-.733-2.272l-.081-.112V31.332a2.6,2.6,0,0,1,2.6-2.6h1.629a2.6,2.6,0,0,1,2.6,2.6Z" style="fill:#36384b"/><rect x="59.002" y="10.209" width="0.583" height="1.166" style="fill:#36384b"/><rect x="59.002" y="13.124" width="0.583" height="1.166" style="fill:#36384b"/><rect x="60.168" y="11.958" width="1.166" height="0.583" style="fill:#36384b"/><polyline points="57.253 11.958 58.419 11.958 58.419 12.541 57.253 12.541" style="fill:#36384b"/><circle cx="51.125" cy="15.456" r="1.166" style="fill:#a9ffd6"/><circle cx="65.917" cy="18.208" r="0.583" style="fill:#a9ffd6"/><rect x="5.722" y="24.857" width="0.583" height="1.166" style="fill:#36384b"/><rect x="5.722" y="27.772" width="0.583" height="1.166" style="fill:#36384b"/><rect x="6.888" y="26.606" width="1.166" height="0.583" style="fill:#36384b"/><polyline points="3.973 26.606 5.139 26.606 5.139 27.189 3.973 27.189" style="fill:#36384b"/><circle cx="6.888" cy="32.456" r="1.166" style="fill:#a9ffd6"/><rect x="11.063" y="27.914" width="8.255" height="7.373" rx="3.235" style="fill:#fff"/><path d="M16.082,35.857H14.3a3.809,3.809,0,0,1-3.8-3.8v-.9a3.809,3.809,0,0,1,3.805-3.8h1.783a3.809,3.809,0,0,1,3.805,3.805v.9A3.809,3.809,0,0,1,16.082,35.857ZM14.3,28.484a2.669,2.669,0,0,0-2.666,2.666v.9A2.669,2.669,0,0,0,14.3,34.718h1.783a2.669,2.669,0,0,0,2.666-2.666v-.9a2.669,2.669,0,0,0-2.666-2.666Z" style="fill:#36384b"/><rect x="56.978" y="27.914" width="8.255" height="7.373" rx="3.235" style="fill:#fff"/><path d="M62,35.857H60.213a3.809,3.809,0,0,1-3.8-3.8v-.9a3.809,3.809,0,0,1,3.805-3.8H62A3.809,3.809,0,0,1,65.8,31.15v.9A3.809,3.809,0,0,1,62,35.857Zm-1.784-7.373a2.669,2.669,0,0,0-2.666,2.666v.9a2.669,2.669,0,0,0,2.666,2.666H62a2.669,2.669,0,0,0,2.666-2.666v-.9A2.669,2.669,0,0,0,62,28.484Z" style="fill:#36384b"/><rect x="42.293" y="53.388" width="0.583" height="1.166" style="fill:#36384b"/><rect x="42.293" y="56.303" width="0.583" height="1.166" style="fill:#36384b"/><rect x="43.459" y="55.137" width="1.166" height="0.583" style="fill:#36384b"/><polyline points="40.544 55.137 41.71 55.137 41.71 55.72 40.544 55.72" style="fill:#36384b"/><path d="M38.265,31.165a.57.57,0,0,1-.57-.57v-6a.57.57,0,1,1,1.139,0v6A.57.57,0,0,1,38.265,31.165Z" style="fill:#36384b"/></g></svg>