<svg xmlns="http://www.w3.org/2000/svg" viewBox="0 0 72 72"><title>Artboard 10</title><g id="Layer_1" data-name="Layer 1"><ellipse cx="43.204" cy="42.798" rx="26.195" ry="18.351" style="fill:#a9ffd6"/><rect x="20.55" y="12.589" width="0.583" height="1.166" style="fill:#36384b"/><rect x="20.55" y="15.505" width="0.583" height="1.166" style="fill:#36384b"/><rect x="21.716" y="14.339" width="1.166" height="0.583" style="fill:#36384b"/><rect x="18.801" y="14.339" width="1.166" height="0.583" style="fill:#36384b"/><circle cx="65.2" cy="28.791" r="0.583" style="fill:#a9ffd6"/><rect x="10.212" y="28.432" width="0.583" height="1.166" style="fill:#36384b"/><rect x="10.212" y="31.347" width="0.583" height="1.166" style="fill:#36384b"/><rect x="11.378" y="30.181" width="1.166" height="0.583" style="fill:#36384b"/><rect x="8.463" y="30.181" width="1.166" height="0.583" style="fill:#36384b"/><path d="M49.9,25.629s3.607-1.056,4.746-6.607l-15.311-3.14C38.2,21.434,41.1,23.824,41.1,23.824" style="fill:#fff"/><polyline points="47.411 30.931 47.411 53.707 44.204 50.993 44.204 28.566" style="fill:#fff"/><polyline points="19.951 24.666 19.951 52.827 23.158 52.827 23.158 26.027" style="fill:#fff"/><polygon points="50.814 52.305 59.467 54.441 60.122 51.786 53.967 50.267 50.814 52.305" style="fill:#fff"/><path d="M59.467,54.941a.492.492,0,0,1-.12-.014L50.693,52.79a.5.5,0,0,1-.151-.905L53.7,49.847a.492.492,0,0,1,.392-.066l6.155,1.52a.5.5,0,0,1,.365.6l-.655,2.656a.5.5,0,0,1-.485.379ZM52.057,52.1,59.1,53.836l.415-1.685L54.057,50.8Z" style="fill:#36384b"/><rect x="32.197" y="-6.089" width="6.414" height="64.164" transform="translate(2.829 55.453) rotate(-78.412)" style="fill:#a3acff"/><path d="M67.576,28.805,51.309,25.47c1.247-.828,3.068-2.629,3.831-6.348a.5.5,0,0,0-.074-.376.491.491,0,0,0-.316-.214L39.439,15.393a.5.5,0,0,0-.59.389c-.763,3.719.2,6.091,1.023,7.343L4.72,15.917a.5.5,0,0,0-.59.389L2.842,22.589a.5.5,0,0,0,.389.59l16.22,3.326V52.827a.5.5,0,0,0,.5.5h3.207a.5.5,0,0,0,.5-.5V38.7H43.7v12.3a.5.5,0,0,0,.177.382l3.207,2.714a.5.5,0,0,0,.823-.382V32.341l18.176,3.727a.485.485,0,0,0,.1.01.5.5,0,0,0,.276-.083.5.5,0,0,0,.215-.316L67.966,29.4A.5.5,0,0,0,67.576,28.805ZM41.42,23.438c-.026-.021-2.491-2.117-1.683-6.963l14.314,2.934c-1.152,4.728-4.149,5.7-4.289,5.74l0,0-8.334-1.708ZM22.658,52.327H20.451V26.71l2.207.453Zm1-14.632V27.368L43.7,31.479V37.7ZM46.911,52.629,44.7,50.762V31.684l2.207.452ZM65.8,34.988,3.922,22.3,5.009,17,66.886,29.684Z" style="fill:#36384b"/></g></svg>