<svg xmlns="http://www.w3.org/2000/svg" viewBox="0 0 72 72"><title>Artboard 6</title><g id="Layer_1" data-name="Layer 1"><ellipse cx="40.88" cy="23.618" rx="26.195" ry="18.351" style="fill:#a9ffd6"/><path d="M59.78,30.839c0-4.726-4.706-9.472-9.432-9.472s-9.371,4.807-9.371,9.532l-.221,6.375c2.433,8.128,2.792,5.6,4.156,7.149l-.034-9.743c0-2.068.615-3.05,2.682-3.05s2.788.821,2.788,2.889l-.014,7.923,2.83-.04a3.588,3.588,0,0,1,2.413,1.368l2.679-.725a8.937,8.937,0,0,0,1.524-5.61Zm-9.07-2.9-.8-.2V25.047l.885.02Z" style="fill:#a3acff"/><polygon points="6.991 6.606 34.264 6.606 33.938 27.843 27.836 28.601 27.836 34.68 18.735 28.601 6.997 28.119 6.991 6.606" style="fill:#a3acff"/><path d="M50.348,38.419c0,3.749-1.492,6.788-2.788,6.788s-2.346-3.039-2.346-6.788,0-6.595,2.346-6.789C50.259,31.406,50.348,34.669,50.348,38.419Z" style="fill:#fff"/><rect x="16.534" y="11.942" width="1.177" height="3.32" style="fill:#36384b"/><rect x="22.962" y="11.942" width="1.178" height="3.32" style="fill:#36384b"/><path d="M20.337,23.833a10.3,10.3,0,0,0,9.355-6.086l-1.1-.426a9.057,9.057,0,0,1-16.517-.007l-1.1.426A10.3,10.3,0,0,0,20.337,23.833Z" style="fill:#36384b"/><rect x="49.745" y="24.798" width="1.178" height="3.321" style="fill:#36384b"/><rect x="13.319" y="32.298" width="1.178" height="2.249" style="fill:#36384b"/><path d="M17.122,55.973h2.732V54.8H17.122A2.628,2.628,0,0,1,14.5,52.171V37.655H13.319V52.171A3.806,3.806,0,0,0,17.122,55.973Z" style="fill:#36384b"/><rect x="22.962" y="54.796" width="1.178" height="1.177" style="fill:#36384b"/><rect x="27.247" y="54.796" width="1.178" height="1.177" style="fill:#36384b"/><rect x="31.532" y="54.796" width="1.178" height="1.177" style="fill:#36384b"/><path d="M62.119,45.154h-1.61l-.114-.32a2.748,2.748,0,0,0-1.759-1.7,10.2,10.2,0,0,0,1.928-5.965V30.744a10.234,10.234,0,0,0-9.641-10.2V14.085H34.852V8.246a2.734,2.734,0,0,0-2.731-2.731H8.551A2.735,2.735,0,0,0,5.82,8.246V26.459A2.735,2.735,0,0,0,8.551,29.19H19.069l9.356,7.017V29.19h3.7a2.735,2.735,0,0,0,2.731-2.731v-11.2H49.745v5.281a10.235,10.235,0,0,0-9.641,10.2v6.428a11.721,11.721,0,0,0,4.285,8.461v4.946l-.725-.421a2.669,2.669,0,0,1-.719-.609L40.389,46.51a3.8,3.8,0,0,0-5.847,4.863c3.341,4.384,4.839,6.71,6.042,8.579a38.435,38.435,0,0,0,5.252,6.738l.856-.81a37.047,37.047,0,0,1-5.117-6.564c-1.155-1.793-2.735-4.247-6.114-8.68a2.624,2.624,0,0,1,4.025-3.368L42.039,50.3a3.8,3.8,0,0,0,2.939,1.386h.588V34.494a2.09,2.09,0,0,1,4.18,0V47.4h1.178V43.117h2.089a2.093,2.093,0,0,1,2.089,2.09v3.267H56.28V45.207a2.879,2.879,0,0,0-.041-.406l-.08-.552.549-.06h1.125a1.556,1.556,0,0,1,1.555,1.554v3.8h1.176V46.331h1.555a1.556,1.556,0,0,1,1.554,1.554v5.3a17.751,17.751,0,0,1-1.9,7.958l-2.554,5.044,1.052.531,2.551-5.045a18.9,18.9,0,0,0,2.025-8.488v-5.3A2.735,2.735,0,0,0,62.119,45.154Zm-28.444-18.7a1.556,1.556,0,0,1-1.554,1.554H27.247v5.839l-7.786-5.839H8.551A1.556,1.556,0,0,1,7,26.459V8.246A1.556,1.556,0,0,1,8.551,6.692h23.57a1.556,1.556,0,0,1,1.554,1.554ZM55.431,43.012l-.139-.138a3.251,3.251,0,0,0-2.279-.934H50.924V34.494a3.268,3.268,0,0,0-6.535,0v9.488a9.029,9.029,0,0,1-3.108-6.81V30.744a9.054,9.054,0,0,1,18.107,0v6.428a10.89,10.89,0,0,1-2.18,5.84Z" style="fill:#36384b"/><rect x="58.675" y="17.456" width="0.583" height="1.166" style="fill:#36384b"/><rect x="58.675" y="20.371" width="0.583" height="1.166" style="fill:#36384b"/><rect x="59.841" y="19.205" width="1.166" height="0.583" style="fill:#36384b"/><polyline points="56.926 19.205 58.092 19.205 58.092 19.788 56.926 19.788" style="fill:#36384b"/><rect x="6.53" y="41.578" width="0.583" height="1.166" style="fill:#36384b"/><rect x="6.53" y="44.493" width="0.583" height="1.166" style="fill:#36384b"/><rect x="7.696" y="43.327" width="1.166" height="0.583" style="fill:#36384b"/><polyline points="4.781 43.327 5.947 43.327 5.947 43.91 4.781 43.91" style="fill:#36384b"/><circle cx="10.654" cy="46.685" r="0.583" style="fill:#a9ffd6"/></g></svg>