<svg xmlns="http://www.w3.org/2000/svg" viewBox="0 0 72 72"><title>Artboard 23</title><g id="Layer_1" data-name="Layer 1"><ellipse cx="40.147" cy="48.098" rx="26.195" ry="18.351" style="fill:#a9ffd6"/><path d="M10.581,22.071V45.1a.69.69,0,0,0,.337.591l20,11.863a.69.69,0,0,0,.688.006L52.08,45.928a.69.69,0,0,0,.348-.6V22.071a.69.69,0,0,0-.337-.592L31.854,9.5a.7.7,0,0,0-.35-.1.685.685,0,0,0-.349.1L10.918,21.479A.69.69,0,0,0,10.581,22.071Zm1.375.391L31.5,10.891,51.053,22.462V44.93L50.926,45,31.279,56.165,11.956,44.706Z" style="fill:#36384b"/><circle cx="31.504" cy="10.459" r="4.962" transform="translate(14.125 38.74) rotate(-76.794)" style="fill:#fff;stroke:#36384b;stroke-miterlimit:10;stroke-width:1.27314275055745px"/><circle cx="11.269" cy="21.541" r="5.954" transform="translate(-12.275 27.596) rotate(-76.809)" style="fill:#a2acff;stroke:#36384b;stroke-miterlimit:10;stroke-width:1.27314275055745px"/><circle cx="51.74" cy="21.541" r="3.124" transform="translate(22.222 69.182) rotate(-80.821)" style="fill:#a2acff;stroke:#36384b;stroke-miterlimit:10;stroke-width:1.27314275055745px"/><circle cx="51.74" cy="44.985" r="6.946" transform="translate(-13.379 23.532) rotate(-22.771)" style="fill:#a2acff;stroke:#36384b;stroke-miterlimit:10;stroke-width:1.27314275055745px"/><circle cx="11.269" cy="44.985" r="4.962" transform="translate(-35.101 45.679) rotate(-76.794)" style="fill:#fff;stroke:#36384b;stroke-miterlimit:10;stroke-width:1.27314275055745px"/><circle cx="31.147" cy="56.96" r="4.962" transform="translate(-30.052 78.622) rotate(-80.821)" style="fill:#a2acff;stroke:#36384b;stroke-miterlimit:10;stroke-width:1.27314275055745px"/><rect x="47.935" y="10.027" width="0.583" height="1.166" style="fill:#36384b"/><rect x="47.935" y="12.942" width="0.583" height="1.166" style="fill:#36384b"/><rect x="49.101" y="11.776" width="1.166" height="0.583" style="fill:#36384b"/><polyline points="46.186 11.776 47.352 11.776 47.352 12.359 46.186 12.359" style="fill:#36384b"/><rect x="28.028" y="40.525" width="0.583" height="1.166" style="fill:#36384b"/><rect x="28.028" y="43.441" width="0.583" height="1.166" style="fill:#36384b"/><rect x="29.194" y="42.275" width="1.166" height="0.583" style="fill:#36384b"/><polyline points="26.279 42.275 27.445 42.275 27.445 42.858 26.279 42.858" style="fill:#36384b"/><circle cx="8.991" cy="7.972" r="1.166" style="fill:#a9ffd6"/><circle cx="14.129" cy="9.004" r="0.583" style="fill:#a9ffd6"/></g></svg>