<svg xmlns="http://www.w3.org/2000/svg" viewBox="0 0 72 72"><title>Artboard 24</title><g id="Layer_1" data-name="Layer 1"><ellipse cx="38.574" cy="36.481" rx="26.195" ry="18.351" style="fill:#a9ffd6"/><path d="M34.1,4.468a6.883,6.883,0,0,0-6.739,7.005V43.731l-.3.226a12.427,12.427,0,0,0-1.487,1.312,12.863,12.863,0,0,0,0,17.737,11.767,11.767,0,0,0,17.059,0,12.745,12.745,0,0,0-1.486-19.05l-.3-.226V11.473A6.884,6.884,0,0,0,34.1,4.468Z" style="fill:#fff"/><path d="M34.1,67.167a12.283,12.283,0,0,1-8.889-3.813,13.362,13.362,0,0,1,0-18.432,12.824,12.824,0,0,1,1.547-1.366l.1-.076V11.473a7.246,7.246,0,1,1,14.482,0V43.479l.1.077a12.988,12.988,0,0,1,1.546,1.364,13.364,13.364,0,0,1,0,18.434A12.282,12.282,0,0,1,34.1,67.167Zm0-62.2a6.384,6.384,0,0,0-6.241,6.505V43.981l-.5.376a11.815,11.815,0,0,0-1.426,1.26,12.362,12.362,0,0,0,0,17.042,11.267,11.267,0,0,0,16.339,0,12.249,12.249,0,0,0-1.425-18.3l-.5-.376V11.473A6.384,6.384,0,0,0,34.1,4.968Z" style="fill:#36384b"/><rect x="50.972" y="55.595" width="0.583" height="1.166" style="fill:#36384b"/><rect x="50.972" y="58.51" width="0.583" height="1.166" style="fill:#36384b"/><rect x="52.139" y="57.344" width="1.166" height="0.583" style="fill:#36384b"/><polyline points="49.223 57.344 50.389 57.344 50.389 57.927 49.223 57.927" style="fill:#36384b"/><rect x="9.637" y="9.885" width="0.583" height="1.166" style="fill:#36384b"/><rect x="9.637" y="12.801" width="0.583" height="1.166" style="fill:#36384b"/><rect x="10.803" y="11.634" width="1.166" height="0.583" style="fill:#36384b"/><polyline points="7.888 11.634 9.054 11.634 9.054 12.218 7.888 12.218" style="fill:#36384b"/><path d="M42.86,32.026l.957-1.344a2.971,2.971,0,0,0,1.987.92,1.368,1.368,0,0,0,1.545-1.443A1.328,1.328,0,0,0,45.9,28.737a2.16,2.16,0,0,0-1.361.47l-.948-.613.252-4.644h5.215v1.789H45.684l-.152,1.725a2.42,2.42,0,0,1,1.022-.211,2.688,2.688,0,0,1,2.928,2.853,3.173,3.173,0,0,1-3.373,3.213A4.389,4.389,0,0,1,42.86,32.026Z" style="fill:#36384b"/><path d="M52.586,29.406,50.51,25.961h2.282l.639,1.162c.2.4.408.824.609,1.225H54.1c.153-.4.338-.825.491-1.225l.49-1.162h2.2L55.207,29.65l2.208,3.5H55.133l-.706-1.188c-.225-.41-.444-.844-.673-1.25H53.7c-.181.406-.371.828-.552,1.25l-.559,1.188H50.379Z" style="fill:#36384b"/><path d="M24.005,41.887a.517.517,0,0,0,.516-.516V9.52a.516.516,0,1,0-1.032,0v6.886l-3.012-3.012a.547.547,0,0,0-.736,0,.521.521,0,0,0,0,.736l3.748,3.747V24.55l-5.779-3.336-.014-.05-1.358-5.07a.519.519,0,1,0-1,.269l1.1,4.117L10.47,17.035a.528.528,0,0,0-.7.19.507.507,0,0,0-.051.392.512.512,0,0,0,.241.313l5.965,3.444-4.116,1.1a.52.52,0,0,0-.368.637.526.526,0,0,0,.635.366l5.12-1.371,5.781,3.337-5.781,3.337-.049-.013-5.07-1.358a.51.51,0,0,0-.394.051.522.522,0,0,0-.191.71.519.519,0,0,0,.317.242l4.116,1.1L9.957,32.959a.515.515,0,0,0-.241.313.505.505,0,0,0,.05.393.53.53,0,0,0,.705.19l5.966-3.445-1.1,4.118a.519.519,0,0,0,.761.584.515.515,0,0,0,.242-.317l1.372-5.119,5.779-3.337v6.674l-.036.036-3.711,3.712a.51.51,0,0,0-.153.367.517.517,0,0,0,.153.368.546.546,0,0,0,.735,0l3.012-3.012v6.887A.517.517,0,0,0,24.005,41.887Z" style="fill:#36384b"/><path d="M34.1,61.012a6.763,6.763,0,0,1-6.631-6.875,6.835,6.835,0,0,1,4.945-6.649l.187-.051V38.192h3v9.245l.187.051a6.837,6.837,0,0,1,4.944,6.649A6.763,6.763,0,0,1,34.1,61.012Z" style="fill:#a2acff"/><path d="M35.1,38.692v9.127l.556.151a6.337,6.337,0,0,1,4.575,6.167,6.135,6.135,0,1,1-12.261,0,6.336,6.336,0,0,1,4.576-6.167l.556-.151V38.692h2m1-1h-4v9.365a7.347,7.347,0,0,0-5.132,7.08,7.135,7.135,0,1,0,14.261,0,7.349,7.349,0,0,0-5.131-7.08V37.692Z" style="fill:#36384b"/><line x1="42.026" y1="11.926" x2="51.39" y2="11.926" style="fill:#36384b;stroke:#36384b;stroke-miterlimit:10;stroke-width:1.20656335353851px"/><polygon points="54.973 37.86 51.277 35.137 51.272 37.371 42.532 37.371 42.532 38.578 51.269 38.578 51.264 40.813 54.973 37.86" style="fill:#36384b"/><polygon points="63.023 20.818 59.327 18.094 59.322 20.329 46.397 20.329 46.397 21.536 59.319 21.536 59.314 23.77 63.023 20.818" style="fill:#36384b"/><line x1="49.522" y1="16.558" x2="53.298" y2="16.558" style="fill:#36384b;stroke:#36384b;stroke-miterlimit:10;stroke-width:1.20656335353851px"/></g></svg>