<svg xmlns="http://www.w3.org/2000/svg" viewBox="0 0 72 72"><title>Artboard 28</title><g id="Layer_1" data-name="Layer 1"><ellipse cx="40.488" cy="39.299" rx="26.195" ry="18.351" style="fill:#a9ffd6"/><rect x="59.217" y="9.027" width="0.583" height="1.166" style="fill:#36384b"/><rect x="59.217" y="11.942" width="0.583" height="1.166" style="fill:#36384b"/><rect x="60.383" y="10.776" width="1.166" height="0.583" style="fill:#36384b"/><polyline points="57.468 10.776 58.634 10.776 58.634 11.359 57.468 11.359" style="fill:#36384b"/><rect x="21.777" y="58.803" width="0.583" height="1.166" style="fill:#36384b"/><rect x="21.777" y="61.718" width="0.583" height="1.166" style="fill:#36384b"/><rect x="22.943" y="60.552" width="1.166" height="0.583" style="fill:#36384b"/><polyline points="20.027 60.552 21.193 60.552 21.193 61.135 20.027 61.135" style="fill:#36384b"/><polygon points="67.292 17.192 52.211 17.192 55.936 20.917 36.47 40.384 26.226 30.139 4.806 51.559 12.228 59.038 25.294 45.971 36.533 56.2 64.381 28.352 67.292 32.273 67.292 17.192" style="fill:#a2acff"/><path d="M12.227,59.745,4.1,51.558,26.226,29.432,36.47,39.677l18.759-18.76L51,16.691H67.792V33.785l-3.467-4.67L36.55,56.891,25.311,46.661ZM5.512,51.56l6.717,6.769L25.277,45.28l11.24,10.23,27.92-27.922,2.355,3.173V17.691H53.418l3.226,3.226L36.47,41.091,26.226,30.846Z" style="fill:#36384b"/><path d="M63.376,47.5a27.006,27.006,0,0,1-30.25,15.3l.511-2.239-4.185,2.024,2.947,3.4.5-2.2A27.889,27.889,0,0,0,64.288,47.907Z" style="fill:#36384b"/><path d="M52.56,12.469,50.522,8.454l-1.04,2.056A28.007,28.007,0,0,0,13.2,24.863l-.071.158a27.98,27.98,0,0,0-2.2,14.8l.992-.123a26.979,26.979,0,0,1,2.12-14.268l.07-.156A27.011,27.011,0,0,1,49.03,11.4l-1.02,2.017Z" style="fill:#36384b"/><path d="M9.542,27.034l-.969-.252C11.936,13.86,25.55,4.1,38.862,5.054l-.07,1C25.943,5.15,12.788,14.556,9.542,27.034Z" style="fill:#36384b"/><path d="M41.815,67.537a22.752,22.752,0,0,1-4.982-.555l.219-.976c10.821,2.425,20.1-3.882,24.761-10.016l.8.606C58.5,62,50.918,67.537,41.815,67.537Z" style="fill:#36384b"/><circle cx="49.862" cy="5.768" r="1.166" style="fill:#a9ffd6"/><circle cx="57.283" cy="5.768" r="0.583" style="fill:#a9ffd6"/></g></svg>