<svg xmlns="http://www.w3.org/2000/svg" viewBox="0 0 72 72"><title>Artboard 17</title><g id="Layer_1" data-name="Layer 1"><ellipse cx="35.491" cy="50.23" rx="26.195" ry="18.351" style="fill:#a9ffd6"/><path d="M29.731,35.636c2.623-1.96,3.162-7.291,2.195-9.34C29.819,21.828,25.1,20.859,20.8,18.2c-3.909,6.383-1.55,16.289,8.974,17.458" style="fill:#a2acff"/><path d="M36.765,41.085c-2.14-2.752-1.639-8.833,1.912-12.505,4.456-4.606,16.167-6.3,21.5-6.475,0,7.339-3.284,20.807-23.387,19.4" style="fill:#a2acff"/><path d="M46.292,61.531c-2.362-3.729-5.359-4.131-10.8-4.645-3.381-.124-5.08,1.2-10.8,4.06Z" style="fill:#fff"/><path d="M29.9,44.065c2.9,1.681,3.035,6.07,3.035,6.07s-4.187,1.681-7.081,0-6.07-7.081-6.07-7.081S27.008,42.384,29.9,44.065Z" style="fill:#a2acff"/><rect x="46.181" y="50.043" width="0.583" height="1.166" style="fill:#36384b"/><rect x="46.181" y="52.958" width="0.583" height="1.166" style="fill:#36384b"/><rect x="47.347" y="51.792" width="1.166" height="0.583" style="fill:#36384b"/><polyline points="44.432 51.792 45.598 51.792 45.598 52.375 44.432 52.375" style="fill:#36384b"/><rect x="17.181" y="56.043" width="0.583" height="1.166" style="fill:#36384b"/><rect x="17.181" y="58.958" width="0.583" height="1.166" style="fill:#36384b"/><rect x="18.347" y="57.792" width="1.166" height="0.583" style="fill:#36384b"/><polyline points="15.432 57.792 16.598 57.792 16.598 58.375 15.432 58.375" style="fill:#36384b"/><path d="M51.331,21a.581.581,0,0,1-.413-.171L48.432,18.34H44.918a.584.584,0,0,1-.585-.585V14.241l-2.485-2.485a.585.585,0,0,1,0-.827l2.485-2.485V4.929a.584.584,0,0,1,.585-.584h3.514L50.918,1.86a.584.584,0,0,1,.826,0l2.485,2.485h3.515a.585.585,0,0,1,.585.584V8.444l2.484,2.485a.584.584,0,0,1,0,.827l-2.484,2.485v3.514a.585.585,0,0,1-.585.585H54.229l-2.485,2.485A.583.583,0,0,1,51.331,21Z" style="fill:#fff"/><path d="M51.331,2.273l2.656,2.656h3.756V8.686L60.4,11.342,57.743,14v3.756H53.987l-2.656,2.656-2.657-2.656H44.918V14l-2.657-2.657,2.657-2.656V4.929h3.756l2.657-2.656m0-1.169a1.165,1.165,0,0,0-.827.342L48.19,3.76H44.918a1.17,1.17,0,0,0-1.17,1.169V8.2l-2.314,2.313a1.17,1.17,0,0,0,0,1.654l2.313,2.314v3.272a1.17,1.17,0,0,0,1.17,1.17H48.19L50.5,21.238a1.167,1.167,0,0,0,1.653,0l2.314-2.313h3.272a1.17,1.17,0,0,0,1.17-1.17V14.483l2.314-2.314a1.171,1.171,0,0,0,0-1.654L58.913,8.2V4.929a1.17,1.17,0,0,0-1.17-1.169H54.471L52.157,1.446a1.164,1.164,0,0,0-.826-.342Z" style="fill:#36384b"/><circle cx="51.331" cy="11.342" r="4.624" style="fill:#a2acff"/><path d="M51.33,16.55a5.208,5.208,0,1,1,5.209-5.208A5.214,5.214,0,0,1,51.33,16.55Zm0-9.247a4.039,4.039,0,1,0,4.039,4.039A4.044,4.044,0,0,0,51.33,7.3Z" style="fill:#36384b"/><path d="M60.156,21.52c-4.443.147-17.038,1.629-21.9,6.653C34.562,32,34.1,38.1,36.083,41.117a19.1,19.1,0,0,0-2.673,5.69,71.648,71.648,0,0,0-3-10.984c2.521-2.278,3.088-7.563,2.044-9.776-1.6-3.386-4.566-4.849-7.709-6.4-1.2-.592-2.445-1.205-3.64-1.943l-.5-.308-.306.5a12.435,12.435,0,0,0-.678,11.854c1.74,3.553,5.174,5.814,9.68,6.424A68.809,68.809,0,0,1,31.874,45.1,5.5,5.5,0,0,0,30.2,43.56c-3.022-1.754-10.162-1.117-10.464-1.088l-.917.085.467.793c.133.226,3.287,5.553,6.279,7.291a6.794,6.794,0,0,0,3.424.827,12.326,12.326,0,0,0,3.9-.691,48.171,48.171,0,0,1,.48,5.666c-1.835.321-3.483,1.172-6.083,2.521-.833.432-1.77.918-2.852,1.459a.585.585,0,0,0,.246,1.108l21.6.584h.016a.584.584,0,0,0,.494-.9c-2.48-3.915-5.56-4.377-11.275-4.917-.342-.012-.666-.007-.981.008a51.779,51.779,0,0,0-.578-6.293,18.138,18.138,0,0,1,2.9-7.921c.947.064,1.869.1,2.764.1,6.545,0,11.69-1.707,15.317-5.09,5.069-4.727,5.826-11.427,5.826-15v-.6ZM45.139,60.915,27,60.424,27.817,60c3.581-1.856,5.044-2.627,7.618-2.533C40.355,57.933,43.05,58.305,45.139,60.915ZM20.673,29.238a11.23,11.23,0,0,1,.334-10.227c1.076.63,2.165,1.166,3.222,1.687,3.083,1.519,5.746,2.831,7.168,5.848.747,1.583.462,5.963-1.436,8.084a48.8,48.8,0,0,0-5.652-10.7.585.585,0,1,0-.952.68,47.506,47.506,0,0,1,5.467,10.3A10.718,10.718,0,0,1,20.673,29.238ZM26.15,49.629c-2.072-1.2-4.36-4.514-5.353-6.059,2.023-.109,6.716-.217,8.812,1,1.795,1.042,2.417,3.318,2.632,4.619a13.384,13.384,0,0,0-6.028-3.557.585.585,0,0,0-.287,1.134,12.207,12.207,0,0,1,5.462,3.223A7.409,7.409,0,0,1,26.15,49.629Zm27.987-13.38c-3.75,3.5-9.289,5.078-16.474,4.716a26.6,26.6,0,0,1,9.692-7.449.585.585,0,1,0-.509-1.053,27.936,27.936,0,0,0-10.01,7.64c-1.439-2.712-.858-7.891,2.262-11.117,3.941-4.074,14.381-5.971,20.486-6.272C59.5,26.207,58.61,32.077,54.137,36.249Z" style="fill:#36384b"/></g></svg>