<svg id="Layer_1" data-name="Layer 1" xmlns="http://www.w3.org/2000/svg" viewBox="0 0 30.437 30.437"><title>icon-play</title><path d="M17.948,3.729a14,14,0,1,1-14,14,14.017,14.017,0,0,1,14-14m0-1.217A15.219,15.219,0,1,0,33.166,17.73,15.218,15.218,0,0,0,17.948,2.512Z" transform="translate(-2.729 -2.512)" style="fill:#fff"/><path d="M23.328,17.038,15.5,12.205a1.325,1.325,0,0,0-2.025,1.056c0,.02,0,.041,0,.062v9.331c0,.02,0,.04,0,.059a1.2,1.2,0,0,0,1.815.969L23.328,18.9C25.188,17.8,23.328,17.038,23.328,17.038Z" transform="translate(-2.729 -2.512)" style="fill:#fff"/></svg>