<svg xmlns="http://www.w3.org/2000/svg" viewBox="0 0 72 72"><title>Artboard 21</title><g id="Layer_1" data-name="Layer 1"><ellipse cx="30.575" cy="47.805" rx="26.195" ry="18.351" style="fill:#a9ffd6"/><path d="M40.825,29.109l1.338-4.259C32.983,16.9,31.531,11.387,33.246,6.878c2.288.064,4.81,1.076,8.153,5.435q-.755-7.222,2.8-8.556c5.154,4.933,6.171,10.188,6.134,18.079l2.883.639c6.2,3.176,9.587,7.237,8.811,12.6-1.614,4.69-4.756,6.077-8.811,5.488L50.3,51.646l2.919,2.8-2.273,2.645-11.513-.815-7.75,1.614-7.964-.8-6.78-5.012-2.056-3.765c-3.1.319-4.317-1.669-4.872-4.475.441-2.91,1.877-4.725,4.517-5.212C19.017,27.417,27.594,23.889,40.825,29.109Z" style="fill:#fff"/><rect x="64.147" y="43.433" width="0.583" height="1.166" style="fill:#36384b"/><rect x="64.147" y="46.348" width="0.583" height="1.166" style="fill:#36384b"/><rect x="65.313" y="45.182" width="1.166" height="0.583" style="fill:#36384b"/><polyline points="62.397 45.182 63.564 45.182 63.564 45.765 62.397 45.765" style="fill:#36384b"/><rect x="11.955" y="25.493" width="0.583" height="1.166" style="fill:#36384b"/><rect x="11.955" y="28.408" width="0.583" height="1.166" style="fill:#36384b"/><rect x="13.121" y="27.242" width="1.166" height="0.583" style="fill:#36384b"/><polyline points="10.206 27.242 11.372 27.242 11.372 27.825 10.206 27.825" style="fill:#36384b"/><rect x="60.878" y="18.679" width="0.583" height="1.166" style="fill:#36384b"/><rect x="60.878" y="21.594" width="0.583" height="1.166" style="fill:#36384b"/><rect x="62.044" y="20.428" width="1.166" height="0.583" style="fill:#36384b"/><polyline points="59.129 20.428 60.295 20.428 60.295 21.011 59.129 21.011" style="fill:#36384b"/><path d="M61.666,37.128a8.232,8.232,0,0,0,.482-7.309,13.369,13.369,0,0,0-5.612-6.614,14.226,14.226,0,0,0-5.658-2.032l-.121-.015.013-.122a27.552,27.552,0,0,0-.687-8.14,20.465,20.465,0,0,0-2.917-7.127c-1.312-1.874-2.709-2.758-3.951-2.48-1.75.387-2.67,3.168-2.4,7.256l.025.372-.244-.282C37.415,6.959,34.555,5.4,32.95,6.46c-1.087.718-1.382,2.5-.83,5.007a23.657,23.657,0,0,0,3.4,7.618,23.894,23.894,0,0,0,5.953,6.092l.091.067-.057.1a9.391,9.391,0,0,0-1.2,2.834l-.035.17-.151-.088a14.639,14.639,0,0,0-6.8-2.1c-5.987-.341-11.353,1.429-15.122,4.989a15.41,15.41,0,0,0-4.317,7.1l-.024.086-.089.005a4.934,4.934,0,0,0-4.4,5.051,4.861,4.861,0,0,0,4.621,5.06.611.611,0,0,0,.12-.012l.109-.019.033.1a12.965,12.965,0,0,0,3.868,6c3.056,2.629,7.631,3.962,13.6,3.962a16.068,16.068,0,0,0,6.336-1.178l.036-.015.039.008a.635.635,0,0,0,.134.013H49.46c1.629.047,2.687-.229,3.323-.853a2.689,2.689,0,0,0,.7-2,3.015,3.015,0,0,0-2.555-2.782l-.13-.031,3.37-10.726h.09A8.663,8.663,0,0,0,61.666,37.128ZM13.714,47.163a3.875,3.875,0,0,1-.313-7.5l.177-.036-.029.178a14.993,14.993,0,0,0-.2,2.382,22.475,22.475,0,0,0,.494,4.824l.037.168ZM43.49,4.531c.674-.147,1.677.605,2.634,1.968a19.164,19.164,0,0,1,2.717,6.673,25.9,25.9,0,0,1,.656,7.8l-.012.112h-.112a11.435,11.435,0,0,0-1.191.058,10.807,10.807,0,0,0-1.348.229l-.115.028-.033-.115a27.856,27.856,0,0,0-3.515-7.238c-.243-.369-.509-.754-.79-1.144l-.022-.053C41.575,7.972,42.319,4.791,43.49,4.531ZM36.581,18.385a22.353,22.353,0,0,1-3.218-7.191c-.493-2.242-.152-3.379.288-3.671,1.012-.669,4.273,1.4,7.556,5.919.023.037.044.065.065.093.29.4.563.794.836,1.208a26.848,26.848,0,0,1,3.371,6.941l.031.107-.1.042a7.742,7.742,0,0,0-3.059,2.254l-.075.093-.1-.07A22.668,22.668,0,0,1,36.581,18.385Zm17.53,21.259c-.128,0-.258,0-.388-.006a.649.649,0,0,0-.629.446l-3.74,11.9a.637.637,0,0,0,.573.825c1.675.092,2.282,1.034,2.282,1.645a1.44,1.44,0,0,1-.313,1.092c-.258.251-.879.533-2.422.492H40.311l.285-.223a9.778,9.778,0,0,0,3.63-5.915,8.092,8.092,0,0,0-5.086-9.265.632.632,0,0,0-.482.028.632.632,0,0,0,.055,1.172,6.838,6.838,0,0,1,4.258,7.849c-.626,3.638-3.909,7.525-11.249,7.525-5.657,0-9.952-1.229-12.77-3.653-2.87-2.469-4.325-6.295-4.325-11.372a13.825,13.825,0,0,1,4.448-10.111,18.442,18.442,0,0,1,12.793-4.684c.46,0,.925.014,1.382.041a14,14,0,0,1,7.221,2.545.636.636,0,0,0,.986-.546,7.271,7.271,0,0,1,1.418-3.9A7.008,7.008,0,0,1,48.313,22.4a12.84,12.84,0,0,1,12.6,7.717,7.018,7.018,0,0,1-.332,6.338A7.305,7.305,0,0,1,54.111,39.644Z" style="fill:#36384b"/><circle cx="52.867" cy="28.991" r="1.756" style="fill:#36384b"/></g></svg>