<svg xmlns="http://www.w3.org/2000/svg" viewBox="0 0 72 72"><title>Artboard 13</title><g id="Layer_1" data-name="Layer 1"><polygon points="18.818 49.615 50.861 49.615 53.484 47.698 53.484 31.238 50.569 28.577 50.861 23.198 48.234 20.698 20.984 21.365 19.318 24.281 19.318 28.886 17.151 31.238 17.151 47.865 18.818 49.615" style="fill:#a3acff"/><rect x="23.573" y="36.769" width="23.293" height="5.965" rx="2.983" style="fill:#fff"/><path d="M51.842,28.705l-.233-.095V24.146a3.439,3.439,0,0,0-3.435-3.436H22.261a3.439,3.439,0,0,0-3.435,3.436v4.459l-.235.095a3.424,3.424,0,0,0-2.155,3.186v15a3.424,3.424,0,0,0,3.084,3.418c.115.011.233.017.35.017h.97v1.429H23.9V50.324H46.517v1.429h3.06V50.324h.971a3.458,3.458,0,0,0,2.992-1.749l.085-.165a3.413,3.413,0,0,0,.2-.5,3.7,3.7,0,0,0,.155-1.021v-15A3.426,3.426,0,0,0,51.842,28.705ZM19.981,24.146a2.283,2.283,0,0,1,2.28-2.281H48.174a2.283,2.283,0,0,1,2.28,2.281v4.3H49.119a3.439,3.439,0,0,0-3.436,3.436V36.05l-.493-.162a3.376,3.376,0,0,0-1.072-.175H26.3a3.416,3.416,0,0,0-1.074.175l-.492.161V31.886A3.439,3.439,0,0,0,21.3,28.45H19.981Zm26.417,15V40.1a2.283,2.283,0,0,1-2.28,2.28H26.3a2.283,2.283,0,0,1-2.28-2.28v-.954a2.283,2.283,0,0,1,2.28-2.28H44.118A2.283,2.283,0,0,1,46.4,39.148Zm6.43,7.741a2.261,2.261,0,0,1-.026.32,2.458,2.458,0,0,1-.076.357,2.3,2.3,0,0,1-.13.318l-.047.1a2.28,2.28,0,0,1-2,1.189H19.87c-.077,0-.154,0-.23-.012a2.271,2.271,0,0,1-2.049-2.268v-15a2.282,2.282,0,0,1,2.279-2.281H21.3a2.283,2.283,0,0,1,2.281,2.281v5.17l-.071.1a3.4,3.4,0,0,0-.644,1.994V40.1A3.439,3.439,0,0,0,26.3,43.537H44.118A3.439,3.439,0,0,0,47.553,40.1v-.954a3.411,3.411,0,0,0-.644-1.994l-.071-.1v-5.17a2.283,2.283,0,0,1,2.281-2.281h1.429a2.283,2.283,0,0,1,2.28,2.281Z" style="fill:#36384b"/><rect x="16.945" y="28.886" width="7.244" height="6.471" rx="3.235" style="fill:#fff"/><path d="M20.954,35.856H20.18a3.735,3.735,0,0,1,0-7.47h.774a3.735,3.735,0,0,1,0,7.47Zm-.774-6.47a2.735,2.735,0,0,0,0,5.47h.774a2.735,2.735,0,0,0,0-5.47Z" style="fill:#36384b"/><rect x="46.24" y="28.886" width="7.244" height="6.471" rx="3.235" style="fill:#fff"/><path d="M50.249,35.856h-.774a3.735,3.735,0,1,1,0-7.47h.774a3.735,3.735,0,0,1,0,7.47Zm-.774-6.47a2.735,2.735,0,1,0,0,5.47h.774a2.735,2.735,0,0,0,0-5.47Z" style="fill:#36384b"/><path d="M60.329,26.845A27.066,27.066,0,0,0,48.68,13.156l.5-.865a28.075,28.075,0,0,1,12.08,14.2Z" style="fill:#36384b"/><path d="M62.636,36.538l-1,0A26.449,26.449,0,0,1,40.708,62.318l-.437-2.2-2.933,3.485,4,1.865L40.9,63.3A27.449,27.449,0,0,0,62.636,36.538Z" style="fill:#36384b"/><rect x="60.883" y="30.947" width="0.583" height="1.166" transform="translate(28.849 92.288) rotate(-89.253)" style="fill:#36384b"/><rect x="57.968" y="30.909" width="0.583" height="1.166" transform="translate(26.01 89.336) rotate(-89.253)" style="fill:#36384b"/><rect x="59.115" y="32.677" width="1.166" height="0.583" transform="translate(25.954 92.231) rotate(-89.253)" style="fill:#36384b"/><rect x="59.153" y="29.762" width="1.166" height="0.583" transform="translate(28.906 89.392) rotate(-89.253)" style="fill:#36384b"/><path d="M37.954,9.53,34.525,6.755,34.418,9A27.5,27.5,0,0,0,7.7,36.368v.17A27.387,27.387,0,0,0,11.95,51.1l.806-.594A26.391,26.391,0,0,1,8.7,36.536V36.37A26.5,26.5,0,0,1,34.37,10l-.1,2.2Z" style="fill:#36384b"/><path d="M17.484,57.481A27.32,27.32,0,0,0,30.19,63.474l.18-.985a26.312,26.312,0,0,1-12.192-5.734Z" style="fill:#36384b"/><rect x="29.511" y="53.905" width="0.583" height="1.166" transform="translate(-25.07 83.578) rotate(-89.253)" style="fill:#36384b"/><rect x="26.596" y="53.867" width="0.583" height="1.166" transform="translate(-27.909 80.626) rotate(-89.253)" style="fill:#36384b"/><rect x="27.743" y="55.635" width="1.166" height="0.583" transform="translate(-27.966 83.521) rotate(-89.253)" style="fill:#36384b"/><rect x="27.781" y="52.721" width="1.166" height="0.583" transform="translate(-25.014 80.682) rotate(-89.253)" style="fill:#36384b"/><path d="M4.326,39.938C2.162,27.029,10.418,12.868,22.731,8.369l.343.94C11.191,13.65,3.224,27.315,5.312,39.771Z" style="fill:#36384b"/><path d="M45.7,64.6l-.2-.981c10.643-2.163,16.421-11.512,18.135-18.86l.973.226C62.831,52.621,56.81,62.34,45.7,64.6Z" style="fill:#36384b"/><circle cx="57.328" cy="36.441" r="0.583" style="fill:#a9ffd6"/><circle cx="65.808" cy="30.63" r="1.166" style="fill:#a9ffd6"/></g></svg>