<svg id="Layer_1" data-name="Layer 1" xmlns="http://www.w3.org/2000/svg" viewBox="0 0 34.673 27.281"><title>icon-spills-stains</title><ellipse cx="16.531" cy="12.751" rx="15.144" ry="10.609" style="fill:#a9ffd6"/><g id="path3049"><path d="M9.757,31.64a17.621,17.621,0,0,1-2.478-.3,19.567,19.567,0,0,0-3.154-.35c-.105,0-.5.011-.6.011-1.485,0-2.6-.444-2.7-1.081-.039-.238.029-.686.932-.993a5.535,5.535,0,0,1,1.478-.18c.747-.028,1.595-.06,1.93-.441a5.576,5.576,0,0,1,4.409-1.9c.51,0,1.033.04,1.578.081.3.024.615.048.934.065.428.023.764.064,1.058.1a6.629,6.629,0,0,0,.78.064,3.284,3.284,0,0,0,1.131-.217,2.375,2.375,0,0,1,.787-.15,1.142,1.142,0,0,1,1.237,1.032.6.6,0,0,1-.542.668,1.686,1.686,0,0,0-.253.047,1.376,1.376,0,0,0,.216.128c.327.138.575.238.764.314a2.28,2.28,0,0,1,.831.45.64.64,0,0,1,.175.707c-.195.5-.967.759-2.295.759a19.1,19.1,0,0,1-2.11-.131c-.392-.041-.728-.077-1.026-.077a1.623,1.623,0,0,0-.866.194,1.137,1.137,0,0,0-.335.355,1.834,1.834,0,0,1-1.806.846Z" transform="translate(-0.526 -4.648)" style="fill:#a3acff"/><path d="M15.841,26.637c1.03,0,1.164,1.091.676,1.124-.954.112-.615.494-.145.723,1.132.481,1.256.472,1.528.719s.271.963-1.926.963c-1.441,0-2.4-.208-3.137-.208a1.925,1.925,0,0,0-1.012.232c-.6.349-.44,1.162-2,1.162H9.761C8.187,31.328,6.1,30.7,4.124,30.7q-.162,0-.324.006c-.093,0-.185,0-.274,0-2.176,0-3.242-.978-1.676-1.511.953-.326,2.854.065,3.531-.7a5.318,5.318,0,0,1,4.193-1.8c.789,0,1.608.1,2.5.145.855.046,1.341.166,1.853.166a3.585,3.585,0,0,0,1.226-.233,2.043,2.043,0,0,1,.692-.136m0-.578a2.633,2.633,0,0,0-.888.17,3.042,3.042,0,0,1-1.03.2,6.33,6.33,0,0,1-.746-.063c-.3-.036-.638-.078-1.076-.1-.317-.018-.626-.041-.928-.064-.552-.043-1.074-.083-1.6-.083A5.9,5.9,0,0,0,4.966,28.1c-.272.308-1.088.34-1.744.365a5.7,5.7,0,0,0-1.559.194c-1.1.377-1.179.986-1.124,1.315.133.8,1.306,1.322,2.987,1.322.1,0,.2,0,.3-.005s.2-.006.3-.006a19.351,19.351,0,0,1,3.106.346,17.634,17.634,0,0,0,2.523.3h.076a2.141,2.141,0,0,0,2.043-.967.94.94,0,0,1,.245-.274,1.367,1.367,0,0,1,.72-.153c.276,0,.61.035,1,.075a19.568,19.568,0,0,0,2.142.133c1.48,0,2.319-.309,2.565-.944a.929.929,0,0,0-.25-1.025,2.572,2.572,0,0,0-.922-.507l-.312-.126a.961.961,0,0,0,.312-.771,1.427,1.427,0,0,0-1.526-1.312Z" transform="translate(-0.526 -4.648)" style="fill:#36384b"/></g><path d="M12.588,23.957a.488.488,0,1,0-.678.125A.489.489,0,0,0,12.588,23.957Z" transform="translate(-0.526 -4.648)" style="fill:#36384b"/><path d="M12.572,21.155a.488.488,0,1,0,.126.679A.489.489,0,0,0,12.572,21.155Z" transform="translate(-0.526 -4.648)" style="fill:#36384b"/><path d="M14.85,21.376a.488.488,0,1,0-.679.125A.49.49,0,0,0,14.85,21.376Z" transform="translate(-0.526 -4.648)" style="fill:#36384b"/><polygon points="16.57 16.546 18.509 12.338 22.822 12.756 25.012 13.814 26.202 15.639 26.025 18.644 25.048 20.114 23.676 20.961 16.813 17.334 16.57 16.546" style="fill:#fff"/><path d="M17.12,22.142c1.007-.433,2.321-.333,4.171,1.239C23,25.1,23.839,25.142,25.436,24.872a4.665,4.665,0,0,1-3.451,1.119C19.222,25.592,16.344,23.273,17.12,22.142Z" transform="translate(-0.526 -4.648)" style="fill:#a3acff"/><path d="M35.175,23.772A.333.333,0,0,0,35,23.589h0a.325.325,0,0,0-.256,0,.329.329,0,0,0-.182.177l-1.007,2.357-6.679-2.845.057-.186a4.844,4.844,0,0,0-3.685-6.141l-.087-.017a24.826,24.826,0,0,0-3.575-.338l-.422-.02a.329.329,0,0,0-.322.2L16.38,22.531a.385.385,0,0,0-.054.171.337.337,0,0,0,.145.3,27.168,27.168,0,0,0,3.041,2.626,4.852,4.852,0,0,0,2.691.89,4.824,4.824,0,0,0,3.9-1.844,4.9,4.9,0,0,0,.411-.617l.095-.17,6.677,2.844L32.279,29.1a.333.333,0,0,0,.568.336.311.311,0,0,0,.045-.075l1.148-2.685,1.132-2.648A.329.329,0,0,0,35.175,23.772Zm-10.61,1.421h0a4.14,4.14,0,0,1-3.5.471,6.575,6.575,0,0,1-1.163-.577,24.729,24.729,0,0,1-2.734-2.342l-.108-.1,2.3-5.39.15.007a24.267,24.267,0,0,1,3.564.336l.092.023a4.168,4.168,0,0,1,1.4,7.576Z" transform="translate(-0.526 -4.648)" style="fill:#36384b"/><path d="M16.991,22.173c1.007-.434,2.45-.364,4.3,1.208C23,25.1,23.839,25.142,25.436,24.872" transform="translate(-0.526 -4.648)" style="fill:none;stroke:#36384b;stroke-miterlimit:10;stroke-width:0.5781162870921719px"/><rect x="20.889" y="7.872" width="0.337" height="0.674" style="fill:#36384b"/><rect x="20.889" y="9.557" width="0.337" height="0.674" style="fill:#36384b"/><rect x="21.563" y="8.883" width="0.674" height="0.337" style="fill:#36384b"/><polyline points="19.877 8.883 20.552 8.883 20.552 9.22 19.877 9.22" style="fill:#36384b"/><rect x="1.485" y="9.933" width="0.337" height="0.674" style="fill:#36384b"/><rect x="1.485" y="11.618" width="0.337" height="0.674" style="fill:#36384b"/><rect x="2.159" y="10.944" width="0.674" height="0.337" style="fill:#36384b"/><polyline points="0.474 10.944 1.148 10.944 1.148 11.281 0.474 11.281" style="fill:#36384b"/><rect x="25.814" width="0.337" height="0.674" style="fill:#36384b"/><rect x="25.814" y="1.685" width="0.337" height="0.674" style="fill:#36384b"/><rect x="26.489" y="1.011" width="0.674" height="0.337" style="fill:#36384b"/><rect x="24.803" y="1.011" width="0.674" height="0.337" style="fill:#36384b"/><circle cx="29.405" cy="2.701" r="0.674" style="fill:#a9ffd6"/><circle cx="1.148" cy="17.753" r="0.337" style="fill:#a9ffd6"/></svg>