<svg id="Layer_1" data-name="Layer 1" xmlns="http://www.w3.org/2000/svg" viewBox="0 0 34.014 28.266"><title>icon-parts</title><ellipse cx="18.288" cy="18.054" rx="14.578" ry="10.212" style="fill:#a9ffd6"/><rect x="4.498" y="11.374" width="24.334" height="11.002" style="fill:#fff;stroke:#36384b;stroke-miterlimit:10;stroke-width:0.5564954280853271px"/><polygon points="3.931 11.374 29.4 11.374 29.4 7.211 26.872 4.683 6.459 4.683 3.931 7.211 3.931 11.374" style="fill:#a3acff;stroke:#36384b;stroke-linecap:round;stroke-linejoin:round;stroke-width:0.5564954280853271px"/><path d="M16.187,13.3h2.595v3.635a.746.746,0,0,1-.746.745h-1.1a.745.745,0,0,1-.745-.745Z" transform="translate(-0.819 -3.752)" style="fill:#a3acff;stroke:#36384b;stroke-linecap:round;stroke-linejoin:round;stroke-width:0.5564954280853271px"/><path d="M12.05,5.92V8.3l10.869-.028V5.92a1.89,1.89,0,0,0-1.89-1.89H13.94A1.89,1.89,0,0,0,12.05,5.92Zm9,2.336H13.915V5.814h7.138Z" transform="translate(-0.819 -3.752)" style="fill:none;stroke:#36384b;stroke-miterlimit:10;stroke-width:0.5564954280853271px"/><rect x="1.536" y="22.684" width="0.324" height="0.649" style="fill:#36384b"/><rect x="1.536" y="24.306" width="0.324" height="0.649" style="fill:#36384b"/><rect x="2.185" y="23.657" width="0.649" height="0.324" style="fill:#36384b"/><rect x="0.563" y="23.657" width="0.649" height="0.324" style="fill:#36384b"/><rect x="29.85" y="2.649" width="0.324" height="0.649" style="fill:#36384b"/><rect x="29.85" y="4.271" width="0.324" height="0.649" style="fill:#36384b"/><rect x="30.499" y="3.622" width="0.649" height="0.324" style="fill:#36384b"/><rect x="28.877" y="3.622" width="0.649" height="0.324" style="fill:#36384b"/><circle cx="3.627" cy="3.784" r="0.649" style="fill:#a9ffd6"/><circle cx="32.834" cy="11.323" r="0.649" style="fill:#a9ffd6"/><circle cx="3.931" cy="25.078" r="0.324" style="fill:#a9ffd6"/><polygon points="30.352 15.876 20.559 24.002 21.372 24.982 31.176 16.869 30.352 15.876" style="fill:#fff;stroke:#36384b;stroke-miterlimit:10;stroke-width:0.5564954280853271px"/><polygon points="24.325 20.569 20.984 23.319 20.43 23.448 20.234 23.611 21.697 25.373 21.893 25.211 22.122 24.69 25.452 21.927 25.888 21.257 25.075 20.278 24.325 20.569" style="fill:#a9ffd6;stroke:#36384b;stroke-linecap:round;stroke-linejoin:round;stroke-width:0.5564954280853271px"/><path d="M32.3,22.986c-.123-.148.2-.561-.1-.912a1.115,1.115,0,0,0-1.78-.153l-.813-.979s.819-1.015.427-1.486a4.325,4.325,0,0,0-2.572-1.271s0-.3.012-.434c1.679-.178,3.392-.075,4.31,1.031l1.137,1.371c.279.335,0,.793.259,1.108.328.4.72.071,1.041.459l.326.391-1.763,1.463Z" transform="translate(-0.819 -3.752)" style="fill:#a3acff;stroke:#36384b;stroke-linecap:round;stroke-linejoin:round;stroke-width:0.5564954280853271px"/><path d="M9.977,28.03A1.3,1.3,0,0,1,8.5,27.474a1.475,1.475,0,0,1-.361-1.535L3.356,20.263a1.628,1.628,0,0,1-1.79-.648,1.461,1.461,0,0,1-.3-1.774l.814.966.752.176.967-.814-.028-.787-.814-.966a1.457,1.457,0,0,1,1.661.627A1.633,1.633,0,0,1,4.968,18.9l4.772,5.68a1.471,1.471,0,0,1,1.474.6,1.3,1.3,0,0,1,.265,1.577l-.723-.859-.668-.156-.859.723.024.7.724.858" transform="translate(-0.819 -3.752)" style="fill:#fff;stroke:#36384b;stroke-linecap:round;stroke-linejoin:round;stroke-width:0.5564954280853271px"/><line x1="19.915" y1="20.574" x2="23.855" y2="17.351" style="fill:none;stroke:#36384b;stroke-miterlimit:10;stroke-width:0.5564954280853271px"/><path d="M16.981,28.166a.78.78,0,0,1-.488-1.388l3.062-2.506.025-.244a.272.272,0,0,1,.1-.186l.393-.322a.283.283,0,0,1,.177-.064h.027a.279.279,0,0,1,.189.1l.967,1.181a.28.28,0,0,1-.039.391L21,25.453a.283.283,0,0,1-.177.064c-.01,0-.277-.03-.277-.03l-3.065,2.5A.787.787,0,0,1,16.981,28.166Z" transform="translate(-0.819 -3.752)" style="fill:#a3acff"/><path d="M20.25,23.735l.967,1.181-.394.323-.362-.041-3.156,2.573a.51.51,0,0,1-.324.117.5.5,0,0,1-.312-.9l3.152-2.578.035-.358.394-.322m0-.557a.551.551,0,0,0-.352.126l-.394.322a.557.557,0,0,0-.2.375l-.013.129-2.973,2.433a1.057,1.057,0,0,0,.664,1.881,1.073,1.073,0,0,0,.677-.242l2.973-2.425.13.015.062,0a.557.557,0,0,0,.353-.126l.394-.322a.557.557,0,0,0,.078-.783l-.967-1.182a.557.557,0,0,0-.431-.2Z" transform="translate(-0.819 -3.752)" style="fill:#36384b"/><polygon points="23.663 17.269 23.705 17.123 24.397 16.76 24.563 16.981 24.016 17.544 23.863 17.549 23.663 17.269" style="fill:#fff"/><polygon points="24.502 16.299 23.401 16.876 23.269 17.336 23.682 17.914 24.172 17.899 25.036 17.011 24.502 16.299 24.502 16.299" style="fill:#36384b"/></svg>