<svg id="Layer_1" data-name="Layer 1" xmlns="http://www.w3.org/2000/svg" viewBox="0 0 30.097 31.807"><title>icon-clinically-tested</title><ellipse cx="13.021" cy="22.685" rx="13.021" ry="9.122" style="fill:#a9ffd6"/><rect x="8.368" y="7.216" width="14.941" height="19.354" style="fill:#fff"/><g id="_Group_" data-name="&lt;Group&gt;"><rect x="16.428" y="22.431" width="5.229" height="0.507" style="fill:#36384b"/><rect x="16.428" y="21.014" width="5.229" height="0.507" style="fill:#36384b"/><rect x="16.428" y="19.598" width="5.229" height="0.507" style="fill:#36384b"/><rect x="16.428" y="18.181" width="5.229" height="0.507" style="fill:#36384b"/><rect x="16.428" y="16.764" width="5.229" height="0.507" style="fill:#36384b"/><path d="M21.537,11.7A2.4,2.4,0,1,1,19.131,14.1a.018.018,0,0,0,0-.015h2.351V11.7Z" transform="translate(-2.285 -1.693)" style="fill:#36384b"/><path d="M21.094,11.354v2.431H18.718a.045.045,0,0,0,0-.025A2.413,2.413,0,0,1,21.094,11.354Z" transform="translate(-2.285 -1.693)" style="fill:#a9ffd6"/><polygon points="15.23 22.694 15.23 22.938 10.001 22.938 10.001 17.709 10.245 17.709 10.245 22.694 15.23 22.694" style="fill:#36384b"/><rect x="10.001" y="15.328" width="5.229" height="0.507" style="fill:#36384b"/><rect x="10.001" y="13.911" width="5.229" height="0.507" style="fill:#36384b"/><rect x="10.001" y="12.494" width="5.229" height="0.507" style="fill:#36384b"/><rect x="10.001" y="11.078" width="5.229" height="0.512" style="fill:#36384b"/><rect x="10.001" y="9.661" width="5.229" height="0.512" style="fill:#36384b"/><rect x="13.471" y="18.176" width="0.949" height="4.101" style="fill:#a9ffd6"/><rect x="12.074" y="19.12" width="0.949" height="3.156" style="fill:#a9ffd6"/><rect x="10.677" y="20.07" width="0.949" height="2.207" style="fill:#a9ffd6"/></g><path d="M9.937,30.141a1.217,1.217,0,0,1-1.216-1.216V7.063A1.217,1.217,0,0,1,9.937,5.847H26.293a1.218,1.218,0,0,1,1.216,1.216V28.925a1.218,1.218,0,0,1-1.216,1.216Zm15.535-2.126V9.3H10.757V28.015Z" transform="translate(-2.285 -1.693)" style="fill:#a2acff"/><path d="M26.293,6.1a.967.967,0,0,1,.967.967V28.924a.967.967,0,0,1-.967.968H9.937a.968.968,0,0,1-.968-.968V7.063A.967.967,0,0,1,9.937,6.1H26.293M10.508,28.264H25.721V9.056H10.508V28.264M26.293,5.6H9.937A1.466,1.466,0,0,0,8.472,7.063V28.924a1.466,1.466,0,0,0,1.465,1.465H26.293a1.466,1.466,0,0,0,1.464-1.465V7.063A1.466,1.466,0,0,0,26.293,5.6ZM11.006,9.553H25.224V27.766H11.006V9.553Z" transform="translate(-2.285 -1.693)" style="fill:#36384b"/><path d="M12.927,6.344V4.277H13.8a5.192,5.192,0,0,1,4.273-1.818,5.194,5.194,0,0,1,4.274,1.818h.772V6.344ZM17.99,3.488a.726.726,0,1,0,.725.725A.726.726,0,0,0,17.99,3.488Z" transform="translate(-2.285 -1.693)" style="fill:#a9ffd6"/><path d="M18.069,2.708a4.86,4.86,0,0,1,4.139,1.817h.658V6.1h-9.69V4.525h.754a4.86,4.86,0,0,1,4.139-1.817m-.079,2.48a.975.975,0,1,0-.974-.975.975.975,0,0,0,.974.975m.079-2.977a5.54,5.54,0,0,0-4.4,1.817h-.989V6.593H23.364V4.028H22.47a5.538,5.538,0,0,0-4.4-1.817ZM17.99,4.69a.477.477,0,1,1,.477-.477.478.478,0,0,1-.477.477Z" transform="translate(-2.285 -1.693)" style="fill:#36384b"/><circle cx="23.436" cy="26.041" r="3.81" style="fill:#a2acff"/><path d="M25.721,24.174a3.561,3.561,0,1,1-3.561,3.56,3.561,3.561,0,0,1,3.561-3.56m0-.5a4.058,4.058,0,1,0,4.058,4.057,4.062,4.062,0,0,0-4.058-4.057Z" transform="translate(-2.285 -1.693)" style="fill:#36384b"/><path d="M27.562,26.06a.514.514,0,0,0-.37.157L25.07,28.4l-.932-.964a.517.517,0,1,0-.743.718L24.7,29.5a.512.512,0,0,0,.37.158h0a.516.516,0,0,0,.37-.156l2.493-2.561a.517.517,0,0,0-.37-.877Z" transform="translate(-2.285 -1.693)" style="fill:#fff"/><rect x="7.064" width="0.29" height="0.58" style="fill:#36384b"/><rect x="7.064" y="1.449" width="0.29" height="0.58" style="fill:#36384b"/><rect x="7.644" y="0.869" width="0.58" height="0.29" style="fill:#36384b"/><polyline points="6.195 0.869 6.774 0.869 6.774 1.159 6.195 1.159" style="fill:#36384b"/><rect x="28.937" y="17.161" width="0.29" height="0.58" style="fill:#36384b"/><rect x="28.937" y="18.61" width="0.29" height="0.58" style="fill:#36384b"/><rect x="29.517" y="18.031" width="0.58" height="0.29" style="fill:#36384b"/><polyline points="28.068 18.031 28.648 18.031 28.648 18.321 28.068 18.321" style="fill:#36384b"/><circle cx="4.799" cy="3.264" r="0.58" style="fill:#a9ffd6"/><circle cx="27.754" cy="11.587" r="0.29" style="fill:#a9ffd6"/></svg>