<svg id="Layer_1" data-name="Layer 1" xmlns="http://www.w3.org/2000/svg" viewBox="0 0 33.596 32.56"><title>icon-allergen</title><ellipse cx="16.078" cy="21.799" rx="15.361" ry="10.761" style="fill:#a9ffd6"/><path d="M31.923,13.519c-.13-.638.789-1.576.566-2.2s-1.523-.752-1.833-1.338c-.3-.571.313-1.73-.078-2.268s-1.684-.307-2.135-.77-.2-1.76-.71-2.156-1.7.183-2.265-.136-.683-1.63-1.292-1.866-1.574.657-2.212.509S20.854,1.924,20.2,1.869,18.876,2.94,18.22,2.977,16.771,1.971,16.126,2.1s-.965,1.4-1.587,1.622-1.67-.556-2.256-.245c-.571.3-.525,1.614-1.063,2.005s-1.772-.054-2.235.4S8.922,7.59,8.526,8.1s-1.713.444-2.032,1.012.425,1.652.19,2.261-1.516.907-1.664,1.544.873,1.464.818,2.117-1.2,1.293-1.164,1.949,1.248,1.157,1.379,1.8-.789,1.576-.566,2.2,1.523.752,1.833,1.338-.314,1.73.078,2.268,1.684.307,2.135.77.2,1.76.71,2.156,1.7-.183,2.265.136.683,1.63,1.292,1.866,1.574-.657,2.212-.509,1.11,1.372,1.764,1.428,1.324-1.072,1.98-1.109,1.449,1.006,2.094.874.965-1.4,1.587-1.622,1.67.556,2.256.245c.571-.3.525-1.614,1.063-2s1.772.054,2.235-.4.063-1.708.459-2.222,1.713-.444,2.032-1.012-.425-1.652-.19-2.261,1.516-.907,1.664-1.544-.873-1.464-.818-2.117,1.2-1.293,1.164-1.949S32.054,14.164,31.923,13.519ZM11.855,18.294a1.044,1.044,0,1,1,.23-1.459A1.043,1.043,0,0,1,11.855,18.294Zm.817-5.41a1,1,0,1,1,.219-1.393A1,1,0,0,1,12.672,12.884Zm4.156-1.793a1.994,1.994,0,1,1,.438-2.786A1.994,1.994,0,0,1,16.828,11.091Zm6.715-.133a1.045,1.045,0,1,1-.229,1.459A1.043,1.043,0,0,1,23.543,10.958Zm1.551,10.936a4.235,4.235,0,1,1,.931-5.917A4.236,4.236,0,0,1,25.094,21.894Z" transform="translate(-1.086 -1.573)" style="fill:#a2acff;stroke:#36384b;stroke-miterlimit:10;stroke-width:0.5863896122236554px"/><rect x="32.229" y="24.74" width="0.342" height="0.684" style="fill:#36384b"/><rect x="32.229" y="26.449" width="0.342" height="0.684" style="fill:#36384b"/><rect x="32.913" y="25.766" width="0.684" height="0.342" style="fill:#36384b"/><polyline points="31.203 25.766 31.887 25.766 31.887 26.108 31.203 26.108" style="fill:#36384b"/><rect x="20.734" y="16.607" width="0.342" height="0.684" style="fill:#36384b"/><rect x="20.734" y="18.316" width="0.342" height="0.684" style="fill:#36384b"/><rect x="21.418" y="17.633" width="0.684" height="0.342" style="fill:#36384b"/><polyline points="19.709 17.633 20.392 17.633 20.392 17.974 19.709 17.974" style="fill:#36384b"/><circle cx="30.684" cy="29.479" r="0.684" style="fill:#a9ffd6"/><rect x="1.026" y="17.462" width="0.342" height="0.684" style="fill:#36384b"/><rect x="1.026" y="19.171" width="0.342" height="0.684" style="fill:#36384b"/><rect x="1.709" y="18.487" width="0.684" height="0.342" style="fill:#36384b"/><polyline points="0 18.487 0.684 18.487 0.684 18.829 0 18.829" style="fill:#36384b"/></svg>