<svg id="Layer_1" data-name="Layer 1" xmlns="http://www.w3.org/2000/svg" viewBox="0 0 32.25 30.802"><title>icon-technetwork</title><ellipse cx="16.461" cy="13.469" rx="15.789" ry="11.061" style="fill:#a9ffd6"/><path d="M20.607,18.5c-3.772.252-5.287,1.15-5.471,2.429,1.131,3.313,3.368,5.639,8.176,5.67,4.883-.432,7.428-2.3,8.135-5.294.469-2.025-2.258-2.531-5.473-2.8C25.4,21.33,21.019,21.127,20.607,18.5Z" transform="translate(-1.875 -2.067)" style="fill:#a3acff"/><polygon points="19.055 15.171 18.491 17.022 19.421 18.005 21.437 18.583 22.742 18.188 23.922 17.6 24.307 16.608 23.775 15.171 19.055 15.171" style="fill:#fff"/><path d="M27.447,12c-.014-4-2.168-4.34-4.135-4.34-2.131,0-4.083.331-4.116,4.276" transform="translate(-1.875 -2.067)" style="fill:#a3acff"/><path d="M27.07,12.853c-.039.232-.04.627-.077.83s-.069.378-.094.537a6.761,6.761,0,0,1-1.683,3.54,3.2,3.2,0,0,1-1.9.5h-.055a3.2,3.2,0,0,1-1.9-.5,7.531,7.531,0,0,1-1.6-3.081,12.371,12.371,0,0,1-.331-1.845l7.65.019" transform="translate(-1.875 -2.067)" style="fill:#fff"/><path d="M23.313,18.563a3.432,3.432,0,0,1-2.172-.59,7.851,7.851,0,0,1-1.682-3.22,12.676,12.676,0,0,1-.339-1.886l-.036-.335,8.34.021-.057.349c-.018.108-.027.254-.036.4-.011.165-.021.327-.041.437-.036.2-.068.376-.095.534a7.06,7.06,0,0,1-1.766,3.7A3.371,3.371,0,0,1,23.313,18.563ZM19.76,13.136a11.748,11.748,0,0,0,.283,1.469,7.205,7.205,0,0,0,1.523,2.942,2.858,2.858,0,0,0,1.692.413A2.931,2.931,0,0,0,25,17.547a6.433,6.433,0,0,0,1.6-3.375q.041-.243.1-.543a3.379,3.379,0,0,0,.033-.369c0-.035.005-.071.007-.106Z" transform="translate(-1.875 -2.067)" style="fill:#36384b"/><path d="M23.265,11.364c-3.228,0-4.009.418-4.049.51a.758.758,0,0,0,.1.705,2.339,2.339,0,0,0,1.657.725c.208.028,1.31.055,2.435.055a23.006,23.006,0,0,0,2.462-.086,2.006,2.006,0,0,0,1.465-.7.737.737,0,0,0,.035-.713C27.323,11.773,26.493,11.364,23.265,11.364Z" transform="translate(-1.875 -2.067)" style="fill:#a3acff"/><path d="M27.748,12c-.015-4.08-2.141-4.642-4.436-4.642-2.113,0-4.367.354-4.415,4.537a1.071,1.071,0,0,0,.172.857,2.6,2.6,0,0,0,1.865.852c.234.031,1.368.058,2.475.058a24.426,24.426,0,0,0,2.508-.09,2.266,2.266,0,0,0,1.676-.84A1.013,1.013,0,0,0,27.724,12ZM23.312,7.96c1.826,0,3.61.283,3.811,3.46a14.843,14.843,0,0,0-3.858-.358,14.639,14.639,0,0,0-3.747.343C19.706,8.235,21.348,7.96,23.312,7.96Zm3.767,4.457a1.787,1.787,0,0,1-1.254.559,22.39,22.39,0,0,1-2.416.082c-1.128,0-2.214-.028-2.395-.053a2.117,2.117,0,0,1-1.45-.6.469.469,0,0,1-.086-.35,10.6,10.6,0,0,1,3.787-.392,11,11,0,0,1,3.862.393A.438.438,0,0,1,27.079,12.417Z" transform="translate(-1.875 -2.067)" style="fill:#36384b"/><path d="M18.811,25.965l-.574-.336A7.793,7.793,0,0,1,15.7,23.274a3.648,3.648,0,0,1-.733-3.139c.27-.644,1.044-1.1,2.3-1.342l.941-.185-.553.573.033.131-.217.054.988,3.89.231,2.056ZM16.879,19.5c-.741.206-1.208.5-1.36.865A3.191,3.191,0,0,0,16.2,22.94a7.065,7.065,0,0,0,1.816,1.831l-.157-1.428Z" transform="translate(-1.875 -2.067)" style="fill:#36384b"/><polygon points="24.177 20.198 18.357 20.198 17.072 17.089 17.629 16.858 18.76 19.595 23.774 19.595 24.922 16.842 25.479 17.074 24.177 20.198" style="fill:#36384b"/><path d="M28.938,19.03a9.993,9.993,0,0,0-1.8-.151L25.85,21.963H20.434L19.225,19.04a.255.255,0,0,0-.31-.139,12.214,12.214,0,0,0-1.6.192.224.224,0,0,0-.163.274l1,3.922.215,1.959c0,.025.01.07.02.122A9.57,9.57,0,0,0,23.312,26.6,9.747,9.747,0,0,0,27.9,25.555c.007-.048.012-.093.015-.126l.216-2.144L29.1,19.3A.224.224,0,0,0,28.938,19.03Z" transform="translate(-1.875 -2.067)" style="fill:#fff"/><path d="M31.662,20.135c-.3-.706-1.2-1.18-2.681-1.409l-.1-.016a11.271,11.271,0,0,0-1.742-.132h-.823a4.259,4.259,0,0,1-.206-1.548l-.6-.054a4.577,4.577,0,0,0,.332,2.038l.034.069a2.9,2.9,0,0,1-2.563,1.264,2.962,2.962,0,0,1-2.581-1.258l.039-.11a4.966,4.966,0,0,0,.319-1.968l-.6.052a4.116,4.116,0,0,1-.219,1.511c-.09,0-.192,0-.3,0-.263,0-.629,0-1.036.025a.561.561,0,0,0-.058,0l-.123.009-.035,0c-.139.009-.279.021-.424.035-.1.009-.2.02-.312.032l-.068.007v0a6.148,6.148,0,0,0-.665.11.527.527,0,0,0-.382.641l.991,3.881.215,1.96c0,.03.012.084.024.144l.026.135.117.068A9.913,9.913,0,0,0,23.312,26.9a10.3,10.3,0,0,0,4.2-.844L27.5,26.1l.534-.28.134-.069v-.008a7.865,7.865,0,0,0,2.756-2.47A3.651,3.651,0,0,0,31.662,20.135Zm-12-.951c.151-.005.282-.006.4-.006a3.6,3.6,0,0,0,3.243,1.773,3.544,3.544,0,0,0,3.206-1.77h.166l-1.035,2.48H20.635l-1.025-2.48.054,0Zm8.166,4.071-.212,2.1a9.567,9.567,0,0,1-4.306.936,9.387,9.387,0,0,1-4.647-1.115l-.218-1.965-.98-3.847c.167-.036.364-.063.559-.085.326-.041.642-.065.941-.08l1.265,3.062h5.82l1.285-3.082a9,9,0,0,1,1.456.122Zm2.6-.315A7.127,7.127,0,0,1,28.26,25l.163-1.646.964-3.944c.951.206,1.542.532,1.718.955A3.19,3.19,0,0,1,30.427,22.94Z" transform="translate(-1.875 -2.067)" style="fill:#36384b"/><path d="M9.162,23.018c-4.668.312-6.391.95-6.619,2.532,1.4,4.1,4.167,6.979,10.118,7.017,6.042-.535,9.191-2.845,10.065-6.552.581-2.5-2.793-3.131-6.771-3.471C15.248,26.049,9.672,26.271,9.162,23.018Z" transform="translate(-1.875 -2.067)" style="fill:#a3acff"/><circle cx="0.352" cy="18.249" r="0.351" style="fill:#a9ffd6"/><circle cx="22.467" cy="0.703" r="0.703" style="fill:#a9ffd6"/><rect x="28.247" y="0.703" width="0.351" height="0.703" style="fill:#36384b"/><rect x="28.247" y="2.46" width="0.351" height="0.703" style="fill:#36384b"/><rect x="28.95" y="1.757" width="0.703" height="0.351" style="fill:#36384b"/><polyline points="27.193 1.757 27.896 1.757 27.896 2.109 27.193 2.109" style="fill:#36384b"/><rect x="2.504" y="17.197" width="0.351" height="0.703" style="fill:#36384b"/><rect x="2.504" y="18.954" width="0.351" height="0.703" style="fill:#36384b"/><rect x="3.207" y="18.251" width="0.703" height="0.351" style="fill:#36384b"/><polyline points="1.45 18.251 2.152 18.251 2.152 18.603 1.45 18.603" style="fill:#36384b"/><polygon points="8.044 17.806 7.158 21.649 10.361 23.268 13.175 22.489 14.249 20.952 13.634 18.98 8.044 17.806" style="fill:#fff"/><path d="M17.777,14.5C17.76,9.55,15.094,9.132,12.66,9.132c-2.636,0-5.052.41-5.093,5.292" transform="translate(-1.875 -2.067)" style="fill:#a3acff"/><path d="M17.31,15.56c-.048.286-.049.776-.095,1.027s-.085.468-.116.664a8.355,8.355,0,0,1-2.083,4.38,3.953,3.953,0,0,1-2.355.622h-.069a3.957,3.957,0,0,1-2.356-.622,9.32,9.32,0,0,1-1.983-3.812,15.5,15.5,0,0,1-.409-2.283l9.466.024" transform="translate(-1.875 -2.067)" style="fill:#fff"/><path d="M12.662,22.555a4.2,4.2,0,0,1-2.639-.711,9.651,9.651,0,0,1-2.062-3.951,15.632,15.632,0,0,1-.417-2.324l-.036-.335,10.158.025-.059.35c-.022.136-.033.319-.045.5a5.229,5.229,0,0,1-.05.534c-.044.242-.084.463-.116.658a8.7,8.7,0,0,1-2.167,4.545A4.111,4.111,0,0,1,12.662,22.555ZM8.183,15.838a14.612,14.612,0,0,0,.363,1.908,8.953,8.953,0,0,0,1.9,3.672,3.518,3.518,0,0,0,2.143.533,3.611,3.611,0,0,0,2.21-.533,8.046,8.046,0,0,0,2-4.215c.032-.2.073-.423.118-.67a4.664,4.664,0,0,0,.042-.465c0-.069.009-.139.014-.208Z" transform="translate(-1.875 -2.067)" style="fill:#36384b"/><path d="M12.6,13.717c-3.994,0-4.961.518-5.01.631a.941.941,0,0,0,.124.873,2.9,2.9,0,0,0,2.051.9c.258.034,1.622.068,3.014.068a28.554,28.554,0,0,0,3.046-.106,2.487,2.487,0,0,0,1.813-.866.914.914,0,0,0,.043-.882C17.624,14.223,16.6,13.717,12.6,13.717Z" transform="translate(-1.875 -2.067)" style="fill:#a3acff"/><path d="M18.078,14.5c-.017-4.984-2.614-5.671-5.418-5.671-2.7,0-5.346.432-5.394,5.576a1.228,1.228,0,0,0,.2.986,3.161,3.161,0,0,0,2.259,1.024c.287.038,1.685.07,3.053.07a30.1,30.1,0,0,0,3.092-.11,2.745,2.745,0,0,0,2.024-1,1.154,1.154,0,0,0,.15-.869ZM12.66,9.434c2.315,0,4.574.365,4.793,4.455a16.6,16.6,0,0,0-4.851-.473,17.292,17.292,0,0,0-4.712.45C8.1,9.788,10.172,9.434,12.66,9.434Zm4.723,5.623a2.271,2.271,0,0,1-1.6.725,27.554,27.554,0,0,1-3,.1c-1.422,0-2.742-.035-2.973-.066a2.685,2.685,0,0,1-1.844-.77.66.66,0,0,1-.112-.524c.2-.1,1.224-.506,4.75-.506,3.606,0,4.65.413,4.836.5A.606.606,0,0,1,17.383,15.057Z" transform="translate(-1.875 -2.067)" style="fill:#36384b"/><polygon points="14.127 25.068 7.022 25.068 5.45 21.264 6.007 21.034 7.426 24.465 13.726 24.465 15.164 21.013 15.721 21.245 14.127 25.068" style="fill:#36384b"/><path d="M19.622,23.2a12.364,12.364,0,0,0-2.229-.187L15.8,26.833H9.1L7.6,23.216a.316.316,0,0,0-.384-.173,15.359,15.359,0,0,0-1.974.238.278.278,0,0,0-.2.339l1.236,4.854L6.545,30.9c0,.031.012.086.024.15a11.856,11.856,0,0,0,6.092,1.519,12.058,12.058,0,0,0,5.675-1.29c.009-.059.015-.115.019-.156l.267-2.653,1.205-4.928A.28.28,0,0,0,19.622,23.2Z" transform="translate(-1.875 -2.067)" style="fill:#fff"/><path d="M22.927,24.6c-.358-.851-1.455-1.422-3.263-1.7l-.127-.019a13.871,13.871,0,0,0-2.144-.164h-.2l-.867,0a5.222,5.222,0,0,1-.275-1.992l-.6-.055a5.575,5.575,0,0,0,.4,2.483l.062.124a3.657,3.657,0,0,1-3.255,1.629,3.737,3.737,0,0,1-3.275-1.616l.061-.171a6.041,6.041,0,0,0,.391-2.4l-.6.051a5.214,5.214,0,0,1-.29,1.948c-.11,0-.236,0-.376,0-.333,0-.815,0-1.353.033-.015,0-.028,0-.043,0l-.139.01c-.19.012-.382.028-.582.048-.079.007-.159.016-.242.025s-.15.014-.226.024h0c-.148.018-.3.039-.439.063v-.007l-.359.07c-1.53.3-2.47.846-2.794,1.619-.391.931-.045,2.394.9,3.818a9.592,9.592,0,0,0,3,2.816v.007l.118.069h0l.571.335-.012-.061a12.4,12.4,0,0,0,5.682,1.285,12.6,12.6,0,0,0,5.292-1.094l-.007.047.53-.277.134-.07,0-.008a9.63,9.63,0,0,0,3.413-3.05C22.972,26.992,23.317,25.529,22.927,24.6Zm-3.394-1.129v0l0,0ZM8.145,23.321c.179-.005.335-.006.484-.007.017,0,.043,0,.059,0a4.385,4.385,0,0,0,3.973,2.2,4.308,4.308,0,0,0,3.925-2.19h.354L15.6,26.531H9.3L7.972,23.318l.172,0ZM3.8,28.082a4.015,4.015,0,0,1-.847-3.252c.2-.482.82-.869,1.8-1.132l1.23,4.828.212,1.929A8.843,8.843,0,0,1,3.8,28.082Zm14.525.356-.267,2.644a11.894,11.894,0,0,1-5.4,1.183,11.67,11.67,0,0,1-5.817-1.406L6.579,28.44l-.006-.022,0-.019-.932-3.584-.322-1.241h0a7.447,7.447,0,0,1,.826-.133c.081-.01.161-.018.242-.026.271-.027.523-.046.679-.057l.066-.006.2-.01L8.9,27.135H16l1.591-3.816a10.741,10.741,0,0,1,1.935.171Zm3.2-.356A8.893,8.893,0,0,1,18.7,30.729l.219-2.189,1.2-4.928,0-.02c1.241.259,2.014.682,2.247,1.238A4.015,4.015,0,0,1,21.523,28.082Z" transform="translate(-1.875 -2.067)" style="fill:#36384b"/></svg>