<svg id="Layer_1" data-name="Layer 1" xmlns="http://www.w3.org/2000/svg" viewBox="0 0 32.52 31.18"><title>icon-nationwide</title><ellipse cx="14.306" cy="21.157" rx="14.306" ry="10.022" style="fill:#a9ffd6"/><polygon points="2.269 24.431 10.708 20.579 18.791 24.269 27.23 20.417 27.23 4.096 18.791 7.948 10.708 4.258 2.269 8.111 2.269 24.431" style="fill:#fff;stroke:#36384b;stroke-miterlimit:10;stroke-width:0.5461410737715937px"/><line x1="18.791" y1="7.948" x2="18.791" y2="24.269" style="fill:none;stroke:#36384b;stroke-miterlimit:10;stroke-width:0.5461410737715937px"/><line x1="10.708" y1="20.579" x2="10.708" y2="4.258" style="fill:none;stroke:#36384b;stroke-miterlimit:10;stroke-width:0.5461410737715937px"/><rect x="30.382" y="24.017" width="0.318" height="0.637" style="fill:#36384b"/><rect x="30.382" y="25.609" width="0.318" height="0.637" style="fill:#36384b"/><rect x="31.019" y="24.972" width="0.637" height="0.318" style="fill:#36384b"/><polyline points="29.427 24.972 30.064 24.972 30.064 25.291 29.427 25.291" style="fill:#36384b"/><rect x="1.601" y="1.4" width="0.318" height="0.637" style="fill:#36384b"/><rect x="1.601" y="2.992" width="0.318" height="0.637" style="fill:#36384b"/><rect x="2.238" y="2.355" width="0.637" height="0.318" style="fill:#36384b"/><polyline points="0.646 2.355 1.282 2.355 1.282 2.674 0.646 2.674" style="fill:#36384b"/><circle cx="32.202" cy="21.732" r="0.318" style="fill:#a9ffd6"/><path d="M16.49,2.547a6.391,6.391,0,0,0-5.874,8.909c.564,1.315,2.044,3.167,2.753,4.469l2.736,5.031c.212.39.557.39.769,0l2.736-5.031c.709-1.3,2.189-3.154,2.753-4.469A6.393,6.393,0,0,0,16.49,2.547Z" transform="translate(-1.74 -2.274)" style="fill:#a2acff;stroke:#36384b;stroke-miterlimit:10;stroke-width:0.5461410737715937px"/><path d="M19.837,8.734l.374-1.1-.931.246a.4.4,0,0,1-.487-.189L18.7,7.4l-.743.751c-.156.157-.259.106-.23-.114l.25-1.848-.361.159a.419.419,0,0,1-.538-.2l-.584-1.2-.583,1.2a.419.419,0,0,1-.538.2l-.361-.159.25,1.849c.029.219-.074.27-.231.113L14.284,7.4l-.1.292a.4.4,0,0,1-.487.189l-.931-.246.374,1.1a.414.414,0,0,1-.122.5l-.252.12,1.589,1.372a.655.655,0,0,1,.213.6l-.092.337,1.611-.188c.09-.011.2-.017.321-.019l-.159,1.8h.477l-.159-1.8c.117,0,.231.008.321.019l1.611.188-.092-.337a.655.655,0,0,1,.213-.6l1.589-1.372-.252-.12A.414.414,0,0,1,19.837,8.734Z" transform="translate(-1.74 -2.274)" style="fill:#fff"/></svg>