<svg xmlns="http://www.w3.org/2000/svg" viewBox="0 0 72 72"><title>Artboard 34</title><g id="Layer_1" data-name="Layer 1"><path d="M61.329,26.845A27.066,27.066,0,0,0,49.68,13.156l.5-.865a28.075,28.075,0,0,1,12.08,14.2Z" style="fill:#36384b"/><path d="M63.636,36.538l-1,0A26.449,26.449,0,0,1,41.708,62.318l-.437-2.2-2.933,3.485,4,1.865L41.9,63.3A27.449,27.449,0,0,0,63.636,36.538Z" style="fill:#36384b"/><rect x="12.288" y="56.191" width="0.583" height="1.166" transform="translate(-44.354 68.612) rotate(-89.253)" style="fill:#36384b"/><rect x="9.373" y="56.153" width="0.583" height="1.166" transform="translate(-47.193 65.659) rotate(-89.253)" style="fill:#36384b"/><rect x="10.52" y="57.921" width="1.166" height="0.583" transform="translate(-47.25 68.555) rotate(-89.253)" style="fill:#36384b"/><rect x="10.558" y="55.006" width="1.166" height="0.583" transform="translate(-44.297 65.716) rotate(-89.253)" style="fill:#36384b"/><path d="M38.954,9.53,35.525,6.755,35.418,9A27.5,27.5,0,0,0,8.7,36.368v.17A27.387,27.387,0,0,0,12.95,51.1l.806-.594A26.391,26.391,0,0,1,9.7,36.536V36.37A26.5,26.5,0,0,1,35.37,10l-.1,2.2Z" style="fill:#36384b"/><path d="M18.484,57.481A27.32,27.32,0,0,0,31.19,63.474l.18-.985a26.312,26.312,0,0,1-12.192-5.734Z" style="fill:#36384b"/><rect x="29.053" y="4.147" width="0.583" height="1.166" transform="translate(24.233 34.01) rotate(-89.253)" style="fill:#36384b"/><rect x="26.138" y="4.109" width="0.583" height="1.166" transform="translate(21.394 31.058) rotate(-89.253)" style="fill:#36384b"/><rect x="27.285" y="5.877" width="1.166" height="0.583" transform="translate(21.337 33.954) rotate(-89.253)" style="fill:#36384b"/><rect x="27.323" y="2.962" width="1.166" height="0.583" transform="translate(24.29 31.115) rotate(-89.253)" style="fill:#36384b"/><path d="M5.326,39.938C3.162,27.029,11.418,12.868,23.731,8.369l.343.94C12.191,13.65,4.224,27.315,6.312,39.771Z" style="fill:#36384b"/><path d="M46.7,64.6l-.2-.981c10.643-2.163,16.421-11.512,18.135-18.86l.973.226C63.831,52.621,57.81,62.34,46.7,64.6Z" style="fill:#36384b"/><circle cx="36" cy="66.054" r="0.583" style="fill:#a9ffd6"/><circle cx="7.529" cy="51.101" r="1.166" style="fill:#a9ffd6"/><path d="M53.3,35.181A3.822,3.822,0,0,1,49.478,39H22.459a3.822,3.822,0,0,1-3.822-3.822V21.592H53.3Z" style="fill:#a2acff"/><rect x="22.897" y="35.09" width="26.142" height="3.913" style="fill:#fff"/><path d="M18.137,21.092V35.181A4.323,4.323,0,0,0,22.4,39.5V39.5H49.54V39.5a4.323,4.323,0,0,0,4.26-4.316V21.092ZM23.4,38.5V35.59H48.54V38.5Zm29.4-3.322A3.323,3.323,0,0,1,49.54,38.5V34.59H22.4V38.5a3.322,3.322,0,0,1-3.26-3.316V22.092H52.8Z" style="fill:#36384b"/><rect x="43.937" y="24.142" width="2.13" height="1" style="fill:#36384b"/><rect x="21.767" y="26.75" width="28.414" height="1" style="fill:#36384b"/><path d="M28.953,51.574a.5.5,0,0,1-.391-.811c1.407-1.763.839-2.532.119-3.5-.819-1.107-1.838-2.484.621-5.052a.5.5,0,1,1,.722.691c-1.876,1.96-1.316,2.717-.539,3.766s1.745,2.359-.141,4.722A.5.5,0,0,1,28.953,51.574Z" style="fill:#36384b"/><path d="M33.89,51.573a.5.5,0,0,1-.39-.812c1.406-1.761.838-2.53.118-3.5-.819-1.107-1.838-2.484.621-5.052a.5.5,0,1,1,.722.691c-1.876,1.96-1.315,2.717-.539,3.766s1.745,2.359-.141,4.722A.5.5,0,0,1,33.89,51.573Z" style="fill:#36384b"/><path d="M38.827,51.573a.5.5,0,0,1-.39-.811c1.406-1.763.838-2.532.118-3.5-.819-1.107-1.838-2.484.621-5.051a.5.5,0,1,1,.722.691c-1.876,1.959-1.315,2.717-.54,3.765s1.746,2.359-.14,4.722A.5.5,0,0,1,38.827,51.573Z" style="fill:#36384b"/><path d="M43.764,51.573a.5.5,0,0,1-.39-.811c1.406-1.763.838-2.532.118-3.5-.819-1.107-1.838-2.484.621-5.051a.5.5,0,1,1,.722.691c-1.876,1.959-1.315,2.717-.54,3.765s1.747,2.359-.14,4.722A.5.5,0,0,1,43.764,51.573Z" style="fill:#36384b"/><circle cx="65.611" cy="34.09" r="1.166" style="fill:#a9ffd6"/><circle cx="48.778" cy="24.648" r="1.21" style="fill:#36384b"/></g></svg>