<svg id="Layer_1" data-name="Layer 1" xmlns="http://www.w3.org/2000/svg" viewBox="0 0 32.427 30.409"><title>icon-experienced</title><ellipse cx="17.896" cy="20.229" rx="14.531" ry="10.18" style="fill:#a9ffd6"/><rect x="6.241" y="2.226" width="19.928" height="26.027" style="fill:#fff;stroke:#36384b;stroke-miterlimit:10;stroke-width:0.5547132174249505px"/><polygon points="25.068 27.153 5.14 27.153 5.14 1.126 21.09 1.126 25.068 5.154 25.068 27.153" style="fill:#fff;stroke:#36384b;stroke-miterlimit:10;stroke-width:0.5547132174249505px"/><path d="M10.361,10.457h2.27a.511.511,0,0,0,.508-.576A1.744,1.744,0,0,0,11.93,8.217a.977.977,0,1,0-.868,0A1.744,1.744,0,0,0,9.853,9.881.511.511,0,0,0,10.361,10.457Z" transform="translate(-1.823 -3.066)" style="fill:#36384b"/><line x1="10.228" y1="10.148" x2="22.408" y2="10.148" style="fill:none;stroke:#36384b;stroke-linecap:round;stroke-miterlimit:10;stroke-width:0.5547132174249505px"/><line x1="10.228" y1="11.816" x2="22.408" y2="11.816" style="fill:none;stroke:#36384b;stroke-linecap:round;stroke-miterlimit:10;stroke-width:0.5547132174249505px"/><line x1="10.228" y1="13.483" x2="22.408" y2="13.483" style="fill:none;stroke:#36384b;stroke-linecap:round;stroke-miterlimit:10;stroke-width:0.5547132174249505px"/><line x1="7.56" y1="18.131" x2="22.408" y2="18.131" style="fill:none;stroke:#36384b;stroke-linecap:round;stroke-miterlimit:10;stroke-width:0.5547132174249505px"/><line x1="7.56" y1="16.555" x2="22.408" y2="16.555" style="fill:none;stroke:#36384b;stroke-linecap:round;stroke-miterlimit:10;stroke-width:0.5547132174249505px"/><line x1="7.56" y1="19.798" x2="22.408" y2="19.798" style="fill:none;stroke:#36384b;stroke-linecap:round;stroke-miterlimit:10;stroke-width:0.5547132174249505px"/><line x1="7.56" y1="21.466" x2="22.408" y2="21.466" style="fill:none;stroke:#36384b;stroke-linecap:round;stroke-miterlimit:10;stroke-width:0.5547132174249505px"/><line x1="7.56" y1="23.134" x2="22.408" y2="23.134" style="fill:none;stroke:#36384b;stroke-linecap:round;stroke-miterlimit:10;stroke-width:0.5547132174249505px"/><line x1="13.587" y1="4.564" x2="18.581" y2="4.564" style="fill:none;stroke:#36384b;stroke-linecap:round;stroke-miterlimit:10;stroke-width:0.5547132174249505px"/><line x1="13.587" y1="5.881" x2="19.986" y2="5.881" style="fill:none;stroke:#36384b;stroke-linecap:round;stroke-miterlimit:10;stroke-width:0.5547132174249505px"/><line x1="13.587" y1="7.129" x2="19.986" y2="7.129" style="fill:none;stroke:#36384b;stroke-linecap:round;stroke-miterlimit:10;stroke-width:0.5547132174249505px"/><polygon points="25.075 5.154 21.09 1.132 21.102 5.166 25.075 5.154" style="fill:#fff;stroke:#36384b;stroke-linejoin:round;stroke-width:0.5547132174249505px"/><rect x="0.97" y="11.996" width="0.323" height="0.647" style="fill:#36384b"/><rect x="0.97" y="13.613" width="0.323" height="0.647" style="fill:#36384b"/><rect x="1.617" y="12.966" width="0.647" height="0.323" style="fill:#36384b"/><polyline points="0 12.966 0.647 12.966 0.647 13.289 0 13.289" style="fill:#36384b"/><rect x="29.644" width="0.323" height="0.647" style="fill:#36384b"/><rect x="29.644" y="1.617" width="0.323" height="0.647" style="fill:#36384b"/><rect x="30.29" y="0.97" width="0.647" height="0.323" style="fill:#36384b"/><polyline points="28.673 0.97 29.32 0.97 29.32 1.294 28.673 1.294" style="fill:#36384b"/><circle cx="2.877" cy="26.292" r="0.647" style="fill:#a9ffd6"/><path d="M24.465,21.947c.274-.612,1.634-1.917,1.913-2.42.557-1,.095-2.375,1.463-2.375.609,0,2.467,1.533-.458,5.5a17.331,17.331,0,0,1,4.486,0,1.352,1.352,0,0,1,1.073,1.168,1.26,1.26,0,0,1-.645,1.182,1.229,1.229,0,0,1-.076,2.35,1.306,1.306,0,0,1,.754,1.175,1.218,1.218,0,0,1-1.113,1.175.943.943,0,0,1,.657.833c0,1.115-.952,1.386-1.723,1.6a10.554,10.554,0,0,1-3.29.127c-1.444-.1-3.074-.732-5.146-.974v-6.6A6.85,6.85,0,0,0,24.465,21.947ZM18.282,31.983a.34.34,0,0,0,.339.34h3.4a.34.34,0,0,0,.34-.34V24a.34.34,0,0,0-.34-.34h-3.4a.34.34,0,0,0-.339.34Z" transform="translate(-1.823 -3.066)" style="fill:#fff;stroke:#36384b;stroke-miterlimit:10;stroke-width:0.644992798781944px"/><rect x="16.789" y="20.9" width="3.417" height="8.007" style="fill:#a2acff"/><path d="M10.1,16.1l-.587.6-.258-.267a.143.143,0,0,0-.206.2L9.406,17a.142.142,0,0,0,.1.044h0a.146.146,0,0,0,.1-.043l.69-.709a.143.143,0,0,0-.205-.2Z" transform="translate(-1.823 -3.066)" style="fill:#36384b"/><path d="M10.1,14.428l-.587.6-.258-.267a.143.143,0,0,0-.206.2l.361.373a.146.146,0,0,0,.1.043h0a.141.141,0,0,0,.1-.043l.69-.708a.143.143,0,1,0-.205-.2Z" transform="translate(-1.823 -3.066)" style="fill:#36384b"/><path d="M10.1,12.76l-.587.6L9.251,13.1a.143.143,0,0,0-.206.2l.361.373a.147.147,0,0,0,.1.044h0a.142.142,0,0,0,.1-.044l.69-.708a.143.143,0,0,0-.205-.2Z" transform="translate(-1.823 -3.066)" style="fill:#36384b"/></svg>