<svg id="Layer_1" data-name="Layer 1" xmlns="http://www.w3.org/2000/svg" viewBox="0 0 31.339 29.78"><title>icon-247service</title><path id="_Path_" data-name="&lt;Path&gt;" d="M6.454,18.176a9.887,9.887,0,0,1,19.257-3.214l-1.26.007a8.589,8.589,0,0,0-.42-.92l-1.284.751a.375.375,0,1,1-.378-.647l1.282-.751a8.744,8.744,0,0,0-2.684-2.653l-.736,1.292a.375.375,0,0,1-.652-.371l.736-1.293a8.656,8.656,0,0,0-3.652-.954l.009,1.486a.375.375,0,0,1-.75,0l-.009-1.486a8.661,8.661,0,0,0-3.64,1l.751,1.284a.375.375,0,0,1-.648.379l-.75-1.283A8.736,8.736,0,0,0,8.973,13.49l1.292.735a.375.375,0,1,1-.372.652L8.6,14.141a8.656,8.656,0,0,0-.954,3.652l1.486-.009a.375.375,0,0,1,.005.75l-1.486.009a8.633,8.633,0,0,0,1,3.64l1.283-.751a.375.375,0,0,1,.379.648l-1.283.75a8.725,8.725,0,0,0,2.685,2.653l.735-1.291a.375.375,0,1,1,.652.371l-.736,1.292a8.656,8.656,0,0,0,3.652.954l-.009-1.486a.375.375,0,0,1,.75,0l.009,1.485a8.647,8.647,0,0,0,3.64-1l-.751-1.284a.375.375,0,0,1,.647-.379l.9,1.491S20.167,27.979,16.4,28A9.885,9.885,0,0,1,6.454,18.176Z" transform="translate(-2.457 -2.657)" style="fill:#36384b;fill-rule:evenodd"/><path d="M15.528,21.73" transform="translate(-2.457 -2.657)" style="fill:none;stroke:#2a5082;stroke-miterlimit:10;stroke-width:1.0331370659881642px"/><path d="M16.321,30.4a12.163,12.163,0,0,1,.008-24.326,12.273,12.273,0,0,1,11.867,9.5,12.065,12.065,0,0,1,.215,1.244l2.321-.528-3.118,5.688-5.27-3.782,2.569-.584a8.793,8.793,0,0,0-.183-1.251A8.606,8.606,0,1,0,7.941,20.152a8.6,8.6,0,0,0,10.3,6.48,16.081,16.081,0,0,0,2.786-.989l.3-.153.8,3.539-.2.086a17.084,17.084,0,0,1-2.9.981A12.25,12.25,0,0,1,16.321,30.4Z" transform="translate(-2.457 -2.657)" style="fill:#a3acff"/><path d="M16.329,6.333a11.947,11.947,0,0,1,11.616,9.3,12.782,12.782,0,0,1,.242,1.5l2.043-.464-2.7,4.929-4.567-3.277,2.226-.506a9.38,9.38,0,0,0-.206-1.511A8.87,8.87,0,1,0,18.3,26.884a16.254,16.254,0,0,0,2.847-1.012l.683,3.007a16.824,16.824,0,0,1-2.857.965A11.9,11.9,0,1,1,16.329,6.333m0-.516a12.421,12.421,0,1,0,2.755,24.531,17.416,17.416,0,0,0,2.95-1l.392-.172-.095-.416-.684-3.006-.147-.651-.593.306a15.639,15.639,0,0,1-2.725.967,8.413,8.413,0,0,1-1.86.21,8.342,8.342,0,0,1-1.838-16.478,8.345,8.345,0,0,1,9.993,6.305,8.056,8.056,0,0,1,.159.991l-1.789.407-1.119.255.932.669,4.567,3.277.474.34.28-.511,2.7-4.93.551-1.006-1.119.254-1.486.338c-.049-.346-.109-.672-.181-.987a12.532,12.532,0,0,0-12.119-9.7Z" transform="translate(-2.457 -2.657)" style="fill:#36384b"/><path d="M16.294,32.438A14.217,14.217,0,0,1,2.457,21.391l.5-.116a13.688,13.688,0,0,0,16.364,10.3l.115.5A14.218,14.218,0,0,1,16.294,32.438Z" transform="translate(-2.457 -2.657)" style="fill:#36384b"/><path d="M28.844,12.809a13.666,13.666,0,0,0-15.58-7.9l-.115-.5a14.188,14.188,0,0,1,16.169,8.2Z" transform="translate(-2.457 -2.657)" style="fill:#36384b"/><path d="M3,14.146l-.494-.152A14.5,14.5,0,0,1,8.25,6.266l.288.428A13.977,13.977,0,0,0,3,14.146Z" transform="translate(-2.457 -2.657)" style="fill:#36384b"/><path id="_Compound_Path_" data-name="&lt;Compound Path&gt;" d="M22.62,27.178h2.493v-.712H23.651l.64-.652a4.73,4.73,0,0,0,.625-.707,1.309,1.309,0,0,0,.192-.69v-.011a1.054,1.054,0,0,0-.34-.822,1.249,1.249,0,0,0-.865-.3,1.527,1.527,0,0,0-1.277.7l.515.488a1,1,0,0,1,.7-.455.443.443,0,0,1,.329.12.438.438,0,0,1,.132.335,1.576,1.576,0,0,1-.554.9L22.62,26.537v.641Zm4.558,0h.751v-.789H28.4v-.663h-.466v-2.4h-.7l-1.8,2.493.1.575h1.649v.789ZM26.3,25.726l.876-1.238v1.238Zm2.1,2.1h.658l2.059-4.974H30.46L28.4,27.83Zm3.062-.652h.866L33.8,23.935v-.592H31.348v.718h1.588Z" transform="translate(-2.457 -2.657)" style="fill:#36384b;fill-rule:evenodd"/><path d="M11.064,18.772l5.107.619a.359.359,0,0,0,.4-.308l.465-3.414a.386.386,0,0,0-.073-.289.388.388,0,0,0-.7.176l-.382,2.756a.264.264,0,0,1-.293.225L11.157,18l-.047,0a.388.388,0,0,0-.046.774Z" transform="translate(-2.457 -2.657)" style="fill:#36384b"/><circle cx="19.977" cy="29.035" r="0.602" style="fill:#a9ffd6"/><circle cx="10.594" cy="0.301" r="0.301" style="fill:#a9ffd6"/><rect x="24.04" y="27.383" width="0.301" height="0.602" style="fill:#36384b"/><rect x="24.04" y="28.888" width="0.301" height="0.602" style="fill:#36384b"/><rect x="24.642" y="28.286" width="0.602" height="0.301" style="fill:#36384b"/><polyline points="23.136 28.286 23.738 28.286 23.738 28.587 23.136 28.587" style="fill:#36384b"/><rect x="6.996" y="0.598" width="0.301" height="0.602" style="fill:#36384b"/><rect x="6.996" y="2.104" width="0.301" height="0.602" style="fill:#36384b"/><rect x="7.598" y="1.502" width="0.602" height="0.301" style="fill:#36384b"/><polyline points="6.092 1.502 6.695 1.502 6.695 1.803 6.092 1.803" style="fill:#36384b"/></svg>