<svg id="Layer_1" data-name="Layer 1" xmlns="http://www.w3.org/2000/svg" viewBox="0 0 33.104 33.411"><title>icon-personalized-service</title><ellipse cx="16.023" cy="11.225" rx="16.023" ry="11.225" style="fill:#a9ffd6"/><path d="M32.476,17.656a4.831,4.831,0,0,0-4.482-4.5,4.831,4.831,0,0,0-4.454,4.53l-.105,3.03c1.157,3.863,1.327,2.662,1.976,3.4l-.016-4.63c0-.983.291-1.45,1.274-1.45s1.325.391,1.325,1.374l-.007,3.765,1.345-.019a1.707,1.707,0,0,1,1.147.65l1.273-.344a4.249,4.249,0,0,0,.724-2.667Zm-4.31-1.377-.382-.095V14.9l.42.01Z" transform="translate(-1.782 -1.294)" style="fill:#a3acff"/><polygon points="5.607 4.845 18.568 4.845 18.414 14.937 15.513 15.298 15.513 18.187 11.188 15.298 5.61 15.069 5.607 4.845" style="fill:#a3acff"/><path d="M27.994,21.258c0,1.782-.709,3.226-1.325,3.226s-1.115-1.444-1.115-3.226,0-3.134,1.115-3.227C27.951,17.925,27.994,19.476,27.994,21.258Z" transform="translate(-1.782 -1.294)" style="fill:#fff"/><rect x="10.142" y="7.381" width="0.559" height="1.578" style="fill:#36384b"/><rect x="13.197" y="7.381" width="0.56" height="1.578" style="fill:#36384b"/><path d="M13.731,14.326a4.9,4.9,0,0,0,4.446-2.892l-.522-.2a4.3,4.3,0,0,1-7.849,0l-.523.2A4.9,4.9,0,0,0,13.731,14.326Z" transform="translate(-1.782 -1.294)" style="fill:#36384b"/><rect x="25.926" y="13.49" width="0.56" height="1.578" style="fill:#36384b"/><polygon points="26.485 11.504 26.485 8.399 18.798 8.399 18.798 8.958 25.926 8.958 25.926 11.504 26.485 11.504" style="fill:#36384b"/><rect x="8.615" y="17.055" width="0.56" height="1.069" style="fill:#36384b"/><path d="M12.2,29.6h1.3v-.56H12.2a1.25,1.25,0,0,1-1.248-1.248V20.9H10.4v6.9A1.81,1.81,0,0,0,12.2,29.6Z" transform="translate(-1.782 -1.294)" style="fill:#36384b"/><rect x="13.197" y="27.747" width="0.56" height="0.559" style="fill:#36384b"/><rect x="15.234" y="27.747" width="0.56" height="0.559" style="fill:#36384b"/><rect x="17.27" y="27.747" width="0.56" height="0.559" style="fill:#36384b"/><path d="M32.849,17.61a4.862,4.862,0,0,0-9.724,0v3.055a5.589,5.589,0,0,0,2.212,4.168l.074-.722a4.3,4.3,0,0,1-1.726-3.446V17.61a4.3,4.3,0,0,1,8.605,0v3.055a5.258,5.258,0,0,1-1.161,2.945l.631.123a4.855,4.855,0,0,0,1.089-3.068Z" transform="translate(-1.782 -1.294)" style="fill:#36384b"/><path d="M34.886,28.274V25.757a1.3,1.3,0,0,0-1.3-1.3h-.765l-.055-.153a1.3,1.3,0,0,0-1.217-.865H30.41l-.067-.066a1.543,1.543,0,0,0-1.083-.444h-.992V19.393a1.553,1.553,0,0,0-3.106,0v7.644l-.344-.2a1.266,1.266,0,0,1-.342-.29L23.261,25.1a1.807,1.807,0,0,0-2.779,2.311c1.588,2.084,2.3,3.189,2.871,4.077a18.278,18.278,0,0,0,2.5,3.2l.406-.385a17.607,17.607,0,0,1-2.431-3.12c-.549-.852-1.3-2.018-2.906-4.125a1.247,1.247,0,0,1,1.913-1.6l1.213,1.442a1.809,1.809,0,0,0,1.4.659h.279V19.393a.994.994,0,1,1,1.987,0v6.134h.56V23.491h.992a.994.994,0,0,1,.993.993v1.553h.56V24.484a1.371,1.371,0,0,0-.019-.193l-.039-.262L31.017,24h.534a.74.74,0,0,1,.739.739v1.807h.559V25.018h.739a.739.739,0,0,1,.738.739v2.517a8.439,8.439,0,0,1-.9,3.782l-1.214,2.4.5.253,1.213-2.4A8.99,8.99,0,0,0,34.886,28.274Z" transform="translate(-1.782 -1.294)" style="fill:#36384b"/><path d="M20.63,15.574V6.918a1.3,1.3,0,0,0-1.3-1.3H8.13a1.3,1.3,0,0,0-1.3,1.3v8.656a1.3,1.3,0,0,0,1.3,1.3h5l4.446,3.335V16.872h1.757A1.3,1.3,0,0,0,20.63,15.574Zm-3.615.738v2.776l-3.7-2.776H8.13a.739.739,0,0,1-.738-.738V6.918A.739.739,0,0,1,8.13,6.18h11.2a.739.739,0,0,1,.738.738v8.656a.739.739,0,0,1-.738.738Z" transform="translate(-1.782 -1.294)" style="fill:#36384b"/><rect x="31.549" y="8.704" width="0.357" height="0.713" style="fill:#36384b"/><rect x="31.549" y="10.487" width="0.357" height="0.713" style="fill:#36384b"/><rect x="32.262" y="9.773" width="0.713" height="0.357" style="fill:#36384b"/><polyline points="30.479 9.773 31.193 9.773 31.193 10.13 30.479 10.13" style="fill:#36384b"/><rect x="3.913" y="22.357" width="0.357" height="0.713" style="fill:#36384b"/><rect x="3.913" y="24.14" width="0.357" height="0.713" style="fill:#36384b"/><rect x="4.626" y="23.427" width="0.713" height="0.357" style="fill:#36384b"/><polyline points="2.843 23.427 3.556 23.427 3.556 23.783 2.843 23.783" style="fill:#36384b"/><circle cx="6.436" cy="25.481" r="0.357" style="fill:#a9ffd6"/></svg>