<svg xmlns="http://www.w3.org/2000/svg" viewBox="0 0 72 72"><title>Artboard 26</title><g id="Layer_1" data-name="Layer 1"><circle cx="32.238" cy="18.674" r="5.281" style="fill:#a9ffd6"/><ellipse cx="31.112" cy="49.562" rx="26.195" ry="18.351" style="fill:#a9ffd6"/><circle cx="46.517" cy="36.812" r="9.646" style="fill:#fff"/><path d="M65.112,26.944c-.259-1.275,1.577-3.15,1.132-4.392-.438-1.221-3.044-1.5-3.665-2.674-.605-1.142.627-3.458-.155-4.533s-3.366-.613-4.267-1.54c-.923-.95-.391-3.517-1.419-4.309-1.046-.8-3.393.367-4.528-.271S50.846,5.967,49.629,5.5s-3.147,1.312-4.421,1.018-2.22-2.743-3.525-2.855S39.036,5.8,37.725,5.876s-2.9-2.011-4.186-1.749c-1.275.259-1.928,2.8-3.171,3.243-1.221.438-3.339-1.111-4.509-.49-1.141.605-1.05,3.225-2.125,4.008s-3.541-.108-4.468.792c-.95.923-.126,3.414-.917,4.442-.8,1.046-3.422.888-4.06,2.022s.85,3.3.379,4.52-3.03,1.812-3.325,3.086,1.745,2.926,1.634,4.232-2.4,2.583-2.326,3.894,2.494,2.312,2.756,3.6c.259,1.275-1.577,3.15-1.132,4.393.438,1.221,3.044,1.5,3.665,2.673.605,1.142-.627,3.458.156,4.534s3.365.613,4.266,1.54c.923.95.391,3.516,1.419,4.308,1.046.8,3.394-.367,4.528.271s1.365,3.259,2.581,3.73,3.147-1.313,4.421-1.018,2.22,2.743,3.525,2.854,2.647-2.141,3.958-2.216,2.9,2.01,4.186,1.748,1.928-2.8,3.171-3.243c1.221-.438,3.339,1.111,4.509.49,1.142-.605,1.051-3.225,2.126-4.008s3.54.109,4.467-.792c.95-.923.126-3.414.917-4.442.8-1.045,3.422-.887,4.06-2.022s-.85-3.3-.379-4.52,3.031-1.811,3.325-3.086-1.745-2.926-1.634-4.231,2.4-2.584,2.326-3.9S65.374,28.234,65.112,26.944ZM25,36.488a2.088,2.088,0,1,1,.458-2.916A2.089,2.089,0,0,1,25,36.488Zm1.633-10.813a1.993,1.993,0,1,1,.438-2.784A1.992,1.992,0,0,1,26.637,25.675Zm8.306-3.583a3.985,3.985,0,1,1,.876-5.567A3.985,3.985,0,0,1,34.943,22.092Zm13.421-.266a2.087,2.087,0,1,1-.459,2.916A2.088,2.088,0,0,1,48.364,21.826Zm3.1,21.857a8.464,8.464,0,1,1,1.86-11.825A8.465,8.465,0,0,1,51.463,43.683Z" style="fill:#a2acff"/><path d="M36.933,61.267c-.046,0-.093,0-.14-.006-.885-.075-1.544-.859-2.181-1.615-.473-.563-.964-1.146-1.414-1.25a3.713,3.713,0,0,0-1.813.5,3.653,3.653,0,0,1-2.675.5c-.825-.321-1.237-1.254-1.635-2.158a3.627,3.627,0,0,0-1.012-1.6,3.6,3.6,0,0,0-1.869-.029,3.654,3.654,0,0,1-2.717-.282,3.627,3.627,0,0,1-.953-2.52A3.642,3.642,0,0,0,20,50.966a3.6,3.6,0,0,0-1.774-.55,3.677,3.677,0,0,1-2.539-1.045,3.674,3.674,0,0,1-.214-2.736,3.589,3.589,0,0,0,.021-1.857,3.639,3.639,0,0,0-1.586-1.059c-.891-.418-1.81-.852-2.107-1.68a3.66,3.66,0,0,1,.565-2.673,3.6,3.6,0,0,0,.547-1.788c-.093-.457-.663-.964-1.215-1.455-.737-.656-1.5-1.334-1.551-2.218a3.66,3.66,0,0,1,1.292-2.394,3.616,3.616,0,0,0,1.036-1.572,3.627,3.627,0,0,0-.755-1.729,3.648,3.648,0,0,1-.869-2.573c.2-.865,1.068-1.406,1.908-1.929.625-.39,1.271-.792,1.439-1.225a3.626,3.626,0,0,0-.239-1.86,3.653,3.653,0,0,1-.109-2.724,3.627,3.627,0,0,1,2.363-1.307,3.626,3.626,0,0,0,1.735-.775,3.592,3.592,0,0,0,.295-1.84,3.67,3.67,0,0,1,.671-2.656,3.637,3.637,0,0,1,2.621-.58,3.608,3.608,0,0,0,1.9-.257,3.651,3.651,0,0,0,.829-1.729,3.62,3.62,0,0,1,1.357-2.317,3.666,3.666,0,0,1,2.733.177A3.594,3.594,0,0,0,30.2,6.9c.442-.158.863-.8,1.271-1.414.543-.823,1.1-1.673,1.969-1.849A3.648,3.648,0,0,1,36,4.577a3.778,3.778,0,0,0,1.7.8,3.621,3.621,0,0,0,1.609-.993,3.648,3.648,0,0,1,2.421-1.221c.885.075,1.545.858,2.182,1.616.474.563.963,1.145,1.412,1.248a3.56,3.56,0,0,0,1.814-.5,3.658,3.658,0,0,1,2.676-.5c.825.32,1.237,1.255,1.634,2.158a3.644,3.644,0,0,0,1.011,1.6,3.628,3.628,0,0,0,1.871.027,3.665,3.665,0,0,1,2.717.283A3.63,3.63,0,0,1,58,11.621a3.658,3.658,0,0,0,.521,1.836,3.6,3.6,0,0,0,1.772.549,3.68,3.68,0,0,1,2.54,1.044,3.685,3.685,0,0,1,.214,2.738,3.6,3.6,0,0,0-.021,1.856A3.653,3.653,0,0,0,64.607,20.7c.89.419,1.81.852,2.108,1.68a3.658,3.658,0,0,1-.566,2.672,3.609,3.609,0,0,0-.546,1.79h0c.092.456.662.963,1.213,1.454.739.656,1.5,1.335,1.551,2.219a3.655,3.655,0,0,1-1.292,2.393,3.622,3.622,0,0,0-1.035,1.572,3.61,3.61,0,0,0,.755,1.728,3.656,3.656,0,0,1,.868,2.574c-.2.864-1.067,1.405-1.906,1.929-.625.39-1.272.793-1.44,1.224a3.62,3.62,0,0,0,.241,1.863,3.662,3.662,0,0,1,.108,2.722A3.628,3.628,0,0,1,62.3,47.831a3.64,3.64,0,0,0-1.736.774,3.616,3.616,0,0,0-.293,1.84A3.665,3.665,0,0,1,59.6,53.1a3.607,3.607,0,0,1-2.623.58,3.684,3.684,0,0,0-1.9.257,3.652,3.652,0,0,0-.827,1.728A3.62,3.62,0,0,1,52.9,57.983a3.658,3.658,0,0,1-2.734-.175,3.611,3.611,0,0,0-1.842-.286c-.44.159-.862.8-1.269,1.414-.544.823-1.106,1.673-1.971,1.849a3.651,3.651,0,0,1-2.558-.94,3.384,3.384,0,0,0-1.7-.8,3.609,3.609,0,0,0-1.608.993A3.92,3.92,0,0,1,36.933,61.267Zm-3.927-3.891a1.9,1.9,0,0,1,.418.046A4.139,4.139,0,0,1,35.377,59c.506.6,1.029,1.223,1.5,1.263s1.092-.484,1.691-.99a4.15,4.15,0,0,1,2.2-1.227,4.259,4.259,0,0,1,2.309.965c.657.436,1.34.884,1.8.792s.9-.768,1.335-1.42a4.173,4.173,0,0,1,1.766-1.8,4.1,4.1,0,0,1,2.475.272c.758.233,1.543.475,1.97.248.407-.216.642-.985.87-1.727A4.182,4.182,0,0,1,54.49,53.13a4.147,4.147,0,0,1,2.5-.448c.776.01,1.58.022,1.91-.3.349-.339.359-1.158.368-1.951a4.119,4.119,0,0,1,.5-2.438,4.167,4.167,0,0,1,2.26-1.127c.753-.21,1.532-.427,1.762-.835s.014-1.2-.2-1.962a4.136,4.136,0,0,1-.21-2.494,4.153,4.153,0,0,1,1.843-1.712c.666-.415,1.354-.844,1.46-1.3s-.324-1.153-.741-1.819a4.147,4.147,0,0,1-.9-2.344,4.13,4.13,0,0,1,1.285-2.153c.525-.587,1.067-1.194,1.04-1.67s-.632-1.008-1.218-1.529a4.159,4.159,0,0,1-1.529-2,4.124,4.124,0,0,1,.624-2.418c.339-.714.69-1.452.527-1.905-.157-.438-.886-.781-1.591-1.113a4.171,4.171,0,0,1-2.044-1.5,4.09,4.09,0,0,1-.083-2.481c.124-.785.253-1.6-.035-1.992s-1.1-.523-1.886-.645a4.1,4.1,0,0,1-2.335-.841,4.169,4.169,0,0,1-.8-2.405c-.1-.773-.2-1.572-.569-1.856s-1.192-.186-1.977-.083a4.135,4.135,0,0,1-2.492-.148A4.158,4.158,0,0,1,50.529,7.59c-.315-.717-.641-1.458-1.081-1.628s-1.19.158-1.909.476A4.115,4.115,0,0,1,45.1,7a4.135,4.135,0,0,1-1.953-1.58c-.506-.6-1.03-1.223-1.5-1.263-.457-.04-1.09.483-1.69.989a4.151,4.151,0,0,1-2.2,1.228,4.153,4.153,0,0,1-2.309-.965c-.657-.437-1.34-.888-1.8-.793s-.9.767-1.334,1.42a4.16,4.16,0,0,1-1.768,1.8,4.105,4.105,0,0,1-2.474-.271c-.756-.234-1.541-.478-1.969-.248-.407.216-.643.983-.87,1.726a4.179,4.179,0,0,1-1.2,2.244,4.178,4.178,0,0,1-2.5.449c-.773-.009-1.578-.024-1.909.3-.348.338-.358,1.157-.368,1.95a4.119,4.119,0,0,1-.5,2.438,4.161,4.161,0,0,1-2.26,1.128c-.753.21-1.531.426-1.76.834s-.014,1.2.2,1.963a4.13,4.13,0,0,1,.21,2.492,4.152,4.152,0,0,1-1.844,1.713c-.666.415-1.354.845-1.461,1.306s.324,1.151.741,1.817a4.139,4.139,0,0,1,.9,2.344,4.139,4.139,0,0,1-1.286,2.153c-.524.587-1.067,1.194-1.04,1.67s.633,1.008,1.218,1.529a4.16,4.16,0,0,1,1.53,2,4.124,4.124,0,0,1-.624,2.418c-.338.714-.69,1.452-.527,1.905s.886.781,1.592,1.113a4.168,4.168,0,0,1,2.043,1.5,4.1,4.1,0,0,1,.084,2.481c-.125.785-.253,1.6.035,1.991s1.1.524,1.885.646a4.093,4.093,0,0,1,2.336.841,4.181,4.181,0,0,1,.8,2.405c.1.773.2,1.572.569,1.855.382.3,1.193.188,1.977.084a4.139,4.139,0,0,1,2.491.149,4.154,4.154,0,0,1,1.436,2.071c.316.717.643,1.458,1.081,1.627s1.189-.157,1.908-.477A5.386,5.386,0,0,1,33.006,57.376ZM46.492,45.8a8.957,8.957,0,1,1,5.265-1.714h0A8.917,8.917,0,0,1,46.492,45.8ZM46.47,28.879a7.963,7.963,0,1,0,4.7,14.4h0a7.962,7.962,0,0,0-4.7-14.4Zm-22.69,8.51a2.678,2.678,0,0,1-.407-.032,2.587,2.587,0,1,1,1.925-.464h0A2.573,2.573,0,0,1,23.78,37.389Zm-.009-4.176a1.588,1.588,0,1,0,.939,2.871h0a1.589,1.589,0,0,0-.689-2.852A1.619,1.619,0,0,0,23.771,33.213Zm1.7-6.656a2.5,2.5,0,0,1-2.021-1.026,2.491,2.491,0,1,1,2.021,1.026Zm-.009-3.986a1.493,1.493,0,1,0,.882,2.7h0A1.493,1.493,0,0,0,25.7,22.59,1.549,1.549,0,0,0,25.461,22.571ZM49.6,26.1a2.586,2.586,0,0,1-1.527-4.678h0a2.589,2.589,0,0,1,3.615.568A2.587,2.587,0,0,1,49.6,26.1Zm-.007-4.174a1.576,1.576,0,0,0-.932.3h0a1.587,1.587,0,1,0,1.182-.285A1.638,1.638,0,0,0,49.59,21.926Zm-16.983,1.43A4.57,4.57,0,0,1,31.9,23.3a4.485,4.485,0,1,1,3.337-.8h0A4.446,4.446,0,0,1,32.607,23.356Zm-.017-7.971a3.485,3.485,0,1,0,2.059,6.3,3.485,3.485,0,0,0-1.51-6.26A3.53,3.53,0,0,0,32.59,15.385Z" style="fill:#36384b"/><rect x="62.611" y="51.504" width="0.583" height="1.166" style="fill:#36384b"/><rect x="62.611" y="54.419" width="0.583" height="1.166" style="fill:#36384b"/><rect x="63.777" y="53.253" width="1.166" height="0.583" style="fill:#36384b"/><polyline points="60.862 53.253 62.028 53.253 62.028 53.836 60.862 53.836" style="fill:#36384b"/><rect x="46.176" y="33.98" width="0.583" height="1.166" style="fill:#36384b"/><rect x="46.176" y="36.895" width="0.583" height="1.166" style="fill:#36384b"/><rect x="47.342" y="35.729" width="1.166" height="0.583" style="fill:#36384b"/><polyline points="44.427 35.729 45.593 35.729 45.593 36.312 44.427 36.312" style="fill:#36384b"/><circle cx="59.977" cy="59.585" r="1.166" style="fill:#a9ffd6"/><rect x="4.625" y="36.952" width="0.583" height="1.166" style="fill:#36384b"/><rect x="4.625" y="39.867" width="0.583" height="1.166" style="fill:#36384b"/><rect x="5.791" y="38.701" width="1.166" height="0.583" style="fill:#36384b"/><polyline points="2.876 38.701 4.042 38.701 4.042 39.284 2.876 39.284" style="fill:#36384b"/></g></svg>