<svg xmlns="http://www.w3.org/2000/svg" viewBox="0 0 72 72"><title>Artboard 37</title><g id="Layer_1" data-name="Layer 1"><ellipse cx="43.196" cy="30.054" rx="26.195" ry="18.351" style="fill:#a9ffd6"/><path d="M12.8,39.062,38.075,57.589c2.9,1.253,5.566.616,7.9-2.6l2.514-6.66L63.041,32.4c1.35-2.247.715-4.3-1.72-6.175A45.969,45.969,0,0,1,44.6,14.415l-2.735-.671L24,15.243l-4.367,3.882c-2.794,3.429-5.418,9.175-7.984,15.7A4.1,4.1,0,0,0,12.8,39.062Z" style="fill:#a2acff"/><path d="M28.69,34.872l11.821-15c1.792-.7,3.175-.226,3.441,3.44l2.2-2.169c2.2-.328,3.463.361,3.353,2.522l-1.676,2.47L50.48,25.08c1.453.379,2,1.349,1.5,3L41.758,41.071l1.157-.2,6.65-6.286c1.988.468,2.861,1.051,2.117,2.845L38.747,50.35a6.887,6.887,0,0,1-5.822,1.372L22.5,63.737,10.13,53.637,21.809,42.371l-.618-6.881,6.088-12.88c1.752-1.033,3.08-1.22,3.352.705C31.047,27.369,25.122,34.607,28.69,34.872Z" style="fill:#fff"/><path d="M64.234,29.225a4.83,4.83,0,0,0-2.714-3.541c-1.306-.616-2.732-1.311-4.239-2.064-4.5-2.251-9.439-6.889-11.982-9.453a3.044,3.044,0,0,0-2.333-.9,3,3,0,0,0-.354.056.611.611,0,0,0-.129-.023h-.039L25.93,14.346c-6.174.121-11.817,12.731-14.759,20.7a3.876,3.876,0,0,0,1.2,4.351l6.977,5.664a.588.588,0,0,0,.825-.085.586.586,0,0,0-.084-.825l-6.978-5.664a2.7,2.7,0,0,1-.838-3.035c3.946-10.688,9.933-21.473,14.9-19.741a15.422,15.422,0,0,1,6.84,4.917,2.039,2.039,0,0,0,1.591.763,2.066,2.066,0,0,0,1.611-.768l4.435-5.484a1.879,1.879,0,0,1,1.38-.7,1.918,1.918,0,0,1,1.442.56c2.592,2.615,7.635,7.349,12.289,9.676,1.522.761,2.957,1.459,4.262,2.077a3.709,3.709,0,0,1,1.072,5.937C53.281,41.76,48.161,47.661,47.281,49.748c-.475,1.128-1.051,2.659-1.713,4.551a5.022,5.022,0,0,1-7.44,2.566l-5.9-3.766a.586.586,0,1,0-.631.988l5.9,3.767a6.233,6.233,0,0,0,5.363.631,6.138,6.138,0,0,0,3.813-3.8c.654-1.867,1.222-3.375,1.689-4.483.8-1.9,6.108-7.986,14.568-16.7A4.835,4.835,0,0,0,64.234,29.225ZM36.3,19.881a.892.892,0,0,1-.7.333.86.86,0,0,1-.68-.324,16.9,16.9,0,0,0-5.7-4.579l11.356-.721Z" style="fill:#36384b"/><path d="M57.88,45.272a.577.577,0,0,0,.206.4l5.372,4.548a.6.6,0,0,0,.827-.07.588.588,0,0,0-.068-.827l-5.374-4.545a.584.584,0,0,0-.378-.139.393.393,0,0,0-.048,0,.584.584,0,0,0-.537.633Z" style="fill:#36384b"/><path d="M55.562,50.378a.581.581,0,0,0-.4-.161.586.586,0,0,0-.405,1.01L59.1,55.361a.6.6,0,0,0,.828-.021.584.584,0,0,0-.02-.828Z" style="fill:#36384b"/><path d="M10.967,13.621a.583.583,0,0,0,.182.409l4.133,3.926a.605.605,0,0,0,.832-.021.589.589,0,0,0-.022-.829L11.958,13.18a.581.581,0,0,0-.4-.162h-.016a.589.589,0,0,0-.572.6Z" style="fill:#36384b"/><path d="M5.149,17.943a.586.586,0,1,0-.829.829L9.9,24.353a.6.6,0,0,0,.831,0,.59.59,0,0,0,0-.83Z" style="fill:#36384b"/><path d="M49.987,33.767a1.811,1.811,0,0,0-1.155.445c-2.048,1.666-5.761,5.623-5.761,5.623L49.4,32.29l2.973-3.669a2.436,2.436,0,0,0-.426-3.534,2.584,2.584,0,0,0-1.8-.488l-.479.047.217-.43a2.624,2.624,0,0,0-.72-3.239l-.263-.207a2.61,2.61,0,0,0-3.628.374L44.3,22.305l-.011-.711a2.764,2.764,0,0,0-.034-.4A2.607,2.607,0,0,0,43.2,19.479l-.056-.04a2.616,2.616,0,0,0-3.6.523L28.353,34.39l-.122-.551c-.083-.375-.04-1.3,1.182-3.292a11.75,11.75,0,0,0,1.88-7.131,2.4,2.4,0,0,0-4.551-.846L21.406,33.624a9.84,9.84,0,0,0-.851,5.934l.5,3-.1.1L9.623,53.064a.579.579,0,0,0-.087.657.516.516,0,0,0,.15.217L22.178,64.162a.519.519,0,0,0,.165.092.6.6,0,0,0,.765-.1L33.259,52.281l.148.027a6.822,6.822,0,0,0,6.225-2.086L51.8,38.173a2.625,2.625,0,0,0-.033-3.6A2.435,2.435,0,0,0,49.987,33.767Zm.952,3.608L38.773,49.424a5.682,5.682,0,0,1-5.581,1.637.608.608,0,0,0-.146-.018.585.585,0,0,0-.444.2L22.5,63.061,10.852,53.525l11.26-10.384a.589.589,0,0,0,.147-.495l-.547-3.281a8.688,8.688,0,0,1,.748-5.23L27.8,23.081a1.239,1.239,0,0,1,1.343-.67,1.225,1.225,0,0,1,.983,1.1,10.58,10.58,0,0,1-1.71,6.423c-1.306,2.128-1.683,3.647-1.153,4.641a1.763,1.763,0,0,0,1.425.9h.01a.6.6,0,0,0,.475-.227l11.3-14.568a1.446,1.446,0,0,1,1.993-.289l.054.04a1.448,1.448,0,0,1,.326,2.025L34.534,33.927a.586.586,0,0,0,.924.72L46.176,21.9a1.443,1.443,0,0,1,2-.2l.262.206a1.449,1.449,0,0,1,.241,2.035L38.373,37.008a.586.586,0,0,0,.9.747L49.309,26.25a1.454,1.454,0,0,1,1.947-.216,1.253,1.253,0,0,1,.509.867,1.273,1.273,0,0,1-.293.975l-10.133,12.5a.584.584,0,0,0,.067.808c.234.21.59,1.254.811,1.028l6.624-6.836a1.449,1.449,0,0,1,2.1,2Z" style="fill:#36384b"/><rect x="21.567" y="8.501" width="0.583" height="1.166" style="fill:#36384b"/><rect x="21.567" y="11.416" width="0.583" height="1.166" style="fill:#36384b"/><rect x="22.733" y="10.25" width="1.166" height="0.583" style="fill:#36384b"/><rect x="19.818" y="10.25" width="1.166" height="0.583" style="fill:#36384b"/><rect x="50.681" y="53.828" width="0.583" height="1.166" style="fill:#36384b"/><rect x="50.681" y="56.743" width="0.583" height="1.166" style="fill:#36384b"/><rect x="51.847" y="55.577" width="1.166" height="0.583" style="fill:#36384b"/><rect x="48.932" y="55.577" width="1.166" height="0.583" style="fill:#36384b"/><circle cx="9.121" cy="42.105" r="1.166" style="fill:#a9ffd6"/><circle cx="63.323" cy="40.939" r="0.583" style="fill:#a9ffd6"/></g></svg>