<svg xmlns="http://www.w3.org/2000/svg" viewBox="0 0 72 72"><title>Artboard 4</title><g id="Layer_1" data-name="Layer 1"><path d="M42.927,22.893a17.6,17.6,0,1,0,17.6,17.6A17.621,17.621,0,0,0,42.927,22.893Zm0,20.184a2.73,2.73,0,0,1-2.558-2.582,2.632,2.632,0,0,1,2.563-2.469,2.691,2.691,0,0,1,2.625,2.469A2.8,2.8,0,0,1,42.927,43.077Z" style="fill:#a3acff"/><polygon points="27.053 22.337 29.019 25.233 32.391 22.612 30.026 20.207 27.053 22.337" style="fill:#a3acff"/><rect x="38.526" y="11.801" width="9.132" height="3.693" style="fill:#a3acff"/><circle cx="43.071" cy="40.495" r="2.702" style="fill:#a9ffd6"/><path d="M61.96,23.963l-.84.756a24.133,24.133,0,0,1,4.839,22.834l1.073.35a25.269,25.269,0,0,0-5.072-23.94Z" style="fill:#36384b"/><path d="M54.136,29.85a.562.562,0,0,0-.563-.564h0a.557.557,0,0,0-.4.165l-8.195,8.194a3.548,3.548,0,1,0,.8.8l8.194-8.194A.559.559,0,0,0,54.136,29.85ZM42.927,42.888a2.393,2.393,0,1,1,2.394-2.393A2.4,2.4,0,0,1,42.927,42.888Z" style="fill:#36384b"/><rect x="3.525" y="39.931" width="16.883" height="1.128" style="fill:#36384b"/><path d="M42.927,22.472a18.036,18.036,0,0,0-16.8,11.544H9.851v1.129H25.715a18.055,18.055,0,0,0,0,10.7H15.746v1.128H26.129a18.015,18.015,0,1,0,16.8-24.5Zm.565,35.174V55.42a.565.565,0,0,0-1.129,0v2.233A17.2,17.2,0,0,1,27.025,46.974h2.744V45.846H26.612a16.99,16.99,0,0,1,0-10.7h4.065V34.016H27.025a17.2,17.2,0,0,1,15.338-10.68V25.57a.565.565,0,0,0,1.129,0V23.343A17.178,17.178,0,0,1,60.079,39.931H57.853a.564.564,0,1,0,0,1.128h2.226A17.176,17.176,0,0,1,43.492,57.646Z" style="fill:#36384b"/><rect x="11.803" y="45.846" width="1.128" height="1.128" style="fill:#36384b"/><path d="M43.492,19.258V16.414H46.87a1.551,1.551,0,0,0,1.55-1.55V12.893a1.552,1.552,0,0,0-1.55-1.551H38.984a1.552,1.552,0,0,0-1.55,1.551v1.971a1.551,1.551,0,0,0,1.55,1.55h3.379v2.834a21.248,21.248,0,0,0-10.2,2.92l-1.947-2.482-3.744,2.92,1.913,2.362.269-.218a21.244,21.244,0,0,0-4.088,5.017l.985.552a20.137,20.137,0,1,1,0,20.352l-.985.552A21.263,21.263,0,1,0,43.492,19.258Zm-4.929-3.973V12.471h8.729l0,2.814Zm-10.9,7.458,2.4-1.876,1.37,1.747a21.366,21.366,0,0,0-2.419,1.8Z" style="fill:#36384b"/><rect x="56.82" y="11.828" width="0.583" height="1.166" style="fill:#36384b"/><rect x="56.82" y="14.743" width="0.583" height="1.166" style="fill:#36384b"/><rect x="57.986" y="13.577" width="1.166" height="0.583" style="fill:#36384b"/><rect x="55.071" y="13.577" width="1.166" height="0.583" style="fill:#36384b"/><rect x="18.396" y="21.479" width="0.583" height="1.166" style="fill:#36384b"/><rect x="18.396" y="24.394" width="0.583" height="1.166" style="fill:#36384b"/><rect x="19.562" y="23.228" width="1.166" height="0.583" style="fill:#36384b"/><rect x="16.647" y="23.228" width="1.166" height="0.583" style="fill:#36384b"/><circle cx="59.975" cy="17.981" r="0.583" style="fill:#a9ffd6"/><circle cx="16.647" cy="16.019" r="1.166" style="fill:#a9ffd6"/></g></svg>