<svg id="Layer_1" data-name="Layer 1" xmlns="http://www.w3.org/2000/svg" viewBox="0 0 30.508 31.788"><title>icon-guaranteed</title><ellipse cx="14.992" cy="13.807" rx="13.823" ry="9.684" style="fill:#a9ffd6"/><polyline points="6.558 15.799 0.778 24.378 6.485 23.994 7.073 31.018 14.516 19.971" style="fill:#a2acff;stroke:#36384b;stroke-miterlimit:10;stroke-width:0.5277068914015999px"/><polyline points="21.318 15.799 27.098 24.378 21.392 23.994 20.804 31.018 13.559 20.266" style="fill:#a2acff;stroke:#36384b;stroke-miterlimit:10;stroke-width:0.5277068914015999px"/><rect x="0.923" y="3.567" width="0.308" height="0.615" style="fill:#36384b"/><rect x="0.923" y="5.105" width="0.308" height="0.615" style="fill:#36384b"/><rect x="1.538" y="4.49" width="0.615" height="0.308" style="fill:#36384b"/><polyline points="0 4.49 0.615 4.49 0.615 4.798 0 4.798" style="fill:#36384b"/><rect x="28.662" y="18.954" width="0.308" height="0.615" style="fill:#36384b"/><rect x="28.662" y="20.492" width="0.308" height="0.615" style="fill:#36384b"/><rect x="29.277" y="19.877" width="0.615" height="0.308" style="fill:#36384b"/><polyline points="27.739 19.877 28.354 19.877 28.354 20.185 27.739 20.185" style="fill:#36384b"/><path d="M18.485,24.083c-.194,0-.49-.243-.751-.457a1.964,1.964,0,0,0-1.115-.588,1.961,1.961,0,0,0-1.114.588c-.262.214-.557.457-.752.457-.237-.039-.45-.4-.638-.715a1.923,1.923,0,0,0-.825-.914.907.907,0,0,0-.312-.052,2.979,2.979,0,0,0-.925.222,2.676,2.676,0,0,1-.744.19.321.321,0,0,1-.159-.034c-.175-.1-.252-.51-.319-.869a1.942,1.942,0,0,0-.465-1.15,1.942,1.942,0,0,0-1.215-.26c-.366-.005-.78-.01-.909-.164s-.062-.56,0-.919a1.95,1.95,0,0,0-.048-1.246,1.93,1.93,0,0,0-1.047-.655c-.344-.129-.734-.276-.8-.468s.133-.541.311-.856A1.962,1.962,0,0,0,7.036,15a1.916,1.916,0,0,0-.753-.967c-.281-.241-.6-.515-.6-.724s.319-.483.6-.724a1.918,1.918,0,0,0,.753-.968,1.956,1.956,0,0,0-.384-1.192c-.178-.316-.378-.673-.311-.857s.459-.339.8-.469a1.936,1.936,0,0,0,1.048-.655A1.948,1.948,0,0,0,8.239,7.2c-.059-.359-.125-.767,0-.92s.543-.159.908-.163a1.94,1.94,0,0,0,1.215-.261,1.943,1.943,0,0,0,.466-1.149c.067-.36.143-.768.319-.869A.31.31,0,0,1,11.31,3.8a2.647,2.647,0,0,1,.744.191,3,3,0,0,0,.925.221.941.941,0,0,0,.312-.051,1.933,1.933,0,0,0,.825-.914c.188-.317.4-.677.6-.712h0a1.633,1.633,0,0,1,.78.453,1.964,1.964,0,0,0,1.115.588,1.966,1.966,0,0,0,1.116-.588c.26-.213.556-.456.75-.456.237.038.45.4.639.715a1.928,1.928,0,0,0,.825.914.908.908,0,0,0,.312.051,2.964,2.964,0,0,0,.924-.221,2.676,2.676,0,0,1,.744-.19.317.317,0,0,1,.16.034c.175.1.252.509.319.869a1.936,1.936,0,0,0,.466,1.149,1.94,1.94,0,0,0,1.215.261c.365,0,.779.009.908.163s.062.561,0,.92a1.941,1.941,0,0,0,.047,1.245A1.933,1.933,0,0,0,26.1,9.1c.343.13.732.276.8.468s-.134.541-.31.856a1.957,1.957,0,0,0-.385,1.194,1.91,1.91,0,0,0,.753.967c.281.241.6.515.6.724s-.318.483-.6.724A1.909,1.909,0,0,0,26.2,15a1.966,1.966,0,0,0,.384,1.194c.177.315.378.672.311.856s-.46.338-.8.468a1.936,1.936,0,0,0-1.048.655A1.941,1.941,0,0,0,25,19.418c.058.36.125.767,0,.92s-.543.159-.908.164a1.939,1.939,0,0,0-1.215.26,1.937,1.937,0,0,0-.466,1.15c-.067.359-.143.766-.319.868a.324.324,0,0,1-.159.034,2.676,2.676,0,0,1-.744-.19,2.973,2.973,0,0,0-.924-.222.919.919,0,0,0-.314.052,1.921,1.921,0,0,0-.824.914c-.189.316-.4.676-.605.712Z" transform="translate(-2.746 -2.27)" style="fill:#fff"/><path d="M18.466,2.8a2.148,2.148,0,0,1,.431.589,2.105,2.105,0,0,0,.961,1.027,1.191,1.191,0,0,0,.4.067,3.175,3.175,0,0,0,1.012-.236,2.936,2.936,0,0,1,.676-.183,2.19,2.19,0,0,1,.2.695,2.113,2.113,0,0,0,.555,1.3,2.118,2.118,0,0,0,1.382.323,2.608,2.608,0,0,1,.7.06,2.177,2.177,0,0,1-.049.716,2.131,2.131,0,0,0,.079,1.42A2.115,2.115,0,0,0,26,9.346a2.665,2.665,0,0,1,.645.3,2.156,2.156,0,0,1-.29.65,2.161,2.161,0,0,0-.414,1.368,2.094,2.094,0,0,0,.841,1.121c.169.146.484.416.508.517-.024.115-.339.386-.508.531a2.1,2.1,0,0,0-.841,1.122,2.161,2.161,0,0,0,.414,1.368,2.646,2.646,0,0,1,.3.629,2.154,2.154,0,0,1-.652.32,2.108,2.108,0,0,0-1.183.77,2.125,2.125,0,0,0-.08,1.42,2.634,2.634,0,0,1,.062.7,2.145,2.145,0,0,1-.716.076,2.118,2.118,0,0,0-1.382.323,2.113,2.113,0,0,0-.555,1.3c-.041.215-.116.615-.219.687a2.608,2.608,0,0,1-.657-.175,3.151,3.151,0,0,0-1.012-.237,1.162,1.162,0,0,0-.4.068,2.1,2.1,0,0,0-.962,1.027,2.641,2.641,0,0,1-.409.585,2.144,2.144,0,0,1-.586-.4,2.168,2.168,0,0,0-1.282-.648,2.174,2.174,0,0,0-1.282.648,2.6,2.6,0,0,1-.564.4,2.136,2.136,0,0,1-.431-.588,2.1,2.1,0,0,0-.961-1.027,1.167,1.167,0,0,0-.4-.068,3.175,3.175,0,0,0-1.012.236,2.886,2.886,0,0,1-.676.183,2.165,2.165,0,0,1-.2-.7,2.113,2.113,0,0,0-.555-1.3,2.119,2.119,0,0,0-1.382-.322,2.642,2.642,0,0,1-.7-.061A2.177,2.177,0,0,1,8.5,19.46a2.131,2.131,0,0,0-.079-1.42,2.12,2.12,0,0,0-1.183-.77,2.591,2.591,0,0,1-.645-.3,2.117,2.117,0,0,1,.29-.649A2.175,2.175,0,0,0,7.3,14.954a2.1,2.1,0,0,0-.841-1.122c-.17-.145-.484-.416-.508-.517.023-.115.338-.386.508-.531A2.1,2.1,0,0,0,7.3,11.662a2.175,2.175,0,0,0-.414-1.368,2.589,2.589,0,0,1-.3-.629,2.154,2.154,0,0,1,.652-.32,2.106,2.106,0,0,0,1.183-.77A2.122,2.122,0,0,0,8.5,7.156a2.653,2.653,0,0,1-.063-.7,2.155,2.155,0,0,1,.717-.076,2.12,2.12,0,0,0,1.382-.323,2.116,2.116,0,0,0,.555-1.3c.04-.216.116-.616.219-.688a2.568,2.568,0,0,1,.656.176,3.175,3.175,0,0,0,1.013.236,1.19,1.19,0,0,0,.4-.067,2.105,2.105,0,0,0,.961-1.027,2.387,2.387,0,0,1,.419-.585,2.309,2.309,0,0,1,.576.4,2.174,2.174,0,0,0,1.282.648A2.168,2.168,0,0,0,17.9,3.194a2.657,2.657,0,0,1,.565-.4M14.754,2.27a.415.415,0,0,0-.079.007c-.615.108-.9,1.429-1.475,1.638a.661.661,0,0,1-.221.035c-.494,0-1.179-.412-1.669-.412a.573.573,0,0,0-.291.07c-.536.309-.352,1.648-.823,2.044s-1.759-.016-2.155.456.232,1.667-.078,2.2-1.658.582-1.87,1.165.791,1.48.683,2.095c-.1.6-1.356,1.109-1.356,1.737s1.252,1.139,1.356,1.737c.108.614-.892,1.521-.683,2.1s1.563.634,1.87,1.165-.319,1.731.077,2.2,1.683.06,2.155.457.287,1.734.823,2.044a.573.573,0,0,0,.292.069c.489,0,1.174-.411,1.668-.411a.663.663,0,0,1,.222.035c.573.209.86,1.53,1.474,1.638a.433.433,0,0,0,.08.007c.581,0,1.265-1.045,1.865-1.045s1.284,1.045,1.866,1.045a.422.422,0,0,0,.079-.007c.615-.107.9-1.429,1.474-1.638a.667.667,0,0,1,.222-.035c.494,0,1.179.412,1.669.412a.572.572,0,0,0,.291-.069c.535-.31.351-1.649.822-2.045s1.759.016,2.156-.456-.232-1.667.077-2.2,1.658-.582,1.871-1.166-.791-1.48-.684-2.1c.105-.6,1.357-1.109,1.357-1.737s-1.252-1.139-1.357-1.736c-.107-.615.893-1.522.684-2.095s-1.563-.635-1.87-1.165.319-1.732-.077-2.2-1.683-.06-2.156-.456-.287-1.735-.822-2.045a.576.576,0,0,0-.292-.069c-.489,0-1.174.411-1.668.411a.638.638,0,0,1-.222-.035c-.574-.209-.86-1.53-1.475-1.638a.516.516,0,0,0-.079-.007c-.581,0-1.265,1.045-1.866,1.045S15.335,2.27,14.754,2.27Z" transform="translate(-2.746 -2.27)" style="fill:#36384b"/><path d="M16.619,21.723a8.415,8.415,0,1,1,8.415-8.415A8.425,8.425,0,0,1,16.619,21.723Z" transform="translate(-2.746 -2.27)" style="fill:#a2acff"/><path d="M16.619,5.157a8.151,8.151,0,1,1-8.151,8.151,8.16,8.16,0,0,1,8.151-8.151m0-.528A8.679,8.679,0,1,0,25.3,13.308a8.679,8.679,0,0,0-8.679-8.679Z" transform="translate(-2.746 -2.27)" style="fill:#36384b"/><circle cx="0.923" cy="8.448" r="0.615" style="fill:#a9ffd6"/><circle cx="30.2" cy="17.15" r="0.308" style="fill:#a9ffd6"/></svg>