<svg width="72" height="48" viewBox="0 0 72 48" xmlns="http://www.w3.org/2000/svg" xmlns:xlink="http://www.w3.org/1999/xlink"><title>Simple</title><defs><path id="path-1" d="M0 47.457h71.677V0H0z"/></defs><g id="Product-Category" fill="none" fill-rule="evenodd" transform="translate(-807 -2900)"><g id="Simple" transform="translate(807 2900.5)"><path d="M17.622 11.64c.567-.43 3.849-1.59 9.906-2.233a1.497 1.497 0 1 0-.317-2.98c-5.34.566-9.921 1.7-11.401 2.825a1.5 1.5 0 0 0 1.812 2.389" id="Fill-1" fill="#70E9B2"/><mask id="mask-2" fill="#fff"><use xlink:href="#path-1"/></mask><path d="M14.194 44.461h6.316V43.16h-6.316v1.302zm-2.626-27.47c2.612 1.95 1.245 6.167-2.054 6.167a3.43 3.43 0 0 1-3.426-3.426c0-2.823 3.239-4.423 5.48-2.742zM35.919 2.986c15.154 0 22.533 3.356 22.571 4.627l-1.029 8.048c-.937 1.122-1.563 2.513-1.563 4.07 0 1.288.477 2.421 1.132 3.426H14.805c.655-1.005 1.132-2.138 1.132-3.426 0-1.494-.665-2.829-1.594-3.968.01-.108.096-.193.081-.306L13.35 7.61c.047-1.48 8.249-4.623 22.569-4.623zm29.826 16.745a3.429 3.429 0 0 1-3.424 3.426 3.43 3.43 0 0 1-3.426-3.426 3.43 3.43 0 0 1 3.426-3.425 3.428 3.428 0 0 1 3.424 3.425zm-42.238 24.73h24.826v-1.303H23.507v1.302zm-11.362-4.3l-3.179-8.663h41.747A1.5 1.5 0 0 0 52.212 30a1.5 1.5 0 0 0-1.499-1.498H7.867l-.86-2.347h57.825l-.861 2.347h-9.485a1.5 1.5 0 0 0-1.5 1.498 1.5 1.5 0 0 0 1.5 1.498h8.385l-3.18 8.662H12.145zm39.185 4.3h6.315v-1.303H51.33v1.302zm18.848 0h-9.536v-1.303h.094c.361 0 .681-.162.951-.394.086-.073.126-.16.194-.252.086-.114.21-.195.262-.337l6.243-17c.033-.092-.026-.177-.011-.27.018-.092.103-.15.103-.25 0-.117-.099-.192-.126-.303a1.304 1.304 0 0 0-.21-.509 1.328 1.328 0 0 0-.406-.372c-.081-.055-.113-.154-.207-.19.706-1.032 1.214-2.208 1.214-3.55a6.43 6.43 0 0 0-6.422-6.423c-.562 0-1.061.186-1.579.321l.74-5.79c.005-.042-.032-.072-.03-.112.003-.039.042-.063.042-.102 0-10.168-51.15-10.168-51.15 0 0 .041.042.067.045.108.002.044-.037.075-.031.12l.782 5.712c-3.837-1.005-8.049 1.753-8.049 6.166 0 1.342.51 2.52 1.216 3.551-.092.037-.125.136-.205.19a1.303 1.303 0 0 0-.406.371 1.328 1.328 0 0 0-.21.511c-.025.11-.125.184-.125.301 0 .1.085.158.102.25.015.091-.044.178-.011.27l6.239 17c.041.112.161.148.223.243a1.275 1.275 0 0 0 .881.613c.11.026.185.127.303.127h.099v1.302H7.262a1.497 1.497 0 1 0 0 2.996h62.916a1.499 1.499 0 1 0 0-2.996z" id="Fill-3" fill="#70E9B2" mask="url(#mask-2)"/><path d="M3.336 44.461H1.499a1.497 1.497 0 1 0 0 2.996h1.837a1.499 1.499 0 1 0 0-2.996" id="Fill-5" fill="#70E9B2" mask="url(#mask-2)"/></g></g></svg>