<svg id="Layer_1" data-name="Layer 1" xmlns="http://www.w3.org/2000/svg" viewBox="0 0 34.034 35.231"><title>icon-replacement-ac</title><path d="M32.4,13.76A14.9,14.9,0,0,0,25.98,6.221l.277-.477a15.459,15.459,0,0,1,6.653,7.819Z" transform="translate(-1.362 -0.444)" style="fill:#36384b"/><path d="M33.666,19.1l-.551,0A14.565,14.565,0,0,1,21.59,33.3l-.241-1.209-1.616,1.919,2.2,1.027-.238-1.2A15.119,15.119,0,0,0,33.666,19.1Z" transform="translate(-1.362 -0.444)" style="fill:#36384b"/><rect x="5.386" y="29.922" width="0.321" height="0.642" transform="translate(-26.128 34.951) rotate(-89.253)" style="fill:#36384b"/><rect x="3.781" y="29.901" width="0.321" height="0.642" transform="translate(-27.692 33.326) rotate(-89.253)" style="fill:#36384b"/><rect x="4.413" y="30.875" width="0.642" height="0.321" transform="translate(-27.723 34.92) rotate(-89.253)" style="fill:#36384b"/><rect x="4.434" y="29.269" width="0.642" height="0.321" transform="translate(-26.097 33.357) rotate(-89.253)" style="fill:#36384b"/><path d="M20.073,4.224,18.184,2.7l-.059,1.237A15.145,15.145,0,0,0,3.408,19.005V19.1a15.081,15.081,0,0,0,2.343,8.021l.444-.327A14.535,14.535,0,0,1,3.958,19.1v-.091A14.593,14.593,0,0,1,18.1,4.484L18.041,5.7Z" transform="translate(-1.362 -0.444)" style="fill:#36384b"/><path d="M8.8,30.633a15.042,15.042,0,0,0,7,3.3l.1-.542a14.492,14.492,0,0,1-6.715-3.158Z" transform="translate(-1.362 -0.444)" style="fill:#36384b"/><rect x="14.62" y="1.259" width="0.321" height="0.642" transform="translate(11.646 15.895) rotate(-89.253)" style="fill:#36384b"/><rect x="13.015" y="1.238" width="0.321" height="0.642" transform="translate(10.082 14.269) rotate(-89.253)" style="fill:#36384b"/><rect x="13.646" y="2.212" width="0.642" height="0.321" transform="translate(10.051 15.864) rotate(-89.253)" style="fill:#36384b"/><rect x="13.667" y="0.606" width="0.642" height="0.321" transform="translate(11.677 14.3) rotate(-89.253)" style="fill:#36384b"/><path d="M1.552,20.971A16.371,16.371,0,0,1,11.689,3.584l.189.518A15.8,15.8,0,0,0,2.1,20.879Z" transform="translate(-1.362 -0.444)" style="fill:#36384b"/><path d="M24.34,34.552l-.11-.54c5.862-1.191,9.044-6.34,9.988-10.387l.536.125C33.773,27.956,30.457,33.309,24.34,34.552Z" transform="translate(-1.362 -0.444)" style="fill:#36384b"/><circle cx="17.083" cy="34.91" r="0.321" style="fill:#a9ffd6"/><circle cx="1.403" cy="26.675" r="0.642" style="fill:#a9ffd6"/><path d="M27.974,18.351a2.106,2.106,0,0,1-2.105,2.105H10.988a2.105,2.105,0,0,1-2.105-2.105V10.867H27.974Z" transform="translate(-1.362 -0.444)" style="fill:#a2acff;stroke:#36384b;stroke-miterlimit:10;stroke-width:0.5507447719573975px"/><rect x="9.867" y="17.857" width="14.398" height="2.155" style="fill:#fff;stroke:#36384b;stroke-miterlimit:10;stroke-width:0.5507447719573975px"/><line x1="21.455" y1="12.103" x2="22.628" y2="12.103" style="fill:none;stroke:#36384b;stroke-miterlimit:10;stroke-width:0.5507447719573975px"/><path d="M24.817,18.274" transform="translate(-1.362 -0.444)" style="fill:none;stroke:#36384b;stroke-miterlimit:10;stroke-width:0.5507447719573975px"/><path d="M12.2,18.274" transform="translate(-1.362 -0.444)" style="fill:none;stroke:#36384b;stroke-miterlimit:10;stroke-width:0.5507447719573975px"/><line x1="9.245" y1="13.539" x2="24.893" y2="13.539" style="fill:none;stroke:#36384b;stroke-miterlimit:10;stroke-width:0.5507447719573975px"/><path d="M14.565,27.1c1.874-2.347-1.923-2.277.391-4.693" transform="translate(-1.362 -0.444)" style="fill:none;stroke:#36384b;stroke-linecap:round;stroke-miterlimit:10;stroke-width:0.5507447719573975px"/><path d="M17.284,27.1c1.874-2.347-1.923-2.277.391-4.693" transform="translate(-1.362 -0.444)" style="fill:none;stroke:#36384b;stroke-linecap:round;stroke-miterlimit:10;stroke-width:0.5507447719573975px"/><path d="M20,27.1c1.874-2.347-1.923-2.277.391-4.693" transform="translate(-1.362 -0.444)" style="fill:none;stroke:#36384b;stroke-linecap:round;stroke-miterlimit:10;stroke-width:0.5507447719573975px"/><path d="M22.722,27.1c1.874-2.347-1.923-2.277.391-4.693" transform="translate(-1.362 -0.444)" style="fill:none;stroke:#36384b;stroke-linecap:round;stroke-miterlimit:10;stroke-width:0.5507447719573975px"/><circle cx="33.392" cy="17.306" r="0.642" style="fill:#a9ffd6"/><circle cx="24.121" cy="12.106" r="0.667" style="fill:#36384b"/></svg>