<svg id="Layer_1" data-name="Layer 1" xmlns="http://www.w3.org/2000/svg" viewBox="0 0 34.265 30.578"><title>icon-dust-mites</title><ellipse cx="17.469" cy="11.766" rx="16.796" ry="11.766" style="fill:#a9ffd6"/><path d="M20.951,13.421c.037.065.136.223.188.305a8.122,8.122,0,0,1,.545.978l.018.037.034-.02a1.691,1.691,0,0,1,.3-.155l1.835-1.187a.587.587,0,0,1,.461-.392c.345-.05.721.2,1.706.924.271.2.651.477.895.629a.5.5,0,0,1,.311-.111.584.584,0,0,1,.136.018,3.054,3.054,0,0,1,1.014.565v0a3.262,3.262,0,0,0,.711.441l.008-.01a.613.613,0,0,1-.035-.126,5.271,5.271,0,0,1-.868-.6,2.664,2.664,0,0,0-.908-.561.575.575,0,0,1-.376-.3,7.984,7.984,0,0,1-1.51-.969,11.1,11.1,0,0,0-1.15-.772.556.556,0,0,1-.3-.1l-.739.281a17.93,17.93,0,0,0-1.742.757C21.218,13.188,21.007,13.3,20.951,13.421Z" transform="translate(-0.833 -3.199)" style="fill:#36384b"/><path d="M15.4,10.93a5.607,5.607,0,0,1-3.891-1.273c.065-.062.171-.143.242-.2.276-.21.589-.449.586-.791a1.652,1.652,0,0,1,.68-1.221,2.319,2.319,0,0,0,.762-1.371V6l-.046-.093c0-.091.129-.31,1.025-.476.032.041.069.1.1.137.132.2.269.407.5.446l.057.01.057-.011c.232-.044.365-.253.493-.455.026-.041.063-.1.094-.142.894.147,1.034.366,1.048.391l-.034.068-.025.17A2.315,2.315,0,0,0,17.831,7.4a1.665,1.665,0,0,1,.7,1.211c0,.342.32.575.6.78.072.053.178.131.246.192a5.629,5.629,0,0,1-3.907,1.347l0,0Z" transform="translate(-0.833 -3.199)" style="fill:#a2acff"/><path d="M16.2,5.773a2.517,2.517,0,0,1,.518.153l0,.122a2.6,2.6,0,0,0,.669,1.383v.032l.238.19a1.357,1.357,0,0,1,.583.961,1.318,1.318,0,0,0,.674.993,5.789,5.789,0,0,1-3.419,1H15.4A5.782,5.782,0,0,1,12,9.672a1.319,1.319,0,0,0,.655-1.006,1.358,1.358,0,0,1,.566-.972l.233-.194V7.466A2.6,2.6,0,0,0,14.1,6.073a.707.707,0,0,0-.011-.118,2.534,2.534,0,0,1,.526-.168,1.071,1.071,0,0,0,.686.543l.115.02.114-.022a1.074,1.074,0,0,0,.676-.555m-.226-.69c-.187,0-.375.578-.57.615-.2-.033-.394-.6-.58-.6h-.015c-1.877.318-1.356.942-1.356.982A2.072,2.072,0,0,1,12.811,7.2v0a1.925,1.925,0,0,0-.8,1.47c0,.395-1.113.778-.826,1.111A5.715,5.715,0,0,0,15.4,11.25h.044v0h.037A5.746,5.746,0,0,0,19.7,9.7c.28-.338-.843-.7-.847-1.1a1.926,1.926,0,0,0-.823-1.455v0a2.075,2.075,0,0,1-.667-1.109c0-.041.509-.674-1.374-.957Z" transform="translate(-0.833 -3.199)" style="fill:#36384b"/><path d="M10.075,11.027" transform="translate(-0.833 -3.199)" style="fill:#36384b"/><path d="M9.191,11.892" transform="translate(-0.833 -3.199)" style="fill:#36384b"/><path d="M6.628,12.165c-.159.073-.8.54-1.119.77A8,8,0,0,1,4,13.906a.584.584,0,0,1-.373.3,2.656,2.656,0,0,0-.908.56,5.187,5.187,0,0,1-.873.605.529.529,0,0,1-.033.123l.009.011a3.224,3.224,0,0,0,.711-.441A3.047,3.047,0,0,1,3.545,14.5a.5.5,0,0,1,.456.1c.222-.148.588-.417.867-.621,1-.737,1.378-.983,1.722-.937a.586.586,0,0,1,.462.391l1.867,1.2a1.4,1.4,0,0,1,.265.137l.035.021.019-.037a8.139,8.139,0,0,1,.538-.969c.053-.083.157-.248.194-.325a1.372,1.372,0,0,0-.533-.353,17.926,17.926,0,0,0-1.745-.758l-.74-.281a.6.6,0,0,1-.321.1Z" transform="translate(-0.833 -3.199)" style="fill:#36384b"/><path d="M6.606,23.875l-.208.059a17.443,17.443,0,0,0-1.814.562l-.751.272a.605.605,0,0,1-.208.309c-.075.082-.406.818-.565,1.171a10.4,10.4,0,0,1-.683,1.373.576.576,0,0,1-.091.453,16.171,16.171,0,0,0-1,1.581.624.624,0,0,1,.044.095l.047.008a12.19,12.19,0,0,0,.852-1.143l.183-.268a.507.507,0,0,1,.466-.223c.12-.224.3-.618.428-.891.444-.962.632-1.335.882-1.494a.581.581,0,0,1,.6,0l2.165-.3a.579.579,0,0,0,.27-.34l-.006-.028a2.992,2.992,0,0,1,.059-1.36C7.04,23.75,6.73,23.84,6.606,23.875Z" transform="translate(-0.833 -3.199)" style="fill:#36384b"/><path d="M4.375,21.18c-.095.058-.618.664-.869.956a10.883,10.883,0,0,1-1.052,1.129.575.575,0,0,1-.219.41,16.433,16.433,0,0,0-1.4,1.23.628.628,0,0,1,.015.1l.043.023a11.989,11.989,0,0,0,1.136-.848l.258-.21a.512.512,0,0,1,.509-.081c.18-.181.468-.509.669-.736.7-.792.983-1.1,1.266-1.177a.577.577,0,0,1,.581.167l2.178.329a1.213,1.213,0,0,1,.263.016,2.133,2.133,0,0,0,.15-.251,2.205,2.205,0,0,0,0-1.146,1.39,1.39,0,0,0-.116-.269l-.018,0a1.855,1.855,0,0,1-.414.046,17.872,17.872,0,0,0-1.9.023l-.79.047A.6.6,0,0,1,4.375,21.18Z" transform="translate(-0.833 -3.199)" style="fill:#36384b"/><path d="M15.5,33.457a7.81,7.81,0,0,1-6.7-3.318,12.5,12.5,0,0,1-1.539-5.622,2.916,2.916,0,0,1,.367-1.364,3.513,3.513,0,0,0,.424-1.615,3.234,3.234,0,0,0-.292-1.224.784.784,0,0,1-.1-.376c.192-2.51.4-4.415,1.333-6.078a11.01,11.01,0,0,1,1.5-2.086c.2-.214.4-.413.6-.592a6.679,6.679,0,0,0,4.369,1.38,6.676,6.676,0,0,0,4.371-1.381c.2.178.395.374.6.593a11.037,11.037,0,0,1,1.5,2.086c.933,1.664,1.14,3.568,1.333,6.078a.812.812,0,0,1-.1.376,3.278,3.278,0,0,0-.292,1.224,3.513,3.513,0,0,0,.424,1.615,2.9,2.9,0,0,1,.367,1.364,12.49,12.49,0,0,1-1.539,5.622,7.765,7.765,0,0,1-6.645,3.315Z" transform="translate(-0.833 -3.199)" style="fill:#a2acff"/><path d="M11.1,11.611a7.33,7.33,0,0,0,4.361,1.271,7.327,7.327,0,0,0,4.359-1.271q.186.18.372.381a10.589,10.589,0,0,1,1.457,2.026c.9,1.6,1.105,3.476,1.294,5.944a.71.71,0,0,1-.078.227,3.588,3.588,0,0,0-.317,1.331A3.808,3.808,0,0,0,23,23.283a2.708,2.708,0,0,1,.341,1.2,12.179,12.179,0,0,1-1.49,5.477,7.451,7.451,0,0,1-6.376,3.169h-.029A7.452,7.452,0,0,1,9.07,29.965a12.18,12.18,0,0,1-1.489-5.477,2.682,2.682,0,0,1,.341-1.2,3.819,3.819,0,0,0,.45-1.763,3.548,3.548,0,0,0-.317-1.331.739.739,0,0,1-.078-.227c.189-2.468.393-4.34,1.294-5.944a10.632,10.632,0,0,1,1.457-2.026c.124-.134.249-.261.373-.381m8.71-.872a5.99,5.99,0,0,1-4.35,1.5,5.988,5.988,0,0,1-4.35-1.5,9.343,9.343,0,0,0-.853.817A11.271,11.271,0,0,0,8.712,13.7c-1,1.781-1.191,3.818-1.374,6.209-.034.444.338.641.394,1.643.057,1.033-.88,1.949-.79,2.988A13.044,13.044,0,0,0,8.53,30.312a8.109,8.109,0,0,0,6.914,3.463h.033a8.108,8.108,0,0,0,6.914-3.463,13.044,13.044,0,0,0,1.589-5.768c.09-1.039-.848-1.955-.791-2.988.056-1,.428-1.2.394-1.643-.183-2.391-.373-4.428-1.373-6.209a11.314,11.314,0,0,0-1.546-2.148,9.474,9.474,0,0,0-.853-.817Z" transform="translate(-0.833 -3.199)" style="fill:#36384b"/><path d="M21.73,11.892" transform="translate(-0.833 -3.199)" style="fill:#36384b"/><path d="M26.783,25.749c.249.16.437.532.873,1.479l.006.013c.126.273.309.667.435.894h.028a.5.5,0,0,1,.432.222l.189.274a11.887,11.887,0,0,0,.847,1.137.373.373,0,0,1,.046-.009.587.587,0,0,1,.043-.1,15.846,15.846,0,0,0-.993-1.577.573.573,0,0,1-.092-.455,10.535,10.535,0,0,1-.681-1.369,10.386,10.386,0,0,0-.59-1.2.557.557,0,0,1-.186-.289l-.745-.271a18.009,18.009,0,0,0-1.814-.562l-.206-.058c-.288-.083-.517-.141-.685-.173a2.978,2.978,0,0,1,.062,1.341l-.01.054a.586.586,0,0,0,.271.334l2.165.3A.588.588,0,0,1,26.783,25.749Z" transform="translate(-0.833 -3.199)" style="fill:#36384b"/><path d="M25.61,22.145a.587.587,0,0,1,.582-.167c.284.081.57.385,1.259,1.169.2.228.491.559.679.744a.584.584,0,0,1,.189-.033.491.491,0,0,1,.316.114l.252.2a12.161,12.161,0,0,0,1.142.853l.042-.022a.541.541,0,0,1,.014-.1,16.485,16.485,0,0,0-1.4-1.23.566.566,0,0,1-.219-.409,10.657,10.657,0,0,1-1.043-1.12,10.475,10.475,0,0,0-.9-.977.54.54,0,0,1-.261-.224l-.792-.047a17.8,17.8,0,0,0-1.9-.023,1.428,1.428,0,0,1-.356-.034l-.08-.015a1.668,1.668,0,0,0-.113.268,2.209,2.209,0,0,0,0,1.147,1.811,1.811,0,0,0,.151.25,1.153,1.153,0,0,1,.282-.014Z" transform="translate(-0.833 -3.199)" style="fill:#36384b"/><path d="M10.238,12.081a12.441,12.441,0,0,0-.062-1.316l-.061-.635a.284.284,0,0,1-.173-.148,5.437,5.437,0,0,0-.731-.642,5.692,5.692,0,0,1-.819-.725.268.268,0,0,1-.235-.078,11.583,11.583,0,0,0-.967-1.02.2.2,0,0,1-.249-.005L6.932,7.5c.044.093-.013.179-.064.257l0,0a7.729,7.729,0,0,0,.68.86L7.7,8.8a.219.219,0,0,1,0,.271,7.619,7.619,0,0,0,.619.54c.5.412.73.608.778.755a.253.253,0,0,1-.1.271l-.182,1.574a.712.712,0,0,0,.708.578v.16l.884-.865h-.16Z" transform="translate(-0.833 -3.199)" style="fill:#36384b"/><path d="M21.407,12.737a.711.711,0,0,0,.708-.578l-.182-1.574a.254.254,0,0,1-.1-.271c.048-.147.274-.343.778-.755a7.314,7.314,0,0,0,.618-.541.22.22,0,0,1,0-.27l.146-.168a7.86,7.86,0,0,0,.684-.866l0,0c-.05-.077-.107-.164-.064-.256l-.009.009a.2.2,0,0,1-.249,0,12.027,12.027,0,0,0-.967,1.019.266.266,0,0,1-.235.079,5.768,5.768,0,0,1-.819.724,5.415,5.415,0,0,0-.731.644.282.282,0,0,1-.172.146l-.061.638a12.389,12.389,0,0,0-.062,1.314h-.16l.883.865h0Z" transform="translate(-0.833 -3.199)" style="fill:#36384b"/><rect x="4.321" y="27.479" width="0.374" height="0.748" style="fill:#36384b"/><rect x="4.321" y="29.348" width="0.374" height="0.748" style="fill:#36384b"/><rect x="5.069" y="28.6" width="0.748" height="0.374" style="fill:#36384b"/><polyline points="3.2 28.6 3.947 28.6 3.947 28.974 3.2 28.974" style="fill:#36384b"/><rect x="27.756" y="4.586" width="0.374" height="0.748" style="fill:#36384b"/><rect x="27.756" y="6.455" width="0.374" height="0.748" style="fill:#36384b"/><rect x="28.504" y="5.707" width="0.748" height="0.374" style="fill:#36384b"/><polyline points="26.635 5.707 27.382 5.707 27.382 6.081 26.635 6.081" style="fill:#36384b"/><path d="M10.158,26.664c2.1,2.945,8.736,2.754,10.623,0" transform="translate(-0.833 -3.199)" style="fill:none;stroke:#36384b;stroke-linecap:round;stroke-miterlimit:10;stroke-width:0.6411796129500544px"/><path d="M10.158,23.941c2.1,2.946,8.736,2.754,10.623,0" transform="translate(-0.833 -3.199)" style="fill:none;stroke:#36384b;stroke-linecap:round;stroke-miterlimit:10;stroke-width:0.6411796129500544px"/><rect x="3.387" y="4.399" width="0.374" height="0.748" style="fill:#36384b"/><rect x="3.387" y="6.268" width="0.374" height="0.748" style="fill:#36384b"/><rect x="4.134" y="5.52" width="0.748" height="0.374" style="fill:#36384b"/><polyline points="2.265 5.52 3.013 5.52 3.013 5.894 2.265 5.894" style="fill:#36384b"/></svg>