<svg id="Layer_1" data-name="Layer 1" xmlns="http://www.w3.org/2000/svg" viewBox="0 0 33.429 31.295"><title>icon-mould-mildew</title><ellipse cx="17.831" cy="20.368" rx="15.598" ry="10.927" style="fill:#a9ffd6"/><circle cx="12.643" cy="8.199" r="3.06" style="fill:#a9ffd6"/><path d="M12.036,22.225a8.906,8.906,0,0,0,3.271-.621,5.738,5.738,0,1,0,5.65-4.753,5.868,5.868,0,0,0-.754.055,8.93,8.93,0,1,0-8.167,5.319Zm8.718.595a1.829,1.829,0,1,1-1.829,1.829A1.829,1.829,0,0,1,20.754,22.82ZM13.822,7.682a2.807,2.807,0,1,1-2.806,2.807A2.807,2.807,0,0,1,13.822,7.682ZM8.787,16.14a1.318,1.318,0,1,1-1.318,1.317A1.317,1.317,0,0,1,8.787,16.14Z" transform="translate(-1.094 -2.353)" style="fill:#a2acff"/><path d="M20.957,28.63a6.045,6.045,0,0,1-6.038-6.038c0-.176.008-.355.026-.54a9.224,9.224,0,1,1,5.722-5.49c.1-.005.2-.008.29-.008a6.038,6.038,0,0,1,0,12.076Zm-5.266-7.5-.09.523a5.337,5.337,0,0,0-.087.936,5.491,5.491,0,1,0,4.728-5.39l-.525.069.214-.485A8.632,8.632,0,1,0,15.2,21.328Zm5.063,5.642a2.127,2.127,0,1,1,2.126-2.126A2.128,2.128,0,0,1,20.754,26.775Zm0-3.657a1.531,1.531,0,1,0,1.531,1.531A1.533,1.533,0,0,0,20.754,23.118ZM8.787,19.073A1.616,1.616,0,1,1,10.4,17.457,1.618,1.618,0,0,1,8.787,19.073Zm0-2.636a1.02,1.02,0,1,0,1.02,1.02A1.021,1.021,0,0,0,8.787,16.437Zm5.035-2.844a3.1,3.1,0,1,1,3.105-3.1A3.108,3.108,0,0,1,13.822,13.593Zm0-5.613a2.509,2.509,0,1,0,2.509,2.509A2.511,2.511,0,0,0,13.822,7.98Z" transform="translate(-1.094 -2.353)" style="fill:#36384b"/><path d="M20.957,30.345a7.727,7.727,0,0,1-7.594-6.187,11.07,11.07,0,0,1-1.327.08,10.931,10.931,0,1,1,10.8-9.169,7.754,7.754,0,0,1-1.879,15.276Zm-7.108-6.857.048.288a7.158,7.158,0,1,0,8.535-8.189l-.286-.06.055-.287a10.334,10.334,0,1,0-8.641,8.291Zm6.905,1.573a.412.412,0,1,1,.411-.412A.413.413,0,0,1,20.754,25.061Z" transform="translate(-1.094 -2.353)" style="fill:#36384b"/><path d="M20.957,29.786a7.157,7.157,0,0,1-7.134-6.262,10.381,10.381,0,1,1,8.36-8.021,7.194,7.194,0,0,1-1.226,14.283Zm-6.023-7.737.023.735a6,6,0,1,0,6.44-6.179l-.734-.053.206-.707a9.2,9.2,0,1,0-6.649,6.379Zm5.82,4.166a1.567,1.567,0,1,1,1.566-1.566A1.568,1.568,0,0,1,20.754,26.215Z" transform="translate(-1.094 -2.353)" style="fill:#fff"/><rect x="13.337" y="13.889" width="0.347" height="0.694" style="fill:#36384b"/><rect x="13.337" y="15.625" width="0.347" height="0.694" style="fill:#36384b"/><rect x="14.031" y="14.931" width="0.694" height="0.347" style="fill:#36384b"/><polyline points="12.296 14.931 12.99 14.931 12.99 15.278 12.296 15.278" style="fill:#36384b"/><rect x="27.056" y="5.755" width="0.347" height="0.694" style="fill:#36384b"/><rect x="27.056" y="7.49" width="0.347" height="0.694" style="fill:#36384b"/><rect x="27.751" y="6.796" width="0.694" height="0.347" style="fill:#36384b"/><polyline points="26.015 6.796 26.709 6.796 26.709 7.143 26.015 7.143" style="fill:#36384b"/><circle cx="24.026" cy="3.606" r="0.694" style="fill:#a9ffd6"/><circle cx="27.751" cy="1.665" r="0.347" style="fill:#a9ffd6"/></svg>