<svg id="Layer_1" data-name="Layer 1" xmlns="http://www.w3.org/2000/svg" viewBox="0 0 33.825 28.88"><title>icon-allowance</title><ellipse cx="14.838" cy="18.625" rx="14.639" ry="10.255" style="fill:#a9ffd6"/><polygon points="5.743 22.05 29.797 22.05 31.263 20.979 31.263 11.781 29.634 10.294 29.797 7.288 28.329 5.891 6.954 6.263 6.023 7.893 6.023 10.466 4.812 11.781 4.812 21.072 5.743 22.05" style="fill:#a3acff"/><rect x="8.401" y="14.872" width="19.164" height="3.334" rx="1.667" ry="1.667" style="fill:#fff"/><path d="M31.434,13.6l-.131-.053V11.054a1.922,1.922,0,0,0-1.92-1.92H8.755a1.922,1.922,0,0,0-1.92,1.92v2.492L6.7,13.6a1.912,1.912,0,0,0-1.2,1.78v8.385a1.913,1.913,0,0,0,1.723,1.91c.065.006.131.01.2.01h.542v.8h1.71v-.8H28.457v.8h1.711v-.8h.542a1.933,1.933,0,0,0,1.672-.978l.048-.092a1.921,1.921,0,0,0,.113-.279,1.963,1.963,0,0,0,.066-.3,1.934,1.934,0,0,0,.02-.271V15.379A1.914,1.914,0,0,0,31.434,13.6ZM7.481,11.054A1.275,1.275,0,0,1,8.755,9.78H29.383a1.276,1.276,0,0,1,1.275,1.274v2.4h-.747a1.922,1.922,0,0,0-1.919,1.92v2.328l-.275-.091a1.9,1.9,0,0,0-.6-.1h-16.1a1.892,1.892,0,0,0-.6.1l-.275.091V15.379a1.923,1.923,0,0,0-1.92-1.92H7.481Zm20.91,8.384v.533a1.276,1.276,0,0,1-1.275,1.274h-16.1a1.275,1.275,0,0,1-1.274-1.274v-.533a1.275,1.275,0,0,1,1.274-1.274h16.1A1.276,1.276,0,0,1,28.391,19.438Zm3.593,4.326a1.44,1.44,0,0,1-.014.179,1.406,1.406,0,0,1-.042.2,1.348,1.348,0,0,1-.073.178l-.027.055a1.272,1.272,0,0,1-1.118.664H7.419a1.155,1.155,0,0,1-.132-.007,1.269,1.269,0,0,1-1.142-1.267V15.379a1.276,1.276,0,0,1,1.274-1.274h.8a1.275,1.275,0,0,1,1.274,1.274v2.89l-.039.055a1.9,1.9,0,0,0-.36,1.114v.533a1.922,1.922,0,0,0,1.919,1.92h16.1a1.922,1.922,0,0,0,1.92-1.92v-.533a1.9,1.9,0,0,0-.359-1.114l-.04-.055v-2.89a1.276,1.276,0,0,1,1.274-1.274h.8a1.276,1.276,0,0,1,1.274,1.274Z" transform="translate(-1.088 -3.237)" style="fill:#36384b"/><rect x="29.634" width="0.326" height="0.652" style="fill:#36384b"/><rect x="29.634" y="1.629" width="0.326" height="0.652" style="fill:#36384b"/><rect x="30.286" y="0.977" width="0.652" height="0.326" style="fill:#36384b"/><polyline points="28.657 0.977 29.309 0.977 29.309 1.303 28.657 1.303" style="fill:#36384b"/><circle cx="25.233" cy="2.932" r="0.652" style="fill:#a9ffd6"/><circle cx="33.499" cy="4.47" r="0.326" style="fill:#a9ffd6"/><rect x="0.977" y="8.186" width="0.326" height="0.652" style="fill:#36384b"/><rect x="0.977" y="9.815" width="0.326" height="0.652" style="fill:#36384b"/><rect x="1.629" y="9.163" width="0.652" height="0.326" style="fill:#36384b"/><polyline points="0 9.163 0.652 9.163 0.652 9.489 0 9.489" style="fill:#36384b"/><circle cx="1.629" cy="12.433" r="0.652" style="fill:#a9ffd6"/><rect x="4.697" y="10.466" width="4.048" height="3.616" rx="1.808" ry="1.808" style="fill:#fff;stroke:#36384b;stroke-miterlimit:10;stroke-width:0.5588334563193058px"/><rect x="27.215" y="10.466" width="4.048" height="3.616" rx="1.808" ry="1.808" style="fill:#fff;stroke:#36384b;stroke-miterlimit:10;stroke-width:0.5588334563193058px"/><rect x="20.297" y="24.13" width="0.326" height="0.652" style="fill:#36384b"/><rect x="20.297" y="25.759" width="0.326" height="0.652" style="fill:#36384b"/><rect x="20.948" y="25.107" width="0.652" height="0.326" style="fill:#36384b"/><polyline points="19.319 25.107 19.971 25.107 19.971 25.433 19.319 25.433" style="fill:#36384b"/><line x1="18.038" y1="8.837" x2="18.038" y2="11.781" style="fill:none;stroke:#36384b;stroke-linecap:round;stroke-miterlimit:10;stroke-width:0.5588334563193058px"/></svg>