<svg id="Layer_1" data-name="Layer 1" xmlns="http://www.w3.org/2000/svg" viewBox="0 0 32.613 34.541"><title>icon-guaranteed</title><ellipse cx="16.027" cy="14.76" rx="14.777" ry="10.352" style="fill:#a9ffd6"/><polyline points="8.935 16.89 2.756 26.06 8.856 25.65 9.485 33.159 17.442 21.349" style="fill:#a2acff;stroke:#36384b;stroke-miterlimit:10;stroke-width:0.5641238689422607px"/><polyline points="21.619 17.449 27.798 26.62 21.698 26.21 21.069 33.718 13.325 22.225" style="fill:#a2acff;stroke:#36384b;stroke-miterlimit:10;stroke-width:0.5641238689422607px"/><rect x="0.987" y="3.813" width="0.329" height="0.658" style="fill:#36384b"/><rect x="0.987" y="5.458" width="0.329" height="0.658" style="fill:#36384b"/><rect x="1.645" y="4.8" width="0.658" height="0.329" style="fill:#36384b"/><polyline points="0 4.8 0.658 4.8 0.658 5.129 0 5.129" style="fill:#36384b"/><rect x="30.64" y="20.262" width="0.329" height="0.658" style="fill:#36384b"/><rect x="30.64" y="21.906" width="0.329" height="0.658" style="fill:#36384b"/><rect x="31.298" y="21.249" width="0.658" height="0.329" style="fill:#36384b"/><polyline points="29.653 21.249 30.311 21.249 30.311 21.578 29.653 21.578" style="fill:#36384b"/><path d="M18.518,24.222c-.207,0-.523-.259-.8-.488a2.1,2.1,0,0,0-1.192-.629,2.1,2.1,0,0,0-1.192.629c-.279.229-.6.488-.8.488-.254-.041-.482-.425-.683-.765a2.06,2.06,0,0,0-.881-.976.991.991,0,0,0-.334-.055,3.2,3.2,0,0,0-.989.236,2.811,2.811,0,0,1-.795.2.331.331,0,0,1-.171-.037c-.187-.108-.269-.544-.341-.928a2.083,2.083,0,0,0-.5-1.229,2.081,2.081,0,0,0-1.3-.279c-.391,0-.833-.01-.972-.175s-.066-.6,0-.983a2.076,2.076,0,0,0-.051-1.33A2.067,2.067,0,0,0,6.4,17.2c-.368-.138-.784-.3-.859-.5s.143-.579.332-.917a2.092,2.092,0,0,0,.412-1.275,2.053,2.053,0,0,0-.806-1.034c-.3-.257-.64-.55-.64-.774s.34-.516.64-.774A2.053,2.053,0,0,0,6.28,10.9,2.1,2.1,0,0,0,5.868,9.62c-.189-.336-.4-.718-.332-.915s.492-.362.859-.5a2.069,2.069,0,0,0,1.12-.7,2.083,2.083,0,0,0,.051-1.33c-.063-.385-.134-.821,0-.984s.581-.17.971-.174a2.084,2.084,0,0,0,1.3-.279,2.083,2.083,0,0,0,.5-1.229c.072-.384.154-.82.341-.929a.341.341,0,0,1,.17-.036,2.837,2.837,0,0,1,.8.2,3.183,3.183,0,0,0,.989.237.983.983,0,0,0,.334-.055,2.062,2.062,0,0,0,.881-.977c.2-.339.429-.723.647-.761h0a1.737,1.737,0,0,1,.834.485,2.1,2.1,0,0,0,1.192.629,2.1,2.1,0,0,0,1.192-.629c.279-.229.595-.488.8-.488.253.041.481.425.682.765a2.061,2.061,0,0,0,.882.976.983.983,0,0,0,.334.055,3.171,3.171,0,0,0,.988-.237,2.84,2.84,0,0,1,.795-.2.342.342,0,0,1,.171.036c.187.109.269.544.341.929a2.075,2.075,0,0,0,.5,1.229,2.081,2.081,0,0,0,1.3.279c.39,0,.832.01.971.174s.066.6,0,.983a2.076,2.076,0,0,0,.05,1.332,2.07,2.07,0,0,0,1.12.7c.368.138.784.295.859.5s-.144.579-.333.916a2.089,2.089,0,0,0-.411,1.276,2.051,2.051,0,0,0,.805,1.034c.3.257.64.55.64.773s-.34.517-.641.775a2.045,2.045,0,0,0-.8,1.034,2.091,2.091,0,0,0,.411,1.276c.189.337.4.719.333.915s-.492.362-.859.5a2.069,2.069,0,0,0-1.121.7,2.075,2.075,0,0,0-.05,1.33c.062.384.133.82,0,.984s-.58.169-.971.174a2.082,2.082,0,0,0-1.3.279,2.075,2.075,0,0,0-.5,1.228c-.072.385-.154.821-.341.929a.331.331,0,0,1-.171.037,2.849,2.849,0,0,1-.794-.2,3.183,3.183,0,0,0-.989-.237.987.987,0,0,0-.334.055,2.06,2.06,0,0,0-.881.976c-.2.34-.429.724-.647.762Z" transform="translate(-1.693 -0.905)" style="fill:#fff"/><path d="M18.5,1.466a2.3,2.3,0,0,1,.461.629,2.249,2.249,0,0,0,1.027,1.1,1.249,1.249,0,0,0,.431.072A3.4,3.4,0,0,0,21.5,3.013a3.09,3.09,0,0,1,.722-.2,2.292,2.292,0,0,1,.214.743,2.267,2.267,0,0,0,.593,1.393,2.268,2.268,0,0,0,1.478.345,2.846,2.846,0,0,1,.751.064,2.328,2.328,0,0,1-.052.766,2.267,2.267,0,0,0,.085,1.518,2.254,2.254,0,0,0,1.264.823,2.861,2.861,0,0,1,.69.319,2.3,2.3,0,0,1-.31.7,2.318,2.318,0,0,0-.443,1.462,2.238,2.238,0,0,0,.9,1.2c.181.156.518.445.543.553-.025.123-.362.412-.543.568a2.238,2.238,0,0,0-.9,1.2,2.315,2.315,0,0,0,.443,1.462,2.837,2.837,0,0,1,.317.673,2.287,2.287,0,0,1-.7.342,2.257,2.257,0,0,0-1.265.823,2.273,2.273,0,0,0-.085,1.518,2.826,2.826,0,0,1,.067.748,2.313,2.313,0,0,1-.766.082,2.263,2.263,0,0,0-1.477.345,2.259,2.259,0,0,0-.594,1.392c-.043.23-.124.659-.234.735a2.776,2.776,0,0,1-.7-.187,3.372,3.372,0,0,0-1.082-.253,1.248,1.248,0,0,0-.43.072,2.251,2.251,0,0,0-1.028,1.1,2.807,2.807,0,0,1-.438.626,2.281,2.281,0,0,1-.625-.424,2.326,2.326,0,0,0-1.371-.693,2.321,2.321,0,0,0-1.37.693,2.84,2.84,0,0,1-.6.427,2.261,2.261,0,0,1-.461-.629,2.255,2.255,0,0,0-1.028-1.1,1.249,1.249,0,0,0-.431-.072,3.385,3.385,0,0,0-1.081.252,3.053,3.053,0,0,1-.723.2,2.3,2.3,0,0,1-.214-.742,2.267,2.267,0,0,0-.593-1.393,2.266,2.266,0,0,0-1.477-.345,2.85,2.85,0,0,1-.752-.064,2.328,2.328,0,0,1,.052-.766,2.267,2.267,0,0,0-.085-1.518,2.254,2.254,0,0,0-1.264-.823,2.819,2.819,0,0,1-.69-.32,2.3,2.3,0,0,1,.31-.694,2.318,2.318,0,0,0,.443-1.462,2.229,2.229,0,0,0-.9-1.2c-.181-.156-.518-.445-.543-.553.025-.123.362-.412.543-.568a2.236,2.236,0,0,0,.9-1.2,2.32,2.32,0,0,0-.442-1.462A2.809,2.809,0,0,1,5.8,8.81a2.287,2.287,0,0,1,.7-.342,2.254,2.254,0,0,0,1.265-.823,2.273,2.273,0,0,0,.085-1.518,2.873,2.873,0,0,1-.067-.749A2.343,2.343,0,0,1,8.543,5.3a2.268,2.268,0,0,0,1.478-.345,2.264,2.264,0,0,0,.593-1.392c.043-.23.124-.659.235-.735a2.77,2.77,0,0,1,.7.187,3.4,3.4,0,0,0,1.082.253,1.244,1.244,0,0,0,.43-.072A2.251,2.251,0,0,0,14.09,2.1a2.559,2.559,0,0,1,.447-.625,2.493,2.493,0,0,1,.617.423,2.327,2.327,0,0,0,1.37.693A2.326,2.326,0,0,0,17.9,1.893a2.815,2.815,0,0,1,.6-.427M14.53.905a.48.48,0,0,0-.085.007c-.657.115-.963,1.528-1.576,1.751a.7.7,0,0,1-.237.038c-.528,0-1.26-.44-1.783-.44a.618.618,0,0,0-.312.073c-.572.332-.376,1.763-.879,2.186s-1.881-.017-2.3.488S7.6,6.79,7.271,7.362s-1.773.622-2,1.246.846,1.582.731,2.24c-.112.639-1.45,1.185-1.45,1.856S5.89,13.922,6,14.561c.115.657-.954,1.626-.731,2.239s1.671.679,2,1.246-.341,1.85.082,2.354,1.8.064,2.3.488.306,1.855.879,2.186a.618.618,0,0,0,.312.074c.523,0,1.256-.44,1.783-.44a.683.683,0,0,1,.238.038c.613.223.919,1.636,1.576,1.751a.48.48,0,0,0,.085.007c.621,0,1.352-1.117,1.994-1.117S17.9,24.5,18.518,24.5A.48.48,0,0,0,18.6,24.5c.657-.115.963-1.528,1.576-1.751a.7.7,0,0,1,.237-.038c.528,0,1.261.44,1.784.44a.6.6,0,0,0,.311-.074c.573-.331.376-1.762.879-2.185s1.881.017,2.3-.488-.249-1.782.082-2.354,1.773-.622,2-1.246-.846-1.583-.731-2.24c.112-.639,1.45-1.185,1.45-1.857s-1.338-1.217-1.45-1.856c-.115-.657.954-1.627.731-2.24s-1.671-.678-2-1.245.341-1.851-.082-2.354-1.8-.064-2.305-.488-.306-1.855-.879-2.186a.618.618,0,0,0-.312-.074c-.523,0-1.255.44-1.783.44a.707.707,0,0,1-.238-.038C19.566,2.44,19.261,1.027,18.6.912a.476.476,0,0,0-.084-.007c-.622,0-1.353,1.116-1.995,1.116S15.151.905,14.53.905Z" transform="translate(-1.693 -0.905)" style="fill:#36384b"/><circle cx="14.831" cy="11.8" r="8.995" style="fill:#a2acff"/><path d="M16.524,3.991A8.714,8.714,0,1,1,7.811,12.7a8.724,8.724,0,0,1,8.713-8.713m0-.564A9.278,9.278,0,1,0,25.8,12.7a9.277,9.277,0,0,0-9.278-9.277Z" transform="translate(-1.693 -0.905)" style="fill:#36384b"/><circle cx="0.987" cy="9.031" r="0.658" style="fill:#a9ffd6"/><circle cx="32.285" cy="18.334" r="0.329" style="fill:#a9ffd6"/><path d="M20,8.968l-4.833,4.963-2.124-2.2a1.177,1.177,0,1,0-1.692,1.636l2.967,3.069a1.18,1.18,0,0,0,.844.359h0a1.173,1.173,0,0,0,.843-.356l5.679-5.832A1.176,1.176,0,1,0,20,8.968Z" transform="translate(-1.693 -0.905)" style="fill:#fff"/></svg>