<svg id="Layer_1" data-name="Layer 1" xmlns="http://www.w3.org/2000/svg" viewBox="0 0 34.09 31.776"><title>icon-replacement</title><polygon points="8.029 23.195 25.37 23.195 26.79 22.157 26.79 13.25 25.213 11.81 25.37 8.899 23.949 7.546 9.202 7.906 8.3 9.485 8.3 11.977 7.127 13.25 7.127 22.248 8.029 23.195" style="fill:#a3acff"/><rect x="10.603" y="16.243" width="12.606" height="3.228" rx="1.589" ry="1.589" style="fill:#fff"/><path d="M27.068,13.856l-.126-.051V11.389a1.861,1.861,0,0,0-1.859-1.86H11.059A1.861,1.861,0,0,0,9.2,11.389V13.8l-.127.052a1.851,1.851,0,0,0-1.166,1.723V23.7a1.852,1.852,0,0,0,1.669,1.849,1.7,1.7,0,0,0,.189.01h.525v.773h1.657v-.773H24.186v.773h1.656v-.773h.526a1.872,1.872,0,0,0,1.619-.947l.046-.089a1.7,1.7,0,0,0,.173-.561,1.8,1.8,0,0,0,.021-.262v-8.12A1.855,1.855,0,0,0,27.068,13.856ZM9.825,11.389a1.235,1.235,0,0,1,1.234-1.234H25.083a1.235,1.235,0,0,1,1.234,1.234v2.329h-.723a1.861,1.861,0,0,0-1.859,1.859v2.254l-.267-.088a1.834,1.834,0,0,0-.58-.094H13.245a1.859,1.859,0,0,0-.581.094l-.266.087V15.577a1.861,1.861,0,0,0-1.859-1.859H9.825Zm14.3,8.119v.516a1.236,1.236,0,0,1-1.234,1.234H13.245a1.236,1.236,0,0,1-1.234-1.234v-.516a1.235,1.235,0,0,1,1.234-1.234h9.643A1.235,1.235,0,0,1,24.122,19.508ZM27.6,23.7a1.321,1.321,0,0,1-.013.173,1.34,1.34,0,0,1-.042.194,1.217,1.217,0,0,1-.07.171l-.025.053a1.236,1.236,0,0,1-1.083.643H9.765c-.041,0-.083,0-.124-.007A1.229,1.229,0,0,1,8.532,23.7v-8.12a1.235,1.235,0,0,1,1.233-1.234h.774a1.236,1.236,0,0,1,1.234,1.234v2.8l-.038.054a1.842,1.842,0,0,0-.349,1.079v.516a1.861,1.861,0,0,0,1.859,1.859h9.643a1.861,1.861,0,0,0,1.859-1.859v-.516a1.845,1.845,0,0,0-.349-1.079l-.038-.054v-2.8a1.236,1.236,0,0,1,1.234-1.234h.774A1.235,1.235,0,0,1,27.6,15.577Z" transform="translate(-1.167 -1.977)" style="fill:#36384b"/><rect x="7.016" y="11.977" width="3.92" height="3.502" rx="1.724" ry="1.724" style="fill:#fff;stroke:#36384b;stroke-miterlimit:10;stroke-width:0.5411779860005481px"/><rect x="22.87" y="11.977" width="3.92" height="3.502" rx="1.724" ry="1.724" style="fill:#fff;stroke:#36384b;stroke-miterlimit:10;stroke-width:0.5411779860005481px"/><path d="M31.661,12.849a14.645,14.645,0,0,0-6.3-7.407l.272-.469a15.188,15.188,0,0,1,6.537,7.683Z" transform="translate(-1.167 -1.977)" style="fill:#36384b"/><path d="M32.909,18.1l-.541,0A14.314,14.314,0,0,1,21.043,32.047l-.237-1.189-1.587,1.886,2.163,1.009-.234-1.176A14.854,14.854,0,0,0,32.909,18.1Z" transform="translate(-1.167 -1.977)" style="fill:#36384b"/><rect x="31.961" y="15.07" width="0.316" height="0.631" transform="translate(15.149 45.323) rotate(-89.253)" style="fill:#36384b"/><rect x="30.383" y="15.049" width="0.316" height="0.631" transform="translate(13.613 43.725) rotate(-89.253)" style="fill:#36384b"/><rect x="31.004" y="16.006" width="0.631" height="0.316" transform="translate(13.582 45.292) rotate(-89.253)" style="fill:#36384b"/><rect x="31.024" y="14.428" width="0.631" height="0.316" transform="translate(15.18 43.756) rotate(-89.253)" style="fill:#36384b"/><path d="M19.552,3.479,17.7,1.977,17.638,3.2A14.875,14.875,0,0,0,3.176,18V18.1a14.819,14.819,0,0,0,2.3,7.881l.436-.321a14.278,14.278,0,0,1-2.2-7.561V18A14.332,14.332,0,0,1,17.612,3.745l-.056,1.181Z" transform="translate(-1.167 -1.977)" style="fill:#36384b"/><path d="M8.474,29.429a14.786,14.786,0,0,0,6.876,3.243l.1-.533a14.233,14.233,0,0,1-6.6-3.1Z" transform="translate(-1.167 -1.977)" style="fill:#36384b"/><rect x="14.983" y="27.494" width="0.316" height="0.631" transform="translate(-14.031 40.609) rotate(-89.253)" style="fill:#36384b"/><rect x="13.405" y="27.474" width="0.316" height="0.631" transform="translate(-15.567 39.011) rotate(-89.253)" style="fill:#36384b"/><rect x="14.026" y="28.43" width="0.631" height="0.316" transform="translate(-15.598 40.578) rotate(-89.253)" style="fill:#36384b"/><rect x="14.047" y="26.853" width="0.631" height="0.316" transform="translate(-14 39.042) rotate(-89.253)" style="fill:#36384b"/><path d="M1.353,19.935A16.086,16.086,0,0,1,11.314,2.851l.185.508A15.524,15.524,0,0,0,1.887,19.845Z" transform="translate(-1.167 -1.977)" style="fill:#36384b"/><path d="M23.745,33.28l-.108-.53c5.76-1.171,8.887-6.23,9.814-10.207l.527.123C33.015,26.8,29.756,32.059,23.745,33.28Z" transform="translate(-1.167 -1.977)" style="fill:#36384b"/><circle cx="28.87" cy="16.066" r="0.316" style="fill:#a9ffd6"/><circle cx="33.459" cy="12.921" r="0.631" style="fill:#a9ffd6"/></svg>