<svg width="16" height="13" viewBox="0 0 16 13" xmlns="http://www.w3.org/2000/svg"><title>Path</title><g id="Retailer-Partners" fill="none" fill-rule="evenodd" transform="translate(-1198 -13)"><g id="Nav/Secondary-(Top)" stroke="#A3ACFF" stroke-width="1.25"><path d="M1211.473 21.283l-.003.008 1.888-5.667c-.032-.005-.084-.014-.134-.014l-11.197-.002-.105-.496-.281-1.34c-.028-.118-.06-.147-.156-.147h-2.86v.328h2.899l2.13 9.075-.23.245a1.248 1.248 0 0 0-.305.822c0 .674.535 1.259 1.147 1.259.503 0 1.06-.519 1.146-.916l.107-.492h4.788l.107.492c.103.474.565.937 1.146.937.616 0 1.146-.553 1.146-1.203 0-.739-.412-1.211-1.136-1.211-.305 0-.678.18-.817.384l-.186.273h-5.318l-.185-.288c-.186-.291-.414-.406-.761-.42l-.498-.02-.295-1.574h7.821c.179 0 .113.055.142-.033zm0 0l.003-.01-.003.01z" id="Path"/></g></g></svg>