<svg xmlns="http://www.w3.org/2000/svg" viewBox="0 0 72 72"><title>Artboard 11</title><g id="Layer_1" data-name="Layer 1"><ellipse cx="39.127" cy="47.538" rx="26.195" ry="18.351" style="fill:#a9ffd6"/><rect x="11.206" y="30.531" width="48.515" height="21.934" style="fill:#fff"/><polygon points="10.074 30.531 60.853 30.531 60.853 22.231 55.812 17.19 15.115 17.19 10.074 22.231 10.074 30.531" style="fill:#a3acff"/><path d="M61.207,21.877l-5.041-5.041a.5.5,0,0,0-.354-.146H46.8V12.177A4.273,4.273,0,0,0,42.53,7.909H28.4a4.273,4.273,0,0,0-4.268,4.268V16.69H15.115a.5.5,0,0,0-.353.146L9.721,21.877a.5.5,0,0,0-.147.354v8.3a.5.5,0,0,0,.5.5h.632V52.965H60.222V31.031h.632a.5.5,0,0,0,.5-.5v-8.3A.5.5,0,0,0,61.207,21.877ZM28.849,16.335V12.466h13.23v3.869Zm-3.72-4.158A3.272,3.272,0,0,1,28.4,8.909H42.53A3.272,3.272,0,0,1,45.8,12.177V16.36l-2.72.007v-4.9H27.849v4.94l-2.72.007ZM59.222,51.965H11.706V31.031H59.222Zm1.132-21.934H10.574V22.438l4.748-4.748H55.605l4.749,4.748Z" style="fill:#36384b"/><rect x="8.041" y="55.999" width="0.583" height="1.166" style="fill:#36384b"/><rect x="8.041" y="58.914" width="0.583" height="1.166" style="fill:#36384b"/><rect x="9.207" y="57.748" width="1.166" height="0.583" style="fill:#36384b"/><rect x="6.292" y="57.748" width="1.166" height="0.583" style="fill:#36384b"/><rect x="61.362" y="12.36" width="0.583" height="1.166" style="fill:#36384b"/><rect x="61.362" y="15.275" width="0.583" height="1.166" style="fill:#36384b"/><rect x="62.528" y="14.109" width="1.166" height="0.583" style="fill:#36384b"/><rect x="59.613" y="14.109" width="1.166" height="0.583" style="fill:#36384b"/><circle cx="10.074" cy="12.943" r="1.166" style="fill:#a9ffd6"/><circle cx="65.266" cy="30.725" r="1.166" style="fill:#a9ffd6"/><circle cx="12.343" cy="60.301" r="0.583" style="fill:#a9ffd6"/><polygon points="59.721 42.016 52.069 48.282 53.689 50.235 61.364 43.996 59.721 42.016" style="fill:#fff"/><polygon points="50.735 48.863 44.074 54.345 42.969 54.603 42.579 54.927 45.495 58.441 45.886 58.117 46.343 57.079 52.981 51.57 53.851 50.235 52.231 48.282 50.735 48.863" style="fill:#a9ffd6"/><path d="M65.011,46.2c-.246-.3.389-1.12-.191-1.82a2.225,2.225,0,0,0-3.55-.3l-1.62-1.952s1.632-2.022.851-2.963c-1.529-1.842-4-2.312-5.129-2.533,0,0,0-.6.025-.865,3.348-.356,6.763-.149,8.592,2.055l2.268,2.733c.555.668-.006,1.582.515,2.21.655.789,1.436.141,2.077.914l.648.781-3.514,2.916Z" style="fill:#a3acff"/><path d="M69.882,44.139l-.648-.782a1.787,1.787,0,0,0-1.366-.628c-.347-.033-.522-.058-.711-.286-.132-.159-.136-.386-.131-.745a2.067,2.067,0,0,0-.384-1.465L64.374,37.5c-1.638-1.974-4.593-2.7-9.03-2.232a.5.5,0,0,0-.445.441c-.031.278-.027.926-.027.926a.521.521,0,0,0,.425.491c1.108.215,3.414.663,4.819,2.356.313.377-.2,1.44-.732,2.164l-7.719,6.32-1.11.431a.463.463,0,0,0-.137.081l-6.571,5.407-.991.23a.5.5,0,0,0-.206.1l-.39.324a.5.5,0,0,0-.066.7l2.916,3.515a.5.5,0,0,0,.339.178l.046,0a.5.5,0,0,0,.319-.115l.391-.324a.5.5,0,0,0,.139-.184l.409-.93L53.3,51.955a.461.461,0,0,0,.1-.112l.871-1.336a.464.464,0,0,0,.033-.128l7.267-5.906a.174.174,0,0,0,.019-.01,1.734,1.734,0,0,1,2.846.239c.185.224.153.469.077.845a1.1,1.1,0,0,0,.114.974l.973,1.172a.5.5,0,0,0,.384.181.5.5,0,0,0,.32-.115l3.513-2.916A.5.5,0,0,0,69.882,44.139ZM53.854,49.455l-.983-1.184L59.556,42.8l1,1.209Zm-7.831,7.238a.51.51,0,0,0-.138.184l-.36.817-2.207-2.66.869-.2a.5.5,0,0,0,.205-.1l6.6-5.429.963-.374,1.2,1.452-.556.855ZM66.049,46.67l-.6-.716c.008-.058.025-.142.038-.21a1.861,1.861,0,0,0-.288-1.681,2.647,2.647,0,0,0-3.742-.732L60.358,42c.5-.742,1.307-2.217.528-3.156a8.578,8.578,0,0,0-5.012-2.623h0c3.837-.348,6.372.282,7.73,1.919l2.268,2.733a1.186,1.186,0,0,1,.155.812,1.983,1.983,0,0,0,.361,1.4,1.817,1.817,0,0,0,1.387.643c.349.032.511.055.69.271l.328.4Z" style="fill:#36384b"/><path d="M20.5,56.259s-1.458.651-2.941-1.11a2.942,2.942,0,0,1-.719-3.06L7.3,40.772a3.242,3.242,0,0,1-3.568-1.291c-1.671-1.983-.6-3.538-.6-3.538L4.756,37.87l1.5.352L8.183,36.6,8.128,35.03,6.505,33.1s1.642-.733,3.312,1.25a3.258,3.258,0,0,1,.693,3.711l9.514,11.324a2.931,2.931,0,0,1,2.939,1.205,2.589,2.589,0,0,1,.528,3.143l-1.442-1.712-1.332-.312-1.712,1.441.049,1.394L20.5,56.259" style="fill:#fff"/><path d="M19.805,56.877a3.421,3.421,0,0,1-2.634-1.406,3.468,3.468,0,0,1-.9-3.272L7.115,41.334a3.743,3.743,0,0,1-3.77-1.53c-1.894-2.25-.676-4.069-.623-4.145a.5.5,0,0,1,.387-.215.479.479,0,0,1,.407.177l1.515,1.8,1.1.257,1.549-1.3-.041-1.152-1.512-1.8a.5.5,0,0,1,.179-.779c.082-.036,2.006-.862,3.9,1.384a3.759,3.759,0,0,1,.893,3.949l9.132,10.87a3.442,3.442,0,0,1,3.122,1.422,3.064,3.064,0,0,1,.556,3.75.5.5,0,0,1-.387.214.471.471,0,0,1-.407-.176l-1.335-1.585-.926-.218-1.334,1.123.034.977,1.331,1.581a.5.5,0,0,1-.179.778A2.343,2.343,0,0,1,19.805,56.877ZM7.3,40.272a.5.5,0,0,1,.382.178l9.539,11.318a.5.5,0,0,1,.085.5,2.466,2.466,0,0,0,.635,2.557,2.714,2.714,0,0,0,1.557,1.021l-.823-.978a.508.508,0,0,1-.117-.3l-.049-1.393a.5.5,0,0,1,.178-.4L20.4,51.329a.486.486,0,0,1,.436-.1l1.332.312a.5.5,0,0,1,.269.164l.858,1.02a2.563,2.563,0,0,0-.71-1.807,2.451,2.451,0,0,0-2.453-1.038.5.5,0,0,1-.486-.168L10.127,38.386a.5.5,0,0,1-.066-.54,2.786,2.786,0,0,0-.626-3.171,3,3,0,0,0-1.958-1.2l1.034,1.228a.508.508,0,0,1,.117.3l.055,1.568a.507.507,0,0,1-.178.4L6.578,38.6a.5.5,0,0,1-.436.1l-1.5-.352a.5.5,0,0,1-.269-.164L3.311,36.931a2.846,2.846,0,0,0,.8,2.228,2.77,2.77,0,0,0,3.042,1.135A.475.475,0,0,1,7.3,40.272Z" style="fill:#36384b"/><path d="M34.461,56.475a1.5,1.5,0,0,1-1.163-.552,1.476,1.476,0,0,1-.329-1.11,1.516,1.516,0,0,1,.553-1.008l6.124-5.01.05-.508a.5.5,0,0,1,.181-.337l.785-.642a.5.5,0,0,1,.317-.114.4.4,0,0,1,.049,0,.5.5,0,0,1,.337.181l1.928,2.356a.5.5,0,0,1-.07.7l-.786.642a.5.5,0,0,1-.316.113l-.057,0-.512-.058-6.128,5A1.526,1.526,0,0,1,34.461,56.475Z" style="fill:#a3acff"/><path d="M49.753,42.843a.718.718,0,0,0-.262-.1.709.709,0,0,0-.078-.451l.085-.3,1.382-.724.33.439-1.092,1.123Z" style="fill:#fff"/><path d="M51.088,40.35l-2.2,1.151-.263.915.152.215L42.4,47.852l-.647-.791a1,1,0,0,0-1.408-.141l-.785.643a1,1,0,0,0-.362.674l-.03.3-5.963,4.878a2.02,2.02,0,0,0-.733,1.341,1.977,1.977,0,0,0,.438,1.482,2,2,0,0,0,1.551.735,2.028,2.028,0,0,0,1.28-.459L41.7,51.652l.3.035a1.051,1.051,0,0,0,.112.006,1,1,0,0,0,.633-.226l.786-.643a1,1,0,0,0,.14-1.407l-.647-.791,6.331-5.18.088.124.979-.03,1.721-1.771L51.088,40.35ZM34.461,55.975a1,1,0,0,1-.622-1.784l6.283-5.14.071-.714.786-.643,1.927,2.356-.785.643-.722-.082-6.292,5.131a1.016,1.016,0,0,1-.646.233Z" style="fill:#36384b"/><path d="M32.877,26.893h5.174v7.246a1.487,1.487,0,0,1-1.486,1.487h-2.2a1.486,1.486,0,0,1-1.486-1.487Z" style="fill:#a3acff"/><path d="M33.377,27.393v6.746a.988.988,0,0,0,.986.987h2.2a.988.988,0,0,0,.987-.987V27.393Zm3.187,8.733h-2.2a1.989,1.989,0,0,1-1.986-1.987V26.893a.5.5,0,0,1,.5-.5h5.174a.5.5,0,0,1,.5.5v7.246A1.989,1.989,0,0,1,36.564,36.126Z" style="fill:#36384b"/></g></svg>