<svg id="Layer_1" data-name="Layer 1" xmlns="http://www.w3.org/2000/svg" viewBox="0 0 63.983 62.314"><title>icon-page-close</title><path d="M48.347,36.157l17.6-16.978a8.275,8.275,0,0,0,.209-11.667h0A8.275,8.275,0,0,0,54.485,7.3L36.464,24.692,18.442,7.3a8.275,8.275,0,0,0-11.667.209h0a8.275,8.275,0,0,0,.209,11.667l17.6,16.978L6.984,53.136A8.274,8.274,0,0,0,6.775,64.8h0a8.275,8.275,0,0,0,11.667.209L36.464,47.623,54.485,65.011A8.251,8.251,0,1,0,65.943,53.136Z" transform="translate(-4.472 -5)" style="fill:#434da0"/></svg>