<svg xmlns="http://www.w3.org/2000/svg" viewBox="0 0 72 72"><title>Artboard 20</title><g id="Layer_1" data-name="Layer 1"><polygon points="20.461 16.197 15.084 20.467 15.084 8.01 20.461 8.01 20.461 16.197" style="fill:#a2acff"/><ellipse cx="43.572" cy="45.878" rx="26.195" ry="18.351" style="fill:#a9ffd6"/><polygon points="29.753 9.452 10.651 24.517 49.418 24.8 29.753 9.452" style="fill:#fff"/><rect x="8.897" y="51.499" width="34.735" height="5.475" style="fill:#fff"/><polygon points="9.888 24.375 49.418 24.8 48.145 29.469 48.357 50.904 11.571 50.904 11.942 29.327 9.888 24.375" style="fill:#a2acff"/><rect x="19.494" y="33.713" width="7.711" height="8.56" style="fill:#fff"/><path d="M8.028,56.559v.283H1.666v1H67.384V56.818l-18.577.165-.286,0V56.7l.026-27.329v-.063l.026-.056,1.911-4.115-.009-.05-.024-.185a1.027,1.027,0,0,0-.112-.335l-.168-.087L30.078,8.411a.489.489,0,0,0-.307-.108.508.508,0,0,0-.315.111l-7.941,6.2-.457.357V8.1a.5.5,0,0,0-.5-.5H15.024a.5.5,0,0,0-.335.5v12l-.113.085L9.116,24.3a.332.332,0,0,0,.039.211l2.16,4.617.027.057V50.7H8.529a.5.5,0,0,0-.5.5Zm7.5-37.83V8.6h4.533v7.173l-.109.085-3.967,3.091-.457.356Zm-3.953,4.934L29.6,9.565l.174-.137.175.137,17.987,14.1.645.5H10.924ZM10.55,25.645l-.2-.408H49.307l-.184.4-1.5,3.258.026,21.512v.284H12.211V50.41l-.073-21.241.01-.21v-.078ZM8.9,56.691V51.5H47.651v5.475H8.9Z" style="fill:#36384b"/><path d="M67.44,57.9H1.609V56.785H7.972V51.2a.558.558,0,0,1,.557-.557h2.756V29.193l-.021-.046L9.1,24.53a.376.376,0,0,1-.043-.244l0-.022.019-.014,5.55-4.182V8.1a.562.562,0,0,1,.384-.552h5.542a.558.558,0,0,1,.557.558v6.751L29.421,8.37a.559.559,0,0,1,.692,0L50.207,24.436l.173.087.009.014a1.106,1.106,0,0,1,.12.361l.035.247-.007.017L48.6,29.321v.05l-.025,27.558,18.862-.168ZM1.723,57.787h65.6v-.912l-18.862.168V56.7l.03-27.415,1.931-4.155L50.42,25.1l-.024-.189a.973.973,0,0,0-.1-.3l-.153-.079L30.043,8.456a.449.449,0,0,0-.552,0L21,15.084V8.1a.444.444,0,0,0-.444-.444H15.023a.46.46,0,0,0-.278.439V20.125l-.135.1-5.44,4.1a.277.277,0,0,0,.034.152l2.194,4.7V50.754H8.529a.444.444,0,0,0-.444.444v5.7H1.723Zm45.985-.756H8.841V51.442H47.708ZM8.954,56.918H47.6V51.556H8.954Zm38.755-6.17H12.154V50.41l-.072-21.242.01-.211V28.9L10.258,25.18H49.4l-.22.482-1.492,3.246Zm-35.441-.113H47.6v-.227l-.026-21.524,0-.011,1.645-3.58H10.439L12.2,28.881v.077l-.01.213ZM48.741,24.226H10.76l.775-.607L29.771,9.356l.208.165Zm-37.653-.113H48.413L29.771,9.5l-.14.109Zm4.38-4.689V8.546h4.645V15.8l-.131.1Zm.113-10.765V19.192L20,15.748V8.659Z" style="fill:#36384b"/><path d="M28.063,32.752h-9.5V43.23h9.487C28.063,39.313,28.07,34.687,28.063,32.752ZM27.049,33.9v8.325H19.567V33.621h7.482Z" style="fill:#36384b"/><rect x="54.002" y="33.871" width="0.583" height="1.166" style="fill:#36384b"/><rect x="54.002" y="36.786" width="0.583" height="1.166" style="fill:#36384b"/><rect x="55.168" y="35.62" width="1.166" height="0.583" style="fill:#36384b"/><polyline points="52.253 35.62 53.419 35.62 53.419 36.203 52.253 36.203" style="fill:#36384b"/><rect x="8.09" y="13.902" width="0.583" height="1.166" style="fill:#36384b"/><rect x="8.09" y="16.817" width="0.583" height="1.166" style="fill:#36384b"/><rect x="9.256" y="15.651" width="1.166" height="0.583" style="fill:#36384b"/><polyline points="6.341 15.651 7.507 15.651 7.507 16.234 6.341 16.234" style="fill:#36384b"/><path d="M52.212,42.842a6.162,6.162,0,0,0-5.551,3.485h0a6.162,6.162,0,0,0-11.639,3.625c.983,6.523,11.639,13.276,11.639,13.276S57.316,56.475,58.3,49.952a6.164,6.164,0,0,0-6.088-7.11Z" style="fill:#a2acff"/><path d="M52.212,42.842a6.162,6.162,0,0,0-5.551,3.485h0a6.162,6.162,0,0,0-11.639,3.625c.983,6.523,11.639,13.276,11.639,13.276S57.316,56.475,58.3,49.952a6.164,6.164,0,0,0-6.088-7.11Z" style="fill:none;stroke:#36384b;stroke-miterlimit:10;stroke-width:1.13187885284424px"/><rect x="61.481" y="41.198" width="0.583" height="1.166" style="fill:#36384b"/><rect x="61.481" y="44.114" width="0.583" height="1.166" style="fill:#36384b"/><rect x="62.647" y="42.948" width="1.166" height="0.583" style="fill:#36384b"/><polyline points="59.732 42.948 60.898 42.948 60.898 43.531 59.732 43.531" style="fill:#36384b"/><circle cx="6.341" cy="45.7" r="1.166" style="fill:#a9ffd6"/></g></svg>