<svg id="Layer_1" data-name="Layer 1" xmlns="http://www.w3.org/2000/svg" viewBox="0 0 33.594 31.503"><title>icon-experienced</title><ellipse cx="18.54" cy="20.957" rx="15.054" ry="10.546" style="fill:#a9ffd6"/><rect x="6.466" y="2.306" width="20.645" height="26.963" style="fill:#fff;stroke:#36384b;stroke-miterlimit:10;stroke-width:0.5746686638568477px"/><polygon points="25.97 28.13 5.325 28.13 5.325 1.166 21.848 1.166 25.97 5.339 25.97 28.13" style="fill:#fff;stroke:#36384b;stroke-miterlimit:10;stroke-width:0.5746686638568477px"/><path d="M10.145,9.927H12.5a.53.53,0,0,0,.526-.6,1.806,1.806,0,0,0-1.252-1.724,1.011,1.011,0,1,0-.9,0A1.806,1.806,0,0,0,9.619,9.331.53.53,0,0,0,10.145,9.927Z" transform="translate(-1.3 -2.271)" style="fill:#36384b"/><line x1="10.596" y1="10.513" x2="23.214" y2="10.513" style="fill:none;stroke:#36384b;stroke-linecap:round;stroke-miterlimit:10;stroke-width:0.5746686638568477px"/><line x1="10.596" y1="12.241" x2="23.214" y2="12.241" style="fill:none;stroke:#36384b;stroke-linecap:round;stroke-miterlimit:10;stroke-width:0.5746686638568477px"/><line x1="10.596" y1="13.969" x2="23.214" y2="13.969" style="fill:none;stroke:#36384b;stroke-linecap:round;stroke-miterlimit:10;stroke-width:0.5746686638568477px"/><line x1="7.832" y1="18.783" x2="23.214" y2="18.783" style="fill:none;stroke:#36384b;stroke-linecap:round;stroke-miterlimit:10;stroke-width:0.5746686638568477px"/><line x1="7.832" y1="17.151" x2="23.214" y2="17.151" style="fill:none;stroke:#36384b;stroke-linecap:round;stroke-miterlimit:10;stroke-width:0.5746686638568477px"/><line x1="7.832" y1="20.51" x2="23.214" y2="20.51" style="fill:none;stroke:#36384b;stroke-linecap:round;stroke-miterlimit:10;stroke-width:0.5746686638568477px"/><line x1="7.832" y1="22.238" x2="23.214" y2="22.238" style="fill:none;stroke:#36384b;stroke-linecap:round;stroke-miterlimit:10;stroke-width:0.5746686638568477px"/><line x1="7.832" y1="23.966" x2="23.214" y2="23.966" style="fill:none;stroke:#36384b;stroke-linecap:round;stroke-miterlimit:10;stroke-width:0.5746686638568477px"/><line x1="14.076" y1="4.728" x2="19.25" y2="4.728" style="fill:none;stroke:#36384b;stroke-linecap:round;stroke-miterlimit:10;stroke-width:0.5746686638568477px"/><line x1="14.076" y1="6.092" x2="20.705" y2="6.092" style="fill:none;stroke:#36384b;stroke-linecap:round;stroke-miterlimit:10;stroke-width:0.5746686638568477px"/><line x1="14.076" y1="7.386" x2="20.705" y2="7.386" style="fill:none;stroke:#36384b;stroke-linecap:round;stroke-miterlimit:10;stroke-width:0.5746686638568477px"/><polygon points="25.977 5.339 21.848 1.173 21.861 5.352 25.977 5.339" style="fill:#fff;stroke:#36384b;stroke-linejoin:round;stroke-width:0.5746686638568477px"/><rect x="1.005" y="12.427" width="0.335" height="0.67" style="fill:#36384b"/><rect x="1.005" y="14.102" width="0.335" height="0.67" style="fill:#36384b"/><rect x="1.675" y="13.432" width="0.67" height="0.335" style="fill:#36384b"/><polyline points="0 13.432 0.67 13.432 0.67 13.767 0 13.767" style="fill:#36384b"/><rect x="30.71" width="0.335" height="0.67" style="fill:#36384b"/><rect x="30.71" y="1.675" width="0.335" height="0.67" style="fill:#36384b"/><rect x="31.38" y="1.005" width="0.67" height="0.335" style="fill:#36384b"/><polyline points="29.705 1.005 30.375 1.005 30.375 1.34 29.705 1.34" style="fill:#36384b"/><circle cx="2.981" cy="27.238" r="0.67" style="fill:#a9ffd6"/><path d="M24.757,21.831c.283-.634,1.693-1.987,1.982-2.507.577-1.041.1-2.461,1.515-2.461.631,0,2.556,1.588-.474,5.7a17.937,17.937,0,0,1,4.647,0,1.4,1.4,0,0,1,1.112,1.211A1.3,1.3,0,0,1,32.87,25a1.273,1.273,0,0,1-.078,2.435,1.352,1.352,0,0,1,.781,1.218A1.262,1.262,0,0,1,32.42,29.87a.976.976,0,0,1,.681.863c0,1.155-.987,1.436-1.785,1.654a10.923,10.923,0,0,1-3.409.13c-1.5-.1-3.184-.758-5.331-1.008V24.666A7.1,7.1,0,0,0,24.757,21.831Zm-6.406,10.4a.353.353,0,0,0,.352.353h3.521a.353.353,0,0,0,.352-.353V23.955a.353.353,0,0,0-.352-.353H18.7a.353.353,0,0,0-.352.353Z" transform="translate(-1.3 -2.271)" style="fill:#fff;stroke:#36384b;stroke-miterlimit:10;stroke-width:0.6681959943084576px"/><rect x="17.393" y="21.652" width="3.54" height="8.295" style="fill:#a2acff"/><path d="M9.871,15.769l-.608.625-.268-.277a.148.148,0,1,0-.213.206l.374.386a.147.147,0,0,0,.106.045h0a.148.148,0,0,0,.106-.044l.715-.734a.148.148,0,1,0-.212-.207Z" transform="translate(-1.3 -2.271)" style="fill:#36384b"/><path d="M9.871,14.041l-.608.625-.268-.277a.148.148,0,0,0-.213.206l.374.386a.148.148,0,0,0,.106.046h0a.149.149,0,0,0,.106-.045l.715-.734a.148.148,0,1,0-.212-.207Z" transform="translate(-1.3 -2.271)" style="fill:#36384b"/><path d="M9.871,12.314l-.608.624-.268-.276a.148.148,0,1,0-.213.205l.374.387a.147.147,0,0,0,.106.045h0a.145.145,0,0,0,.106-.045l.715-.734a.148.148,0,0,0-.212-.206Z" transform="translate(-1.3 -2.271)" style="fill:#36384b"/></svg>