<svg xmlns="http://www.w3.org/2000/svg" viewBox="0 0 72 72"><title>Artboard 2</title><g id="Layer_1" data-name="Layer 1"><ellipse cx="38.662" cy="27.307" rx="26.195" ry="18.351" style="fill:#a9ffd6"/><path d="M43.31,36.719c-7.72.515-10.82,2.353-11.2,4.97,2.315,6.779,6.891,11.54,16.73,11.6,9.991-.884,15.2-4.7,16.645-10.833.961-4.142-4.619-5.178-11.2-5.739C53.122,42.513,44.152,42.1,43.31,36.719Z" style="fill:#a3acff"/><polygon points="43.97 34.141 42.816 37.927 44.718 39.94 48.844 41.122 51.514 40.315 53.929 39.11 54.717 37.08 53.628 34.141 43.97 34.141" style="fill:#fff"/><path d="M57.3,23.422c-.028-8.192-4.436-8.882-8.46-8.882-4.36,0-8.355.678-8.422,8.751" style="fill:#a3acff"/><path d="M56.533,25.168c-.079.475-.082,1.284-.158,1.7s-.14.773-.192,1.1a13.814,13.814,0,0,1-3.444,7.242c-.94.942-3.218,1.025-3.895,1.028H48.73c-.676,0-2.955-.086-3.894-1.028a15.39,15.39,0,0,1-3.28-6.3,25.4,25.4,0,0,1-.676-3.776l15.653.039" style="fill:#fff"/><path d="M48.747,22.122c-6.6,0-8.2.856-8.284,1.043a1.55,1.55,0,0,0,.206,1.443c.522.753,1.663,1.253,3.391,1.484.425.057,2.681.112,4.983.112a47.056,47.056,0,0,0,5.037-.176c1.555-.24,2.564-.721,3-1.431a1.511,1.511,0,0,0,.071-1.459C57.052,22.959,55.352,22.122,48.747,22.122Z" style="fill:#a3acff"/><path d="M38.291,46.523,36.247,38.5a.461.461,0,0,1,.334-.561l0-.009c-1.946.383-3.715,1.088-4.256,2.379-.574,1.368-.007,3.662,1.445,5.845a15.257,15.257,0,0,0,5,4.629c-.02-.106-.035-.2-.041-.248Z" style="fill:none;stroke:#36384b;stroke-miterlimit:10;stroke-width:1.23332464694977px"/><polyline points="40.482 37.829 42.954 43.809 54.038 43.809 56.544 37.796" style="fill:none;stroke:#36384b;stroke-miterlimit:10;stroke-width:1.23332464694977px"/><path d="M60.355,37.807A20.443,20.443,0,0,0,56.67,37.5l-2.632,6.311H42.954l-2.472-5.98a.524.524,0,0,0-.636-.286,25.358,25.358,0,0,0-3.265.393.461.461,0,0,0-.334.561l2.044,8.026.44,4.009c.006.051.021.142.041.248a19.594,19.594,0,0,0,10.072,2.511,19.933,19.933,0,0,0,9.385-2.132c.015-.1.025-.191.032-.258l.442-4.387,1.991-8.149A.462.462,0,0,0,60.355,37.807Z" style="fill:#fff"/><path d="M65.929,40.067c-.606-1.444-2.451-2.414-5.486-2.881l-.207-.032a23.029,23.029,0,0,0-3.566-.272H54.985a8.659,8.659,0,0,1-.425-3.029,14.994,14.994,0,0,0,2.231-5.79c.053-.322.118-.688.19-1.087a8.744,8.744,0,0,0,.086-.9c.013-.2.028-.4.048-.584a2.621,2.621,0,0,0,.489-.576,3.242,3.242,0,0,0,.317-1.5c-.028-8.346-4.38-9.5-9.077-9.5-4.323,0-8.937.723-9.035,9.286a2.154,2.154,0,0,0,.353,1.749c.064.093.142.248.105.237a25.935,25.935,0,0,0,.692,3.86,17.152,17.152,0,0,0,2.108,4.834,8.522,8.522,0,0,1-.449,2.987c-.175,0-.374,0-.592,0a33.336,33.336,0,0,0-3.833.187l-.326.037-.074.008h0a12.525,12.525,0,0,0-1.364.229,1.079,1.079,0,0,0-.781,1.311l2.029,7.941.439,4c.006.062.025.174.048.3l.052.277.243.143a20.3,20.3,0,0,0,10.385,2.6,21.187,21.187,0,0,0,8.591-1.684l-.008.05,1.087-.568.274-.144,0-.015a16.1,16.1,0,0,0,5.637-5.054C66.015,44.106,66.59,41.645,65.929,40.067Zm-24.55-1.945c.3-.009.577-.012.828-.012a7.372,7.372,0,0,0,6.638,3.628A7.236,7.236,0,0,0,55.4,38.117h.342l-2.117,5.076H43.366l-2.1-5.08.113,0Zm13.659-.005v0ZM41,23.539c.4-.181,2.185-.8,7.75-.8,5.719,0,7.525.636,7.9.8a.886.886,0,0,1-.1.733,3.661,3.661,0,0,1-2.568,1.144,45.412,45.412,0,0,1-4.942.169c-2.348,0-4.523-.057-4.9-.108-1.527-.2-2.552-.627-2.966-1.224A.971.971,0,0,1,41,23.539Zm7.847-8.382c3.737,0,7.387.578,7.8,7.075a30.582,30.582,0,0,0-7.9-.727,30.2,30.2,0,0,0-7.666.693C41.47,15.719,44.828,15.157,48.844,15.157ZM41.625,26.088a8.553,8.553,0,0,0,2.353.615c.477.064,2.8.118,5.065.118a50.126,50.126,0,0,0,5.132-.183,8.568,8.568,0,0,0,1.646-.407c-.013.2-.028.389-.052.527-.075.408-.142.781-.2,1.11A13.169,13.169,0,0,1,52.3,34.773c-.616.617-2.249.841-3.461.847h-.109c-1.212-.006-2.845-.23-3.461-.847a14.706,14.706,0,0,1-3.118-6.018A24.9,24.9,0,0,1,41.625,26.088ZM44.4,35.644c1.077,1.079,3.386,1.2,4.329,1.209h.12c.942,0,3.251-.13,4.328-1.209.037-.037.115-.118.219-.233a8.475,8.475,0,0,0,.624,2.364l.07.144a5.935,5.935,0,0,1-5.244,2.586,6.07,6.07,0,0,1-5.283-2.574l.079-.224a12.622,12.622,0,0,0,.567-2.275C44.272,35.5,44.342,35.586,44.4,35.644ZM39.337,50.393l-.448-4.022L36.884,38.5c.32-.069.694-.124,1.067-.169h0c.138-.018.275-.032.413-.047.5-.051.959-.084,1.24-.1l.223-.017.123-.006,2.592,6.268H54.449l2.63-6.306a18.69,18.69,0,0,1,2.978.25l-1.968,8.083-.434,4.307a19.579,19.579,0,0,1-8.81,1.914A19.207,19.207,0,0,1,39.337,50.393ZM63.4,45.81a14.6,14.6,0,0,1-4.434,4.218l.334-3.367,1.972-8.07c1.947.419,3.156,1.087,3.519,1.953C65.279,41.708,64.721,43.825,63.4,45.81Z" style="fill:#36384b"/><path d="M19.891,45.968c-9.552.638-13.079,1.943-13.544,5.182,2.865,8.387,8.527,14.279,20.7,14.356,12.362-1.094,18.806-5.821,20.6-13.4,1.189-5.125-5.715-6.407-13.856-7.1C32.343,52.169,20.933,52.625,19.891,45.968Z" style="fill:#a3acff"/><circle cx="7.426" cy="40.36" r="0.583" style="fill:#a9ffd6"/><circle cx="58.057" cy="6.801" r="1.166" style="fill:#a9ffd6"/><rect x="62.441" y="8.259" width="0.583" height="1.166" style="fill:#36384b"/><rect x="62.441" y="11.174" width="0.583" height="1.166" style="fill:#36384b"/><rect x="63.607" y="10.008" width="1.166" height="0.583" style="fill:#36384b"/><polyline points="60.692 10.008 61.858 10.008 61.858 10.591 60.692 10.591" style="fill:#36384b"/><rect x="12.454" y="38.792" width="0.583" height="1.166" style="fill:#36384b"/><rect x="12.454" y="41.707" width="0.583" height="1.166" style="fill:#36384b"/><rect x="13.62" y="40.541" width="1.166" height="0.583" style="fill:#36384b"/><polyline points="10.705 40.541 11.871 40.541 11.871 41.124 10.705 41.124" style="fill:#36384b"/><polygon points="21.439 39.532 19.627 47.395 26.179 50.709 31.938 49.115 34.136 45.97 32.877 41.935 21.439 39.532" style="fill:#fff"/><path d="M37.518,28.546c-.035-10.137-5.49-10.991-10.47-10.991-5.394,0-10.338.839-10.421,10.828" style="fill:#a3acff"/><path d="M36.563,30.707c-.1.587-.1,1.588-.2,2.1-.09.5-.173.956-.238,1.359a17.1,17.1,0,0,1-4.261,8.961C30.706,44.3,27.886,44.4,27.049,44.4h-.141c-.836,0-3.656-.106-4.819-1.272a19.053,19.053,0,0,1-4.058-7.8,31.446,31.446,0,0,1-.837-4.673l19.369.049" style="fill:#fff"/><path d="M26.929,26.937c-8.172,0-10.15,1.059-10.25,1.291a1.915,1.915,0,0,0,.254,1.785c.646.933,2.058,1.55,4.2,1.836.526.071,3.317.14,6.166.14a58.531,58.531,0,0,0,6.233-.218c1.924-.3,3.172-.893,3.71-1.771a1.876,1.876,0,0,0,.088-1.806C37.205,27.973,35.1,26.937,26.929,26.937Z" style="fill:#a3acff"/><polyline points="16.701 46.373 19.761 53.773 33.476 53.773 36.577 46.332" style="fill:none;stroke:#36384b;stroke-miterlimit:10;stroke-width:1.23332464694977px"/><path d="M41.293,46.346a25.328,25.328,0,0,0-4.56-.382l-3.257,7.809H19.761l-3.06-7.4a.649.649,0,0,0-.787-.354,31.287,31.287,0,0,0-4.039.487.569.569,0,0,0-.413.694l2.529,9.931.544,4.961c.007.063.025.176.05.306A24.242,24.242,0,0,0,27.05,65.506a24.671,24.671,0,0,0,11.612-2.638c.019-.121.031-.236.04-.32l.546-5.428,2.464-10.083A.572.572,0,0,0,41.293,46.346Z" style="fill:#fff"/><path d="M48.055,49.2c-.73-1.738-2.975-2.908-6.675-3.477l-.149-.023a27.372,27.372,0,0,0-4.5-.352h-1l-1.187,0a10.832,10.832,0,0,1-.568-3.921,18.617,18.617,0,0,0,2.761-7.163c.065-.4.146-.852.237-1.348.049-.274.077-.677.1-1.091.018-.279.039-.55.066-.792a3.009,3.009,0,0,0,.618-.713,2.4,2.4,0,0,0,.362-1.43l.006,0C38.1,18.7,32.786,16.939,27.048,16.939c-5.525,0-10.924.883-11.035,11.374a2.546,2.546,0,0,0,.413,2.052c.049.07.11.135.166.2a38.422,38.422,0,0,0,.842,4.914,21.037,21.037,0,0,0,2.613,5.979,10.817,10.817,0,0,1-.595,3.883c-.232,0-.5,0-.8,0-.7-.007-1.689,0-2.817.068h-.019c-.6.034-1.241.085-1.893.157-.468.049-.961.111-1.427.188v-.01l-.736.145c-3.13.615-5.052,1.729-5.716,3.309-.8,1.907-.093,4.9,1.844,7.814a19.618,19.618,0,0,0,6.142,5.763l0,.014.242.141.006,0,1.166.682-.012-.063a25.508,25.508,0,0,0,11.615,2.57A25.939,25.939,0,0,0,37.876,63.93l-.007.049,1.079-.564.277-.145,0-.015a19.746,19.746,0,0,0,6.985-6.242C48.148,54.1,48.854,51.106,48.055,49.2Zm-6.944-2.3,0-.007h.006Zm-5.377-.314h.073l-2.742,6.575H20.173l-2.719-6.576.353-.006v.014c.41-.012.782-.015,1.114-.015a8.971,8.971,0,0,0,8.127,4.49,8.812,8.812,0,0,0,8.032-4.481Zm-1.016,0v0ZM17.21,28.59c.4-.2,2.5-1.036,9.719-1.036,7.383,0,9.517.846,9.9,1.033a1.26,1.26,0,0,1-.114,1.091c-.432.7-1.566,1.218-3.278,1.484-.407.063-1.127.112-2.083.148l-9.371-.023c-.378-.016-.649-.033-.769-.049-1.931-.258-3.235-.8-3.772-1.575A1.353,1.353,0,0,1,17.21,28.59Zm9.838-10.418c4.736,0,9.356.747,9.807,9.109-1.468-.519-4.567-.961-9.926-.961-4.52,0-7.933.337-9.641.914C17.715,18.9,21.96,18.172,27.048,18.172ZM17.929,31.588a9.851,9.851,0,0,0,3.118.872c.584.079,3.446.145,6.248.145a61.758,61.758,0,0,0,6.328-.225,9.823,9.823,0,0,0,2.222-.587c-.022.344-.042.678-.083.906-.092.5-.175.966-.241,1.371A16.474,16.474,0,0,1,31.433,42.7c-.791.793-2.785,1.083-4.418,1.091h-.1c-1.6-.008-3.6-.3-4.387-1.091a18.35,18.35,0,0,1-3.9-7.515A30.122,30.122,0,0,1,17.929,31.588Zm3.723,11.978c1.292,1.295,4.105,1.448,5.254,1.453h.146c1.149,0,3.961-.158,5.254-1.453.069-.069.244-.251.485-.535a10.775,10.775,0,0,0,.793,3.212l.127.258a7.5,7.5,0,0,1-6.662,3.33,7.663,7.663,0,0,1-6.7-3.3l.125-.355a14.961,14.961,0,0,0,.75-3.085C21.377,43.272,21.523,43.436,21.652,43.566ZM8.915,56.33c-1.66-2.495-2.356-5.169-1.733-6.654C7.6,48.689,8.86,47.9,10.866,47.36l.118.462,2.4,9.42.246,2.232.187,1.711A18.11,18.11,0,0,1,8.915,56.33Zm6.231,5.68-.013-.121L14.6,57.064l-.01-.039-.006-.046-1.531-5.888L12.024,47.1a13.91,13.91,0,0,1,1.527-.254h0c.162-.021.324-.038.485-.056.628-.065,1.209-.107,1.563-.132l.308-.024c.08-.005.154-.008.232-.011l3.21,7.762H33.887l3.255-7.8a22.154,22.154,0,0,1,3.961.349L38.635,57.059l-.546,5.41a24.348,24.348,0,0,1-11.04,2.42A23.881,23.881,0,0,1,15.146,62.01Zm30.039-5.68A18.256,18.256,0,0,1,39.4,61.747l.447-4.48,2.464-10.083.009-.041c2.54.529,4.12,1.4,4.6,2.533C47.54,51.161,46.844,53.834,45.185,56.33Z" style="fill:#36384b"/></g></svg>