<svg id="Layer_1" data-name="Layer 1" xmlns="http://www.w3.org/2000/svg" viewBox="0 0 31.142 30.877"><title>icon-sulfate-free</title><ellipse cx="14.057" cy="21.029" rx="14.057" ry="9.848" style="fill:#a9ffd6"/><circle cx="13.396" cy="26.13" r="1.663" style="fill:#a2acff"/><circle cx="27.06" cy="11.006" r="1.663" style="fill:#a2acff"/><circle cx="6.889" cy="6.05" r="1.663" style="fill:#a2acff"/><path d="M22.584,24.563l.333.1c3.776,1.147,6.563.916,7.492-.615.667-1.1.2-2.5-.3-3.488A15.565,15.565,0,0,0,27.2,16.836l-.239-.235.236-.239c.328-.334.641-.674.932-1.01l.121-.141.2.029a2.149,2.149,0,0,0,.77.147,2.091,2.091,0,0,0,1.331-3.7l-.127-.1,0-.186a2.738,2.738,0,0,0-.243-2.08c-.927-1.513-3.587-1.745-7.3-.637l-.331.1-.089-.335c-.992-3.742-2.58-5.887-4.355-5.887s-3.359,2.14-4.351,5.872l-.089.331-.328-.095a18.455,18.455,0,0,0-2.067-.471L11.1,8.162l-.084-.185A2.117,2.117,0,0,0,8.968,6.289,2.093,2.093,0,0,0,6.877,8.38l.008.235-.109.12a2.337,2.337,0,0,0-.585.639c-.954,1.575.149,4.138,3.029,7.033l.236.239-.238.236a15.586,15.586,0,0,0-2.885,3.739c-.909,1.787-.658,2.884-.287,3.489.918,1.5,3.637,1.732,7.3.637l.332-.1.089.334c.141.534.3,1.051.473,1.536l.06.167-.115.162a2.126,2.126,0,0,0-.713,1.572,2.09,2.09,0,0,0,2.9,1.93l.137-.058.157.071a2.5,2.5,0,0,0,1.459.508c1.792,0,3.387-2.176,4.377-5.97Zm7.225-.877a2.977,2.977,0,0,1-2.517,1h-.161a14.566,14.566,0,0,1-4.1-.726l-.292-.091.063-.3a31.8,31.8,0,0,0,.527-3.785l.01-.122.1-.1A32.269,32.269,0,0,0,26.219,17.3l.235-.214.227.223C29.382,19.971,30.581,22.414,29.809,23.686Zm-6.383-8.439-.026-.712.566.433c.6.456,1.168.925,1.7,1.392l.281.248-.278.252c-.529.481-1.1.96-1.69,1.425l-.566.442.023-.718c.015-.427.022-.864.022-1.3C23.454,16.214,23.445,15.721,23.426,15.247ZM30.613,13.3a1.391,1.391,0,1,1-1.39-1.39A1.392,1.392,0,0,1,30.613,13.3Zm-7.6-3.923c3.374-1.02,5.833-.9,6.575.308a1.866,1.866,0,0,1,.214,1.245l-.042.323-.324-.033a2.091,2.091,0,0,0-1.891,3.332l.165.216-.182.206c-.262.3-.551.613-.859.925l-.223.228-.239-.212a32.72,32.72,0,0,0-2.753-2.189l-.1-.072-.036-.142a31.487,31.487,0,0,0-.535-3.746l-.063-.3Zm-.885.693c.151.746.276,1.533.372,2.338l.084.71-.6-.389c-.3-.194-.611-.388-.921-.576-.49-.3-1-.588-1.5-.866l-.589-.322.611-.277c.716-.326,1.423-.618,2.1-.867l.367-.135Zm-7.7-1.395c.894-3.391,2.274-5.415,3.691-5.415s2.8,2.035,3.7,5.445L21.9,9l-.29.1a31.325,31.325,0,0,0-3.264,1.4l-.118.059-.149-.044a31.228,31.228,0,0,0-3.432-1.44l-.293-.1Zm-.711,3.87c.1-.865.232-1.708.4-2.507l.076-.378.364.128c.732.259,1.49.564,2.253.907l.611.276-.587.324c-.515.285-1.019.578-1.5.872-.359.22-.727.454-1.1.7l-.6.395ZM8.968,6.99A1.391,1.391,0,1,1,7.577,8.38,1.392,1.392,0,0,1,8.968,6.99ZM6.791,9.737l.243-.479.318.45a2.09,2.09,0,0,0,3.572-.591l.1-.26L11.3,8.9a17.845,17.845,0,0,1,1.924.451l.3.087-.066.3a31.465,31.465,0,0,0-.549,3.885l-.009.122-.1.1A32.389,32.389,0,0,0,10.2,15.95l-.238.213-.224-.226C7.171,13.349,6.041,10.974,6.791,9.737Zm6.01,8.152.02.719-.564-.446c-.525-.413-1.031-.838-1.5-1.265l-.278-.251.28-.249c.471-.42.978-.843,1.507-1.259l.566-.443-.023.719c-.016.438-.023.874-.023,1.3C12.781,17.081,12.787,17.466,12.8,17.889Zm.419,6.163a14.23,14.23,0,0,1-3.951.689,2.915,2.915,0,0,1-2.625-1c-.777-1.268.408-3.717,3.094-6.391l.225-.225.237.214a31.744,31.744,0,0,0,2.56,2.082l.1.073.035.139a31.76,31.76,0,0,0,.558,4.026l.063.3Zm.331-5.072c-.046-.76-.069-1.523-.069-2.269,0-.8.025-1.6.075-2.388l.009-.128.107-.107c.667-.468,1.338-.909,2.022-1.328.77-.472,1.56-.918,2.347-1.326l.123-.064.154.048c.822.42,1.613.862,2.383,1.329.606.367,1.219.763,1.822,1.177l.107.074.036.149c.058.859.087,1.711.087,2.564,0,.8-.026,1.6-.075,2.389l-.009.128-.107.107c-.673.472-1.344.913-2.023,1.329-.715.438-1.442.852-2.163,1.23l-.125.066-.155-.05c-.758-.392-1.487-.8-2.2-1.234-.755-.458-1.5-.943-2.2-1.443l-.105-.074Zm.63,4.762-.076-.385c-.167-.82-.3-1.694-.4-2.6l-.081-.714.6.4c.438.289.88.569,1.313.832s.891.528,1.34.776l.579.32-.6.278c-.78.361-1.555.684-2.3.958Zm1.378,6.068a1.391,1.391,0,1,1,1.39-1.391A1.393,1.393,0,0,1,15.559,29.81Zm6.281-5.176c-.892,3.466-2.284,5.535-3.722,5.535a1.6,1.6,0,0,1-.647-.143l-.357-.157.209-.33a2.088,2.088,0,0,0-2.107-3.182l-.281.046-.092-.269c-.151-.44-.294-.915-.424-1.411l-.076-.3.288-.1a31.441,31.441,0,0,0,3.445-1.486l.12-.06.15.045a31.672,31.672,0,0,0,3.283,1.414l.287.1Zm.231-.982-.367-.136c-.685-.253-1.395-.547-2.108-.874l-.6-.275.574-.323c.45-.251.9-.514,1.336-.782.368-.226.736-.461,1.1-.7l.6-.4-.081.714c-.095.821-.219,1.623-.369,2.384Z" transform="translate(-2.163 -2.29)" style="fill:#36384b"/><rect x="29.89" y="14.206" width="0.313" height="0.626" style="fill:#36384b"/><rect x="29.89" y="15.771" width="0.313" height="0.626" style="fill:#36384b"/><rect x="30.516" y="15.145" width="0.626" height="0.313" style="fill:#36384b"/><polyline points="28.952 15.145 29.577 15.145 29.577 15.458 28.952 15.458" style="fill:#36384b"/><rect x="7.613" y="25.035" width="0.313" height="0.626" style="fill:#36384b"/><rect x="7.613" y="26.599" width="0.313" height="0.626" style="fill:#36384b"/><rect x="8.239" y="25.973" width="0.626" height="0.313" style="fill:#36384b"/><polyline points="6.675 25.973 7.3 25.973 7.3 26.286 6.675 26.286" style="fill:#36384b"/><circle cx="3.211" cy="12.439" r="0.626" style="fill:#a9ffd6"/><rect x="8.865" width="0.313" height="0.626" style="fill:#36384b"/><rect x="8.865" y="1.564" width="0.313" height="0.626" style="fill:#36384b"/><rect x="9.491" y="0.939" width="0.626" height="0.313" style="fill:#36384b"/><polyline points="7.927 0.939 8.552 0.939 8.552 1.252 7.927 1.252" style="fill:#36384b"/></svg>