<svg id="Layer_1" data-name="Layer 1" xmlns="http://www.w3.org/2000/svg" viewBox="0 0 33.943 31.52"><title>icon-bacteria-free</title><ellipse cx="16.234" cy="17.637" rx="16.234" ry="11.372" style="fill:#a9ffd6"/><path d="M35.026,13.31a.421.421,0,0,0-.459-.369l-3.82.441-.112-.221a4.271,4.271,0,0,0-1.465-1.89l-.232-.167,1.771-2.966a.418.418,0,0,0-.461-.619.412.412,0,0,0-.256.191l-1.806,3.024-.238-.08a7.747,7.747,0,0,0-2.42-.352l-.307,0-.009-3.325a.418.418,0,1,0-.835,0l.01,3.394-.264.04a20.435,20.435,0,0,0-2.745.642l-.3.089L20.039,7.625a.411.411,0,0,0-.2-.248.418.418,0,0,0-.6.486L20.287,11.4l-.279.1c-.566.2-1.121.408-1.7.641l-.283.114,0-.008-.832.363-.131-.263L15.239,9.257a.411.411,0,0,0-.256-.192.417.417,0,0,0-.464.616l1.934,3.276-.3.147c-.914.446-1.761.9-2.517,1.357l-.246.148-.166-.233L10.864,11.61a.418.418,0,0,0-.285-.146.44.44,0,0,0-.3.1.418.418,0,0,0-.046.589L12.7,15.046l-.282.2A12.556,12.556,0,0,0,10.8,16.532l-.209.2-.216-.2a.414.414,0,0,0-.066-.051L7.24,14.605a.417.417,0,1,0-.437.711l3.274,2.012-.2.272a5.819,5.819,0,0,0-1.049,2.11l-.063.261-3.3-.314a.417.417,0,1,0-.079.831L8.7,20.8l.023.256A4.536,4.536,0,0,0,9.2,22.674l.124.249L6.35,24.831a.415.415,0,0,0-.183.263.41.41,0,0,0,.057.314.426.426,0,0,0,.577.126l2.968-1.907.176.188a4.074,4.074,0,0,0,2.365,1.228l.295.044-.341,3.095a.418.418,0,0,0,.83.092l.355-3.215.222-.044a2.94,2.94,0,0,0,1.4-.664c.14-.1.756-.537,1.748-1.14l.382-.232.7,3.659a.417.417,0,0,0,.487.332.419.419,0,0,0,.333-.489l-.675-3.535a.378.378,0,0,0-.034-.1l-.126-.263.255-.142c.912-.507,1.85-.984,2.79-1.414l.289-.133L22.68,24.34a.427.427,0,0,0,.547.221.419.419,0,0,0,.222-.549l-1.462-3.431.3-.116c.935-.361,1.891-.69,2.839-.979l.212-.064.13.179L27.7,22.458a.427.427,0,0,0,.587.072.416.416,0,0,0,.156-.279.411.411,0,0,0-.086-.307l-2.167-2.769.457-.119c.672-.174,1.118-.269,1.243-.294a3.043,3.043,0,0,0,1.566-.651l.179-.139,2.66,1.854a.429.429,0,0,0,.581-.1.418.418,0,0,0-.1-.582l-2.56-1.785.2-.3a4.034,4.034,0,0,0,.6-2.559l-.033-.307,3.684-.415A.417.417,0,0,0,35.026,13.31ZM29.72,16.581a3.28,3.28,0,0,1-.355.48.749.749,0,0,0-.127.125l0,0-.036.052a2.3,2.3,0,0,1-1.369.691l-.076.01a38.9,38.9,0,0,0-6.887,2.2,38.342,38.342,0,0,0-6.3,3.541l-.049.042a2.247,2.247,0,0,1-1.317.521l-.039,0-.039-.007a.389.389,0,0,0-.143.008l-.034.007h-.035a3.2,3.2,0,0,1-2.929-1.87c-1.088-2.114.035-3.776,1.276-5.126.063-.071,1.672-1.828,6.512-3.986l.2-.087c4.692-1.991,7.077-2.049,7.334-2.049,1.759.012,3.833.311,4.633,2.536A3.129,3.129,0,0,1,29.72,16.581Z" transform="translate(-1.086 -2.24)" style="fill:#36384b"/><ellipse cx="21.274" cy="11.724" rx="0.586" ry="0.529" style="fill:#fff"/><path d="M13.983,19.553a.693.693,0,1,0,.758.69A.728.728,0,0,0,13.983,19.553Z" transform="translate(-1.086 -2.24)" style="fill:#fff"/><path d="M26.918,13.624a.532.532,0,1,0,.586.529A.56.56,0,0,0,26.918,13.624Z" transform="translate(-1.086 -2.24)" style="fill:#36384b"/><path d="M25.246,15.914a.444.444,0,1,0-.441.393A.42.42,0,0,0,25.246,15.914Z" transform="translate(-1.086 -2.24)" style="fill:#36384b"/><path d="M21.1,17.7a.444.444,0,1,0-.441.393A.42.42,0,0,0,21.1,17.7Z" transform="translate(-1.086 -2.24)" style="fill:#fff"/><ellipse cx="16.234" cy="14.762" rx="1.216" ry="1.118" style="fill:#36384b"/><rect x="23.097" width="0.361" height="0.723" style="fill:#36384b"/><rect x="23.097" y="1.807" width="0.361" height="0.723" style="fill:#36384b"/><rect x="23.82" y="1.084" width="0.723" height="0.361" style="fill:#36384b"/><polyline points="22.013 1.084 22.736 1.084 22.736 1.445 22.013 1.445" style="fill:#36384b"/><rect x="7.013" y="28.99" width="0.361" height="0.723" style="fill:#36384b"/><rect x="7.013" y="30.797" width="0.361" height="0.723" style="fill:#36384b"/><rect x="7.736" y="30.074" width="0.723" height="0.361" style="fill:#36384b"/><polyline points="5.929 30.074 6.652 30.074 6.652 30.436 5.929 30.436" style="fill:#36384b"/><rect x="31.716" y="24.822" width="0.361" height="0.723" style="fill:#36384b"/><rect x="31.716" y="26.629" width="0.361" height="0.723" style="fill:#36384b"/><rect x="32.439" y="25.906" width="0.723" height="0.361" style="fill:#36384b"/><polyline points="30.632 25.906 31.355 25.906 31.355 26.268 30.632 26.268" style="fill:#36384b"/><circle cx="16.488" cy="1.644" r="0.723" style="fill:#a9ffd6"/><circle cx="26.418" cy="28.99" r="0.361" style="fill:#a9ffd6"/><path d="M27.753,17.936l.076-.01a2.3,2.3,0,0,0,1.369-.691l.036-.052,0,0a.749.749,0,0,1,.127-.125,3.28,3.28,0,0,0,.355-.48,3.129,3.129,0,0,0,.218-2.91c-.8-2.225-2.874-2.524-4.633-2.536-.257,0-2.642.058-7.334,2.049l-.2.087c-4.84,2.158-6.449,3.915-6.512,3.986-1.241,1.35-2.364,3.012-1.276,5.126a3.2,3.2,0,0,0,2.929,1.87h.035l.034-.007a.389.389,0,0,1,.143-.008l.039.007.039,0a2.247,2.247,0,0,0,1.317-.521l.049-.042a38.342,38.342,0,0,1,6.3-3.541A38.9,38.9,0,0,1,27.753,17.936Zm-.835-4.312a.532.532,0,1,1-.585.529A.56.56,0,0,1,26.918,13.624Zm-2.113,1.9a.4.4,0,1,1-.441.394A.42.42,0,0,1,24.805,15.52Zm-2.446-2.084a.531.531,0,1,1-.585.528A.559.559,0,0,1,22.359,13.436Zm-8.376,7.5a.693.693,0,1,1,.758-.69A.728.728,0,0,1,13.983,20.933Zm3.336-2.813A1.122,1.122,0,1,1,18.535,17,1.17,1.17,0,0,1,17.319,18.12Zm2.9-.425a.444.444,0,1,1,.441.393A.42.42,0,0,1,20.22,17.7Z" transform="translate(-1.086 -2.24)" style="fill:#a2acff"/></svg>