<svg xmlns="http://www.w3.org/2000/svg" viewBox="0 0 72 72"><title>Artboard 19</title><g id="Layer_1" data-name="Layer 1"><ellipse cx="31.762" cy="50.774" rx="26.195" ry="18.351" style="fill:#a9ffd6"/><circle cx="31.834" cy="59.145" r="3.575" style="fill:#a2acff"/><circle cx="61.214" cy="26.626" r="3.575" style="fill:#a2acff"/><circle cx="17.843" cy="15.969" r="3.575" style="fill:#a2acff"/><path d="M63.658,49.683c1.4-2.317.416-5.29-.66-7.377a33.371,33.371,0,0,0-6.225-7.979l-.6-.594.6-.6c.7-.71,1.368-1.438,2-2.165l.306-.354.508.072A4.648,4.648,0,0,0,61.214,31,4.369,4.369,0,0,0,64,23.257l-.317-.264.009-.46a5.766,5.766,0,0,0-.5-4.405c-1.963-3.2-7.628-3.681-15.545-1.315l-.838.251-.225-.843C44.462,8.234,41.094,3.654,37.336,3.654S30.22,8.223,28.1,16.188l-.225.834-.828-.238a39,39,0,0,0-4.429-1.01L22.17,15.7l-.209-.457a4.42,4.42,0,0,0-4.3-3.556,4.376,4.376,0,0,0-4.371,4.371l.02.551-.268.295A5.005,5.005,0,0,0,11.8,18.259c-2.02,3.333.348,8.789,6.5,14.97l.6.6-.6.594a33.372,33.372,0,0,0-6.181,8.009c-1.927,3.79-1.4,6.1-.62,7.379,1.937,3.158,7.748,3.649,15.544,1.316l.837-.251.226.843c.3,1.143.643,2.251,1.015,3.293l.15.42-.286.4a4.474,4.474,0,0,0-1.51,3.309,4.376,4.376,0,0,0,4.371,4.372,4.325,4.325,0,0,0,1.686-.339l.345-.145.386.176a5.277,5.277,0,0,0,3.085,1.081c3.792,0,7.179-4.645,9.292-12.743l.225-.851.839.255C55.729,53.393,61.7,52.917,63.658,49.683Zm.67-23.058a3.114,3.114,0,1,1-3.114-3.114A3.118,3.118,0,0,1,64.328,26.625Zm-16.5-8.556c7.312-2.21,12.651-1.943,14.28.717a4.137,4.137,0,0,1,.478,2.759l-.106.815-.818-.082a4.307,4.307,0,0,0-3.37,1.1,4.384,4.384,0,0,0-1.454,3.25,4.336,4.336,0,0,0,.87,2.616l.418.547-.461.52c-.567.651-1.191,1.322-1.852,1.994l-.563.573-.6-.535a70.425,70.425,0,0,0-5.908-4.7l-.256-.181-.088-.349a68.661,68.661,0,0,0-1.151-8.06l-.159-.758Zm.793,12.758h0l-.066-1.8,1.426,1.093c1.281.978,2.511,1.987,3.656,3l.708.626-.7.635c-1.141,1.037-2.367,2.07-3.641,3.069l-1.428,1.116.06-1.811c.031-.914.047-1.851.047-2.786C48.686,32.915,48.666,31.857,48.626,30.827Zm-1.2,3.144c0,1.731-.055,3.462-.161,5.143l-.021.324-.266.262c-1.444,1.017-2.909,1.98-4.37,2.876-1.541.944-3.108,1.836-4.66,2.65l-.313.165-.385-.122c-1.616-.836-3.21-1.73-4.755-2.667-1.632-.989-3.228-2.035-4.748-3.108l-.266-.187-.09-.451c-.1-1.628-.15-3.272-.15-4.885,0-1.715.055-3.445.161-5.143l.023-.325.263-.261c1.442-1.015,2.907-1.977,4.371-2.874,1.654-1.014,3.354-1.974,5.053-2.855l.312-.161.381.117c1.763.9,3.49,1.863,5.15,2.87,1.309.792,2.628,1.645,3.924,2.536l.27.187.087.365C47.366,30.28,47.429,32.139,47.429,33.971ZM46.09,19.656c.325,1.615.595,3.309.8,5.037l.213,1.791L45.59,25.5c-.616-.4-1.282-.816-1.978-1.238-1.052-.637-2.138-1.262-3.228-1.858L38.9,21.6l1.54-.7c1.544-.7,3.07-1.332,4.533-1.867l.926-.341ZM29.28,16.648C31.218,9.3,34.229,4.911,37.336,4.911s6.136,4.412,8.074,11.8l.2.751-.732.262a67,67,0,0,0-7,3l-.3.147-.366-.108a67.6,67.6,0,0,0-7.387-3.1l-.739-.257ZM28.6,19.585l.191-.953.919.324c1.576.557,3.21,1.214,4.854,1.954l1.542.7-1.481.817c-1.105.612-2.188,1.242-3.219,1.873-.777.476-1.568.98-2.351,1.5l-1.511,1,.205-1.8C27.963,23.121,28.249,21.3,28.6,19.585ZM17.662,12.943a3.115,3.115,0,1,1-3.115,3.115A3.118,3.118,0,0,1,17.662,12.943Zm-4.791,5.97.616-1.209.8,1.135a4.328,4.328,0,0,0,3.372,1.59,4.394,4.394,0,0,0,4.09-2.832L22,16.942l.685.12a38.142,38.142,0,0,1,4.151.971l.757.219-.165.769a67.206,67.206,0,0,0-1.177,8.338l-.025.308-.25.254a70.057,70.057,0,0,0-5.574,4.505l-.6.537-.568-.569C13.671,26.791,11.232,21.626,12.871,18.913ZM26.028,36.5h0l.053,1.814-1.424-1.125c-1.125-.885-2.216-1.8-3.241-2.725l-.7-.633.707-.628c1.015-.906,2.107-1.818,3.247-2.712L26.1,29.371l-.06,1.813c-.032.918-.049,1.856-.049,2.787C25.986,34.767,26,35.594,26.028,36.5Zm.814,13.375a30.725,30.725,0,0,1-8.531,1.487c-2.881,0-4.87-.762-5.752-2.2-1.7-2.779.853-8.1,6.672-13.9L19.8,34.7l.6.54A68.663,68.663,0,0,0,25.89,39.7l.247.181.086.344a69.121,69.121,0,0,0,1.2,8.662l.159.758Zm1.743-1.589c-.358-1.765-.65-3.648-.866-5.595l-.205-1.8,1.512,1c.957.631,1.906,1.233,2.82,1.787.947.574,1.915,1.135,2.876,1.665l1.462.807-1.515.7c-1.686.782-3.356,1.477-4.964,2.065l-.927.341Zm3.249,13.974a3.114,3.114,0,1,1,3.114-3.114A3.118,3.118,0,0,1,31.834,62.259ZM45.461,51.037c-1.934,7.511-4.972,12-8.125,12a3.568,3.568,0,0,1-1.441-.319l-.9-.4.527-.831a4.369,4.369,0,0,0-4.4-6.653l-.709.116-.231-.677c-.33-.957-.638-1.98-.915-3.043l-.192-.75.725-.261a67.523,67.523,0,0,0,7.394-3.189l.3-.151.37.111a68.868,68.868,0,0,0,7.068,3.04l.721.262Zm.668-2.946-.2.972L45,48.719c-1.472-.543-3-1.177-4.542-1.883l-1.513-.694,1.449-.813c.977-.547,1.942-1.112,2.868-1.681.779-.477,1.57-.981,2.352-1.5l1.512-1-.205,1.8C46.721,44.722,46.453,46.45,46.129,48.091Zm10.936,3.162-.347,0a31.442,31.442,0,0,1-8.852-1.568l-.737-.229.159-.753a68.466,68.466,0,0,0,1.132-8.123l.025-.308.25-.254a70.062,70.062,0,0,0,5.976-4.872l.594-.541.573.562c5.85,5.764,8.435,11.076,6.744,13.862C61.515,50.793,58.992,51.212,57.065,51.253Z" style="fill:#36384b"/><rect x="63.417" y="33.569" width="0.583" height="1.166" style="fill:#36384b"/><rect x="63.417" y="36.485" width="0.583" height="1.166" style="fill:#36384b"/><rect x="64.583" y="35.319" width="1.166" height="0.583" style="fill:#36384b"/><polyline points="61.668 35.319 62.834 35.319 62.834 35.902 61.668 35.902" style="fill:#36384b"/><rect x="21.905" y="53.747" width="0.583" height="1.166" style="fill:#36384b"/><rect x="21.905" y="56.663" width="0.583" height="1.166" style="fill:#36384b"/><rect x="23.071" y="55.497" width="1.166" height="0.583" style="fill:#36384b"/><polyline points="20.156 55.497 21.322 55.497 21.322 56.08 20.156 56.08" style="fill:#36384b"/><circle cx="6.733" cy="32.271" r="1.166" style="fill:#a9ffd6"/><rect x="24.238" y="7.097" width="0.583" height="1.166" style="fill:#36384b"/><rect x="24.238" y="10.012" width="0.583" height="1.166" style="fill:#36384b"/><rect x="25.404" y="8.846" width="1.166" height="0.583" style="fill:#36384b"/><polyline points="22.489 8.846 23.655 8.846 23.655 9.429 22.489 9.429" style="fill:#36384b"/></g></svg>