<svg id="Layer_1" data-name="Layer 1" xmlns="http://www.w3.org/2000/svg" viewBox="0 0 33.99 32.849"><title>icon-paraben-free</title><ellipse cx="17.161" cy="17.649" rx="16.54" ry="11.587" style="fill:#a9ffd6"/><polygon points="10.904 9.425 8.234 19.195 14.864 25.93 24.44 23.878 27.023 13.933 20.073 7.408 10.904 9.425" style="fill:#a2acff"/><path d="M15.97,28.024a.459.459,0,0,1-.323-.133L8.81,21.054a.456.456,0,0,1-.119-.436l2.452-9.565a.454.454,0,0,1,.328-.328l9.565-2.452a.454.454,0,0,1,.435.119L28.378,15.3a.456.456,0,0,1,.117.443l-2.624,9.53a.457.457,0,0,1-.327.321L16.082,28.01A.43.43,0,0,1,15.97,28.024ZM9.638,20.593l6.47,6.47,8.954-2.288,2.483-9.019L21.011,9.221l-9.052,2.32Z" transform="translate(-1 -1.417)" style="fill:#36384b"/><path d="M30.615,30.653a.45.45,0,0,1-.318-.13l-5.184-5.045a.456.456,0,0,1,.636-.653l5.184,5.045a.456.456,0,0,1-.318.783Z" transform="translate(-1 -1.417)" style="fill:#36384b"/><path d="M11.584,11.622a.453.453,0,0,1-.319-.13L7.179,7.475A.456.456,0,0,1,7.1,6.924l3-5.277A.456.456,0,1,1,10.9,2.1L8.068,7.071l3.836,3.77a.456.456,0,0,1-.32.781Z" transform="translate(-1 -1.417)" style="fill:#36384b"/><path d="M1.456,9.954A.456.456,0,0,1,1.3,9.07L7.2,6.908a.455.455,0,1,1,.314.855l-5.9,2.163A.457.457,0,0,1,1.456,9.954Z" transform="translate(-1 -1.417)" style="fill:#36384b"/><path d="M2.587,11.092a.456.456,0,0,1-.157-.884l5.9-2.162A.456.456,0,0,1,8.64,8.9l-5.9,2.162A.447.447,0,0,1,2.587,11.092Z" transform="translate(-1 -1.417)" style="fill:#36384b"/><path d="M11.58,20.093a.435.435,0,0,1-.123-.017.454.454,0,0,1-.316-.561l1.693-6.057a.456.456,0,1,1,.878.246L12.018,19.76A.454.454,0,0,1,11.58,20.093Z" transform="translate(-1 -1.417)" style="fill:#36384b"/><path d="M25.083,16.08a.453.453,0,0,1-.314-.126l-4.556-4.335a.456.456,0,0,1,.628-.661L25.4,15.294a.456.456,0,0,1-.314.786Z" transform="translate(-1 -1.417)" style="fill:#36384b"/><path d="M17.279,25.643a.456.456,0,0,1-.113-.9l6.092-1.561a.456.456,0,0,1,.226.883l-6.092,1.561A.445.445,0,0,1,17.279,25.643Z" transform="translate(-1 -1.417)" style="fill:#36384b"/><rect x="12.531" y="3.078" width="0.368" height="0.736" style="fill:#36384b"/><rect x="12.531" y="4.919" width="0.368" height="0.736" style="fill:#36384b"/><rect x="13.267" y="4.182" width="0.736" height="0.368" style="fill:#36384b"/><polyline points="11.426 4.182 12.163 4.182 12.163 4.551 11.426 4.551" style="fill:#36384b"/><rect x="32.518" y="18.485" width="0.368" height="0.736" style="fill:#36384b"/><rect x="32.518" y="20.326" width="0.368" height="0.736" style="fill:#36384b"/><rect x="33.254" y="19.589" width="0.736" height="0.368" style="fill:#36384b"/><polyline points="31.413 19.589 32.15 19.589 32.15 19.958 31.413 19.958" style="fill:#36384b"/><rect x="20.258" y="30.272" width="0.368" height="0.736" style="fill:#36384b"/><rect x="20.258" y="32.112" width="0.368" height="0.736" style="fill:#36384b"/><rect x="20.994" y="31.376" width="0.736" height="0.368" style="fill:#36384b"/><polyline points="19.154 31.376 19.89 31.376 19.89 31.744 19.154 31.744" style="fill:#36384b"/><circle cx="15.663" cy="2.421" r="0.368" style="fill:#a9ffd6"/></svg>