<svg id="Layer_1" data-name="Layer 1" xmlns="http://www.w3.org/2000/svg" viewBox="0 0 30.21 33.312"><title>icon-preferred-pricing</title><ellipse cx="15.511" cy="23.015" rx="14.699" ry="10.297" style="fill:#a9ffd6"/><path d="M22.981,7.013,20.626,5.422l-6.38,1.013a1.818,1.818,0,0,0-1.287.627L3.433,20.1a1.881,1.881,0,0,0,.422,2.652l9.359,6.777A1.924,1.924,0,0,0,15.9,29.09l9.546-13.117a1.935,1.935,0,0,0,.329-1.444l-1.013-6.38L22.777,6.883" transform="translate(-2.781 -1.167)" style="fill:#fff"/><path d="M14.331,30.172a2.17,2.17,0,0,1-1.282-.419L3.69,22.977a2.158,2.158,0,0,1-.484-3.045L12.732,6.9A2.08,2.08,0,0,1,14.2,6.159l6.488-1.032,2.438,1.648L25.02,7.981l.02.124,1.014,6.38a2.213,2.213,0,0,1-.379,1.653L16.128,29.255a2.228,2.228,0,0,1-1.8.917Zm6.23-24.456-6.27,1a1.561,1.561,0,0,0-1.105.515L3.66,20.263a1.6,1.6,0,0,0,.36,2.259L13.378,29.3a1.611,1.611,0,0,0,1.223.289,1.647,1.647,0,0,0,1.073-.663l9.547-13.117a1.644,1.644,0,0,0,.278-1.234l-.993-6.256-1.88-1.2,0,0Z" transform="translate(-2.781 -1.167)" style="fill:#36384b"/><path d="M25.4,12.817l-.088-.553a7.35,7.35,0,0,0,2.209-1c.115-.085.239-.174.37-.267a5.6,5.6,0,0,0,2.8-4.157,2.5,2.5,0,0,0-1.131-2.583,4.318,4.318,0,0,0-4.369.153,8.894,8.894,0,0,0-2.738,2.777l-.18.249c-.394.55-1.445,2.019-1.089,2.542l-.464.315c-.532-.781.289-2.054,1.1-3.186l.181-.248A9.461,9.461,0,0,1,24.9,3.934a4.906,4.906,0,0,1,4.966-.15A3.076,3.076,0,0,1,31.254,6.9a6.155,6.155,0,0,1-3.034,4.552c-.127.09-.248.176-.36.259A7.837,7.837,0,0,1,25.4,12.817Z" transform="translate(-2.781 -1.167)" style="fill:#36384b"/><circle cx="13.025" cy="1.217" r="0.654" style="fill:#a9ffd6"/><circle cx="6.42" cy="6.477" r="0.327" style="fill:#a9ffd6"/><rect x="24.747" y="15.345" width="0.327" height="0.654" style="fill:#36384b"/><rect x="24.747" y="16.98" width="0.327" height="0.654" style="fill:#36384b"/><rect x="25.401" y="16.326" width="0.654" height="0.327" style="fill:#36384b"/><polyline points="23.766 16.326 24.42 16.326 24.42 16.653 23.766 16.653" style="fill:#36384b"/><path d="M20.841,8.033a.938.938,0,0,1,.535,1.708.926.926,0,0,1-.533.168A.938.938,0,0,1,20.308,8.2a.926.926,0,0,1,.533-.168m0-.561a1.5,1.5,0,1,0,1.232.645,1.489,1.489,0,0,0-1.232-.645Z" transform="translate(-2.781 -1.167)" style="fill:#36384b"/><polygon points="3.689 19.733 11.982 8.754 19.809 13.919 11.47 25.26 3.689 19.733" style="fill:#a3acff"/><path d="M14.829,10.3l7.36,4.858-8,10.88-7.321-5.2L14.829,10.3M14.7,9.542l-.317.42L6.42,20.5l-.348.461.471.335,7.321,5.2.45.32.327-.445,8-10.881.35-.476-.493-.325-7.36-4.857-.44-.29Z" transform="translate(-2.781 -1.167)" style="fill:#36384b"/><polygon points="17.884 25.897 13.757 28.066 14.545 23.471 11.206 20.216 15.82 19.545 17.884 15.365 19.947 19.545 24.56 20.216 21.223 23.471 22.011 28.066 17.884 25.897" style="fill:#a3acff"/><path d="M20.665,17.166l1.877,3.8,4.2.61L23.7,24.54l.717,4.18-3.754-1.974L16.911,28.72l.717-4.18L14.59,21.579l4.2-.61,1.877-3.8m0-1.268-.5,1.019-1.747,3.539-3.9.568-1.125.163.814.794,2.826,2.754-.667,3.89-.192,1.121,1.006-.529,3.493-1.837,3.493,1.837,1.007.529-.193-1.121-.667-3.89,2.826-2.754.814-.794-1.125-.163-3.905-.568-1.747-3.539-.5-1.019Z" transform="translate(-2.781 -1.167)" style="fill:#36384b"/><rect x="4.243" y="27.904" width="0.327" height="0.654" style="fill:#36384b"/><rect x="4.243" y="29.54" width="0.327" height="0.654" style="fill:#36384b"/><rect x="4.897" y="28.886" width="0.654" height="0.327" style="fill:#36384b"/><polyline points="3.261 28.886 3.916 28.886 3.916 29.213 3.261 29.213" style="fill:#36384b"/><rect x="8.123" width="0.327" height="0.654" style="fill:#36384b"/><rect x="8.123" y="1.636" width="0.327" height="0.654" style="fill:#36384b"/><rect x="8.778" y="0.981" width="0.654" height="0.327" style="fill:#36384b"/><polyline points="7.142 0.981 7.796 0.981 7.796 1.309 7.142 1.309" style="fill:#36384b"/></svg>