<svg id="Layer_1" data-name="Layer 1" xmlns="http://www.w3.org/2000/svg" viewBox="0 0 34.853 30.798"><title>icon-labour-reverse</title><ellipse cx="18.398" cy="16.645" rx="16.455" ry="11.528" style="fill:#a9ffd6"/><path d="M6.064,22.192A2.828,2.828,0,0,0,5.005,21.9l-.192-.014-.1-.795-.774.1.1.794-.182.061a2.876,2.876,0,0,0-.952.548l-.146.125-.635-.49-.478.617.634.491-.085.173a2.827,2.827,0,0,0-.287,1.06l-.014.192-.795.1.1.775.794-.1.061.182a2.852,2.852,0,0,0,.548.951l.126.145-.492.637.618.478.492-.636.173.085a2.8,2.8,0,0,0,1.058.289l.192.015.1.794.774-.1-.1-.795.181-.062a2.827,2.827,0,0,0,.952-.547l.145-.126.205.158L6.28,22.221l-.044.057ZM5.98,26.135a1.782,1.782,0,0,1-.96.435,1.8,1.8,0,0,1-1.65-2.883,1.8,1.8,0,0,1,2.248-.5l.07.036.351,2.857Z" transform="translate(-0.573 -2.04)" style="fill:#36384b"/><path d="M31.343,24.4l.15-.121.95.787.906-1.094-.951-.787.091-.17a4.42,4.42,0,0,0,.5-1.633l.02-.193,1.233-.116-.133-1.414-1.23.116-.055-.186a4.422,4.422,0,0,0-.8-1.511l-.121-.15.787-.951L31.6,16.072l-.787.951-.171-.092a4.42,4.42,0,0,0-1.632-.5l-.193-.02L28.7,15.177l-1.415.133.117,1.233-.186.056a4.442,4.442,0,0,0-1.511.8l-.151.122-.95-.787L23.7,17.823l.951.787-.091.171a4.415,4.415,0,0,0-.5,1.632l-.014.138,5.952,4.587A4.429,4.429,0,0,0,31.343,24.4Zm-5.41-3.754A2.6,2.6,0,1,1,29.227,23.4Z" transform="translate(-0.573 -2.04)" style="fill:#36384b"/><path d="M12.169,10.936l.737,4.122,1.465,2.733-.934,2.866a5.217,5.217,0,0,0,4.144,2.465c2.364.022,4.255-.637,5.1-2.8l-.639-2.966a11.14,11.14,0,0,0,1.573-3.644l.42-2.918Z" transform="translate(-0.573 -2.04)" style="fill:#36384b"/><path d="M4.622,23.469a1.321,1.321,0,0,1,.78.139l.07.036.216-.418-.07-.036a1.8,1.8,0,1,0,.362,2.945l.059-.052-.311-.352-.059.052a1.328,1.328,0,0,1-2.195-.828A1.33,1.33,0,0,1,4.622,23.469Z" transform="translate(-0.573 -2.04)" style="fill:#fff"/><path d="M7.673,25.927l-.287.371.55.425-.477.619-.637-.492-.145.126a2.827,2.827,0,0,1-.952.547l-.181.062.1.795-.774.1-.1-.794-.192-.015a2.8,2.8,0,0,1-1.058-.289L3.346,27.3l-.492.636-.618-.478.492-.637L2.6,26.672a2.852,2.852,0,0,1-.548-.951l-.061-.182-.794.1-.1-.775.8-.1.014-.192a2.827,2.827,0,0,1,.287-1.06l.085-.173-.634-.491.478-.617.635.49.146-.125a2.876,2.876,0,0,1,.952-.548l.182-.061-.1-.794.774-.1.1.795.192.014a2.828,2.828,0,0,1,1.059.289l.172.086.492-.636.618.477-.426.551.373.286.712-.921L6.643,20.982l-.546.709a3.32,3.32,0,0,0-.866-.237l-.113-.885-1.706.218.113.886a3.3,3.3,0,0,0-.778.447l-.707-.548L.987,22.934l.707.546a3.264,3.264,0,0,0-.235.867l-.886.113.219,1.706.886-.113a3.289,3.289,0,0,0,.447.778l-.548.708,1.362,1.052.546-.708a3.318,3.318,0,0,0,.867.236L4.465,29l1.706-.218L6.058,27.9a3.329,3.329,0,0,0,.778-.447L7.543,28,8.6,26.639Z" transform="translate(-0.573 -2.04)" style="fill:#fff"/><path d="M8.6,25.323,5.89,19.158A2.643,2.643,0,0,1,3.4,17.327a2.374,2.374,0,0,1,.35-2.9L4.574,16.3l1.091.621L7.544,16.1l.319-1.239-.824-1.879s1.452-.2,2.3,1.739a2.655,2.655,0,0,1-.314,3.06l2.608,5.968" transform="translate(-0.573 -2.04)" style="fill:#36384b;stroke:#fff;stroke-linecap:round;stroke-linejoin:round;stroke-width:0.6281733316877194px"/><path d="M30.183,18.893a2.6,2.6,0,0,1,.344,3.664,2.578,2.578,0,0,1-1.3.846l-.128-.455a2.129,2.129,0,1,0-2.216-3.408,2.106,2.106,0,0,0-.479,1.152l-.471-.046a2.6,2.6,0,0,1,4.25-1.753Z" transform="translate(-0.573 -2.04)" style="fill:#fff"/><path d="M31.535,15.406l1.822,1.509-.845,1.02a4.852,4.852,0,0,1,.706,1.333l1.319-.124.222,2.356-1.322.124a4.934,4.934,0,0,1-.442,1.441l1.02.845-1.509,1.822-1.02-.845a4.922,4.922,0,0,1-1.333.7l.124,1.321-2.356.222-.143-1.52.471-.044.1,1.049,1.414-.133-.116-1.234.186-.055a4.433,4.433,0,0,0,1.511-.8l.15-.121.95.787.906-1.094-.951-.787.091-.17a4.42,4.42,0,0,0,.5-1.633l.02-.193,1.233-.116-.133-1.414-1.23.116-.055-.186a4.422,4.422,0,0,0-.8-1.511l-.121-.15.787-.951L31.6,16.072l-.787.951-.171-.092a4.42,4.42,0,0,0-1.632-.5l-.193-.02L28.7,15.177l-1.415.133.117,1.233-.186.056a4.442,4.442,0,0,0-1.511.8l-.151.122-.95-.787L23.7,17.823l.951.787-.091.171a4.415,4.415,0,0,0-.5,1.632l-.02.193-1.233.116.133,1.414,1.048-.1.045.471-1.52.144L22.287,20.3l1.322-.124a4.906,4.906,0,0,1,.443-1.441l-1.021-.845,1.509-1.822,1.021.845a4.89,4.89,0,0,1,1.333-.7l-.125-1.322,2.357-.222.124,1.322a4.859,4.859,0,0,1,1.44.442Z" transform="translate(-0.573 -2.04)" style="fill:#fff"/><path d="M13.248,20.325c-10.176.19-8.83,3.2-7.019,6.332,2.753,3.728,6.214,6.332,11.609,5.867,5.516-.712,10.381-2.07,12.556-6.1,2.394-4.971-1.691-5.667-7.5-6.1C21.833,24.214,16.488,24.287,13.248,20.325Z" transform="translate(-0.573 -2.04)" style="fill:#a3acff"/><path d="M24.63,9.448c-.022-6.329-3.428-6.862-6.537-6.862-3.368,0-6.455.524-6.507,6.761" transform="translate(-0.573 -2.04)" style="fill:#a3acff;stroke:#fff;stroke-linecap:round;stroke-linejoin:round;stroke-width:0.6281733316877194px"/><path d="M14.105,17.413a7.429,7.429,0,0,1-.48,2.913c-.284-.008-.749-.014-1.312,0" transform="translate(-0.573 -2.04)" style="fill:none;stroke:#fff;stroke-linecap:round;stroke-linejoin:round;stroke-width:0.6281733316877194px"/><path d="M24.139,20.323c-.157,0-1.516,0-1.621,0a6.83,6.83,0,0,1-.478-2.968" transform="translate(-0.573 -2.04)" style="fill:none;stroke:#fff;stroke-linecap:round;stroke-linejoin:round;stroke-width:0.6281733316877194px"/><path d="M11.94,10.767a19.585,19.585,0,0,0,.523,2.917A11.89,11.89,0,0,0,15,18.554c.725.727,2.486.792,3.009.794h.088c.522,0,2.283-.067,3.009-.794a10.686,10.686,0,0,0,2.66-5.595c.041-.252.092-.537.149-.849s.06-.946.121-1.313" transform="translate(-0.573 -2.04)" style="fill:none;stroke:#fff;stroke-linecap:round;stroke-linejoin:round;stroke-width:0.6281733316877194px"/><path d="M18.019,8.443c-5.1,0-6.338.662-6.4.806a1.2,1.2,0,0,0,.158,1.115,3.7,3.7,0,0,0,2.62,1.147c.329.044,2.071.087,3.85.087a36.434,36.434,0,0,0,3.892-.136,3.175,3.175,0,0,0,2.316-1.106,1.17,1.17,0,0,0,.055-1.127C24.434,9.09,23.121,8.443,18.019,8.443Z" transform="translate(-0.573 -2.04)" style="fill:#a3acff;stroke:#fff;stroke-linecap:round;stroke-linejoin:round;stroke-width:0.6281733316877194px"/><path d="M9.94,27.3l-1.579-6.2a.357.357,0,0,1,.258-.433l0-.007c-1.5.3-2.87.841-3.288,1.838-.443,1.057,0,2.83,1.117,4.516a11.779,11.779,0,0,0,3.861,3.576c-.016-.082-.027-.152-.032-.192Z" transform="translate(-0.573 -2.04)" style="fill:none;stroke:#fff;stroke-linecap:round;stroke-linejoin:round;stroke-width:0.6281733316877194px"/><path d="M26.982,20.552l0,.01a.356.356,0,0,1,.262.431l-1.538,6.3-.341,3.389c-.006.052-.013.124-.025.2a11.906,11.906,0,0,0,4.393-3.869c1.121-1.686,1.559-3.459,1.116-4.516C30.382,21.367,28.7,20.817,26.982,20.552Z" transform="translate(-0.573 -2.04)" style="fill:none;stroke:#fff;stroke-linecap:round;stroke-linejoin:round;stroke-width:0.6281733316877194px"/><polyline points="11.059 18.538 12.97 23.158 21.533 23.158 23.469 18.512" style="fill:none;stroke:#fff;stroke-linecap:round;stroke-linejoin:round;stroke-width:0.6281733316877194px"/><path d="M22.892,20.326a5.042,5.042,0,0,1-4.8,2.8,5.159,5.159,0,0,1-4.846-2.8,25.1,25.1,0,0,0-3.631.169" transform="translate(-0.573 -2.04)" style="fill:none;stroke:#fff;stroke-linecap:round;stroke-linejoin:round;stroke-width:0.6281733316877194px"/><path d="M26.986,20.562a15.778,15.778,0,0,0-2.847-.239L22.106,25.2H13.543l-1.91-4.621a.406.406,0,0,0-.491-.221,19.68,19.68,0,0,0-2.523.3.357.357,0,0,0-.258.433L9.94,27.3l.34,3.1c.005.04.016.11.032.192a15.138,15.138,0,0,0,7.782,1.94,15.4,15.4,0,0,0,7.25-1.647c.012-.076.019-.148.025-.2l.341-3.389,1.538-6.3A.356.356,0,0,0,26.986,20.562Z" transform="translate(-0.573 -2.04)" style="fill:#36384b;stroke:#fff;stroke-linecap:round;stroke-linejoin:round;stroke-width:0.6281733316877194px"/><rect x="1.687" y="6.698" width="0.366" height="0.732" style="fill:#fff"/><rect x="1.687" y="8.53" width="0.366" height="0.732" style="fill:#fff"/><rect x="2.42" y="7.797" width="0.732" height="0.366" style="fill:#fff"/><polyline points="0.589 7.797 1.321 7.797 1.321 8.163 0.589 8.163" style="fill:#fff"/><rect x="28.184" width="0.366" height="0.732" style="fill:#fff"/><rect x="28.184" y="1.831" width="0.366" height="0.732" style="fill:#fff"/><rect x="28.916" y="1.099" width="0.732" height="0.366" style="fill:#fff"/><polyline points="27.085 1.099 27.817 1.099 27.817 1.465 27.085 1.465" style="fill:#fff"/><circle cx="28.184" cy="8.53" r="0.732" style="fill:#a9ffd6"/><circle cx="5.721" cy="6.332" r="0.366" style="fill:#a9ffd6"/></svg>