<svg xmlns="http://www.w3.org/2000/svg" viewBox="0 0 72 72"><title>Artboard 3</title><g id="Layer_1" data-name="Layer 1"><ellipse cx="38.943" cy="49.831" rx="26.195" ry="18.351" style="fill:#a9ffd6"/><path d="M47.921,14.617l-4.883-3.3-13.231,2.1a3.773,3.773,0,0,0-2.67,1.3L7.383,41.75a3.9,3.9,0,0,0,.873,5.5l19.41,14.055a3.993,3.993,0,0,0,5.573-.9l19.8-27.2a4.011,4.011,0,0,0,.684-2.995l-2.1-13.23L47.5,14.347" style="fill:#fff"/><path d="M29.987,62.641a4.522,4.522,0,0,1-2.663-.864L7.915,47.722a4.482,4.482,0,0,1-1-6.313L26.667,14.375a4.308,4.308,0,0,1,3.05-1.531l13.457-2.137,5.055,3.417,3.921,2.5,2.143,13.489a4.563,4.563,0,0,1-.787,3.428l-19.8,27.2A4.6,4.6,0,0,1,29.987,62.641ZM42.9,11.928l-13,2.066a3.231,3.231,0,0,0-2.291,1.066L7.853,42.094A3.317,3.317,0,0,0,8.6,46.78L28.007,60.835a3.417,3.417,0,0,0,4.762-.775l19.8-27.2a3.416,3.416,0,0,0,.581-2.562L51.084,17.323l-3.9-2.485.006-.011Z" style="fill:#36384b"/><path d="M52.947,26.655l-.181-1.15a15.162,15.162,0,0,0,4.578-2.07c.239-.178.5-.361.767-.554,2.218-1.577,5.256-3.739,5.812-8.621A5.177,5.177,0,0,0,61.577,8.9a8.957,8.957,0,0,0-9.059.316,18.445,18.445,0,0,0-5.675,5.759l-.375.517c-.819,1.143-3,4.187-2.26,5.273l-.963.654c-1.1-1.621.6-4.261,2.279-6.608L45.9,14.3a19.627,19.627,0,0,1,6-6.064C55.05,6.27,59.38,6.139,62.2,7.919a6.387,6.387,0,0,1,2.88,6.473c-.614,5.4-4.032,7.829-6.294,9.438-.264.187-.514.366-.746.539A16.246,16.246,0,0,1,52.947,26.655Z" style="fill:#36384b"/><circle cx="32.068" cy="6.406" r="1.166" style="fill:#a9ffd6"/><circle cx="20.299" cy="15.779" r="0.583" style="fill:#a9ffd6"/><rect x="60.48" y="32.611" width="0.583" height="1.166" style="fill:#36384b"/><rect x="60.48" y="35.526" width="0.583" height="1.166" style="fill:#36384b"/><rect x="61.646" y="34.36" width="1.166" height="0.583" style="fill:#36384b"/><polyline points="58.731 34.36 59.897 34.36 59.897 34.943 58.731 34.943" style="fill:#36384b"/><path d="M43.483,16.733h0A1.945,1.945,0,0,1,45.4,19.024a1.945,1.945,0,0,1-1.91,1.6,1.945,1.945,0,0,1-.006-3.889m0-1.164a3.108,3.108,0,1,0,2.557,1.337,3.093,3.093,0,0,0-2.557-1.337Z" style="fill:#36384b"/><polygon points="13.681 43.416 30.88 20.648 47.111 31.359 29.818 54.879 13.681 43.416" style="fill:#a3acff"/><path d="M31.015,21.434,46.279,31.508,29.687,54.073,14.506,43.288,31.015,21.434m-.271-1.572-.658.871L13.577,42.587l-.722.956.977.694L29.013,55.022l.934.662.678-.922L47.217,32.2l.725-.986-1.022-.675L31.656,20.463l-.912-.6Z" style="fill:#36384b"/><polygon points="43.118 56.198 34.561 60.697 36.195 51.168 29.271 44.418 38.839 43.028 43.118 34.357 47.399 43.028 56.966 44.418 50.042 51.168 51.677 60.697 43.118 56.198" style="fill:#a3acff"/><path d="M43.119,35.672l3.893,7.888,8.7,1.264-6.3,6.14,1.487,8.67-7.786-4.093-7.786,4.093,1.487-8.67-6.3-6.14,8.7-1.264,3.893-7.888m0-2.63-1.044,2.115L38.453,42.5l-8.1,1.177-2.334.339,1.689,1.646,5.86,5.713-1.383,8.066-.4,2.324,2.087-1.1,7.245-3.809,7.244,3.809,2.087,1.1-.4-2.324-1.383-8.066,5.861-5.713,1.688-1.646-2.333-.339-8.1-1.177-3.622-7.339-1.043-2.115Z" style="fill:#36384b"/><rect x="14.377" y="62.849" width="0.583" height="1.166" style="fill:#36384b"/><rect x="14.377" y="65.764" width="0.583" height="1.166" style="fill:#36384b"/><rect x="15.543" y="64.598" width="1.166" height="0.583" style="fill:#36384b"/><polyline points="12.628 64.598 13.794 64.598 13.794 65.181 12.628 65.181" style="fill:#36384b"/><rect x="23.333" y="4.237" width="0.583" height="1.166" style="fill:#36384b"/><rect x="23.333" y="7.152" width="0.583" height="1.166" style="fill:#36384b"/><rect x="24.499" y="5.986" width="1.166" height="0.583" style="fill:#36384b"/><polyline points="21.584 5.986 22.75 5.986 22.75 6.569 21.584 6.569" style="fill:#36384b"/></g></svg>