<svg id="Layer_1" data-name="Layer 1" xmlns="http://www.w3.org/2000/svg" viewBox="0 0 34.544 30.524"><title>icon-labour</title><ellipse cx="18.235" cy="16.497" rx="16.309" ry="11.425" style="fill:#a9ffd6"/><path d="M6.1,22.84a2.8,2.8,0,0,0-1.05-.287l-.19-.014-.1-.787-.767.1.1.787-.18.061a2.844,2.844,0,0,0-.944.543l-.145.124-.63-.486-.473.612.628.487-.083.17A2.81,2.81,0,0,0,1.977,25.2l-.014.19-.788.1.1.768.787-.1.061.18a2.8,2.8,0,0,0,.543.943l.125.144-.488.631.613.474L3.4,27.9l.171.085a2.8,2.8,0,0,0,1.049.286l.191.014.1.788.767-.1-.1-.787.18-.061a2.825,2.825,0,0,0,.944-.543l.143-.125.2.157-.74-4.745-.044.057Zm-.083,3.908a1.781,1.781,0,0,1-.952.431,1.968,1.968,0,0,1-.229.014,1.782,1.782,0,1,1,.822-3.364l.07.036L6.072,26.7Z" transform="translate(-0.655 -2.867)" style="fill:#fff"/><path d="M31.151,25.028l.149-.12.942.78.9-1.084-.942-.78.09-.169a4.384,4.384,0,0,0,.5-1.618l.02-.191,1.222-.115-.132-1.4-1.219.115-.055-.185a4.4,4.4,0,0,0-.792-1.5l-.121-.149.78-.942-1.083-.9-.78.942-.169-.09a4.369,4.369,0,0,0-1.618-.5l-.191-.02-.115-1.223-1.4.132.115,1.222-.184.056a4.358,4.358,0,0,0-1.5.789l-.149.12-.942-.78-.9,1.083.942.78-.091.169a4.388,4.388,0,0,0-.5,1.618l-.014.137,5.9,4.547A4.4,4.4,0,0,0,31.151,25.028Zm-5.362-3.72a2.579,2.579,0,1,1,3.265,2.732Z" transform="translate(-0.655 -2.867)" style="fill:#fff"/><path d="M12.148,11.684l.73,4.085,1.452,2.709-.925,2.84a5.171,5.171,0,0,0,4.107,2.444c2.343.021,4.216-.632,5.053-2.772l-.634-2.94a11.036,11.036,0,0,0,1.559-3.612l.417-2.892Z" transform="translate(-0.655 -2.867)" style="fill:#fff"/><path d="M4.668,24.105a1.307,1.307,0,0,1,.773.138l.069.036.215-.414-.07-.036a1.782,1.782,0,1,0-.822,3.364,1.968,1.968,0,0,0,.229-.014,1.781,1.781,0,0,0,.952-.431l.058-.052-.308-.349-.058.052a1.317,1.317,0,1,1-1.038-2.294Z" transform="translate(-0.655 -2.867)" style="fill:#36384b"/><path d="M7.691,26.541l-.284.368.545.422-.473.613-.631-.488-.143.125a2.825,2.825,0,0,1-.944.543l-.18.061.1.787-.767.1-.1-.788-.191-.014a2.8,2.8,0,0,1-1.049-.286L3.4,27.9l-.487.631L2.3,28.055l.488-.631-.125-.144a2.8,2.8,0,0,1-.543-.943l-.061-.18-.787.1-.1-.768.788-.1.014-.19a2.81,2.81,0,0,1,.286-1.051l.083-.17-.628-.487.473-.612.63.486.145-.124A2.844,2.844,0,0,1,3.91,22.7l.18-.061-.1-.787.767-.1.1.787.19.014a2.8,2.8,0,0,1,1.05.287l.17.085.487-.631.613.473-.422.546.369.284.707-.913L6.671,21.64l-.542.7a3.288,3.288,0,0,0-.858-.235l-.112-.877-1.691.216.112.878a3.314,3.314,0,0,0-.771.443l-.7-.543-1.043,1.35.7.541a3.281,3.281,0,0,0-.233.859l-.877.112.216,1.692.878-.113a3.283,3.283,0,0,0,.444.771l-.543.7L3,29.182l.542-.7a3.307,3.307,0,0,0,.859.234l.112.877,1.69-.216L6.091,28.5a3.258,3.258,0,0,0,.77-.443l.7.543,1.043-1.35Z" transform="translate(-0.655 -2.867)" style="fill:#36384b"/><path d="M8.606,25.943,5.924,19.832a2.618,2.618,0,0,1-2.469-1.814A2.355,2.355,0,0,1,3.8,15.141L4.62,17l1.081.615L7.564,16.8l.316-1.228-.817-1.863s1.439-.193,2.279,1.724a2.631,2.631,0,0,1-.31,3.033l2.584,5.914" transform="translate(-0.655 -2.867)" style="fill:#fff;stroke:#36384b;stroke-linecap:round;stroke-linejoin:round;stroke-width:0.6225942817767418px"/><path d="M30,19.57a2.58,2.58,0,0,1-.948,4.47l-.127-.452a2.11,2.11,0,1,0-2.671-2.236l-.467-.044A2.58,2.58,0,0,1,30,19.57Z" transform="translate(-0.655 -2.867)" style="fill:#36384b"/><path d="M31.342,16.114l1.806,1.5L32.31,18.62a4.849,4.849,0,0,1,.7,1.321l1.307-.122.219,2.335-1.31.123a4.825,4.825,0,0,1-.438,1.428l1.011.837L32.3,26.348l-1.011-.837a4.86,4.86,0,0,1-1.321.7l.123,1.31-2.335.22-.142-1.506.467-.044.1,1.039,1.4-.132-.115-1.222.185-.055a4.406,4.406,0,0,0,1.5-.789l.149-.12.942.78.9-1.084-.942-.78.09-.169a4.384,4.384,0,0,0,.5-1.618l.02-.191,1.222-.115-.132-1.4-1.219.115-.055-.185a4.4,4.4,0,0,0-.792-1.5l-.121-.149.78-.942-1.083-.9-.78.942-.169-.09a4.388,4.388,0,0,0-1.618-.5l-.192-.02-.114-1.223-1.4.132.115,1.222-.184.056a4.358,4.358,0,0,0-1.5.789l-.149.12-.942-.78-.9,1.083.942.78-.091.169a4.388,4.388,0,0,0-.5,1.618l-.019.192-1.223.115.132,1.4,1.039-.1.044.467L22.4,23.3l-.22-2.335,1.31-.124a4.841,4.841,0,0,1,.439-1.427l-1.012-.838,1.5-1.806,1.011.838a4.863,4.863,0,0,1,1.321-.7l-.123-1.31,2.336-.219.123,1.31a4.839,4.839,0,0,1,1.427.438Z" transform="translate(-0.655 -2.867)" style="fill:#36384b"/><path d="M13.217,20.99c-10.086.187-8.751,3.174-6.957,6.274,2.729,3.7,6.159,6.276,11.506,5.816,5.467-.7,10.289-2.052,12.444-6.046,2.374-4.927-1.675-5.616-7.435-6.043C21.726,24.844,16.428,24.916,13.217,20.99Z" transform="translate(-0.655 -2.867)" style="fill:#a3acff"/><path d="M24.5,10.209c-.021-6.273-3.4-6.8-6.478-6.8-3.338,0-6.4.519-6.449,6.7" transform="translate(-0.655 -2.867)" style="fill:#a3acff;stroke:#36384b;stroke-linecap:round;stroke-linejoin:round;stroke-width:0.6225942817767418px"/><path d="M14.066,18.1a7.361,7.361,0,0,1-.476,2.887c-.281-.008-.742-.014-1.3,0" transform="translate(-0.655 -2.867)" style="fill:none;stroke:#36384b;stroke-linecap:round;stroke-linejoin:round;stroke-width:0.6225942817767418px"/><path d="M24.012,20.987c-.156,0-1.5,0-1.607,0a6.764,6.764,0,0,1-.474-2.941" transform="translate(-0.655 -2.867)" style="fill:none;stroke:#36384b;stroke-linecap:round;stroke-linejoin:round;stroke-width:0.6225942817767418px"/><path d="M11.921,11.516a19.467,19.467,0,0,0,.518,2.891,11.8,11.8,0,0,0,2.511,4.827c.72.721,2.465.785,2.982.787h.088c.518,0,2.262-.066,2.982-.787a10.592,10.592,0,0,0,2.637-5.546c.04-.249.091-.532.147-.841s.06-.938.121-1.3" transform="translate(-0.655 -2.867)" style="fill:none;stroke:#36384b;stroke-linecap:round;stroke-linejoin:round;stroke-width:0.6225942817767418px"/><path d="M17.945,9.213c-5.057,0-6.281.656-6.343.8a1.188,1.188,0,0,0,.157,1.105,3.665,3.665,0,0,0,2.6,1.136c.326.044,2.053.086,3.816.086a36.175,36.175,0,0,0,3.857-.134,3.147,3.147,0,0,0,2.3-1.1,1.16,1.16,0,0,0,.055-1.118C24.3,9.854,23,9.213,17.945,9.213Z" transform="translate(-0.655 -2.867)" style="fill:#a3acff;stroke:#36384b;stroke-linecap:round;stroke-linejoin:round;stroke-width:0.6225942817767418px"/><path d="M9.939,27.9,8.374,21.752a.354.354,0,0,1,.255-.43l0-.006c-1.489.293-2.844.833-3.259,1.821-.439,1.047,0,2.8,1.107,4.476a11.7,11.7,0,0,0,3.827,3.544c-.016-.081-.027-.151-.031-.19Z" transform="translate(-0.655 -2.867)" style="fill:none;stroke:#36384b;stroke-linecap:round;stroke-linejoin:round;stroke-width:0.6225942817767418px"/><path d="M26.829,21.214l0,.01a.354.354,0,0,1,.26.427l-1.525,6.24-.338,3.358c0,.052-.013.123-.025.2a11.8,11.8,0,0,0,4.355-3.835c1.111-1.672,1.545-3.429,1.106-4.476C30.2,22.022,28.535,21.477,26.829,21.214Z" transform="translate(-0.655 -2.867)" style="fill:none;stroke:#36384b;stroke-linecap:round;stroke-linejoin:round;stroke-width:0.6225942817767418px"/><polyline points="10.961 18.373 12.855 22.953 21.341 22.953 23.26 18.348" style="fill:none;stroke:#36384b;stroke-linecap:round;stroke-linejoin:round;stroke-width:0.6225942817767418px"/><path d="M22.775,20.991a5,5,0,0,1-4.755,2.771,5.112,5.112,0,0,1-4.8-2.772,24.734,24.734,0,0,0-3.6.167" transform="translate(-0.655 -2.867)" style="fill:none;stroke:#36384b;stroke-linecap:round;stroke-linejoin:round;stroke-width:0.6225942817767418px"/><path d="M26.833,21.224a15.623,15.623,0,0,0-2.821-.237L22,25.82H13.51l-1.894-4.58a.4.4,0,0,0-.487-.219,19.545,19.545,0,0,0-2.5.3.354.354,0,0,0-.255.43L9.939,27.9l.337,3.07c0,.039.015.109.031.19A15,15,0,0,0,18.02,33.08a15.274,15.274,0,0,0,7.185-1.632c.012-.076.02-.147.025-.2l.338-3.358,1.525-6.24A.354.354,0,0,0,26.833,21.224Z" transform="translate(-0.655 -2.867)" style="fill:#fff;stroke:#36384b;stroke-linecap:round;stroke-linejoin:round;stroke-width:0.6225942817767418px"/><rect x="1.672" y="6.639" width="0.363" height="0.726" style="fill:#36384b"/><rect x="1.672" y="8.454" width="0.363" height="0.726" style="fill:#36384b"/><rect x="2.398" y="7.728" width="0.726" height="0.363" style="fill:#36384b"/><polyline points="0.583 7.728 1.309 7.728 1.309 8.091 0.583 8.091" style="fill:#36384b"/><rect x="27.933" width="0.363" height="0.726" style="fill:#36384b"/><rect x="27.933" y="1.815" width="0.363" height="0.726" style="fill:#36384b"/><rect x="28.659" y="1.089" width="0.726" height="0.363" style="fill:#36384b"/><polyline points="26.844 1.089 27.57 1.089 27.57 1.452 26.844 1.452" style="fill:#36384b"/><circle cx="27.933" cy="8.454" r="0.726" style="fill:#a9ffd6"/><circle cx="5.67" cy="6.276" r="0.363" style="fill:#a9ffd6"/></svg>