<svg id="Layer_1" data-name="Layer 1" xmlns="http://www.w3.org/2000/svg" viewBox="0 0 35.002 29.059"><title>icon-animal</title><ellipse cx="17.707" cy="16.944" rx="17.295" ry="12.116" style="fill:#a9ffd6"/><path d="M16.645,16.541l.684-2.178C12.635,10.3,11.893,7.481,12.77,5.175c1.17.033,2.459.55,4.168,2.779q-.385-3.693,1.43-4.374C21,6.1,21.523,8.788,21.5,12.823l1.475.326c3.172,1.624,4.9,3.7,4.5,6.441a3.728,3.728,0,0,1-4.5,2.806l-1.493,5.667,1.493,1.43-1.163,1.352-5.886-.416-3.962.825L7.9,30.845,4.43,28.283,3.379,26.358C1.8,26.521,1.172,25.505.888,24.07A2.8,2.8,0,0,1,3.2,21.406C5.5,15.676,9.88,13.872,16.645,16.541Z" transform="translate(-0.499 -3.251)" style="fill:#fff"/><rect x="28.67" y="20.434" width="0.385" height="0.77" style="fill:#36384b"/><rect x="28.67" y="22.359" width="0.385" height="0.77" style="fill:#36384b"/><rect x="29.44" y="21.589" width="0.77" height="0.385" style="fill:#36384b"/><polyline points="27.516 21.589 28.286 21.589 28.286 21.974 27.516 21.974" style="fill:#36384b"/><rect x="1.48" y="10.595" width="0.385" height="0.77" style="fill:#36384b"/><rect x="1.48" y="12.52" width="0.385" height="0.77" style="fill:#36384b"/><rect x="2.25" y="11.75" width="0.77" height="0.385" style="fill:#36384b"/><polyline points="0.325 11.75 1.095 11.75 1.095 12.135 0.325 12.135" style="fill:#36384b"/><rect x="32.905" y="4.19" width="0.385" height="0.77" style="fill:#36384b"/><rect x="32.905" y="6.114" width="0.385" height="0.77" style="fill:#36384b"/><rect x="33.675" y="5.345" width="0.77" height="0.385" style="fill:#36384b"/><polyline points="31.75 5.345 32.52 5.345 32.52 5.73 31.75 5.73" style="fill:#36384b"/><path d="M27.606,16.882a6.9,6.9,0,0,0-2.9-3.414,7.34,7.34,0,0,0-2.919-1.048,14.059,14.059,0,0,0-.352-4.182,10.531,10.531,0,0,0-1.5-3.667c-.686-.98-1.429-1.439-2.086-1.293-.936.207-1.418,1.645-1.277,3.776-1.652-1.909-3.135-2.711-3.992-2.146-.58.383-.74,1.316-.452,2.627a12.277,12.277,0,0,0,4.806,7.047,4.848,4.848,0,0,0-.621,1.469,7.594,7.594,0,0,0-3.5-1.081,10.291,10.291,0,0,0-7.779,2.569A7.939,7.939,0,0,0,2.809,21.2a2.666,2.666,0,0,0,.117,5.3A.462.462,0,0,0,3,26.487a6.685,6.685,0,0,0,2,3.1c1.573,1.354,3.927,2.04,6.995,2.04a8.272,8.272,0,0,0,3.264-.607.368.368,0,0,0,.082.008h5.722A2.312,2.312,0,0,0,22.8,30.57a1.435,1.435,0,0,0,.377-1.07,1.6,1.6,0,0,0-1.356-1.484l1.689-5.375a4.484,4.484,0,0,0,3.841-1.967A4.271,4.271,0,0,0,27.606,16.882Zm-4.75,5.251-1.911,6.086a.388.388,0,0,0,.35.5c.811.045,1.106.489,1.106.777a.68.68,0,0,1-.141.513c-.12.117-.425.258-1.192.233h-4.5a5.032,5.032,0,0,0,1.879-3.063A4.2,4.2,0,0,0,15.8,22.375a.4.4,0,0,0-.5.236.391.391,0,0,0,.237.5,3.435,3.435,0,0,1,2.135,3.942c-.316,1.834-1.976,3.794-5.688,3.794-2.876,0-5.059-.623-6.488-1.852-1.452-1.25-2.188-3.189-2.188-5.766A7,7,0,0,1,5.569,18.1a9.318,9.318,0,0,1,6.5-2.377c.232,0,.467.007.7.021a7.1,7.1,0,0,1,3.661,1.291.39.39,0,0,0,.6-.334,3.666,3.666,0,0,1,.715-1.958,3.52,3.52,0,0,1,2.733-1.57,6.5,6.5,0,0,1,6.376,3.9,3.533,3.533,0,0,1-.165,3.185,3.661,3.661,0,0,1-3.254,1.6c-.064,0-.13,0-.2,0h-.013A.39.39,0,0,0,22.856,22.133Zm-5.482-8.2a11.526,11.526,0,0,1-2.846-2.911,11.381,11.381,0,0,1-1.636-3.655c-.262-1.193-.047-1.7.121-1.81a.369.369,0,0,1,.2-.052c.618,0,2.041.956,3.571,3.063a.56.56,0,0,0,.036.049c.149.207.287.407.423.613a13.642,13.642,0,0,1,1.716,3.531A4.007,4.007,0,0,0,17.374,13.934ZM19.3,5.018A9.729,9.729,0,0,1,20.68,8.407a13.159,13.159,0,0,1,.335,3.965h-.01a5.868,5.868,0,0,0-.606.03,5.542,5.542,0,0,0-.7.119A14.292,14.292,0,0,0,17.9,8.8c-.126-.191-.263-.388-.406-.587-.389-2.423-.029-4.054.529-4.178C18.332,3.968,18.834,4.353,19.3,5.018ZM2.79,25.707A1.917,1.917,0,0,1,2.637,22a7.656,7.656,0,0,0-.1,1.228A11.56,11.56,0,0,0,2.79,25.707Z" transform="translate(-0.499 -3.251)" style="fill:#36384b"/><path d="M24.8,16.677a.942.942,0,1,0-.941.942A.942.942,0,0,0,24.8,16.677Z" transform="translate(-0.499 -3.251)" style="fill:#36384b"/></svg>