<svg xmlns="http://www.w3.org/2000/svg" viewBox="0 0 72 72"><title>Artboard 30</title><g id="Layer_1" data-name="Layer 1"><circle cx="20.595" cy="34.895" r="3.27" style="fill:#a9ffd6"/><ellipse cx="41.719" cy="46.611" rx="26.195" ry="18.351" style="fill:#a9ffd6"/><circle cx="30.615" cy="21.176" r="6.193" style="fill:#a9ffd6"/><path d="M27.173,44.8a18.02,18.02,0,0,0,6.62-1.257,11.718,11.718,0,1,0,9.91-9.508A18.074,18.074,0,1,0,27.173,44.8Zm17.644,1.2a3.7,3.7,0,1,1-3.7,3.7A3.7,3.7,0,0,1,44.817,46.009ZM30.788,15.369a5.681,5.681,0,1,1-5.681,5.68A5.68,5.68,0,0,1,30.788,15.369ZM20.6,32.487a2.667,2.667,0,1,1-2.666,2.667A2.667,2.667,0,0,1,20.6,32.487Z" style="fill:#a2acff"/><path d="M45.229,57.769A12.237,12.237,0,0,1,33.007,45.546c0-.357.017-.718.054-1.092a18.673,18.673,0,1,1,11.58-11.112c.2-.011.4-.017.588-.017a12.222,12.222,0,0,1,0,24.444ZM34.57,42.594l-.183,1.057a11.117,11.117,0,1,0,9.395-9.014l-1.064.14.435-.981a17.479,17.479,0,1,0-9.581,9.191Zm10.247,11.42a4.3,4.3,0,1,1,4.3-4.3A4.308,4.308,0,0,1,44.817,54.014Zm0-7.4a3.1,3.1,0,1,0,3.1,3.1A3.1,3.1,0,0,0,44.817,46.611ZM20.6,38.423a3.27,3.27,0,1,1,3.27-3.269A3.272,3.272,0,0,1,20.6,38.423Zm0-5.334a2.065,2.065,0,1,0,2.065,2.065A2.067,2.067,0,0,0,20.6,33.089Zm10.193-5.757a6.283,6.283,0,1,1,6.283-6.283A6.29,6.29,0,0,1,30.788,27.332Zm0-11.361a5.078,5.078,0,1,0,5.078,5.078A5.084,5.084,0,0,0,30.788,15.971Z" style="fill:#36384b"/><path d="M45.229,61.239A15.639,15.639,0,0,1,29.857,48.716a22.128,22.128,0,1,1,19.174-18.4,15.693,15.693,0,0,1-3.8,30.919ZM30.841,47.36l.1.583A14.488,14.488,0,1,0,48.215,31.369l-.579-.122.11-.581A20.945,20.945,0,1,0,27.173,47.673a21.213,21.213,0,0,0,3.083-.226Zm13.976,3.183a.833.833,0,1,1,.833-.833A.833.833,0,0,1,44.817,50.543Z" style="fill:#36384b"/><path d="M45.229,60.107A14.489,14.489,0,0,1,30.788,47.433,21.006,21.006,0,1,1,47.71,31.2a14.561,14.561,0,0,1-2.481,28.908ZM33.038,44.448l.047,1.488A12.15,12.15,0,1,0,46.12,33.429l-1.486-.107.416-1.431A18.611,18.611,0,1,0,31.593,44.8Zm11.779,8.433a3.171,3.171,0,1,1,3.17-3.171A3.174,3.174,0,0,1,44.817,52.881Z" style="fill:#fff"/><rect x="36.177" y="32.731" width="0.583" height="1.166" style="fill:#36384b"/><rect x="36.177" y="35.646" width="0.583" height="1.166" style="fill:#36384b"/><rect x="37.343" y="34.48" width="1.166" height="0.583" style="fill:#36384b"/><polyline points="34.428 34.48 35.594 34.48 35.594 35.063 34.428 35.063" style="fill:#36384b"/><rect x="55.223" y="19.069" width="0.583" height="1.166" style="fill:#36384b"/><rect x="55.223" y="21.984" width="0.583" height="1.166" style="fill:#36384b"/><rect x="56.389" y="20.818" width="1.166" height="0.583" style="fill:#36384b"/><polyline points="53.474 20.818 54.64 20.818 54.64 21.401 53.474 21.401" style="fill:#36384b"/><circle cx="50.134" cy="15.46" r="1.166" style="fill:#a9ffd6"/><circle cx="56.389" cy="12.202" r="0.583" style="fill:#a9ffd6"/></g></svg>