<svg id="Layer_1" data-name="Layer 1" xmlns="http://www.w3.org/2000/svg" viewBox="0 0 61.498 61.311"><title>icon-experienced</title><ellipse cx="31.264" cy="42.96" rx="26.195" ry="18.351" style="fill:#a9ffd6"/><rect x="9.683" y="2.753" width="40.795" height="53.281" style="fill:#fff"/><path d="M56.641,62.341h-41.8V8.06h41.8Zm-40.8-1h39.8V9.06h-39.8Z" transform="translate(-5.661 -5.807)" style="fill:#36384b"/><polygon points="48.226 53.781 7.43 53.781 7.43 0.5 40.081 0.5 48.226 8.746 48.226 53.781" style="fill:#fff"/><path d="M20.047,19.131H24.7a1.045,1.045,0,0,0,1.039-1.177c-.263-2.03-1.229-3.086-2.474-3.407a2,2,0,1,0-1.778,0c-1.245.321-2.211,1.377-2.475,3.407A1.047,1.047,0,0,0,20.047,19.131Z" transform="translate(-5.661 -5.807)" style="fill:#36384b"/><path d="M48.44,25.276H23.507a.5.5,0,0,1,0-1H48.44a.5.5,0,0,1,0,1Z" transform="translate(-5.661 -5.807)" style="fill:#36384b"/><path d="M48.44,28.69H23.507a.5.5,0,0,1,0-1H48.44a.5.5,0,0,1,0,1Z" transform="translate(-5.661 -5.807)" style="fill:#36384b"/><path d="M48.44,32.1H23.507a.5.5,0,0,1,0-1H48.44a.5.5,0,0,1,0,1Z" transform="translate(-5.661 -5.807)" style="fill:#36384b"/><path d="M48.44,41.618H18.046a.5.5,0,0,1,0-1H48.44a.5.5,0,0,1,0,1Z" transform="translate(-5.661 -5.807)" style="fill:#36384b"/><path d="M48.44,38.394H18.046a.5.5,0,0,1,0-1H48.44a.5.5,0,0,1,0,1Z" transform="translate(-5.661 -5.807)" style="fill:#36384b"/><path d="M48.44,45.031H18.046a.5.5,0,0,1,0-1H48.44a.5.5,0,0,1,0,1Z" transform="translate(-5.661 -5.807)" style="fill:#36384b"/><path d="M48.44,48.445H18.046a.5.5,0,0,1,0-1H48.44a.5.5,0,0,1,0,1Z" transform="translate(-5.661 -5.807)" style="fill:#36384b"/><path d="M48.44,51.859H18.046a.5.5,0,0,1,0-1H48.44a.5.5,0,0,1,0,1Z" transform="translate(-5.661 -5.807)" style="fill:#36384b"/><path d="M40.606,13.844H30.384a.5.5,0,0,1,0-1H40.606a.5.5,0,0,1,0,1Z" transform="translate(-5.661 -5.807)" style="fill:#36384b"/><path d="M43.483,16.54h-13.1a.5.5,0,0,1,0-1h13.1a.5.5,0,0,1,0,1Z" transform="translate(-5.661 -5.807)" style="fill:#36384b"/><path d="M43.483,19.1h-13.1a.5.5,0,0,1,0-1h13.1a.5.5,0,0,1,0,1Z" transform="translate(-5.661 -5.807)" style="fill:#36384b"/><polygon points="48.238 8.746 40.081 0.513 40.106 8.771 48.238 8.746" style="fill:#fff"/><path d="M54.387,14.448v-.1l-.115-.117c-.008-.009-.008-.021-.016-.03L50,9.9l-4.047-4.1H12.592V60.088h41.8V14.5A.451.451,0,0,0,54.387,14.448Zm-5.124-3.865,3.431,3.474-6.428.019-.02-6.538ZM13.592,59.088V6.807H45.244l.024,7.773a.5.5,0,0,0,.147.353.506.506,0,0,0,.353.145h0l7.617-.024V59.088Z" transform="translate(-5.661 -5.807)" style="fill:#36384b"/><rect x="1.749" y="26.454" width="0.583" height="1.166" style="fill:#36384b"/><rect x="1.749" y="29.369" width="0.583" height="1.166" style="fill:#36384b"/><rect x="2.915" y="28.203" width="1.166" height="0.583" style="fill:#36384b"/><polyline points="0 28.203 1.166 28.203 1.166 28.786 0 28.786" style="fill:#36384b"/><rect x="57.521" y="4.829" width="0.583" height="1.166" style="fill:#36384b"/><rect x="57.521" y="7.745" width="0.583" height="1.166" style="fill:#36384b"/><rect x="58.687" y="6.578" width="1.166" height="0.583" style="fill:#36384b"/><polyline points="55.772 6.578 56.938 6.578 56.938 7.162 55.772 7.162" style="fill:#36384b"/><circle cx="58.978" cy="29.078" r="1.166" style="fill:#a9ffd6"/><path d="M48.921,42.654c.559-1.254,3.345-3.926,3.916-4.954,1.141-2.057.194-4.862,2.995-4.862,1.245,0,5.05,3.137-.938,11.268a35.472,35.472,0,0,1,9.183,0,2.768,2.768,0,0,1,2.2,2.393,2.575,2.575,0,0,1-1.321,2.418,2.516,2.516,0,0,1-.155,4.812,2.672,2.672,0,0,1,1.545,2.405,2.5,2.5,0,0,1-2.28,2.406,1.929,1.929,0,0,1,1.346,1.7c0,2.282-1.95,2.839-3.528,3.268a21.572,21.572,0,0,1-6.736.259c-2.956-.207-6.292-1.5-10.534-1.993V48.256A14.021,14.021,0,0,0,48.921,42.654ZM36.262,63.2a.7.7,0,0,0,.7.7h6.957a.7.7,0,0,0,.7-.7V46.85a.7.7,0,0,0-.7-.7H36.958a.7.7,0,0,0-.7.7Z" transform="translate(-5.661 -5.807)" style="fill:#fff"/><path d="M43.915,64.4H36.958a1.2,1.2,0,0,1-1.2-1.2V46.851a1.2,1.2,0,0,1,1.2-1.2h6.957a1.2,1.2,0,0,1,1.2,1.2v.342a14.647,14.647,0,0,0,3.355-4.743h0A16.359,16.359,0,0,1,50.8,39.417a16.935,16.935,0,0,0,1.6-1.96,6.75,6.75,0,0,0,.619-2.084c.261-1.423.557-3.035,2.814-3.035a3.007,3.007,0,0,1,2.33,1.8c.674,1.334,1.226,4.273-2.22,9.353a33.894,33.894,0,0,1,8.24.126A3.246,3.246,0,0,1,66.773,46.5a3.122,3.122,0,0,1-.881,2.32,3.01,3.01,0,0,1,1.267,2.556A2.735,2.735,0,0,1,65.792,53.8a3.088,3.088,0,0,1,1.051,2.332A2.882,2.882,0,0,1,65.212,58.7a2.063,2.063,0,0,1,.7,1.542c0,2.69-2.345,3.328-3.9,3.751a21.681,21.681,0,0,1-6.9.276,31.313,31.313,0,0,1-4.821-.891,52.691,52.691,0,0,0-5.179-1.034V63.2A1.2,1.2,0,0,1,43.915,64.4Zm1.2-3.059a52.868,52.868,0,0,1,5.41,1.07,29.9,29.9,0,0,0,4.661.866,20.878,20.878,0,0,0,6.569-.242c1.79-.487,3.159-1,3.159-2.786,0-.186,0-.754-1.058-1.252l-1.537-.722L64,58.045a2.007,2.007,0,0,0,1.846-1.911,2.183,2.183,0,0,0-1.269-1.958l-1.034-.518,1.085-.4A2.017,2.017,0,0,0,64.8,49.4l-1.057-.331.946-.575a2.081,2.081,0,0,0,1.08-1.99,2.284,2.284,0,0,0-1.8-1.9,35.044,35.044,0,0,0-9.018.007l-1.152.142.688-.935C58.33,38.6,57.88,35.8,57.27,34.589a2.126,2.126,0,0,0-1.438-1.251c-1.366,0-1.549.68-1.831,2.216a7.638,7.638,0,0,1-.727,2.388,16.283,16.283,0,0,1-1.721,2.137,16.548,16.548,0,0,0-2.175,2.779h0a14.9,14.9,0,0,1-4.267,5.651ZM36.958,46.654a.2.2,0,0,0-.2.2V63.2a.2.2,0,0,0,.2.2h6.957a.2.2,0,0,0,.2-.2V46.851a.2.2,0,0,0-.2-.2Z" transform="translate(-5.661 -5.807)" style="fill:#36384b"/><rect x="31.101" y="40.848" width="7.348" height="16.74" rx="0.22" style="fill:#a2acff"/><path d="M19.505,30.675,18.3,31.91l-.528-.547a.293.293,0,0,0-.421.407l.738.763a.292.292,0,0,0,.21.089h0a.289.289,0,0,0,.209-.088l1.413-1.451a.293.293,0,0,0-.42-.408Z" transform="translate(-5.661 -5.807)" style="fill:#36384b"/><path d="M19.505,27.261,18.3,28.5l-.528-.547a.293.293,0,0,0-.421.407l.738.763a.292.292,0,0,0,.21.089h0a.289.289,0,0,0,.209-.088l1.413-1.451a.293.293,0,0,0-.42-.408Z" transform="translate(-5.661 -5.807)" style="fill:#36384b"/><path d="M19.505,23.847l-1.2,1.235-.528-.547a.293.293,0,0,0-.421.407l.738.763a.292.292,0,0,0,.21.089h0a.289.289,0,0,0,.209-.088l1.413-1.45a.293.293,0,0,0-.42-.409Z" transform="translate(-5.661 -5.807)" style="fill:#36384b"/></svg>