<svg xmlns="http://www.w3.org/2000/svg" viewBox="0 0 72 72"><title>Artboard 35</title><g id="Layer_1" data-name="Layer 1"><ellipse cx="32.248" cy="35" rx="26.195" ry="18.351" style="fill:#a9ffd6"/><path d="M19.522,27.7l3.051,31.147a7.816,7.816,0,0,0,7.786,7.128H51.252a7.333,7.333,0,0,0,7.3-6.655L61.8,27.7Z" style="fill:#a2acff"/><ellipse cx="51.74" cy="56.598" rx="4.904" ry="2.129" transform="translate(-15.385 19.523) rotate(-18.654)" style="fill:#fff"/><rect x="16.83" y="23.917" width="47.188" height="3.646" style="fill:#fff"/><rect x="14.498" y="13.221" width="0.583" height="1.166" style="fill:#36384b"/><rect x="14.498" y="16.136" width="0.583" height="1.166" style="fill:#36384b"/><rect x="15.664" y="14.97" width="1.166" height="0.583" style="fill:#36384b"/><rect x="12.749" y="14.97" width="1.166" height="0.583" style="fill:#36384b"/><path d="M33.894,11.4a1.647,1.647,0,1,1-1.646,1.646A1.646,1.646,0,0,1,33.894,11.4m0-1a2.647,2.647,0,1,0,2.647,2.646A2.649,2.649,0,0,0,33.894,10.4Z" style="fill:#36384b"/><path d="M31.6,6.124a.648.648,0,1,1-.648.648.648.648,0,0,1,.648-.648m0-.834a1.482,1.482,0,1,0,1.482,1.482A1.484,1.484,0,0,0,31.6,5.29Z" style="fill:#36384b"/><path d="M55.226,44.746a.561.561,0,0,0-.38-.2l-.049,0a.55.55,0,0,0-.357.131.556.556,0,0,0-.2.38l-.173,2.034a.548.548,0,0,0,.129.407.557.557,0,0,0,.38.2h0a.566.566,0,0,0,.6-.509l.174-2.034A.555.555,0,0,0,55.226,44.746Z" style="fill:#36384b"/><path d="M56.5,29.854a.556.556,0,0,0-.378-.2h0l-.05,0a.562.562,0,0,0-.553.51l-.952,11.152a.557.557,0,0,0,.509.6h.005a.57.57,0,0,0,.6-.509l.952-11.151A.549.549,0,0,0,56.5,29.854Z" style="fill:#36384b"/><path d="M16.933,23.088a.56.56,0,0,0-.559.558v3.975a.56.56,0,0,0,.558.558h2.157l2.964,31.394a7.538,7.538,0,0,0,7.511,6.9H51.448a7.538,7.538,0,0,0,7.51-6.884l.757-8.67c.173-.285.346-.583.515-.9,3.392-6.338,4.558-12.046,3.223-21.523l-.046-.317h.66a.56.56,0,0,0,.558-.558V23.646a.56.56,0,0,0-.558-.558M50.924,65.355H30.076a6.979,6.979,0,0,1-6.954-6.386l-2.913-30.79h1.346l.04.231c.234,1.383.525,2.743.831,4.051C24.894,43.006,34.665,56.6,46.372,58.485l.151.016.069.134a2.543,2.543,0,0,0,2.882,1.216l5.594-1.7A2.438,2.438,0,0,0,56.691,55.1l-.049-.162.091-.2c.364-.352.734-.75,1.1-1.183L58.4,52.9l-.518,6.074A6.981,6.981,0,0,1,50.924,65.355Zm-2.107-9.236,5.155-1.57a1.334,1.334,0,0,1,1.007.1,1.324,1.324,0,0,1-.235,2.434l-5.6,1.7a1.322,1.322,0,0,1-1.652-.879h0A1.989,1.989,0,0,1,48.817,56.119Zm9.739-5.448a17.362,17.362,0,0,1-2.447,3.114l-.165.164-.19-.133a2.854,2.854,0,0,0-.248-.154,2.423,2.423,0,0,0-1.859-.181l-5.587,1.7a2.453,2.453,0,0,0-1.7,1.914l-.047.262-.263-.035c-4.322-.579-9.233-3.509-13.192-8.252C28.5,43.848,25.4,40,23.51,32.2c-.289-1.191-.548-2.433-.768-3.692l-.057-.326H60.791Zm2.055-4.194-.726,1.91,2.183-20.021.325,2.415C63.192,37.31,62.86,40.562,60.611,46.477Zm2.9-19.415H17.491V24.2H63.509Z" style="fill:#36384b"/><rect x="62.852" y="14.095" width="0.583" height="1.166" style="fill:#36384b"/><rect x="62.852" y="17.011" width="0.583" height="1.166" style="fill:#36384b"/><rect x="64.018" y="15.844" width="1.166" height="0.583" style="fill:#36384b"/><rect x="61.103" y="15.844" width="1.166" height="0.583" style="fill:#36384b"/><path d="M26.7,11.188a1.081,1.081,0,1,1-1.081,1.081A1.081,1.081,0,0,1,26.7,11.188m0-1a2.081,2.081,0,1,0,2.081,2.081A2.083,2.083,0,0,0,26.7,10.188Z" style="fill:#36384b"/><rect x="43.363" y="5.068" width="0.583" height="1.166" style="fill:#36384b"/><rect x="43.363" y="7.983" width="0.583" height="1.166" style="fill:#36384b"/><rect x="44.529" y="6.817" width="1.166" height="0.583" style="fill:#36384b"/><rect x="41.614" y="6.817" width="1.166" height="0.583" style="fill:#36384b"/><path d="M60.136,23.088c-.478-4.624-2.535-7.026-8.058-6.34-3.859-3.4-7.738-6.648-13.06,1.029-3.243-1.364-5.508.167-7.058,3.814a3.756,3.756,0,0,0-2.928,1.581,4.733,4.733,0,0,0-2.622-.8,4.921,4.921,0,0,0,0,9.841,4.82,4.82,0,0,0,4.536-3.293,3.744,3.744,0,0,0,1.159.2c2.084,0,5.477-2.742,5.477-4.826,0-.668.792-.6.487-1.142Z" style="fill:#fff"/><path d="M60.65,23.69a10.524,10.524,0,0,0,.138-1.171,6.709,6.709,0,0,0-6.906-6.477,6.545,6.545,0,0,0-1.291.133l-.113.022-.075.014-.04-.064-.062-.1a7.657,7.657,0,0,0-6.542-3.657,7.764,7.764,0,0,0-6.952,4.391l-.061.126-.04.084-.09-.025-.135-.038a5.387,5.387,0,0,0-1.494-.211,5.582,5.582,0,0,0-5.37,4.138l-.028.105-.019.07-.072.011-.109.016A4.32,4.32,0,0,0,28.77,22.5l-.08.093-.053.061-.075-.033-.112-.048a5.246,5.246,0,0,0-2.11-.446,5.344,5.344,0,0,0,0,10.687,5.281,5.281,0,0,0,4.768-2.974l.054-.11.037-.074.081.013.122.019a3.923,3.923,0,0,0,.631.051h.046c3.874,0,5.961-4.3,6.62-5.683a.622.622,0,0,0,.026-.477.615.615,0,0,0-.319-.354.6.6,0,0,0-.267-.063.63.63,0,0,0-.565.355l-.063.133c-1.465,3.143-3.346,4.842-5.429,4.842H32.03a3.138,3.138,0,0,1-1.007-.186.626.626,0,0,0-.8.4A4.1,4.1,0,1,1,28.5,24a.62.62,0,0,0,.33.094.656.656,0,0,0,.147-.017.618.618,0,0,0,.388-.286,3.093,3.093,0,0,1,2.623-1.53c.042,0,.07.006.1.006a.615.615,0,0,0,.627-.54,4.34,4.34,0,0,1,4.273-3.761,4.282,4.282,0,0,1,1.809.41.631.631,0,0,0,.264.058.618.618,0,0,0,.241-.049.631.631,0,0,0,.347-.371,6.448,6.448,0,0,1,11.881-.794.629.629,0,0,0,.557.341.605.605,0,0,0,.169-.024,5.922,5.922,0,0,1,1.627-.248,5.462,5.462,0,0,1,5.658,5.229,4.606,4.606,0,0,1-.247,1.421.41.41,0,0,0,.1.009A6.153,6.153,0,0,0,60.65,23.69Z" style="fill:#36384b"/></g></svg>