<svg id="Layer_1" data-name="Layer 1" xmlns="http://www.w3.org/2000/svg" viewBox="0 0 34.389 27.525"><title>icon-accidental-damage</title><ellipse cx="18.164" cy="16.515" rx="15.716" ry="11.01" style="fill:#a9ffd6"/><line x1="10.21" y1="15.017" x2="20.441" y2="15.017" style="fill:none;stroke:#36384b;stroke-linecap:round;stroke-linejoin:round;stroke-width:0.5999416715205541px"/><rect x="7.251" width="0.35" height="0.7" style="fill:#36384b"/><rect x="7.251" y="1.749" width="0.35" height="0.7" style="fill:#36384b"/><rect x="7.951" y="1.049" width="0.7" height="0.35" style="fill:#36384b"/><rect x="6.202" y="1.049" width="0.7" height="0.35" style="fill:#36384b"/><circle cx="34.039" cy="9.72" r="0.35" style="fill:#a9ffd6"/><rect x="1.049" y="9.505" width="0.35" height="0.7" style="fill:#36384b"/><rect x="1.049" y="11.254" width="0.35" height="0.7" style="fill:#36384b"/><rect x="1.749" y="10.554" width="0.7" height="0.35" style="fill:#36384b"/><rect y="10.554" width="0.7" height="0.35" style="fill:#36384b"/><path d="M23.922,13.3s1.754-.513,2.307-3.212L18.786,8.561c-.554,2.7.856,3.861.856,3.861" transform="translate(-0.71 -4.392)" style="fill:#fff;stroke:#36384b;stroke-linecap:round;stroke-linejoin:round;stroke-width:0.5999416715205541px"/><polyline points="22 11.485 22 22.558 20.441 21.239 20.441 10.335" style="fill:#fff;stroke:#36384b;stroke-linecap:round;stroke-linejoin:round;stroke-width:0.5999416715205541px"/><polyline points="8.65 8.439 8.65 22.13 10.21 22.13 10.21 9.101" style="fill:#fff;stroke:#36384b;stroke-linecap:round;stroke-linejoin:round;stroke-width:0.5999416715205541px"/><polygon points="23.654 21.876 27.861 22.915 28.18 21.624 25.187 20.885 23.654 21.876" style="fill:#fff;stroke:#36384b;stroke-linecap:round;stroke-linejoin:round;stroke-width:0.5999416715205541px"/><rect x="15.313" y="-2.121" width="3.118" height="31.194" transform="matrix(0.201, -0.98, 0.98, 0.201, -0.428, 22.906)" style="fill:#a3acff;stroke:#36384b;stroke-linecap:round;stroke-linejoin:round;stroke-width:0.5999416715205541px"/></svg>