<svg id="Layer_1" data-name="Layer 1" xmlns="http://www.w3.org/2000/svg" viewBox="0 0 50 50"><defs><style>.cls-1{fill:#ffffff}</style></defs><title>icon-quote</title><path class="cls-1" d="M26.2,1a25,25,0,1,0,25,25A25,25,0,0,0,26.2,1ZM23.9,27.2c0,.1-.1.2-.1.3l-6.6,8.4c0,.1-.2.2-.3.2H14.2a.9.9,0,0,1-.8-1.3l3-7.4H13.3A1.3,1.3,0,0,1,12,26.1V16.7a1.3,1.3,0,0,1,1.3-1.3h9.3a1.3,1.3,0,0,1,1.3,1.3Zm16.4,0c0,.1-.1.2-.1.3l-6.6,8.4c0,.1-.2.2-.3.2H30.6a.9.9,0,0,1-.8-1.3l3-7.4H29.6a1.3,1.3,0,0,1-1.3-1.3V16.7a1.3,1.3,0,0,1,1.3-1.3H39a1.3,1.3,0,0,1,1.3,1.3Z" transform="translate(-1.3 -1)"/></svg>
