<svg xmlns="http://www.w3.org/2000/svg" viewBox="0 0 72 72"><title>Artboard 25</title><g id="Layer_1" data-name="Layer 1"><ellipse cx="28.417" cy="46.145" rx="26.195" ry="18.351" style="fill:#a9ffd6"/><path d="M44.126,41.234c2.932.464,5.836,2.2,5.836,3,0,1.4-5.654,3.094-12.629,3.094s-12.628-1.7-12.628-3.094c0-.808,2.741-2.541,5.673-3-6.45.594-10.1,2.917-10.1,4.434,0,2.077,6.708,4.882,17.057,4.882s17.058-2.8,17.058-4.882C54.391,44.151,50.576,41.828,44.126,41.234Z" style="fill:#a2acff"/><path d="M37.333,51.05c-8.3,0-17.558-2.21-17.558-5.382,0-1.946,3.949-4.323,10.557-4.933a.511.511,0,0,1,.542.436.5.5,0,0,1-.418.557c-2.754.436-5.138,2.019-5.252,2.529,0,.752,4.708,2.576,12.129,2.576s12.129-1.824,12.129-2.594c-.132-.483-2.6-2.066-5.414-2.511a.5.5,0,0,1-.418-.557.514.514,0,0,1,.542-.436c6.621.611,10.72,3.036,10.72,4.933C54.892,48.84,45.638,51.05,37.333,51.05ZM25.412,42.664c-3.089.933-4.637,2.246-4.637,3,0,1.545,6.287,4.382,16.558,4.382s16.559-2.837,16.559-4.382c0-.722-1.568-2.014-4.606-2.95.717.507,1.176,1.041,1.176,1.521,0,2.118-6.919,3.594-13.129,3.594s-13.128-1.476-13.128-3.594C24.205,43.739,24.679,43.186,25.412,42.664Z" style="fill:#36384b"/><path d="M37.176,58.657c-19.18,0-31.42-5.7-31.42-9.625,0-2.294,3.374-4.207,9.481-5.49-1.324.684-2.193,1.517-2.193,2.525,0,3.557,11.727,6.919,24.132,6.919s24.132-3.362,24.132-6.919c0-1.008-.87-1.841-2.194-2.525,6.109,1.282,9.483,3.2,9.483,5.49C68.6,52.957,56.356,58.657,37.176,58.657Z" style="fill:#a2acff"/><path d="M13.113,44.545a2.409,2.409,0,0,0-.569,1.523c0,4.372,12.982,7.418,24.632,7.418a63.062,63.062,0,0,0,16.989-2.16c3.487-1.013,7.643-2.747,7.643-5.258a2.409,2.409,0,0,0-.569-1.523c6.229,1.667,6.858,3.732,6.858,4.487,0,3.1-10.914,9.125-30.921,9.125s-30.92-6.028-30.92-9.125c0-.755.628-2.82,6.857-4.487m38.676-2.6c5.486.963,9.019,2.451,9.019,4.126,0,2.9-10.58,6.418-23.632,6.418S13.544,48.97,13.544,46.068c0-1.675,3.534-3.163,9.019-4.126-12.069,1.233-17.307,3.943-17.307,7.09,0,4.307,12.553,10.125,31.92,10.125S69.1,53.339,69.1,49.032c0-3.147-5.239-5.857-17.308-7.09Z" style="fill:#36384b"/><rect x="57.848" y="35.623" width="0.583" height="1.166" style="fill:#36384b"/><rect x="57.848" y="38.538" width="0.583" height="1.166" style="fill:#36384b"/><rect x="59.014" y="37.372" width="1.166" height="0.583" style="fill:#36384b"/><polyline points="56.099 37.372 57.265 37.372 57.265 37.955 56.099 37.955" style="fill:#36384b"/><rect x="18.057" y="12.915" width="0.583" height="1.166" style="fill:#36384b"/><rect x="18.057" y="15.83" width="0.583" height="1.166" style="fill:#36384b"/><rect x="19.223" y="14.664" width="1.166" height="0.583" style="fill:#36384b"/><polyline points="16.308 14.664 17.474 14.664 17.474 15.247 16.308 15.247" style="fill:#36384b"/><path d="M45.168,18.715C41.652,15.1,37.57,7.83,37.57,7.83a3.847,3.847,0,0,0-.375-.643,3.768,3.768,0,0,0-.374.643s-4.084,7.271-7.6,10.885c-4.074,4.193-5.148,8.632-5.1,11.673C24.5,37.982,30.18,44.03,37.2,44.03s12.7-6.056,13.07-13.655A16.542,16.542,0,0,0,45.168,18.715Z" style="fill:#a2acff"/><path d="M37.194,44.53c-7.216,0-13.176-6.2-13.567-14.117-.042-2.454.585-7.257,5.237-12.046,3.428-3.526,7.481-10.71,7.522-10.782a3.884,3.884,0,0,1,.393-.678l.411-.61.416.606a4.035,4.035,0,0,1,.427.74c.013.014,4.064,7.2,7.493,10.724h0c4.647,4.785,5.277,9.582,5.239,12.016C50.38,38.323,44.42,44.53,37.194,44.53Zm0-36.349c-.648,1.146-4.334,7.511-7.612,10.883-4.4,4.529-4.993,9.034-4.955,11.315.364,7.368,5.885,13.151,12.568,13.151s12.213-5.789,12.572-13.179c.035-2.263-.562-6.761-4.956-11.288h0C41.478,15.639,37.729,9.126,37.193,8.181Z" style="fill:#36384b"/></g></svg>