<svg id="Layer_1" data-name="Layer 1" xmlns="http://www.w3.org/2000/svg" viewBox="0 0 31.564 24.844"><title>icon-fastservice</title><path d="M20.735,11.012a8.6,8.6,0,1,0,8.6,8.6A8.608,8.608,0,0,0,20.735,11.012Zm0,9.86a1.334,1.334,0,0,1-1.25-1.261A1.288,1.288,0,0,1,20.738,18.4a1.315,1.315,0,0,1,1.282,1.207A1.367,1.367,0,0,1,20.735,20.872Z" transform="translate(-1.486 -5.156)" style="fill:#a3acff"/><polygon points="11.494 5.585 12.455 6.999 14.102 5.719 12.946 4.544 11.494 5.585" style="fill:#a3acff"/><rect x="17.099" y="0.437" width="4.461" height="1.804" style="fill:#a3acff"/><circle cx="19.319" cy="14.455" r="1.32" style="fill:#a9ffd6"/><path d="M30.033,11.535l-.41.369a11.793,11.793,0,0,1,2.364,11.155l.524.171a12.338,12.338,0,0,0-2.478-11.695Z" transform="translate(-1.486 -5.156)" style="fill:#36384b"/><path d="M26.211,14.41a.275.275,0,0,0-.275-.275h0a.27.27,0,0,0-.2.081l-4,4a1.7,1.7,0,0,0-1-.329,1.721,1.721,0,1,0,1.721,1.721,1.7,1.7,0,0,0-.328-1l4-4A.27.27,0,0,0,26.211,14.41Zm-5.476,6.37a1.169,1.169,0,1,1,1.17-1.169A1.17,1.17,0,0,1,20.735,20.78Z" transform="translate(-1.486 -5.156)" style="fill:#36384b"/><rect y="14.179" width="8.248" height="0.551" style="fill:#36384b"/><path d="M20.735,10.806a8.811,8.811,0,0,0-8.206,5.64H4.577V17h7.75a8.826,8.826,0,0,0,0,5.228H7.457v.551h5.072a8.8,8.8,0,1,0,8.206-11.97Zm.276,17.184V26.9a.276.276,0,1,0-.551,0V27.99a8.4,8.4,0,0,1-7.493-5.214h1.34v-.551H12.765a8.288,8.288,0,0,1,0-5.228h1.986v-.551H12.967a8.4,8.4,0,0,1,7.493-5.214v1.087a.276.276,0,1,0,.551,0V11.232a8.39,8.39,0,0,1,8.1,8.1H28.027a.276.276,0,1,0,0,.551h1.087A8.391,8.391,0,0,1,21.011,27.99Z" transform="translate(-1.486 -5.156)" style="fill:#36384b"/><rect x="4.044" y="17.069" width="0.551" height="0.551" style="fill:#36384b"/><path d="M21.011,9.236V7.847h1.651a.759.759,0,0,0,.757-.758V6.126a.758.758,0,0,0-.757-.757H18.809a.758.758,0,0,0-.757.757v.963a.758.758,0,0,0,.757.758H20.46V9.24a10.386,10.386,0,0,0-4.984,1.42l-.953-1.215-1.829,1.427.958,1.182a10.113,10.113,0,0,0-1.889,2.316l.481.27a9.837,9.837,0,1,1,0,9.942l-.481.27A10.388,10.388,0,1,0,21.011,9.236Zm-7.054,2.54-.679-.838,1.174-.916.68.867A10.733,10.733,0,0,0,13.957,11.776ZM18.6,7.3V5.92h4.265V7.3Z" transform="translate(-1.486 -5.156)" style="fill:#36384b"/><rect x="28.396" width="0.32" height="0.64" style="fill:#36384b"/><rect x="28.396" y="1.601" width="0.32" height="0.64" style="fill:#36384b"/><rect x="29.037" y="0.96" width="0.64" height="0.32" style="fill:#36384b"/><rect x="27.436" y="0.96" width="0.64" height="0.32" style="fill:#36384b"/><rect x="5.604" y="4.758" width="0.32" height="0.64" style="fill:#36384b"/><rect x="5.604" y="6.359" width="0.32" height="0.64" style="fill:#36384b"/><rect x="6.245" y="5.719" width="0.64" height="0.32" style="fill:#36384b"/><rect x="4.644" y="5.719" width="0.64" height="0.32" style="fill:#36384b"/><circle cx="30.129" cy="3.378" r="0.32" style="fill:#a9ffd6"/><circle cx="4.644" cy="1.761" r="0.64" style="fill:#a9ffd6"/></svg>