<svg id="Layer_1" data-name="Layer 1" xmlns="http://www.w3.org/2000/svg" viewBox="0 0 30.963 28.569"><title>icon-premium-pricing</title><ellipse cx="16.22" cy="16.367" rx="14.742" ry="10.328" style="fill:#a9ffd6"/><path d="M17.864,14.372s-.567-.021-.586-.023a4.677,4.677,0,0,1-1.35,2.31c.481.027,1.56.257,2.077.316.249.028.251-.085.223.164-.027.232.028.024-.2.024-.017,0-.508-.068-.526-.071a16.213,16.213,0,0,0-4.527-.023c-.246.03-.524.2-.551-.047s.1-.219.35-.246c.034,0,.743.028,1.2,0a5.182,5.182,0,0,1-1.29-2.415,10.134,10.134,0,0,0-1.3.07A2.984,2.984,0,0,0,8.5,12.485a3.885,3.885,0,0,0-1.371.424l.762,3.081a8.3,8.3,0,0,0-3.4,4.956L2.528,22.005a9.85,9.85,0,0,0,.481,3.353l1.712.586c.57,1.958,1.667,1.811,3.33,2.908l.211,2.65a2.46,2.46,0,0,0,1.207.481,4.59,4.59,0,0,0,1.208-.4l.539-1.437a6.684,6.684,0,0,0,1.97.268h2.193c1.127,0,2.462-.045,2.462-.045a5.191,5.191,0,0,0,1.841-.141l.469,1.418a5.139,5.139,0,0,0,1.5.341,1.681,1.681,0,0,0,1-.434l.328-2.914C25.157,27.1,26.529,25.874,26.529,23A8.757,8.757,0,0,0,17.864,14.372Zm-10.1,6.286a.867.867,0,0,1-.755-.96.867.867,0,0,1,.755-.96.866.866,0,0,1,.754.96A.866.866,0,0,1,7.763,20.658Z" transform="translate(-2.241 -3.715)" style="fill:#a3acff"/><path d="M16.254,25.447v3.188a1.89,1.89,0,0,0,.616-.183,1.519,1.519,0,0,0,.473-.368,1.24,1.24,0,0,0,.225-.4,1.187,1.187,0,0,0,.066-.329v0a1.94,1.94,0,0,0-.369-1.34A2,2,0,0,0,16.254,25.447Z" transform="translate(-2.241 -3.715)" style="fill:#a3acff"/><path d="M13.4,22.821a1.909,1.909,0,0,0,.111.489,1.194,1.194,0,0,0,.3.437,2.521,2.521,0,0,0,.616.417,2.854,2.854,0,0,0,.791.24V20.946a2.081,2.081,0,0,0-1.33.578A1.657,1.657,0,0,0,13.4,22.821Z" transform="translate(-2.241 -3.715)" style="fill:#a3acff"/><circle cx="12.728" cy="10.805" r="2.195" style="fill:#fff"/><circle cx="16.22" cy="5.785" r="0.959" style="fill:#a3acff"/><path d="M29.34,14.9a.251.251,0,0,0-.159-.106.245.245,0,0,0-.184.036.248.248,0,0,0-.069.344,1.27,1.27,0,0,1-.183,1.555,1.467,1.467,0,0,1-.278.241l-.295.2-.033-.355a3.183,3.183,0,0,0-.546-1.4,1.5,1.5,0,0,0-1.5-.848,1.029,1.029,0,0,0-.774.9c-.1.734.423,1.476,1.388,1.983a2.313,2.313,0,0,0,.4.164l.357.107-.276.251a3.185,3.185,0,0,1-1.389.667l-.157.045-.1-.132a9.26,9.26,0,0,0-7.871-4.559l-.359-.036-.041-.135a2.407,2.407,0,0,0-4.634.067l-.039.144-.332.023c-.184.012-.368.023-.554.053l-.141.023-.074-.123a3.458,3.458,0,0,0-3.036-1.8,3.58,3.58,0,0,0-1.214.2.7.7,0,0,0-.423.849l.734,2.614-.111.087a9.161,9.161,0,0,0-3.132,4.63l-.025.086-1.653.869a.7.7,0,0,0-.375.566,8.79,8.79,0,0,0,.345,3.161.708.708,0,0,0,.461.451l1.35.418.035.1A2.971,2.971,0,0,0,6.3,28.1a9.507,9.507,0,0,1,1.407.831l.08.059.136,2.34a.708.708,0,0,0,.255.5,2.131,2.131,0,0,0,1.333.419,3.131,3.131,0,0,0,1.231-.271.706.706,0,0,0,.4-.458l.274-.979.188.033a8.966,8.966,0,0,0,1.538.135c.026,0,1.034.019,2.148.019,1.133,0,2.337-.019,2.337-.019a9.077,9.077,0,0,0,1.659-.156l.189-.036.283,1a.707.707,0,0,0,.379.447,3.065,3.065,0,0,0,1.3.312,2.117,2.117,0,0,0,1.267-.381.706.706,0,0,0,.269-.5l.207-2.572.073-.057c2.3-1.786,3.564-2.77,3.564-5.578a9.106,9.106,0,0,0-.847-3.833l-.1-.226.24-.066a2.984,2.984,0,0,0,1.858-1.3l.045-.09.1-.022a1.905,1.905,0,0,0,1-.6A1.749,1.749,0,0,0,29.34,14.9Zm-14.371-2.3a1.927,1.927,0,1,1-1.927,1.927A1.93,1.93,0,0,1,14.969,12.593ZM26.323,23.2c0,2.834-1.34,3.774-3.369,5.2l-.249.175-.232,2.887-.073.058a1.639,1.639,0,0,1-.962.276,2.568,2.568,0,0,1-1.092-.265l-.088-.041-.438-1.555a8.619,8.619,0,0,1-2.206.29s-1.2.019-2.326.019-2.152-.019-2.152-.019a8.64,8.64,0,0,1-2.072-.259l-.428,1.528-.093.04a2.62,2.62,0,0,1-1.034.231,1.675,1.675,0,0,1-1.018-.3L8.42,31.4l-.155-2.671a13,13,0,0,0-1.194-.661,3.563,3.563,0,0,1-2.254-2.318l-1.7-.526-.034-.1a8.174,8.174,0,0,1-.322-2.962l.009-.116,1.948-1.024a8.7,8.7,0,0,1,3.415-4.942l-.879-3.13.179-.07a3.1,3.1,0,0,1,1.034-.17,3.04,3.04,0,0,1,2.839,1.989,8.9,8.9,0,0,1,1.037-.144l.21-.018.018.209a2.408,2.408,0,0,0,.8,1.583l.379.337-.506.031c-.424.026-.691.052-.748.058a.247.247,0,0,0-.171.09.244.244,0,0,0-.052.178.247.247,0,0,0,.092.167.224.224,0,0,0,.172.049,28.542,28.542,0,0,1,5.606.063h0a.249.249,0,0,0,.266-.213.242.242,0,0,0-.052-.179.236.236,0,0,0-.162-.09c-.475-.055-.962-.1-1.489-.126l-.507-.03.378-.338a2.4,2.4,0,0,0,.8-1.638l.015-.226.225.032A8.722,8.722,0,0,1,26.323,23.2ZM27.4,17.179a1.713,1.713,0,0,1-.455-.168c-1.148-.6-1.153-1.285-1.127-1.48a.53.53,0,0,1,.393-.479c.282-.065.673.173.971.634a2.527,2.527,0,0,1,.472,1.284l0,.264Z" transform="translate(-2.241 -3.715)" style="fill:#36384b"/><path d="M7.763,18.738a.867.867,0,0,0-.755.96.867.867,0,0,0,.755.96.866.866,0,0,0,.754-.96A.866.866,0,0,0,7.763,18.738Z" transform="translate(-2.241 -3.715)" style="fill:#36384b"/><path d="M18.488,8.3A1.307,1.307,0,1,0,19.8,9.6,1.309,1.309,0,0,0,18.488,8.3Zm0,2.12A.813.813,0,1,1,19.3,9.6.813.813,0,0,1,18.488,10.415Z" transform="translate(-2.241 -3.715)" style="fill:#36384b"/><path d="M13.647,6.191a1.841,1.841,0,1,0,1.841,1.84A1.842,1.842,0,0,0,13.647,6.191Zm0,3.186a1.346,1.346,0,1,1,1.346-1.346A1.348,1.348,0,0,1,13.647,9.377Z" transform="translate(-2.241 -3.715)" style="fill:#36384b"/><rect x="6.656" y="3.646" width="0.328" height="0.656" style="fill:#36384b"/><rect x="6.656" y="5.287" width="0.328" height="0.656" style="fill:#36384b"/><rect x="7.312" y="4.63" width="0.656" height="0.328" style="fill:#36384b"/><polyline points="5.671 4.63 6.328 4.63 6.328 4.958 5.671 4.958" style="fill:#36384b"/><circle cx="5.671" cy="0.961" r="0.656" style="fill:#a9ffd6"/><rect x="17.64" width="0.328" height="0.656" style="fill:#36384b"/><rect x="17.64" y="1.641" width="0.328" height="0.656" style="fill:#36384b"/><rect x="18.297" y="0.984" width="0.656" height="0.328" style="fill:#36384b"/><polyline points="16.656 0.984 17.312 0.984 17.312 1.312 16.656 1.312" style="fill:#36384b"/><circle cx="21.532" cy="4.502" r="0.328" style="fill:#a9ffd6"/><path d="M17.233,23.964a1.632,1.632,0,0,0-.511-.483,2.3,2.3,0,0,0-.765-.29V20.8a.96.96,0,0,1,.266.126,1.554,1.554,0,0,1,.327.295,1.109,1.109,0,0,1,.192.35,1.623,1.623,0,0,1,.082.388.275.275,0,0,0,.314.271c.071-.009.241-.057.293-.336a1.677,1.677,0,0,0-.472-1.194,1.846,1.846,0,0,0-1-.5v-.392a.336.336,0,0,0-.123-.27.358.358,0,0,0-.477.009.348.348,0,0,0-.1.261v.35a2.617,2.617,0,0,0-.7.154,1.938,1.938,0,0,0-.662.4,1.7,1.7,0,0,0-.405.6,1.586,1.586,0,0,0-.1.734,1.705,1.705,0,0,0,.591,1.151,2.33,2.33,0,0,0,1.282.5v2.283a1.906,1.906,0,0,1-1-.322,1.245,1.245,0,0,1-.492-.721.3.3,0,0,0-.319-.259.271.271,0,0,0-.237.087.263.263,0,0,0-.049.237,1.682,1.682,0,0,0,.771,1.157,2.834,2.834,0,0,0,1.325.407v.326a.345.345,0,0,0,.11.267.349.349,0,0,0,.234.09.38.38,0,0,0,.238-.087.332.332,0,0,0,.122-.27v-.332a1.709,1.709,0,0,0,1.105-.492,1.571,1.571,0,0,0,.432-.953,2,2,0,0,0-.03-.57A1.583,1.583,0,0,0,17.233,23.964Zm-.857,1.882a1.261,1.261,0,0,1-.419.124V23.8a1.356,1.356,0,0,1,.687.381,1.319,1.319,0,0,1,.251.911v0a.8.8,0,0,1-.045.223.833.833,0,0,1-.153.275A1.041,1.041,0,0,1,16.376,25.846Zm-2.357-3.828a1.122,1.122,0,0,1,.33-.882,1.421,1.421,0,0,1,.9-.393v2.351a1.886,1.886,0,0,1-.538-.163,1.745,1.745,0,0,1-.419-.283.819.819,0,0,1-.2-.3A1.294,1.294,0,0,1,14.019,22.018Z" transform="translate(-2.241 -3.715)" style="fill:#fff"/><path d="M15.6,27.388a.482.482,0,0,1-.485-.5v-.2a2.911,2.911,0,0,1-1.259-.417,1.816,1.816,0,0,1-.834-1.251.393.393,0,0,1,.432-.489.44.44,0,0,1,.45.38,1.108,1.108,0,0,0,.438.628,1.64,1.64,0,0,0,.773.278v-2a2.4,2.4,0,0,1-1.233-.513,1.857,1.857,0,0,1-.639-1.243,1.721,1.721,0,0,1,.112-.8,1.819,1.819,0,0,1,.438-.649,2.054,2.054,0,0,1,.71-.434,2.687,2.687,0,0,1,.612-.149v-.223a.489.489,0,0,1,.81-.38.477.477,0,0,1,.176.38v.276a1.976,1.976,0,0,1,.96.518,1.8,1.8,0,0,1,.513,1.29c-.07.394-.312.465-.414.48a.419.419,0,0,1-.473-.395,1.552,1.552,0,0,0-.075-.36.941.941,0,0,0-.169-.3,1.352,1.352,0,0,0-.3-.269c-.016-.01-.031-.02-.046-.028v2.066a2.3,2.3,0,0,1,.7.284,1.78,1.78,0,0,1,.553.524h0a1.721,1.721,0,0,1,.25.63,2.136,2.136,0,0,1,.032.61,1.7,1.7,0,0,1-.467,1.033,1.777,1.777,0,0,1-1.069.519v.211a.476.476,0,0,1-.175.379A.523.523,0,0,1,15.6,27.388Zm-2.178-2.572a.126.126,0,0,0-.106.038.128.128,0,0,0-.018.116A1.546,1.546,0,0,0,14,26.038a2.7,2.7,0,0,0,1.26.386l.13.01v.457a.206.206,0,0,0,.066.163.22.22,0,0,0,.29,0,.192.192,0,0,0,.067-.158v-.458l.124-.015a1.58,1.58,0,0,0,1.018-.446,1.435,1.435,0,0,0,.4-.868,1.9,1.9,0,0,0-.028-.536,1.476,1.476,0,0,0-.21-.527h0a1.5,1.5,0,0,0-.469-.44,2.144,2.144,0,0,0-.719-.272l-.112-.023V20.611l.181.054a1.081,1.081,0,0,1,.3.144,1.664,1.664,0,0,1,.357.323,1.261,1.261,0,0,1,.217.394,1.759,1.759,0,0,1,.088.421.14.14,0,0,0,.159.143c.086-.012.144-.087.169-.223A1.526,1.526,0,0,0,16.86,20.8a1.725,1.725,0,0,0-.928-.464l-.116-.021v-.509a.2.2,0,0,0-.072-.161.218.218,0,0,0-.293,0,.214.214,0,0,0-.058.157v.48l-.129.011a2.439,2.439,0,0,0-.665.144,1.777,1.777,0,0,0-.615.374,1.548,1.548,0,0,0-.371.549,1.447,1.447,0,0,0-.093.67,1.576,1.576,0,0,0,.542,1.058,2.2,2.2,0,0,0,1.206.464l.125.013v2.563l-.152-.012a2.047,2.047,0,0,1-1.071-.35,1.393,1.393,0,0,1-.545-.8.172.172,0,0,0-.187-.15Zm2.4,1.316V23.618l.178.049a1.506,1.506,0,0,1,.756.424,1.454,1.454,0,0,1,.286,1.007.97.97,0,0,1-.052.265.952.952,0,0,1-.177.321,1.169,1.169,0,0,1-.365.287h0a1.422,1.422,0,0,1-.465.138ZM16.1,24v1.8a.935.935,0,0,0,.211-.077h0a.9.9,0,0,0,.278-.215.706.706,0,0,0,.128-.228.7.7,0,0,0,.039-.182,1.2,1.2,0,0,0-.216-.823A1.082,1.082,0,0,0,16.1,24Zm-.7-.734-.164-.029a2.061,2.061,0,0,1-.578-.174,1.927,1.927,0,0,1-.452-.309.93.93,0,0,1-.237-.351,1.488,1.488,0,0,1-.084-.368v0a1.264,1.264,0,0,1,.369-.987,1.552,1.552,0,0,1,.99-.435l.156-.017Zm-1.234-1.252a1.132,1.132,0,0,0,.068.294.637.637,0,0,0,.167.243,1.573,1.573,0,0,0,.384.26,1.492,1.492,0,0,0,.334.116V20.906a1.2,1.2,0,0,0-.662.328A.984.984,0,0,0,14.159,22.009Z" transform="translate(-2.241 -3.715)" style="fill:#fff"/></svg>