<svg id="Layer_1" data-name="Layer 1" xmlns="http://www.w3.org/2000/svg" viewBox="0 0 33.974 34.498"><title>icon-eco-friendly</title><circle cx="17.307" cy="17.418" r="14.167" style="fill:#36384b;stroke:#36384b;stroke-miterlimit:10;stroke-width:0.2777851399504172px"/><g id="_Group_" data-name="&lt;Group&gt;"><path d="M25.678,26.4a6.073,6.073,0,0,1,.85-1.761,5.523,5.523,0,0,1-.539,1.8.528.528,0,0,1-.339.272A.6.6,0,0,1,25.678,26.4Z" transform="translate(-1.054 -0.751)" style="fill:#a2acff"/><path d="M21.616,15.274a3.1,3.1,0,0,0,.711.017l1.412.433a.511.511,0,0,0-.123.106c-.1.133-.316.417.506,2.061a9.571,9.571,0,0,0,1.172,1.9,1.4,1.4,0,0,0,1.245.245c.016-.006.039-.006.055-.011-.011.027-.022.055-.039.088A9.961,9.961,0,0,1,25.528,21.6a5.139,5.139,0,0,0-1.234,2.133c-.016.217-.033.45-.044.678a5.554,5.554,0,0,1-.217,1.539,2.388,2.388,0,0,0-.361.461,9.233,9.233,0,0,1-1.933,2.122,1.156,1.156,0,0,1-.884.35c-.45-.094-.794-.739-1.044-1.2-.095-.178-.184-.345-.273-.478-.227-.333-.066-.978.039-1.406a2.022,2.022,0,0,0,.1-.627,2.486,2.486,0,0,0-.333-.745,3.081,3.081,0,0,1-.494-1.25,2.084,2.084,0,0,0-.5-1.783,1.437,1.437,0,0,0-1.428-.289c-1.123.3-2.756-.6-3.639-1.072-.117-.067-.228-.123-.328-.178-.067-.034-.2-.234-.239-.739a5.158,5.158,0,0,1,1.311-3.867,5.209,5.209,0,0,1,4.161-.667c1.456.845,1.823.834,2.4.728A2.9,2.9,0,0,1,21.616,15.274Z" transform="translate(-1.054 -0.751)" style="fill:#a2acff"/><path d="M16.894,13.2a16.7,16.7,0,0,1,2.322-.145l.234.011c1.416.05,2.755.1,3.133.634a.766.766,0,0,1,.167.733c-.117.194-.511.267-1.05.2a3.444,3.444,0,0,0-1.228.028c-.4.072-.639.116-1.956-.65a4.156,4.156,0,0,0-2.178-.228l-.05-.517C16.477,13.241,16.677,13.219,16.894,13.2Z" transform="translate(-1.054 -0.751)" style="fill:#fff"/><path d="M15.238,12.585a9.722,9.722,0,0,1,2.634-1.822,1.268,1.268,0,0,0,.772-1.428,2.006,2.006,0,0,1,.028-.527c.022-.062.294-.284,1.189-.45A6.162,6.162,0,0,1,21.4,8.235a.688.688,0,0,0,.661-.272,1.843,1.843,0,0,0,.1-1.661c-.139-.328.2-.9.333-1.078.006,0,.006-.017.011-.022a13.639,13.639,0,0,1,8.762,8.645.675.675,0,0,0-.206.144A2.849,2.849,0,0,0,30.678,16a3.076,3.076,0,0,1-.006.405,10.42,10.42,0,0,1-.722-.989c-.056-.083-.111-.161-.161-.233a2.819,2.819,0,0,0-2.923-.961c-.65.122-1.022.411-1,.772s.389.567,1.1.617c.284.016.478.089.517.189.05.133-.044.55-.733,1.277a.677.677,0,0,1-.45.262c-.278,0-.611-.339-.967-.7a4.7,4.7,0,0,0-1-.856.55.55,0,0,0-.594-.056l-1.412-.433a1.174,1.174,0,0,0,.978-.528,1.339,1.339,0,0,0-.189-1.439c-.561-.8-1.989-.855-3.639-.911l-.239-.011a16.23,16.23,0,0,0-2.416.145,7.267,7.267,0,0,1-1.606.083A.187.187,0,0,1,15.238,12.585Z" transform="translate(-1.054 -0.751)" style="fill:#a2acff"/><path d="M16.344,5.846c.694-.077.867-.816.861-1.194,0-.011,0-.028,0-.039.383-.033.766-.056,1.161-.056a13.6,13.6,0,0,1,2.394.217c-.066.045-.7.5-1.05.722a6.343,6.343,0,0,1-1.044.217,6.485,6.485,0,0,0-2.289.611,9.49,9.49,0,0,1-2.073.989.539.539,0,0,1-.472-.033.518.518,0,0,1,.1-.111c.05-.039.1-.084.15-.128A4.116,4.116,0,0,1,16.344,5.846Z" transform="translate(-1.054 -0.751)" style="fill:#a2acff"/><path d="M25.639,24.819a7.117,7.117,0,0,0-.589,1.406.978.978,0,0,0,.089.889.605.605,0,0,0,.5.244,1.113,1.113,0,0,0,.906-.589,5.148,5.148,0,0,0,.611-2.389c-.111-.45-.383-.522-.533-.522C26.311,23.858,26.005,24.158,25.639,24.819ZM12.972,20.6c1.027.561,2.744,1.494,4.116,1.133a.811.811,0,0,1,.812.128,1.469,1.469,0,0,1,.311,1.178,2.949,2.949,0,0,0,.561,1.7,4.309,4.309,0,0,1,.255.5,2.4,2.4,0,0,1-.083.395A2.465,2.465,0,0,0,19,27.569c.066.1.15.25.233.411.317.584.744,1.389,1.494,1.539a1.858,1.858,0,0,0,.245.022,1.91,1.91,0,0,0,1.178-.5,9.775,9.775,0,0,0,2.061-2.261,2.5,2.5,0,0,1,.25-.339c.311-.267.372-.928.439-1.989.011-.233.028-.45.044-.656A5.025,5.025,0,0,1,26.044,22a10.329,10.329,0,0,0,1.089-1.589c.15-.3.267-.611.1-.856s-.5-.2-.784-.161c-.255.034-.55.078-.689-.061a8.392,8.392,0,0,1-.983-1.594,8.419,8.419,0,0,1-.533-1.234,6.234,6.234,0,0,1,.627.589c.456.461.884.9,1.439.895a1.254,1.254,0,0,0,.917-.467c.767-.806,1.061-1.467.867-1.956-.095-.25-.361-.555-1.078-.611a2.252,2.252,0,0,1-.272-.028,2.546,2.546,0,0,1,.25-.066,2.2,2.2,0,0,1,2.261.689c.05.072.105.15.155.227.573.85.962,1.4,1.373,1.4a.5.5,0,0,0,.15-.027c.394-.128.422-.667.4-1.184a3.106,3.106,0,0,1,.15-1.433,13.825,13.825,0,0,1,.494,3.639A13.61,13.61,0,0,1,7.705,26.636a.32.32,0,0,0,.289-.411,4.3,4.3,0,0,1,.233-2.589,2.054,2.054,0,0,0-.45-2.234,5.747,5.747,0,0,0-1.5-1.139c-.433-.238-.472-1.477-.5-2.377-.011-.278-.017-.539-.033-.784a1.8,1.8,0,0,0-.756-1.45A13.516,13.516,0,0,1,6.177,12.1c.006,0,.006,0,.006.005a.341.341,0,0,0,.2.067.313.313,0,0,0,.255-.128A7.566,7.566,0,0,1,8.7,10.058c1.3-.339,2.606-.762,3.05-1.795a2.818,2.818,0,0,0,.006-1.994,13.488,13.488,0,0,1,4.8-1.589c0,.089-.033.489-.289.516a4.782,4.782,0,0,0-2.622,1.35l-.145.128a.688.688,0,0,0-.244.917A.957.957,0,0,0,14.1,8a1.254,1.254,0,0,0,.423-.072,10.018,10.018,0,0,0,2.211-1.067,6.593,6.593,0,0,1,2.028-.505,4.069,4.069,0,0,0,1.3-.317c.373-.245,1.05-.728,1.078-.745a.324.324,0,0,0,.089-.433c.211.044.417.094.622.15a1.788,1.788,0,0,0-.289,1.545,1.232,1.232,0,0,1-.022,1c-.022.028-.028.028-.044.028a6.683,6.683,0,0,0-1.8.133c-1.017.2-1.562.506-1.662.934a2.5,2.5,0,0,0-.044.694c.011.456,0,.65-.378.811a9.418,9.418,0,0,0-2.961,2.128.65.65,0,0,0-.006.706c.239.344.778.344,1.639.266l.05.517a5.618,5.618,0,0,0-2.7.939c-1.166.872-1.672,3.178-1.572,4.439.05.667.25,1.089.589,1.267C12.749,20.475,12.855,20.536,12.972,20.6Z" transform="translate(-1.054 -0.751)" style="fill:#fff"/><path d="M7.121,10.491A13.768,13.768,0,0,1,11.183,6.6a2.128,2.128,0,0,1-.034,1.406C10.855,8.7,9.927,9.063,8.533,9.43A3.893,3.893,0,0,0,7.121,10.491Z" transform="translate(-1.054 -0.751)" style="fill:#a2acff"/><path d="M5.96,20.836c1.484.822,2.028,1.661,1.667,2.555A5.04,5.04,0,0,0,7.305,26.1a13.542,13.542,0,0,1-2.556-7.933,13.988,13.988,0,0,1,.117-1.75,1.44,1.44,0,0,1,.228.728c.011.227.022.489.027.755C5.16,19.141,5.205,20.413,5.96,20.836Z" transform="translate(-1.054 -0.751)" style="fill:#a2acff"/></g><path d="M15.865,21.838" transform="translate(-1.054 -0.751)" style="fill:none;stroke:#2a5082;stroke-miterlimit:10;stroke-width:1.2190521301083652px"/><path d="M2.011,15.683a16.407,16.407,0,0,0,13.54,18.875" transform="translate(-1.054 -0.751)" style="fill:none;stroke:#36384b;stroke-miterlimit:10;stroke-width:0.5555702799008344px"/><path d="M34.75,18.064A16.429,16.429,0,0,0,20.985,2.214" transform="translate(-1.054 -0.751)" style="fill:none;stroke:#36384b;stroke-miterlimit:10;stroke-width:0.5555702799008344px"/><path d="M14.9,2.047A16.835,16.835,0,0,0,5.319,7.794" transform="translate(-1.054 -0.751)" style="fill:none;stroke:#36384b;stroke-miterlimit:10;stroke-width:0.5555702799008344px"/><circle cx="0.324" cy="7.729" r="0.324" style="fill:#a9ffd6"/><rect x="2.009" y="9.159" width="0.324" height="0.648" style="fill:#36384b"/><rect x="2.009" y="10.779" width="0.324" height="0.648" style="fill:#36384b"/><rect x="2.657" y="10.131" width="0.648" height="0.324" style="fill:#36384b"/><polyline points="1.038 10.131 1.685 10.131 1.685 10.455 1.038 10.455" style="fill:#36384b"/><circle cx="16.687" cy="0.648" r="0.648" style="fill:#a9ffd6"/><path d="M33.667,18.251s-7.078,3.265-8.967,6.411a10.321,10.321,0,0,0-.826,8.208h0c.428.053,6.075.894,8.267-3.434C34.285,25.2,33.667,18.251,33.667,18.251Z" transform="translate(-1.054 -0.751)" style="fill:#a9ffd6;stroke:#36384b;stroke-linecap:round;stroke-linejoin:round;stroke-width:0.5627701520663703px"/><path d="M23.985,32.862c1.292-.857,3.395-2.418,5.989-9.224" transform="translate(-1.054 -0.751)" style="fill:none;stroke:#36384b;stroke-linecap:round;stroke-miterlimit:10;stroke-width:0.5627701520663703px"/><path d="M11.784,26.544s6.175-.594,8.735.813a8.218,8.218,0,0,1,3.858,5.315h0c-.274.207-3.82,3.05-7.063.951C14.143,31.572,11.784,26.544,11.784,26.544Z" transform="translate(-1.054 -0.751)" style="fill:#a9ffd6;stroke:#36384b;stroke-linecap:round;stroke-linejoin:round;stroke-width:0.5555702799008344px"/><path d="M17.1,30.028c2.462,1.909,4.576,2.917,7.081,2.791" transform="translate(-1.054 -0.751)" style="fill:none;stroke:#36384b;stroke-linecap:round;stroke-miterlimit:10;stroke-width:0.5555702799008344px"/><rect x="31.185" y="32.23" width="0.324" height="0.648" style="fill:#36384b"/><rect x="31.185" y="33.85" width="0.324" height="0.648" style="fill:#36384b"/><rect x="31.833" y="33.202" width="0.648" height="0.324" style="fill:#36384b"/><polyline points="30.214 33.202 30.861 33.202 30.861 33.526 30.214 33.526" style="fill:#36384b"/></svg>