<svg xmlns="http://www.w3.org/2000/svg" viewBox="0 0 72 72"><title>Artboard 32</title><g id="Layer_1" data-name="Layer 1"><ellipse cx="33.859" cy="39.842" rx="26.195" ry="18.351" style="fill:#a9ffd6"/><path d="M52.083,38.246l.158-.022a5.358,5.358,0,0,0,3.141-1.357l.076-.108.192-.352a1.326,1.326,0,0,1,.274-.342,6.745,6.745,0,0,0,.741-1,7.547,7.547,0,0,0,.542-6.551c-1.672-4.646-6.2-5.716-9.871-5.741-.536,0-5.926.1-15.723,4.253l-.415.182c-10.106,4.506-13.967,8.422-14.1,8.571-2.59,2.819-4.932,6.946-2.661,11.36A7.291,7.291,0,0,0,20.8,51.279l.432.015.071-.015a.78.78,0,0,1,.3-.016l.164.153v-.147a6,6,0,0,0,3.113-1.252l.1-.087a83.12,83.12,0,0,1,13.024-7.212A75.338,75.338,0,0,1,52.083,38.246Zm-1.725-9.735a1.11,1.11,0,1,1-1.223,1.1A1.169,1.169,0,0,1,50.358,28.511ZM45.946,32.47a.826.826,0,1,1-.921.821A.877.877,0,0,1,45.946,32.47ZM40.84,28.117a1.11,1.11,0,1,1-1.224,1.1A1.169,1.169,0,0,1,40.84,28.117ZM23.35,43.77a1.446,1.446,0,1,1,1.582-1.44A1.517,1.517,0,0,1,23.35,43.77ZM30.316,37.9a2.343,2.343,0,1,1,2.539-2.335A2.445,2.445,0,0,1,30.316,37.9Zm6.057-.888a.927.927,0,1,1,.921.82A.877.877,0,0,1,36.373,37.01Z" style="fill:#a2acff"/><ellipse cx="40.84" cy="29.221" rx="1.223" ry="1.104" style="fill:#fff"/><path d="M23.35,40.891a1.446,1.446,0,1,0,1.582,1.439A1.517,1.517,0,0,0,23.35,40.891Z" style="fill:#fff"/><path d="M50.358,28.511a1.11,1.11,0,1,0,1.223,1.1A1.169,1.169,0,0,0,50.358,28.511Z" style="fill:#36384b"/><path d="M46.866,33.291a.927.927,0,1,0-.92.82A.877.877,0,0,0,46.866,33.291Z" style="fill:#36384b"/><path d="M38.214,37.01a.927.927,0,1,0-.92.82A.876.876,0,0,0,38.214,37.01Z" style="fill:#fff"/><ellipse cx="30.316" cy="35.563" rx="2.539" ry="2.335" style="fill:#36384b"/><path d="M67.038,27.883h0a.626.626,0,0,0-.688-.548l-8.142.939-.311-.618A8.7,8.7,0,0,0,54.913,23.8l-.67-.481,3.815-6.39a.625.625,0,0,0-.216-.854.627.627,0,0,0-.474-.068.611.611,0,0,0-.377.283l-3.876,6.488-.686-.231a15.934,15.934,0,0,0-4.978-.722l-.885-.008-.02-7.19a.622.622,0,0,0-.622-.621.631.631,0,0,0-.441.183.616.616,0,0,0-.18.439l.02,7.3-.764.115a42.614,42.614,0,0,0-5.7,1.332L38,23.637l-2.245-7.58a.623.623,0,0,0-1.194.353l2.257,7.614-.8.284c-1.171.409-2.327.846-3.535,1.334l-.8.324,0-.01-1.737.758-.379-.763-3.8-6.432a.616.616,0,0,0-.381-.286.622.622,0,0,0-.691.919l4.174,7.074-.873.424c-1.916.936-3.677,1.885-5.237,2.823l-.711.427-.481-.674-4.911-5.759a.621.621,0,0,0-.425-.217.7.7,0,0,0-.451.148.625.625,0,0,0-.069.879l5.345,6.251-.819.564a25.807,25.807,0,0,0-3.351,2.67l-.606.592-.625-.572a.913.913,0,0,0-.1-.078l-6.4-3.933a.643.643,0,0,0-.473-.075.621.621,0,0,0-.382.279.608.608,0,0,0-.075.469.617.617,0,0,0,.279.387l7.071,4.344-.593.788a11.891,11.891,0,0,0-2.146,4.312l-.181.757L5.53,41.355a.622.622,0,0,0-.677.561.61.61,0,0,0,.138.454.62.62,0,0,0,.421.223l7.138.679.067.741a9.283,9.283,0,0,0,.963,3.281l.358.72L7.547,52.12a.629.629,0,0,0-.272.392.619.619,0,0,0,.084.467.639.639,0,0,0,.86.188l6.373-4.095.511.546a8.248,8.248,0,0,0,4.791,2.487l.853.126-.738,6.7a.622.622,0,0,0,.133.459.616.616,0,0,0,.417.228h.008a.615.615,0,0,0,.678-.55l.761-6.893.644-.127a5.9,5.9,0,0,0,2.8-1.329c.073-.054,1.34-.98,3.687-2.408l1.1-.669,1.527,7.992a.62.62,0,0,0,1.123.232.61.61,0,0,0,.1-.467l-1.409-7.38a.634.634,0,0,0-.053-.143l-.363-.76.736-.41c1.916-1.066,3.882-2.062,5.843-2.962l.837-.386,3.164,7.427a.636.636,0,0,0,.813.328.615.615,0,0,0,.336-.341.621.621,0,0,0-.005-.477L39.73,42.9l.866-.334c1.951-.754,3.951-1.445,5.945-2.051l.614-.186.374.519L52.186,46.8a.638.638,0,0,0,.874.107.626.626,0,0,0,.232-.414.607.607,0,0,0-.128-.457L48.4,39.955l1.323-.346c1.416-.366,2.354-.564,2.608-.617A6.118,6.118,0,0,0,55.5,37.68l.519-.4,5.7,3.975a.649.649,0,0,0,.866-.153.626.626,0,0,0-.155-.868l-5.543-3.864.544-.837a8.125,8.125,0,0,0,1.21-5.181l-.1-.888,7.94-.893a.622.622,0,0,0,.548-.687Zm-10.617,6.93a7.119,7.119,0,0,1-.767,1.041,1.782,1.782,0,0,0-.249.238l-.14.2-.026-.018a5,5,0,0,1-2.961,1.47l-.144.021a80.839,80.839,0,0,0-14.317,4.578A80.265,80.265,0,0,0,24.72,49.7l-.087.075a4.91,4.91,0,0,1-2.888,1.149l-.085.007-.143-.017a.575.575,0,0,0-.2.016l-.2.019A6.932,6.932,0,0,1,14.771,46.9c-2.331-4.528.061-8.087,2.708-10.97.135-.152,3.48-3.835,13.681-8.383l.417-.183c9.843-4.177,14.871-4.3,15.412-4.3,3.709.025,8.186.667,9.909,5.459A6.8,6.8,0,0,1,56.421,34.813Z" style="fill:#36384b"/><rect x="40.548" y="7.869" width="0.583" height="1.166" style="fill:#36384b"/><rect x="40.548" y="10.784" width="0.583" height="1.166" style="fill:#36384b"/><rect x="41.714" y="9.618" width="1.166" height="0.583" style="fill:#36384b"/><polyline points="38.799 9.618 39.965 9.618 39.965 10.201 38.799 10.201" style="fill:#36384b"/><rect x="12.282" y="60.89" width="0.583" height="1.166" style="fill:#36384b"/><rect x="12.282" y="63.805" width="0.583" height="1.166" style="fill:#36384b"/><rect x="13.448" y="62.639" width="1.166" height="0.583" style="fill:#36384b"/><polyline points="10.532 62.639 11.699 62.639 11.699 63.222 10.532 63.222" style="fill:#36384b"/><rect x="62.22" y="55.224" width="0.583" height="1.166" style="fill:#36384b"/><rect x="62.22" y="58.139" width="0.583" height="1.166" style="fill:#36384b"/><rect x="63.386" y="56.973" width="1.166" height="0.583" style="fill:#36384b"/><polyline points="60.471 56.973 61.637 56.973 61.637 57.556 60.471 57.556" style="fill:#36384b"/><circle cx="32.855" cy="11.114" r="1.166" style="fill:#a9ffd6"/><circle cx="49.883" cy="58.162" r="0.583" style="fill:#a9ffd6"/></g></svg>