<svg id="Layer_1" data-name="Layer 1" xmlns="http://www.w3.org/2000/svg" viewBox="0 0 32.86 28.057"><title>icon-</title><ellipse cx="14.415" cy="18.094" rx="14.222" ry="9.963" style="fill:#a9ffd6"/><polygon points="5.579 21.422 28.948 21.422 30.372 20.381 30.372 11.445 28.79 10 28.948 7.08 27.522 5.723 6.756 6.085 5.851 7.668 5.851 10.168 4.675 11.445 4.675 20.472 5.579 21.422" style="fill:#a3acff"/><rect x="8.161" y="14.448" width="18.618" height="3.239" rx="1.619" ry="1.619" style="fill:#fff"/><path d="M31.287,14.09l-.126-.051V11.614A1.867,1.867,0,0,0,29.3,9.75H9.255A1.867,1.867,0,0,0,7.39,11.614v2.422l-.127.051a1.859,1.859,0,0,0-1.17,1.73v8.145a1.858,1.858,0,0,0,1.674,1.855,1.728,1.728,0,0,0,.19.01h.527V26.6h1.661v-.776H28.4V26.6h1.661v-.776h.527a1.876,1.876,0,0,0,1.624-.95l.047-.089a1.93,1.93,0,0,0,.11-.271,1.981,1.981,0,0,0,.064-.292,1.807,1.807,0,0,0,.02-.263V15.817A1.86,1.86,0,0,0,31.287,14.09ZM8.017,11.614a1.239,1.239,0,0,1,1.238-1.237H29.3a1.239,1.239,0,0,1,1.238,1.237v2.337h-.725a1.868,1.868,0,0,0-1.865,1.866v2.261l-.267-.089a1.877,1.877,0,0,0-.583-.094H11.448a1.886,1.886,0,0,0-.583.094l-.267.089V15.817a1.868,1.868,0,0,0-1.865-1.866H8.017ZM28.331,19.76v.517a1.239,1.239,0,0,1-1.238,1.238H11.448a1.239,1.239,0,0,1-1.238-1.238V19.76a1.239,1.239,0,0,1,1.238-1.238H27.093A1.239,1.239,0,0,1,28.331,19.76Zm3.491,4.2a1.342,1.342,0,0,1-.014.174,1.365,1.365,0,0,1-.041.193,1.307,1.307,0,0,1-.07.173l-.026.053a1.239,1.239,0,0,1-1.087.645H7.957a1.086,1.086,0,0,1-.128-.007A1.232,1.232,0,0,1,6.72,23.962V15.817a1.239,1.239,0,0,1,1.237-1.238h.776a1.239,1.239,0,0,1,1.238,1.238v2.807l-.038.053a1.848,1.848,0,0,0-.35,1.083v.517a1.867,1.867,0,0,0,1.865,1.865H27.093a1.866,1.866,0,0,0,1.865-1.865V19.76a1.854,1.854,0,0,0-.349-1.083l-.038-.053V15.817a1.239,1.239,0,0,1,1.237-1.238h.776a1.239,1.239,0,0,1,1.238,1.238Z" transform="translate(-1.806 -4.02)" style="fill:#36384b"/><rect x="28.79" width="0.317" height="0.633" style="fill:#36384b"/><rect x="28.79" y="1.583" width="0.317" height="0.633" style="fill:#36384b"/><rect x="29.423" y="0.95" width="0.633" height="0.317" style="fill:#36384b"/><polyline points="27.84 0.95 28.473 0.95 28.473 1.266 27.84 1.266" style="fill:#36384b"/><circle cx="24.513" cy="2.849" r="0.633" style="fill:#a9ffd6"/><circle cx="32.544" cy="4.343" r="0.317" style="fill:#a9ffd6"/><rect x="0.95" y="7.952" width="0.317" height="0.633" style="fill:#36384b"/><rect x="0.95" y="9.535" width="0.317" height="0.633" style="fill:#36384b"/><rect x="1.583" y="8.902" width="0.633" height="0.317" style="fill:#36384b"/><polyline points="0 8.902 0.633 8.902 0.633 9.219 0 9.219" style="fill:#36384b"/><circle cx="1.583" cy="12.078" r="0.633" style="fill:#a9ffd6"/><rect x="4.563" y="10.168" width="3.933" height="3.513" rx="1.756" ry="1.756" style="fill:#fff"/><path d="M8.545,17.973h-.42a2.028,2.028,0,0,1,0-4.056h.42a2.028,2.028,0,1,1,0,4.056Zm-.42-3.514a1.486,1.486,0,0,0,0,2.971h.42a1.486,1.486,0,1,0,0-2.971Z" transform="translate(-1.806 -4.02)" style="fill:#36384b"/><rect x="26.439" y="10.168" width="3.933" height="3.513" rx="1.756" ry="1.756" style="fill:#fff"/><path d="M30.422,17.973H30a2.028,2.028,0,1,1,0-4.056h.42a2.028,2.028,0,1,1,0,4.056ZM30,14.459a1.486,1.486,0,0,0,0,2.971h.42a1.486,1.486,0,0,0,0-2.971Z" transform="translate(-1.806 -4.02)" style="fill:#36384b"/><rect x="19.718" y="23.442" width="0.317" height="0.633" style="fill:#36384b"/><rect x="19.718" y="25.025" width="0.317" height="0.633" style="fill:#36384b"/><rect x="20.351" y="24.391" width="0.633" height="0.317" style="fill:#36384b"/><polyline points="18.769 24.391 19.402 24.391 19.402 24.708 18.769 24.708" style="fill:#36384b"/><path d="M19.33,15.737a.271.271,0,0,1-.271-.272v-2.86a.272.272,0,0,1,.543,0v2.86A.272.272,0,0,1,19.33,15.737Z" transform="translate(-1.806 -4.02)" style="fill:#36384b"/></svg>