<svg xmlns="http://www.w3.org/2000/svg" viewBox="0 0 72 72"><title>Artboard 37 copy</title><g id="Layer_1" data-name="Layer 1"><ellipse cx="31.384" cy="50.867" rx="26.195" ry="18.351" style="fill:#a9ffd6"/><rect x="16.345" y="6.56" width="40.795" height="53.281" style="fill:#fff"/><path d="M57.641,60.341h-41.8V6.06h41.8Zm-40.8-1h39.8V7.06h-39.8Z" style="fill:#36384b"/><polygon points="54.887 57.588 14.092 57.588 14.092 4.307 46.742 4.307 54.887 12.552 54.887 57.588" style="fill:#fff"/><path d="M21.047,17.131H25.7a1.045,1.045,0,0,0,1.039-1.177c-.263-2.03-1.229-3.086-2.474-3.407a2,2,0,1,0-1.778,0c-1.245.321-2.211,1.377-2.475,3.407A1.047,1.047,0,0,0,21.047,17.131Z" style="fill:#36384b"/><path d="M49.44,23.276H24.507a.5.5,0,0,1,0-1H49.44a.5.5,0,0,1,0,1Z" style="fill:#36384b"/><path d="M49.44,26.69H24.507a.5.5,0,0,1,0-1H49.44a.5.5,0,0,1,0,1Z" style="fill:#36384b"/><path d="M49.44,30.1H24.507a.5.5,0,0,1,0-1H49.44a.5.5,0,0,1,0,1Z" style="fill:#36384b"/><path d="M49.44,39.618H19.046a.5.5,0,0,1,0-1H49.44a.5.5,0,0,1,0,1Z" style="fill:#36384b"/><path d="M49.44,36.394H19.046a.5.5,0,0,1,0-1H49.44a.5.5,0,0,1,0,1Z" style="fill:#36384b"/><path d="M49.44,43.031H19.046a.5.5,0,0,1,0-1H49.44a.5.5,0,0,1,0,1Z" style="fill:#36384b"/><path d="M49.44,46.445H19.046a.5.5,0,0,1,0-1H49.44a.5.5,0,0,1,0,1Z" style="fill:#36384b"/><path d="M49.44,49.859H19.046a.5.5,0,0,1,0-1H49.44a.5.5,0,0,1,0,1Z" style="fill:#36384b"/><path d="M41.606,11.844H31.384a.5.5,0,0,1,0-1H41.606a.5.5,0,0,1,0,1Z" style="fill:#36384b"/><path d="M44.483,14.54h-13.1a.5.5,0,0,1,0-1h13.1a.5.5,0,0,1,0,1Z" style="fill:#36384b"/><path d="M44.483,17.1h-13.1a.5.5,0,0,1,0-1h13.1a.5.5,0,0,1,0,1Z" style="fill:#36384b"/><polygon points="54.9 12.552 46.742 4.319 46.768 12.578 54.9 12.552" style="fill:#fff"/><path d="M55.387,12.448v-.1l-.115-.117c-.008-.009-.008-.021-.016-.03L51,7.9l-4.047-4.1H13.592V58.088h41.8V12.5A.451.451,0,0,0,55.387,12.448ZM50.263,8.583l3.431,3.474-6.428.019-.02-6.538ZM14.592,57.088V4.807H46.244l.024,7.773a.5.5,0,0,0,.147.353.506.506,0,0,0,.353.145h0l7.617-.024V57.088Z" style="fill:#36384b"/><rect x="8.411" y="30.261" width="0.583" height="1.166" style="fill:#36384b"/><rect x="8.411" y="33.176" width="0.583" height="1.166" style="fill:#36384b"/><rect x="9.577" y="32.01" width="1.166" height="0.583" style="fill:#36384b"/><polyline points="6.661 32.01 7.828 32.01 7.828 32.593 6.661 32.593" style="fill:#36384b"/><rect x="64.182" y="8.636" width="0.583" height="1.166" style="fill:#36384b"/><rect x="64.182" y="11.551" width="0.583" height="1.166" style="fill:#36384b"/><rect x="65.348" y="10.385" width="1.166" height="0.583" style="fill:#36384b"/><polyline points="62.433 10.385 63.599 10.385 63.599 10.968 62.433 10.968" style="fill:#36384b"/><circle cx="65.64" cy="32.884" r="1.166" style="fill:#a9ffd6"/><path d="M49.921,40.654c.559-1.254,3.345-3.926,3.916-4.954,1.141-2.057.194-4.862,2.995-4.862,1.245,0,5.05,3.137-.938,11.268a35.472,35.472,0,0,1,9.183,0,2.768,2.768,0,0,1,2.2,2.393,2.575,2.575,0,0,1-1.321,2.418,2.516,2.516,0,0,1-.155,4.812,2.672,2.672,0,0,1,1.545,2.405,2.5,2.5,0,0,1-2.28,2.406,1.929,1.929,0,0,1,1.346,1.7c0,2.282-1.95,2.839-3.528,3.268a21.572,21.572,0,0,1-6.736.259c-2.956-.207-6.292-1.5-10.534-1.993V46.256A14.021,14.021,0,0,0,49.921,40.654ZM37.262,61.2a.7.7,0,0,0,.7.7h6.957a.7.7,0,0,0,.7-.7V44.85a.7.7,0,0,0-.7-.7H37.958a.7.7,0,0,0-.7.7Z" style="fill:#fff"/><path d="M44.915,62.4H37.958a1.2,1.2,0,0,1-1.2-1.2V44.851a1.2,1.2,0,0,1,1.2-1.2h6.957a1.2,1.2,0,0,1,1.2,1.2v.342a14.647,14.647,0,0,0,3.355-4.743h0A16.359,16.359,0,0,1,51.8,37.417a16.935,16.935,0,0,0,1.6-1.96,6.75,6.75,0,0,0,.619-2.084c.261-1.423.557-3.035,2.814-3.035a3.007,3.007,0,0,1,2.33,1.8c.674,1.334,1.226,4.273-2.22,9.353a33.894,33.894,0,0,1,8.24.126A3.246,3.246,0,0,1,67.773,44.5a3.122,3.122,0,0,1-.881,2.32,3.01,3.01,0,0,1,1.267,2.556A2.735,2.735,0,0,1,66.792,51.8a3.088,3.088,0,0,1,1.051,2.332A2.882,2.882,0,0,1,66.212,56.7a2.063,2.063,0,0,1,.7,1.542c0,2.69-2.345,3.328-3.9,3.751a21.681,21.681,0,0,1-6.9.276,31.313,31.313,0,0,1-4.821-.891,52.691,52.691,0,0,0-5.179-1.034V61.2A1.2,1.2,0,0,1,44.915,62.4Zm1.2-3.059a52.868,52.868,0,0,1,5.41,1.07,29.9,29.9,0,0,0,4.661.866,20.878,20.878,0,0,0,6.569-.242c1.79-.487,3.159-1,3.159-2.786,0-.186,0-.754-1.058-1.252l-1.537-.722L65,56.045a2.007,2.007,0,0,0,1.846-1.911,2.183,2.183,0,0,0-1.269-1.958l-1.034-.518,1.085-.4A2.017,2.017,0,0,0,65.8,47.4l-1.057-.331.946-.575a2.081,2.081,0,0,0,1.08-1.99,2.284,2.284,0,0,0-1.8-1.9,35.044,35.044,0,0,0-9.018.007l-1.152.142.688-.935C59.33,36.6,58.88,33.8,58.27,32.589a2.126,2.126,0,0,0-1.438-1.251c-1.366,0-1.549.68-1.831,2.216a7.638,7.638,0,0,1-.727,2.388,16.283,16.283,0,0,1-1.721,2.137,16.548,16.548,0,0,0-2.175,2.779h0a14.9,14.9,0,0,1-4.267,5.651ZM37.958,44.654a.2.2,0,0,0-.2.2V61.2a.2.2,0,0,0,.2.2h6.957a.2.2,0,0,0,.2-.2V44.851a.2.2,0,0,0-.2-.2Z" style="fill:#36384b"/><rect x="37.763" y="44.654" width="7.348" height="16.74" rx="0.22" style="fill:#a2acff"/><path d="M20.505,28.675,19.3,29.91l-.528-.547a.293.293,0,0,0-.421.407l.738.763a.292.292,0,0,0,.21.089h0a.289.289,0,0,0,.209-.088l1.413-1.451a.293.293,0,0,0-.42-.408Z" style="fill:#36384b"/><path d="M20.505,25.261,19.3,26.5l-.528-.547a.293.293,0,0,0-.421.407l.738.763a.292.292,0,0,0,.21.089h0a.289.289,0,0,0,.209-.088l1.413-1.451a.293.293,0,0,0-.42-.408Z" style="fill:#36384b"/><path d="M20.505,21.847l-1.2,1.235-.528-.547a.293.293,0,0,0-.421.407l.738.763a.292.292,0,0,0,.21.089h0a.289.289,0,0,0,.209-.088l1.413-1.45a.293.293,0,0,0-.42-.409Z" style="fill:#36384b"/></g></svg>