<svg xmlns="http://www.w3.org/2000/svg" viewBox="0 0 72 72"><title>Artboard 33</title><g id="Layer_1" data-name="Layer 1"><rect x="22.375" y="24.625" width="27.305" height="25.932" style="fill:#a2acff"/><circle cx="35.944" cy="38.16" r="9.698" style="fill:#fff"/><path d="M27.937,38.16l3.433-1.472,3.567.9,4.017,1.847H42l2.02-1.376c-.3,4.563-2.988,7.271-7.989,8.188C31.321,45.918,28.857,42.946,27.937,38.16Z" style="fill:#fff"/><circle cx="45.74" cy="21.24" r="0.948" style="fill:#a2acff"/><ellipse cx="28.562" cy="21.25" rx="3.562" ry="0.708" style="fill:#a2acff"/><path d="M61.329,25.845A27.066,27.066,0,0,0,49.68,12.156l.5-.865a28.075,28.075,0,0,1,12.08,14.2Z" style="fill:#36384b"/><path d="M63.636,35.538l-1,0A26.449,26.449,0,0,1,41.708,61.318l-.437-2.2-2.933,3.485,4,1.865L41.9,62.3A27.449,27.449,0,0,0,63.636,35.538Z" style="fill:#36384b"/><rect x="61.883" y="29.947" width="0.583" height="1.166" transform="translate(30.836 92.301) rotate(-89.253)" style="fill:#36384b"/><rect x="58.968" y="29.909" width="0.583" height="1.166" transform="translate(27.997 89.349) rotate(-89.253)" style="fill:#36384b"/><rect x="60.115" y="31.677" width="1.166" height="0.583" transform="translate(27.94 92.244) rotate(-89.253)" style="fill:#36384b"/><rect x="60.153" y="28.762" width="1.166" height="0.583" transform="translate(30.893 89.405) rotate(-89.253)" style="fill:#36384b"/><path d="M38.954,8.53,35.525,5.755,35.418,8A27.5,27.5,0,0,0,8.7,35.368v.17A27.387,27.387,0,0,0,12.95,50.1l.806-.594A26.391,26.391,0,0,1,9.7,35.536V35.37A26.5,26.5,0,0,1,35.37,9l-.1,2.2Z" style="fill:#36384b"/><path d="M18.484,56.481A27.32,27.32,0,0,0,31.19,62.474l.18-.985a26.312,26.312,0,0,1-12.192-5.734Z" style="fill:#36384b"/><rect x="15.694" y="37.224" width="0.583" height="1.166" transform="translate(-22.027 53.298) rotate(-89.253)" style="fill:#36384b"/><rect x="12.779" y="37.186" width="0.583" height="1.166" transform="translate(-24.866 50.346) rotate(-89.253)" style="fill:#36384b"/><rect x="13.926" y="38.954" width="1.166" height="0.583" transform="translate(-24.923 53.241) rotate(-89.253)" style="fill:#36384b"/><rect x="13.964" y="36.039" width="1.166" height="0.583" transform="translate(-21.971 50.402) rotate(-89.253)" style="fill:#36384b"/><path d="M5.326,38.938C3.162,26.029,11.418,11.868,23.731,7.369l.343.94C12.191,12.65,4.224,26.315,6.312,38.771Z" style="fill:#36384b"/><path d="M46.7,63.6l-.2-.981c10.643-2.163,16.421-11.512,18.135-18.86l.973.226C63.831,51.621,57.81,61.34,46.7,63.6Z" style="fill:#36384b"/><circle cx="17.436" cy="32.729" r="0.583" style="fill:#a9ffd6"/><circle cx="44.792" cy="11.291" r="1.166" style="fill:#a9ffd6"/><path d="M45.481,34.151a10.311,10.311,0,1,0,.81,4.006A10.277,10.277,0,0,0,45.481,34.151Zm-.29,4.006A9.191,9.191,0,1,1,36,28.966,9.2,9.2,0,0,1,45.191,38.157Z" style="fill:#36384b"/><path d="M43.8,34.863a8.488,8.488,0,1,0,.665,3.294A8.425,8.425,0,0,0,43.8,34.863ZM30.476,37.67a7.061,7.061,0,0,1,5.25.964A8.807,8.807,0,0,0,40.135,39.9a7.1,7.1,0,0,0,1.69-.2,6.884,6.884,0,0,0,1.468-.537,7.361,7.361,0,0,1-14.647-.709A5.619,5.619,0,0,1,30.476,37.67Zm11.048.975a7.077,7.077,0,0,1-5.25-.964,8.772,8.772,0,0,0-4.408-1.27,7.138,7.138,0,0,0-1.691.2,6.884,6.884,0,0,0-1.468.537,7.361,7.361,0,0,1,14.647.709A5.593,5.593,0,0,1,41.524,38.645Z" style="fill:#36384b"/><path d="M48.354,17.471H23.646a1.883,1.883,0,0,0-1.882,1.882v30.42a1.883,1.883,0,0,0,1.882,1.882H48.354a1.883,1.883,0,0,0,1.882-1.882V19.353A1.883,1.883,0,0,0,48.354,17.471ZM22.863,25.02H49.137V49.773a.784.784,0,0,1-.783.784H23.646a.784.784,0,0,1-.783-.784Zm0-5.667a.784.784,0,0,1,.783-.784H48.354a.784.784,0,0,1,.783.784v4.568H22.863Z" style="fill:#36384b"/><path d="M31.476,19.9H25.552a1.347,1.347,0,0,0,0,2.694h5.924a1.347,1.347,0,0,0,0-2.694Zm.248,1.347a.248.248,0,0,1-.248.248H25.552a.248.248,0,0,1,0-.5h5.924A.248.248,0,0,1,31.724,21.245Z" style="fill:#36384b"/><path d="M45.643,19.623a1.622,1.622,0,1,0,1.622,1.622A1.625,1.625,0,0,0,45.643,19.623Zm.523,1.622a.524.524,0,1,1-.523-.523A.524.524,0,0,1,46.166,21.245Z" style="fill:#36384b"/></g></svg>