<svg id="Layer_1" data-name="Layer 1" xmlns="http://www.w3.org/2000/svg" viewBox="0 0 31.11 32.006"><title>icon-nationwide</title><ellipse cx="17.494" cy="20.721" rx="13.616" ry="9.539" style="fill:#a9ffd6"/><polygon points="0.26 27.919 9.922 23.509 19.176 27.733 28.838 23.323 28.838 4.636 19.176 9.047 9.922 4.823 0.26 9.233 0.26 27.919" style="fill:#fff;stroke:#36384b;stroke-miterlimit:10;stroke-width:0.5198041304723802px"/><line x1="19.176" y1="9.047" x2="19.176" y2="27.733" style="fill:none;stroke:#36384b;stroke-miterlimit:10;stroke-width:0.5198041304723802px"/><line x1="9.922" y1="23.509" x2="9.922" y2="4.823" style="fill:none;stroke:#36384b;stroke-miterlimit:10;stroke-width:0.5198041304723802px"/><rect x="27.989" y="29.884" width="0.303" height="0.606" style="fill:#36384b"/><rect x="27.989" y="31.4" width="0.303" height="0.606" style="fill:#36384b"/><rect x="28.595" y="30.794" width="0.606" height="0.303" style="fill:#36384b"/><polyline points="27.08 30.794 27.686 30.794 27.686 31.097 27.08 31.097" style="fill:#36384b"/><rect x="2.02" y="2.453" width="0.303" height="0.606" style="fill:#36384b"/><rect x="2.02" y="3.969" width="0.303" height="0.606" style="fill:#36384b"/><rect x="2.626" y="3.362" width="0.606" height="0.303" style="fill:#36384b"/><polyline points="1.11 3.362 1.716 3.362 1.716 3.665 1.11 3.665" style="fill:#36384b"/><circle cx="30.294" cy="27.313" r="0.303" style="fill:#a9ffd6"/><path d="M4.077,13.65c.173.391.348.769.531,1.132" transform="translate(-2.315 -1.867)" style="fill:none;stroke:#36384b;stroke-miterlimit:10;stroke-width:0.5198041304723802px"/><path d="M5.184,15.824a7.158,7.158,0,0,0,1.987,2.187" transform="translate(-2.315 -1.867)" style="fill:none;stroke:#36384b;stroke-miterlimit:10;stroke-width:0.5198041304723802px;stroke-dasharray:2.3800015449523926,1.1900007724761963"/><path d="M7.675,18.327a10.436,10.436,0,0,0,5.778.982c2.376-.146,4.692-.075,6.57,1.584,1.875,2.259,4.651,2.847,8.127,2.137,1.8-.812,2.6-2.718,2.884-5.19" transform="translate(-2.315 -1.867)" style="fill:none;stroke:#36384b;stroke-miterlimit:10;stroke-width:0.5198041304723802px;stroke-dasharray:2.3800015449523926,1.1900007724761963,2.3800015449523926,1.1900007724761963"/><path d="M31.092,17.243q.047-.606.061-1.249" transform="translate(-2.315 -1.867)" style="fill:none;stroke:#36384b;stroke-miterlimit:10;stroke-width:0.5198041304723802px"/><path d="M16.864,2.127a7.32,7.32,0,0,0-6.725,10.2c.646,1.505,2.341,3.625,3.152,5.116l3.132,5.76c.244.447.638.447.881,0l3.133-5.76c.811-1.491,2.506-3.611,3.152-5.116a7.32,7.32,0,0,0-6.725-10.2Z" transform="translate(-2.315 -1.867)" style="fill:#a2acff;stroke:#36384b;stroke-miterlimit:10;stroke-width:0.5198041304723802px"/><path d="M21.344,9.141l.5-1.477L20.6,7.993a.528.528,0,0,1-.652-.252l-.13-.39-.994,1c-.21.212-.348.143-.308-.151l.334-2.474-.483.214a.561.561,0,0,1-.72-.273l-.781-1.609L16.083,5.67a.561.561,0,0,1-.72.273l-.483-.214L15.214,8.2c.04.294-.1.363-.308.151l-.994-1-.13.39a.529.529,0,0,1-.653.252l-1.245-.329.5,1.477a.553.553,0,0,1-.163.672l-.337.16,2.126,1.835a.878.878,0,0,1,.286.8l-.124.451,2.156-.251c.121-.014.272-.023.43-.025l-.213,2.41h.638l-.213-2.41c.158,0,.309.011.43.025l2.156.251-.124-.451a.878.878,0,0,1,.286-.8l2.126-1.835-.337-.16A.553.553,0,0,1,21.344,9.141Z" transform="translate(-2.315 -1.867)" style="fill:#fff"/></svg>