<svg id="Layer_1" data-name="Layer 1" xmlns="http://www.w3.org/2000/svg" viewBox="0 0 33.643 31.5"><title>icon-phosphate-free</title><ellipse cx="16.821" cy="19.716" rx="16.821" ry="11.784" style="fill:#a9ffd6"/><path d="M16.343,28.649a.47.47,0,0,1-.241-.066L6.012,22.6a.474.474,0,0,1-.231-.407V10.579a.473.473,0,0,1,.232-.407L16.219,4.13a.473.473,0,0,1,.482,0l10.207,6.042a.475.475,0,0,1,.232.407V22.311a.473.473,0,0,1-.24.411L16.576,28.588A.472.472,0,0,1,16.343,28.649ZM6.726,21.924l9.622,5.706,9.846-5.594V10.849L16.46,5.087,6.726,10.849Z" transform="translate(-1.312 -1.803)" style="fill:#36384b"/><circle cx="16.46" cy="4.722" r="2.503" transform="translate(6.79 17.865) rotate(-76.794)" style="fill:#fff;stroke:#36384b;stroke-miterlimit:10;stroke-width:0.6421553692009618px"/><circle cx="6.253" cy="10.312" r="3.003" transform="translate(-6.525 12.244) rotate(-76.809)" style="fill:#a2acff;stroke:#36384b;stroke-miterlimit:10;stroke-width:0.6421553692009618px"/><circle cx="26.667" cy="10.312" r="1.576" transform="translate(10.921 33.189) rotate(-80.821)" style="fill:#a2acff;stroke:#36384b;stroke-miterlimit:10;stroke-width:0.6421553692009618px"/><circle cx="25.355" cy="20.334" r="3.504" style="fill:#a2acff;stroke:#36384b;stroke-miterlimit:10;stroke-width:0.6421553692009618px"/><circle cx="6.253" cy="22.137" r="2.503" transform="translate(-18.039 21.364) rotate(-76.794)" style="fill:#fff;stroke:#36384b;stroke-miterlimit:10;stroke-width:0.6421553692009618px"/><circle cx="16.28" cy="28.177" r="2.503" transform="translate(-15.445 37.95) rotate(-80.821)" style="fill:#a2acff;stroke:#36384b;stroke-miterlimit:10;stroke-width:0.6421553692009618px"/><rect x="24.695" width="0.374" height="0.749" style="fill:#36384b"/><rect x="24.695" y="1.872" width="0.374" height="0.749" style="fill:#36384b"/><rect x="25.444" y="1.123" width="0.749" height="0.374" style="fill:#36384b"/><polyline points="23.572 1.123 24.321 1.123 24.321 1.498 23.572 1.498" style="fill:#36384b"/><rect x="12.848" y="19.023" width="0.374" height="0.749" style="fill:#36384b"/><rect x="12.848" y="20.895" width="0.374" height="0.749" style="fill:#36384b"/><rect x="13.596" y="20.146" width="0.749" height="0.374" style="fill:#36384b"/><polyline points="11.724 20.146 12.473 20.146 12.473 20.521 11.724 20.521" style="fill:#36384b"/><circle cx="6.409" cy="2.246" r="0.749" style="fill:#a9ffd6"/><circle cx="9.709" cy="2.909" r="0.374" style="fill:#a9ffd6"/></svg>