<svg id="Layer_1" data-name="Layer 1" xmlns="http://www.w3.org/2000/svg" viewBox="0 0 33.408 32.353"><title>icon-replacement-washer</title><rect x="9.584" y="10.398" width="15.045" height="14.288" style="fill:#a2acff"/><circle cx="17.061" cy="17.855" r="5.344" style="fill:#fff"/><path d="M14.242,19.792l1.891-.812,1.966.5L20.312,20.5H21.99l1.113-.758c-.164,2.514-1.646,4.006-4.4,4.511C16.106,24.066,14.748,22.429,14.242,19.792Z" transform="translate(-1.592 -1.936)" style="fill:#fff"/><circle cx="22.458" cy="8.532" r="0.522" style="fill:#a2acff"/><ellipse cx="12.993" cy="8.538" rx="1.963" ry="0.39" style="fill:#a2acff"/><path d="M32.64,13.006a14.91,14.91,0,0,0-6.418-7.542l.277-.477a15.472,15.472,0,0,1,6.656,7.822Z" transform="translate(-1.592 -1.936)" style="fill:#36384b"/><path d="M33.911,18.347l-.551,0A14.572,14.572,0,0,1,21.829,32.552l-.241-1.211-1.616,1.921,2.2,1.027-.238-1.2A15.124,15.124,0,0,0,33.911,18.347Z" transform="translate(-1.592 -1.936)" style="fill:#36384b"/><rect x="32.946" y="15.266" width="0.321" height="0.643" transform="translate(15.496 46.551) rotate(-89.253)" style="fill:#36384b"/><rect x="31.339" y="15.246" width="0.321" height="0.643" transform="translate(13.931 44.925) rotate(-89.253)" style="fill:#36384b"/><rect x="31.971" y="16.22" width="0.643" height="0.321" transform="translate(13.9 46.52) rotate(-89.253)" style="fill:#36384b"/><rect x="31.992" y="14.614" width="0.643" height="0.321" transform="translate(15.527 44.956) rotate(-89.253)" style="fill:#36384b"/><path d="M20.312,3.466l-1.89-1.53-.059,1.238A15.152,15.152,0,0,0,3.639,18.254v.093a15.09,15.09,0,0,0,2.344,8.024l.444-.327a14.536,14.536,0,0,1-2.237-7.7v-.091A14.6,14.6,0,0,1,18.337,3.725l-.058,1.213Z" transform="translate(-1.592 -1.936)" style="fill:#36384b"/><path d="M9.033,29.887a15.055,15.055,0,0,0,7,3.3l.1-.543a14.494,14.494,0,0,1-6.718-3.159Z" transform="translate(-1.592 -1.936)" style="fill:#36384b"/><rect x="7.495" y="19.276" width="0.321" height="0.643" transform="translate(-13.632 25.06) rotate(-89.253)" style="fill:#36384b"/><rect x="5.889" y="19.255" width="0.321" height="0.643" transform="translate(-15.197 23.434) rotate(-89.253)" style="fill:#36384b"/><rect x="6.521" y="20.229" width="0.643" height="0.321" transform="translate(-15.228 25.029) rotate(-89.253)" style="fill:#36384b"/><rect x="6.542" y="18.623" width="0.643" height="0.321" transform="translate(-13.601 23.465) rotate(-89.253)" style="fill:#36384b"/><path d="M1.782,20.22A16.379,16.379,0,0,1,11.924,2.826l.189.518A15.8,15.8,0,0,0,2.326,20.129Z" transform="translate(-1.592 -1.936)" style="fill:#36384b"/><path d="M24.581,33.808l-.11-.54c5.865-1.192,9.048-6.343,9.993-10.392L35,23C34.019,27.209,30.7,32.564,24.581,33.808Z" transform="translate(-1.592 -1.936)" style="fill:#36384b"/><circle cx="6.862" cy="14.863" r="0.321" style="fill:#a9ffd6"/><circle cx="21.936" cy="3.05" r="0.643" style="fill:#a9ffd6"/><path d="M23.908,17.583a5.686,5.686,0,1,0,.446,2.207A5.656,5.656,0,0,0,23.908,17.583Zm-.159,2.207a5.065,5.065,0,1,1-5.065-5.064A5.071,5.071,0,0,1,23.749,19.79Z" transform="translate(-1.592 -1.936)" style="fill:#36384b"/><path d="M22.979,17.975a4.683,4.683,0,1,0,.366,1.815A4.648,4.648,0,0,0,22.979,17.975ZM15.64,19.522a3.89,3.89,0,0,1,2.893.531,4.853,4.853,0,0,0,2.429.7,3.922,3.922,0,0,0,.931-.11,3.776,3.776,0,0,0,.809-.3,4.056,4.056,0,0,1-8.07-.391A3.089,3.089,0,0,1,15.64,19.522Zm6.088.537a3.9,3.9,0,0,1-2.893-.531,4.833,4.833,0,0,0-2.429-.7,3.938,3.938,0,0,0-.931.111,3.776,3.776,0,0,0-.809.3,4.056,4.056,0,0,1,8.07.391A3.111,3.111,0,0,1,21.728,20.059Z" transform="translate(-1.592 -1.936)" style="fill:#36384b"/><path d="M25.491,8.392H11.877A1.038,1.038,0,0,0,10.84,9.429V26.191a1.038,1.038,0,0,0,1.037,1.037H25.491a1.038,1.038,0,0,0,1.037-1.037V9.429A1.038,1.038,0,0,0,25.491,8.392ZM11.445,12.551H25.923v13.64a.432.432,0,0,1-.432.431H11.877a.432.432,0,0,1-.432-.431Zm0-3.122A.433.433,0,0,1,11.877,9H25.491a.433.433,0,0,1,.432.432v2.517H11.445Z" transform="translate(-1.592 -1.936)" style="fill:#36384b"/><path d="M16.191,9.73H12.927a.742.742,0,0,0,0,1.484h3.264a.742.742,0,0,0,0-1.484Zm.137.742a.136.136,0,0,1-.137.136H12.927a.137.137,0,0,1,0-.273h3.264A.137.137,0,0,1,16.328,10.472Z" transform="translate(-1.592 -1.936)" style="fill:#36384b"/><path d="M24,9.578a.894.894,0,1,0,.894.894A.895.895,0,0,0,24,9.578Zm.288.894A.288.288,0,1,1,24,10.183.288.288,0,0,1,24.285,10.472Z" transform="translate(-1.592 -1.936)" style="fill:#36384b"/></svg>