<svg id="Layer_1" data-name="Layer 1" xmlns="http://www.w3.org/2000/svg" viewBox="0 0 61.6 71.9"><defs><style>.cls-1{fill:#c8c8c8;}</style></defs><title>ZH_Icon_Concrete</title><path class="cls-1" d="M1.4,1.6V42.7A30.5,30.5,0,0,0,9.6,63.6h.1A30.8,30.8,0,0,0,63,42.7V1.6ZM41.3,4.5l-9.1,9.7L23.1,4.5ZM24.9,26.2l7.3-7.9,7.4,7.9ZM40.7,29V60.8h-17V29ZM4.2,4.5h14L4.2,17.6Zm0,17L20.7,6.1l9.6,10.2L21,26.2H4.2Zm0,21.2V29H20.9V60.8h-10A28.2,28.2,0,0,1,4.2,42.7Zm28,28a28.3,28.3,0,0,1-18.5-7h37A28.1,28.1,0,0,1,32.2,70.7Zm28-28a27.7,27.7,0,0,1-6.7,18.1h-10V29H60.2Zm0-16.5H43.5l-9.3-9.9L43.7,6.1,60.2,21.5Zm0-8.6L46.2,4.5h14Z" transform="translate(-1.4 -1.6)"/></svg>