<svg xmlns="http://www.w3.org/2000/svg" width="61" height="44">
    <path fill="#FBFBFB" fill-rule="evenodd" d="M60.755 25.765L46.662 43.684a.922.922 0 0 1-.643.311h-5.848c-1.542 0-2.33-1.149-1.761-2.567l6.413-15.974h-6.748c-1.541 0-2.791-1.237-2.791-2.762V2.766c0-1.525 1.25-2.762 2.791-2.762h20.134C59.75.004 61 1.241 61 2.766v22.293c0 .218-.11.534-.245.706zM11.378 43.684a.923.923 0 0 1-.644.311H4.887c-1.542 0-2.33-1.149-1.761-2.567l6.412-15.974H2.791C1.25 25.454 0 24.217 0 22.692V2.766C0 1.241 1.25.004 2.791.004h20.134c1.541 0 2.791 1.237 2.791 2.762v22.293c0 .218-.11.534-.245.706L11.378 43.684z"/>
</svg>
