<svg id="Layer_1" data-name="Layer 1" xmlns="http://www.w3.org/2000/svg" viewBox="0 0 91.7 32.3"><defs><style>.cls-1{opacity:0.5;}.cls-2{fill:#64eeb0;}</style></defs><title>graphic_zigzag_green</title><g class="cls-1"><polygon class="cls-2" points="12.8 32.3 0 20.3 3.1 17 12.8 26 24 15.5 35 25.8 45.8 15.6 56.7 25.9 67.6 15.5 78.9 26 88.5 17 91.7 20.3 78.9 32.3 67.7 21.8 56.7 32.2 45.8 21.9 34.9 32.1 24 21.8 12.8 32.3"/></g><g class="cls-1"><polygon class="cls-2" points="12.8 16.8 0 4.8 3.1 1.5 12.8 10.5 24 0 35 10.3 45.8 0.1 56.7 10.4 67.6 0 78.9 10.5 88.5 1.5 91.7 4.8 78.9 16.8 67.7 6.3 56.7 16.7 45.8 6.4 34.9 16.6 24 6.3 12.8 16.8"/></g></svg>